<svg xmlns="http://www.w3.org/2000/svg" fill="currentColor" stroke-width="3" viewBox="0 0 512 512">
    <path
        d="M68 31c8.127 7.52 10.358 14.883 11.125 25.625q.22 2.77.445 5.54c.06.808.12 1.617.18 2.45.263 2.507.733 4.92 1.25 7.385.442 3.888.577 7.039-1.5 10.5-3.533 2.12-6.485 2.417-10.5 1.5-4.795-3.785-5.285-9.253-6-15a643 643 0 0 1-.387-4.922l-.216-2.68a219 219 0 0 1-.349-5.353c-.333-4.378-.634-6.509-3.384-10.068-8.061-5.982-20.751-4.787-30.332-3.664-2.9.609-5.206 1.608-7.707 3.187-4.363 6.712-3.933 15.825-3.926 23.57l-.013 3.148a1433 1433 0 0 0-.002 6.58c.003 3.27-.02 6.538-.045 9.807-.103 33.727 5.831 64.668 22.223 94.24 4.124 7.572 6.414 14.411 6.45 23.093l.051 2.777c-1.023 9.257-5.094 17.192-9.238 25.41C28.196 249.363 28.196 249.363 25 266l2.867.594C43.641 270.074 58.044 276.25 71 286l2.824 2.117C98.364 307.353 112.148 336.401 116 367v9h48v-8c2.49-23.498 11.198-47.226 27-65 .59-.73 1.178-1.462 1.785-2.215 9.514-11.493 23.746-22.388 38.02-27.02 3.546-1.49 3.546-1.49 4.394-5.312q.292-2.096.488-4.203c.767-6.794 2.166-11.825 6.946-17.027C246.778 244 246.778 244 249 244l-.962-1.845a1628 1628 0 0 1-4.35-8.468l-1.514-2.9c-7.3-14.357-9.096-26.356-4.174-41.787 1.703-3.773 3.708-7.34 5.75-10.937C260.624 146.873 265.077 111.095 264 76l-.075-2.67a918 918 0 0 0-.3-8.455l-.093-2.622C263.282 56.916 262.635 52.1 261 47c-7.614-6.749-18.429-5.362-28-5-4.776.455-7.777 1.099-11.672 3.969-3.233 4.209-3.17 7.665-3.39 12.843-1.579 22.502-8.9 44.759-25.844 60.543C178.802 129.795 163.128 137.963 146 139l-2.598.16c-19.892.616-39.194-6.29-54.402-19.16-3.63-3.433-6.208-6.305-8-11 .563-3.812.563-3.812 2-7 3.843-2.562 5.434-2.674 10-2 2.949 2.03 5.425 4.522 8 7 11.372 10.226 25.97 15.697 41.293 15.238 16.306-1.435 32.094-7.992 42.746-20.664 9.694-12.543 14.466-26.084 15.619-41.754.827-11.21 1.706-19.605 10.092-27.757 10.996-8.785 27.933-8.172 41.313-6.86 9.6 1.281 15.67 4.3 22.25 11.235 15.823 24.027 7.2 76.198 1.804 102.5A734 734 0 0 1 275 144l-.526 2.352c-3.848 16.555-10.679 32.246-18.999 47.032-3.334 5.943-4.648 11.148-2.862 17.952 2.712 7.956 6.613 15.366 10.49 22.802 1.082 2.245 1.992 4.54 2.897 6.862 47.232 6.52 94.881 8.831 142.535 6.625l2.057-.093a320 320 0 0 0 8.813-.527c6.85-.415 6.85-.415 10.74 1.73 2.485 3.035 2.543 4.583 2.261 8.363C432 259 432 259 430.562 261.438c-13.696 8.351-42.708 3.765-58.187 3.75l-3.512-.002c-29.195-.041-57.889-1.854-86.9-5.034-2.955-.321-5.911-.627-8.868-.93a353 353 0 0 1-4.175-.467c-1.933-.228-3.87-.428-5.807-.626l-3.3-.369c-2.94-.01-2.94-.01-5.15 2.1-3.751 4.827-2.88 11.342-2.913 17.202l-.062 2.721c-.022 3.538-.014 6.417 1.328 9.713 3.041 2.305 6.309 2.848 9.984 3.504l2.59.488c23.19 4.118 46.932 5.972 70.41 7.512l.162-1.879.236-2.46.225-2.442C337 292 337 292 338.625 289.438c3.352-2.03 5.528-1.988 9.375-1.438 2.438 1.375 2.438 1.375 4 4v10h39v-10c1.563-2.625 1.563-2.625 4-4 3.854-.55 6.01-.642 9.313 1.5 2.303 3.413 2.88 6.469 3.687 10.5 11.065.284 21.825-.57 32.813-1.75l2.575-.272c10.765-1.146 21.524-2.35 32.237-3.916l3.027-.403c4.152-.656 6.902-1.371 10.47-3.67 2.705-4.304 2.501-7.886 2.315-12.864l-.017-2.645c-.097-5.147-.552-9.663-2.42-14.48-3.672-2.448-4.935-2.096-9.25-1.687l-3.762.308c-2.695.245-5.382.538-8.07.852l-3.98.402-3.66.43C457 260 457 260 454.104 257.695 452 255 452 255 451.375 252c.866-4.159 2.281-5.378 5.625-8 3.33-1.032 6.667-1.433 10.125-1.812l2.857-.348c2.67-.31 5.342-.583 8.018-.84l3.473-.355c7.63-.407 13.436 2.11 19.379 6.824 6.9 6.934 7.533 17.742 7.607 27.033l-.022 3.185.061 3.221c-.004 6.77-.842 12.29-4.498 18.092l-1.646 1.494c-1.537 1.404-1.537 1.404-1.51 3.388l.324 2.13.36 2.423c.824 4.484 1.791 8.929 2.784 13.377 2.006 9.29 3.607 18.59 4.938 28l.493 3.482c1.479 10.774 2.414 21.398 2.46 32.276l.017 3.271q.014 3.416.02 6.832c.01 3.395.04 6.788.072 10.182.057 11.287-.302 22.417-1.578 33.637l-.328 3.02c-1.677 13.174-6.266 23.314-16.304 32.066-6.846 4.632-13.717 6.525-21.79 8.047l-3.33.641c-14.034 2.606-27.964 3.866-42.232 3.984l-2.562.029c-11.82-.063-21.788-3.432-30.579-11.537C381.653 462.8 377.296 441.43 372 425c-2.127 3.19-3.218 6.303-4.39 9.906l-1.403 4.196q-1.09 3.278-2.165 6.561C358.67 462.037 353.004 475.808 337 484c-18.687 8.489-46.758 2.364-66.125-1.25l-3.087-.546c-11.709-2.335-21.69-7.66-28.44-17.65-5.101-8.954-6.195-18.487-7.348-28.554l-.268-2.19c-.788-6.951-.861-13.828-.83-20.818l.005-3.656c.005-3.82.018-7.64.03-11.461l.014-7.812q.017-9.532.049-19.063l-2.337 1.406c-5.82 3.456-11.52 6.747-17.85 9.156l-2.236.859c-6.634 2.433-13.403 4.223-20.264 5.892l-3.019.734c-14.848 3.429-29.252 4.329-44.419 4.265l-2.745-.005c-13.233-.045-26.171-.373-39.13-3.307l-2.421-.536c-30.297-6.905-61.884-20.875-79.079-48.089A234 234 0 0 1 14 335c-.48-.89-.96-1.781-1.453-2.7-1.353-2.725-2.482-5.45-3.547-8.3l-1.191-3.187C2.054 302.205 3.123 279.756 8 261l.538-2.233c3.492-14.274 9.562-27.061 16.229-40.108 3.856-8.312 4.125-14.753 1.185-23.253-1.563-3.95-3.63-7.58-5.702-11.281C3.993 154.019-.579 120.8-.336 86.963c.024-3.554.02-7.107.014-10.66.038-33.557.038-33.557 10.002-44.076C22.308 21.116 54.597 21.207 68 31M21 282c-.577 24.414 2.21 42.718 19.09 61.3C55.043 358.939 75.33 367.684 96 373h4c-1.547-22.325-9.346-43.001-24-60l-1.64-2.078C61.751 295.377 42.076 286.472 23 282zm186.457 26.41C190.915 325.92 182.507 349.395 180 373c16.674-1.02 34.272-9.752 47.938-19l1.773-1.147c4.527-3.24 5.208-6.706 6.289-11.853l.44-1.99a576 576 0 0 0 1.287-6.053l.462-2.217.953-4.595c.484-2.338.976-4.674 1.467-7.01l.93-4.49.445-2.1c.726-3.552 1.41-6.923 1.016-10.545-1.219-1.507-2.444-3.013-3.754-4.441-1.829-2.288-2.512-4.758-3.246-7.559-9.56 0-21.837 12.054-28.543 18.41M259 309c-4.687 12.86-6.69 26.545-9 40l-.565 3.29c-2.603 16.083-2.74 32.207-2.81 48.46l-.024 3.117c-.067 11.274.304 22.388 1.672 33.586l.327 2.812c1.122 8.202 3.353 16.249 10.193 21.462 15.718 9.068 38.77 9.26 56.457 9.523l2.547.065c7.33.039 14.172-1.453 19.785-6.585 6.985-8.523 9.94-20.464 13.293-30.793l1.57-4.755c3.607-10.975 6.981-22.008 10.056-33.145l.878-3.103.736-2.686c.965-2.45 1.785-3.67 3.885-5.248 6.145-.658 6.145-.658 8.631 1.256 1.575 2.006 2.12 3.56 2.771 6.021l.741 2.693.795 2.967c3.089 11.046 6.563 21.933 10.187 32.813l.768 2.326c5.342 19.838 5.342 19.838 18.107 34.674l2 1.234c16.486 8.372 47.882.87 64.836-3.824 7.172-2.63 11.379-6.553 15.164-13.16.827-2.718 1.275-5.442 1.688-8.25l.353-2.121c1.468-9.108 2.119-18.154 2.162-27.375l.022-3.032c.219-31.23.219-31.23-3.225-62.222l-.33-1.922c-3.21-19.32-3.21-19.32-8.67-38.078l-3.025.411c-23.62 3.196-47.207 5.793-70.975 7.589l.016 2.947q.026 5.488.039 10.975.008 2.361.02 4.722c.145 26.834.145 26.834-4.075 31.356-3.104 1.225-4.566 1.138-7.75.125C396 366 396 366 395 365a209 209 0 0 1-.062-8.094l.011-2.487c.016-3.52.044-7.04.072-10.56q.026-3.85.041-7.703l.026-2.368c.023-5.411-.482-10.334-1.088-15.788h-45c-.688 6.19-1.118 11.952-1.027 18.121l.037 5.08q.037 3.954.086 7.907c.03 2.567.048 5.134.064 7.7l.04 2.403c.01 1.93-.086 3.861-.2 5.789-2 2-2 2-4.094 2.266l-2.406-.016-2.406.016C337 367 337 367 335 365c-2.344-10.68-2.252-21.566-2.125-32.437q.016-2.283.027-4.565.034-5.499.098-10.998l-3.563-.304c-23.567-2.02-47.031-4.238-70.437-7.696" />
    <path
        d="M125.79 177.426c3.546.921 6.115 3.098 9.05 5.222 3.252 2.035 5.43 2.043 9.16 1.352 3.432-1.51 6.332-3.332 9-6 6.927-.67 6.927-.67 10.5 1.563 2.12 3.445 2.118 5.453 1.5 9.437-3.667 5.914-9.316 9.486-15.922 11.621-9.01 1.643-17.989.882-25.598-4.355-3.81-3.096-6.128-5.276-7.793-9.953.313-3.313.313-3.313 1.75-6.25 2.838-2.284 4.708-2.834 8.352-2.637M203 165.375c4.129.86 5.418 2.306 8 5.625.721 3.022.7 5.906.625 9l.059 2.406c-.036 4.32-.303 6.105-3.036 9.617C206 194 206 194 203 194.625c-4.129-.86-5.418-2.306-8-5.625-.721-3.022-.7-5.906-.625-9l-.059-2.406c.036-4.32.303-6.105 3.036-9.617C200 166 200 166 203 165.375M81 166c2.66 1.395 2.66 1.395 5 4 .752 3.345.698 6.585.625 10l.059 2.734c-.049 6.563-.049 6.563-3.032 9.864C80.431 194.3 78.597 194.536 75 194c-3.136-1.78-3.841-2.523-5-6-.148-2.64-.231-5.235-.25-7.875l-.062-2.145c-.034-4.524.505-7.396 3.312-10.98 2.853-1.427 4.835-1.31 8-1" />
</svg>