<?xml version="1.0" encoding="UTF-8"?>
<svg id="Capa_1" xmlns="http://www.w3.org/2000/svg" version="1.1" viewBox="0 0 59.8 17.1">
  <!-- Generator: Adobe Illustrator 29.8.1, SVG Export Plug-In . SVG Version: 2.1.1 Build 2)  -->
  <defs>
    <style>
      .st0ntblack {
        fill: #f4d52e;
      }

      .st1ntblack {
        fill: #1e1e1c;
      }
    </style>
  </defs>
  <path class="st0ntblack" d="M0,0h4.2v6H0V0ZM3.6.6H.6v4.8h3V.6Z"/>
  <path class="st1ntblack" d="M7,2.7h-.3c-.3-.5-.7-1-1-1.5h0v1.5h-.3V.6h.3c.3.5.7.9,1,1.5h0V.6h.3v2.1Z"/>
  <path class="st1ntblack" d="M7.7,1.9c0-.3.2-.5.2-.8h0c0,.3.2.6.2.8h-.5ZM7.8.6l-.7,2.1h.3l.2-.6h.6l.2.6h.4l-.7-2.1h-.3Z"/>
  <polygon class="st1ntblack" points="9.1 2.7 9.1 .9 8.5 .9 8.5 .6 10 .6 10 .9 9.4 .9 9.4 2.7 9.1 2.7"/>
  <rect class="st1ntblack" x="10.1" y=".6" width=".4" height="2.1"/>
  <path class="st1ntblack" d="M11.6,2.4c-.4,0-.5-.4-.5-.8s.1-.8.5-.8.5.4.5.8-.1.8-.5.8M11.6,2.7c.5,0,.9-.5.9-1.1s-.4-1-.9-1-.9.5-.9,1,.3,1.1.9,1.1"/>
  <path class="st1ntblack" d="M14.2,2.7h-.3c-.3-.5-.7-1-1-1.5h0v1.5h-.3V.6h.3c.3.5.7.9,1,1.5h0V.6h.3v2.1Z"/>
  <path class="st1ntblack" d="M14.9,1.9c0-.3.2-.5.2-.8h0c0,.3.2.6.2.8h-.5ZM15,.6l-.7,2.1h.3l.2-.6h.6l.2.6h.4l-.7-2.1h-.3Z"/>
  <polygon class="st1ntblack" points="16.1 .6 16.5 .6 16.5 2.4 17.2 2.4 17.2 2.7 16.1 2.7 16.1 .6"/>
  <path class="st1ntblack" d="M6.8,4.4v.9c-.2,0-.4.1-.6.1-.6,0-1-.5-1-1.1s.4-1.1,1-1.1.4,0,.5.2v.2c-.2,0-.4-.1-.5-.1-.4,0-.6.3-.6.8s.3.8.6.8.2,0,.3,0v-.6h.4Z"/>
  <polygon class="st1ntblack" points="8 3.6 7.4 3.6 7.4 4.1 8 4.1 8 4.4 7.4 4.4 7.4 5.1 8.1 5.1 8.1 5.4 7.1 5.4 7.1 3.3 8 3.3 8 3.6"/>
  <path class="st1ntblack" d="M9.1,5.1c-.4,0-.5-.4-.5-.8s.1-.7.5-.7.5.4.5.7-.1.8-.5.8M9.1,5.4c.5,0,.9-.5.9-1.1s-.4-1-.9-1-.9.5-.9,1,.3,1.1.9,1.1"/>
  <path class="st1ntblack" d="M11.7,4.4v.9c-.2,0-.4.1-.6.1-.6,0-1-.5-1-1.1s.4-1.1,1-1.1.4,0,.5.2v.2c-.2,0-.4-.1-.5-.1-.4,0-.6.3-.6.8s.3.8.6.8.2,0,.2,0v-.6h.4Z"/>
  <path class="st1ntblack" d="M12.4,3.6h.2c.2,0,.3.1.3.3s-.2.4-.3.4c0,0-.1,0-.1,0v-.8ZM13.3,5.4l-.4-.9c.2-.1.4-.4.4-.6,0-.4-.2-.6-.6-.6h-.6v2.1h.4v-.8h.2l.3.8h.4Z"/>
  <path class="st1ntblack" d="M13.9,4.6c0-.3.2-.5.2-.8h0c0,.3.2.6.2.8h-.5ZM14,3.3l-.7,2.1h.3l.2-.6h.6l.2.6h.4l-.7-2.1h-.3Z"/>
  <path class="st1ntblack" d="M15.5,5.4h-.4v-2.1h.6c.4,0,.6.2.6.6s-.3.7-.7.7h-.2v-.3s.1,0,.2,0c.2,0,.3-.1.3-.4s-.1-.3-.3-.3h-.2v1.8Z"/>
  <polygon class="st1ntblack" points="18 5.4 17.6 5.4 17.6 4.4 16.9 4.4 16.9 5.4 16.5 5.4 16.5 3.3 16.9 3.3 16.9 4.1 17.6 4.1 17.6 3.3 18 3.3 18 5.4"/>
  <rect class="st1ntblack" x="18.3" y="3.3" width=".4" height="2.1"/>
  <path class="st1ntblack" d="M20.3,3.7c0,0-.2-.1-.4-.1-.4,0-.6.3-.6.8s.3.8.6.8.3,0,.4-.1v.3c0,0-.2.1-.4.1-.6,0-1-.5-1-1.1s.4-1.1,1-1.1.4,0,.5.2v.3Z"/>
  <path class="st1ntblack" d="M38.1,15.2h-.6v-6.2c0-.9,0-1.3.2-1.7h0c0-.1-2.8-.1-2.8-.1h0c.1.5.2,1,.2,1.8v6.2c0,.9,0,1.3-.2,1.7h0c0,.1,5.3.1,5.3.1v-2.1h-.1c-.5.2-1.1.2-2,.2"/>
  <path class="st1ntblack" d="M0,9.4h.1c.4-.2.9-.3,1.7-.3h.3v6.2c0,.9,0,1.3-.2,1.7h0c0,.1,2.8.1,2.8.1h0c-.1-.5-.2-1-.2-1.8v-6.2h.3c.8,0,1.3,0,1.7.2h.1s0-2.1,0-2.1H0v2.1Z"/>
  <path class="st1ntblack" d="M59.7,16.9c-.2-.4-.4-.7-.5-1.9,0-1.6-.6-2.1-1.3-2.4,1.3-.4,1.3-2.3,1.3-2.6,0-.7-.4-1.6-.9-2-.6-.5-1.5-.7-2.9-.7h-2.8,0c.1.5.2,1,.2,1.8v6.2c0,.9,0,1.3-.2,1.7h0c0,.1,2.7.1,2.7.1h0c-.1-.5-.2-1-.2-1.8v-1.9h.3c1,0,1.3.5,1.4,1.5.2,1.5.3,1.8.5,2.2h0s2.5,0,2.5,0h0ZM55.1,9h.2c0,0,.1,0,.2,0,0,0,0,0,.1,0,.8,0,1.2.3,1.2,1.2,0,1.3-.5,1.4-1,1.4s-.1,0-.2,0c0,0,0,0-.1,0h-.4v-2.6Z"/>
  <path class="st1ntblack" d="M13.4,17.1h2.6,0c0-.5,0-1,.1-1.8l.2-.9h0c0-.1,2.5-.1,2.5-.1l.2,1c.2.8.2,1.3.1,1.7h0c0,.1,3,.1,3,.1h0c-.2-.5-.3-1-.5-1.7l-1.1-4c-.5-1.6-.8-3.2-.9-4.1h0c0,0-3.4,0-3.4,0h0c0,.8-.4,2.4-.9,4.2l-1.1,3.9h0c-.2.7-.3,1.1-.4,1.4h0s-.1.4-.1.4ZM18.6,12.8h-1.9v-.2s.8-2.3.8-2.3l.2-.8.9,3.1v.2Z"/>
  <path class="st1ntblack" d="M26,7.4c0,.4,0,.9-.1,1.7l-1.3,4.7-1.4-4.7c-.2-.8-.2-1.3-.1-1.7h0c0-.1-2.8-.1-2.8-.1h0c.2.5.3,1,.5,1.7l1.1,4c.5,1.8.8,3.4.9,4.1h0c0,0,3,0,3,0h0c0-.8.4-2.4.9-4.2l1.1-4c.2-.7.3-1.2.5-1.5h0c0-.1-2.5-.1-2.5-.1h0Z"/>
  <path class="st1ntblack" d="M34.3,15c-.5.1-1.1.2-2,.2h-.9v-2.2h.6c1,0,1.4,0,1.8.1h.1s0-2,0-2h-.1c-.4.1-.9.2-1.8.2h-.6v-2.1h.7c.9,0,1.5,0,2,.2h.1s0-2.1,0-2.1h-5.4,0c.1.5.2,1,.2,1.8v6.2c0,.9,0,1.4-.2,1.7h0c0,.1,5.6.1,5.6.1v-2.1h-.1Z"/>
  <path class="st1ntblack" d="M52.1,15c-.5.1-1.1.2-2,.2h-.9v-2.2h.6c1,0,1.4,0,1.8.1h.1s0-2,0-2h-.1c-.4.1-.9.2-1.8.2h-.6v-2.1h.7c.9,0,1.5,0,2,.2h.1s0-2.1,0-2.1h-5.4,0c.1.5.2,1,.2,1.8v6.2c0,.9,0,1.3-.2,1.7h0c0,.1,5.6.1,5.6.1v-2.1h-.1Z"/>
  <path class="st1ntblack" d="M13.9,16.9c-.2-.4-.4-.7-.5-1.9,0-1.6-.6-2.1-1.3-2.4,1.3-.4,1.3-2.3,1.3-2.6,0-.7-.4-1.6-.9-2-.6-.5-1.5-.7-2.9-.7h-2.8,0c.1.5.2,1,.2,1.8v6.2c0,.9,0,1.3-.2,1.7h0c0,.1,2.7.1,2.7.1h0c-.1-.5-.2-1-.2-1.8v-1.9h.3c1,0,1.3.5,1.4,1.5.2,1.5.3,1.8.5,2.2h0s2.5,0,2.5,0h0ZM9.4,9h.2c0,0,.1,0,.2,0,0,0,0,0,.1,0,.8,0,1.2.3,1.2,1.2,0,1.3-.5,1.4-1,1.4s-.1,0-.2,0c0,0,0,0-.1,0h-.4v-2.6Z"/>
  <path class="st1ntblack" d="M44,15.2h-.6v-6.2c0-.9,0-1.3.2-1.7h0c0-.1-2.8-.1-2.8-.1h0c.1.5.2,1,.2,1.8v6.2c0,.9,0,1.3-.2,1.7h0c0,.1,5.3.1,5.3.1v-2.1h-.1c-.5.2-1.1.2-2,.2"/>
</svg>