<?xml version="1.0" encoding="UTF-8"?>
<svg id="Capa_1" data-name="Capa 1" xmlns="http://www.w3.org/2000/svg" viewBox="0 0 170 142">
  <defs>
    <style>
      .cls-tbotb-1 {
        fill: #002b11;
      }

      .cls-tbotb-2 {
        stroke: #ffef0e;
        stroke-miterlimit: 10;
        stroke-width: 3px;
      }

      .cls-tbotb-2, .cls-tbotb-3 {
        fill: #ffef0e;
      }
    </style>
  </defs>
  <path class="cls-tbotb-3" d="M85,9.66c25.41,0,46.01,20.6,46.01,46.01,0,.3,0,.6-.01.9,0,.16.01.33.01.49v58.55c0,9.24-7.49,16.73-16.73,16.73h-58.55c-9.24,0-16.73-7.49-16.73-16.73v-58.55c0-.16,0-.33.01-.49,0-.3-.01-.6-.01-.9,0-25.41,20.6-46.01,46.01-46.01Z"/>
  <path class="cls-tbotb-1" d="M130.99,56.57l-1.39-.03v.03s0,.03,0,.03l1.39-.04ZM131.01,57.06h1.39-1.39ZM131.01,115.61h1.39-1.39ZM114.28,132.34v1.39h0v-1.39ZM55.72,132.34v1.39h0v-1.39ZM38.99,115.61h-1.39,1.39ZM38.99,57.06h-1.39,1.39ZM39.01,56.57l1.39.04v-.03s0-.03,0-.03l-1.39.03ZM85,9.66v1.39c24.64,0,44.61,19.97,44.61,44.61h2.79c0-26.18-21.22-47.4-47.4-47.4v1.39ZM131.01,55.66h-1.39c0,.28,0,.56-.01.87l1.39.03,1.39.03c0-.29.01-.61.01-.93h-1.39ZM130.99,56.57l-1.39.04c0,.21.01.31.01.45h2.79c0-.19-.01-.42-.01-.53l-1.39.04ZM131.01,57.06h-1.39v58.55h2.79v-58.55h-1.39ZM131.01,115.61h-1.39c0,8.47-6.87,15.34-15.34,15.34v2.79c10.01,0,18.12-8.11,18.12-18.12h-1.39ZM114.28,132.34v-1.39h-58.55v2.79h58.55v-1.39ZM55.72,132.34v-1.39c-8.47,0-15.34-6.87-15.34-15.34h-2.79c0,10.01,8.11,18.12,18.12,18.12v-1.39ZM38.99,115.61h1.39v-58.55h-2.79v58.55h1.39ZM38.99,57.06h1.39c0-.14,0-.27.01-.45l-1.39-.04-1.39-.04c0,.15-.01.34-.01.53h1.39ZM39.01,56.57l1.39-.03c0-.3-.01-.59-.01-.87h-2.79c0,.32,0,.63.01.93l1.39-.03ZM38.99,55.66h1.39c0-24.64,19.97-44.61,44.61-44.61v-2.79c-26.18,0-47.4,21.22-47.4,47.4h1.39Z"/>
  <g>
    <path class="cls-tbotb-1" d="M85,24.84c-15.28,0-27.66,12.39-27.66,27.66s12.39,27.66,27.66,27.66,27.66-12.39,27.66-27.66-12.39-27.66-27.66-27.66ZM85,77.08c-13.57,0-24.57-11-24.57-24.57s11-24.57,24.57-24.57,24.57,11,24.57,24.57-11,24.57-24.57,24.57ZM78.84,54.38c0,1.87-1.52,3.38-3.39,3.38s-3.38-1.51-3.38-3.38,1.51-3.39,3.38-3.39,3.39,1.52,3.39,3.39ZM97.93,54.38c0,1.87-1.52,3.38-3.39,3.38s-3.39-1.51-3.39-3.38,1.51-3.39,3.39-3.39,3.39,1.52,3.39,3.39ZM100.97,47.33l3.12-3.4h-6.92c-3.47-2.37-7.65-3.75-12.18-3.75s-8.7,1.38-12.16,3.75h-6.94l3.12,3.4c-1.91,1.74-3.11,4.26-3.11,7.05,0,5.27,4.27,9.54,9.54,9.54,2.51,0,4.78-.96,6.49-2.54l3.06,3.33,3.06-3.33c1.7,1.58,3.98,2.54,6.48,2.54,5.27,0,9.55-4.27,9.55-9.54,0-2.8-1.2-5.31-3.12-7.05ZM75.45,60.84c-3.57,0-6.46-2.89-6.46-6.46s2.89-6.46,6.46-6.46,6.46,2.89,6.46,6.46-2.89,6.46-6.46,6.46ZM85,54.19c0-4.25-3.09-7.9-7.17-9.46,2.21-.92,4.63-1.43,7.17-1.43s4.96.51,7.17,1.43c-4.08,1.56-7.17,5.21-7.17,9.46ZM94.54,60.84c-3.57,0-6.46-2.89-6.46-6.46s2.89-6.46,6.46-6.46,6.46,2.89,6.46,6.46-2.89,6.46-6.46,6.46Z"/>
    <path class="cls-tbotb-1" d="M63.11,74.66s-1.4-3.52-5.19-7.07c-3.79-3.56-8.56-4.21-8.56-4.21,0,0,1.7,3.79,5.73,7.58,4.03,3.78,8.02,3.7,8.02,3.7Z"/>
    <path class="cls-tbotb-1" d="M72.66,79.9s-1.95-1.9-5.5-3.28c-3.55-1.38-6.92-.71-6.92-.71,0,0,2.22,2.01,6.01,3.48,3.78,1.48,6.41.51,6.41.51Z"/>
    <path class="cls-tbotb-1" d="M81.93,81.78s-2.02-.83-5.04-.73c-3.02.1-5.26,1.75-5.26,1.75,0,0,2.26.83,5.48.72,3.22-.11,4.83-1.74,4.83-1.74Z"/>
    <path class="cls-tbotb-1" d="M58.93,66.16s-.65-3.75-3.62-8.01c-2.97-4.26-7.49-5.86-7.49-5.86,0,0,.88,4.08,4.05,8.62,3.16,4.54,7.07,5.25,7.07,5.25Z"/>
    <path class="cls-tbotb-1" d="M55.2,54.74s.73-3.8-.5-8.89c-1.22-5.1-4.81-8.21-4.81-8.21,0,0-.63,4.19.67,9.62,1.3,5.43,4.64,7.49,4.64,7.49Z"/>
    <path class="cls-tbotb-1" d="M106.89,74.66s1.4-3.52,5.19-7.07c3.79-3.56,8.56-4.21,8.56-4.21,0,0-1.7,3.79-5.73,7.58-4.03,3.78-8.02,3.7-8.02,3.7Z"/>
    <path class="cls-tbotb-1" d="M97.34,79.9s1.95-1.9,5.5-3.28c3.55-1.38,6.92-.71,6.92-.71,0,0-2.22,2.01-6.01,3.48-3.78,1.48-6.41.51-6.41.51Z"/>
    <path class="cls-tbotb-1" d="M88.07,81.78s2.02-.83,5.04-.73c3.02.1,5.26,1.75,5.26,1.75,0,0-2.26.83-5.48.72-3.22-.11-4.83-1.74-4.83-1.74Z"/>
    <path class="cls-tbotb-1" d="M111.07,66.16s.65-3.75,3.62-8.01c2.97-4.26,7.49-5.86,7.49-5.86,0,0-.88,4.08-4.05,8.62-3.16,4.54-7.07,5.25-7.07,5.25Z"/>
    <path class="cls-tbotb-1" d="M114.8,54.74s-.73-3.8.5-8.89c1.22-5.1,4.81-8.21,4.81-8.21,0,0,.63,4.19-.67,9.62-1.3,5.43-4.63,7.49-4.63,7.49Z"/>
    <path class="cls-tbotb-1" d="M85,84.67c.85,0,1.54-.69,1.54-1.54s-.69-1.54-1.54-1.54-1.54.69-1.54,1.54.69,1.54,1.54,1.54Z"/>
  </g>
  <g>
    <path class="cls-tbotb-1" d="M47.42,103.21v-4.5h-1.14v-1.3h3.76v1.3h-1.14v4.5h-1.48Z"/>
    <path class="cls-tbotb-1" d="M50.58,103.21v-5.8h1.3v1.85c.22-.37.6-.55,1.14-.55.61,0,1.04.21,1.29.62.2.32.3.8.3,1.45v2.43h-1.3v-2.37c0-.28-.04-.49-.13-.63-.12-.18-.31-.27-.56-.27-.31,0-.52.12-.63.35-.06.12-.09.29-.09.51v2.41h-1.3Z"/>
    <path class="cls-tbotb-1" d="M59.83,101.49h-3.23c.03.23.13.42.33.56.19.14.42.21.68.21.34,0,.6-.14.79-.41h1.33c-.21.48-.5.85-.88,1.11-.37.26-.78.39-1.24.39-.63,0-1.17-.22-1.62-.67s-.68-.99-.68-1.63.22-1.17.65-1.63c.44-.47.98-.7,1.62-.7s1.21.23,1.64.69c.51.55.72,1.24.61,2.08ZM56.61,100.5h1.94c-.02-.15-.11-.3-.28-.45-.16-.16-.4-.24-.69-.24s-.53.08-.69.24c-.17.16-.26.31-.28.45Z"/>
    <path class="cls-tbotb-1" d="M63.06,103.21v-5.8h2.13c.6,0,1.07.13,1.4.39.34.26.52.63.52,1.13,0,.52-.22.91-.67,1.17.64.22.96.67.96,1.35,0,.24-.05.47-.14.7-.09.23-.22.42-.4.56-.26.21-.51.35-.75.41-.25.06-.63.09-1.14.09h-1.9ZM64.54,98.71v.9h.52c.17,0,.3-.02.39-.05.16-.07.24-.21.24-.41s-.08-.32-.23-.38c-.08-.04-.22-.05-.4-.05h-.52ZM64.54,100.85v1.06h.7c.19,0,.33-.02.44-.07.2-.08.3-.25.3-.49,0-.22-.09-.37-.28-.44-.1-.04-.25-.06-.45-.06h-.7Z"/>
    <path class="cls-tbotb-1" d="M72.38,101.49h-3.23c.03.23.13.42.33.56.19.14.42.21.68.21.34,0,.6-.14.79-.41h1.33c-.21.48-.5.85-.88,1.11-.37.26-.78.39-1.24.39-.63,0-1.17-.22-1.62-.67s-.68-.99-.68-1.63.22-1.17.65-1.63c.44-.47.98-.7,1.62-.7s1.21.23,1.64.69c.51.55.72,1.24.61,2.08ZM69.16,100.5h1.94c-.02-.15-.11-.3-.28-.45-.16-.16-.4-.24-.69-.24s-.53.08-.69.24c-.17.16-.26.31-.28.45Z"/>
    <path class="cls-tbotb-1" d="M76.26,100.08h-1.28s-.01-.07-.02-.09c0-.03-.02-.06-.04-.1-.02-.04-.07-.08-.13-.1-.06-.02-.13-.04-.22-.04-.13,0-.22.03-.28.09s-.09.13-.09.2c0,.16.22.3.67.43.2.05.35.1.45.13.1.03.23.09.39.17.16.08.28.16.36.24.08.09.15.2.22.34.07.14.1.3.1.49,0,.46-.17.83-.51,1.11-.34.27-.76.41-1.26.41-.18,0-.36-.02-.54-.07-.18-.04-.36-.12-.54-.22-.18-.1-.33-.25-.46-.45-.12-.2-.2-.43-.23-.71h1.29c.04.27.2.4.49.4.12,0,.23-.03.32-.09.09-.06.14-.14.14-.24,0-.04,0-.08-.02-.11-.01-.03-.03-.07-.07-.09-.03-.03-.07-.05-.11-.07-.04-.02-.09-.05-.17-.08s-.14-.06-.2-.08c-.06-.02-.15-.05-.27-.1-.12-.04-.23-.08-.33-.12-.31-.1-.56-.24-.75-.43s-.29-.42-.29-.7c0-.44.16-.79.49-1.06s.73-.41,1.19-.41c.17,0,.33.02.49.06s.33.1.51.2c.18.09.33.23.45.42.12.19.19.42.22.69Z"/>
    <path class="cls-tbotb-1" d="M77.3,103.21v-3.36h-.64v-.99h.64v-1.45h1.3v1.45h.63v.99h-.63v3.36h-1.3Z"/>
    <path class="cls-tbotb-1" d="M82.01,101.03h0c0-.28.05-.55.15-.82.1-.27.24-.51.43-.74.19-.23.43-.41.74-.55.31-.14.65-.21,1.03-.21s.72.07,1.03.21c.31.14.55.32.74.55.19.23.33.47.43.74.1.27.15.54.15.82s-.05.55-.15.81c-.1.27-.24.51-.43.74-.19.23-.43.41-.74.55-.31.14-.65.21-1.03.21s-.72-.07-1.03-.21c-.31-.14-.55-.32-.74-.55-.19-.23-.33-.47-.43-.74-.1-.27-.15-.54-.15-.81ZM83.31,101.03h0c0,.32.1.57.31.78.2.21.45.31.74.31s.53-.1.74-.31c.2-.21.31-.47.31-.78s-.1-.58-.31-.78c-.2-.21-.45-.31-.74-.31s-.53.1-.74.31c-.2.21-.31.47-.31.78Z"/>
    <path class="cls-tbotb-1" d="M87.48,103.21v-3.36h-.49v-.99h.49v-.19c0-.25.04-.46.11-.63.07-.17.16-.31.27-.4.11-.09.25-.17.43-.22.18-.05.34-.09.49-.1.15-.01.33-.02.55-.02v.98c-.12,0-.2,0-.26.01-.06,0-.12.04-.19.11s-.1.16-.1.29v.16h.55v.99h-.55v3.36h-1.3Z"/>
    <path class="cls-tbotb-1" d="M92.57,103.21v-3.36h-.64v-.99h.64v-1.45h1.3v1.45h.63v.99h-.63v3.36h-1.3Z"/>
    <path class="cls-tbotb-1" d="M95.06,103.21v-5.8h1.3v1.85c.22-.37.6-.55,1.14-.55.61,0,1.04.21,1.29.62.2.32.3.8.3,1.45v2.43h-1.3v-2.37c0-.28-.04-.49-.13-.63-.12-.18-.31-.27-.56-.27-.31,0-.52.12-.63.35-.06.12-.09.29-.09.51v2.41h-1.3Z"/>
    <path class="cls-tbotb-1" d="M104.31,101.49h-3.23c.03.23.13.42.33.56.19.14.42.21.68.21.34,0,.6-.14.79-.41h1.33c-.21.48-.5.85-.88,1.11-.37.26-.78.39-1.24.39-.63,0-1.17-.22-1.62-.67s-.68-.99-.68-1.63.22-1.17.65-1.63c.44-.47.98-.7,1.62-.7s1.21.23,1.64.69c.51.55.72,1.24.61,2.08ZM101.09,100.5h1.94c-.02-.15-.11-.3-.28-.45-.16-.16-.4-.24-.69-.24s-.53.08-.69.24c-.17.16-.26.31-.28.45Z"/>
    <path class="cls-tbotb-1" d="M107.54,103.21v-5.8h2.13c.6,0,1.07.13,1.4.39.34.26.52.63.52,1.13,0,.52-.22.91-.67,1.17.64.22.96.67.96,1.35,0,.24-.05.47-.14.7-.09.23-.22.42-.4.56-.26.21-.51.35-.75.41-.25.06-.63.09-1.14.09h-1.9ZM109.02,98.71v.9h.52c.17,0,.3-.02.39-.05.16-.07.24-.21.24-.41s-.08-.32-.23-.38c-.08-.04-.22-.05-.4-.05h-.52ZM109.02,100.85v1.06h.7c.19,0,.33-.02.44-.07.2-.08.3-.25.3-.49,0-.22-.09-.37-.28-.44-.1-.04-.25-.06-.45-.06h-.7Z"/>
    <path class="cls-tbotb-1" d="M116.85,101.49h-3.23c.03.23.13.42.33.56.19.14.42.21.68.21.34,0,.6-.14.79-.41h1.33c-.21.48-.5.85-.88,1.11-.37.26-.78.39-1.24.39-.63,0-1.17-.22-1.62-.67s-.68-.99-.68-1.63.22-1.17.65-1.63c.44-.47.98-.7,1.62-.7s1.21.23,1.64.69c.51.55.72,1.24.61,2.08ZM113.63,100.5h1.94c-.02-.15-.11-.3-.28-.45-.16-.16-.4-.24-.69-.24s-.53.08-.69.24c-.17.16-.26.31-.28.45Z"/>
    <path class="cls-tbotb-1" d="M120.74,100.08h-1.28s-.01-.07-.02-.09c0-.03-.02-.06-.04-.1-.02-.04-.07-.08-.13-.1-.06-.02-.13-.04-.22-.04-.13,0-.22.03-.28.09s-.09.13-.09.2c0,.16.22.3.67.43.2.05.35.1.45.13.1.03.23.09.39.17.16.08.28.16.36.24.08.09.15.2.22.34.07.14.1.3.1.49,0,.46-.17.83-.51,1.11-.34.27-.76.41-1.26.41-.18,0-.36-.02-.54-.07-.18-.04-.36-.12-.54-.22-.18-.1-.33-.25-.46-.45-.12-.2-.2-.43-.23-.71h1.29c.04.27.2.4.49.4.12,0,.23-.03.32-.09.09-.06.14-.14.14-.24,0-.04,0-.08-.02-.11-.01-.03-.03-.07-.07-.09-.03-.03-.07-.05-.11-.07-.04-.02-.09-.05-.17-.08s-.14-.06-.2-.08c-.06-.02-.15-.05-.27-.1-.12-.04-.23-.08-.33-.12-.31-.1-.56-.24-.75-.43s-.29-.42-.29-.7c0-.44.16-.79.49-1.06s.73-.41,1.19-.41c.17,0,.33.02.49.06s.33.1.51.2c.18.09.33.23.45.42.12.19.19.42.22.69Z"/>
    <path class="cls-tbotb-1" d="M121.78,103.21v-3.36h-.64v-.99h.64v-1.45h1.3v1.45h.63v.99h-.63v3.36h-1.3Z"/>
  </g>
  <g>
    <path class="cls-tbotb-1" d="M62.8,94.78l-2.36-9.16h2.38l1.25,5.95,1.35-5.95h1.79l1.35,5.98,1.25-5.98h2.36l-2.42,9.16h-2.05l-1.4-5.93-1.37,5.93h-2.12Z"/>
    <path class="cls-tbotb-1" d="M73.2,94.78v-9.16h2.34v9.16h-2.34Z"/>
    <path class="cls-tbotb-1" d="M79.21,85.63l3.51,5.58-.05-5.58h2.24v9.16h-2.03l-3.5-5.52.05,5.52h-2.24v-9.16h2.02Z"/>
    <path class="cls-tbotb-1" d="M88.6,85.63l3.51,5.58-.05-5.58h2.24v9.16h-2.03l-3.5-5.52.05,5.52h-2.24v-9.16h2.02Z"/>
    <path class="cls-tbotb-1" d="M95.98,94.78v-9.16h5.18v2.05h-2.85v1.42h2.76v2.05h-2.76v1.57h2.85v2.05h-5.18Z"/>
    <path class="cls-tbotb-1" d="M102.51,94.78v-9.16h2.99c1.33,0,2.27.22,2.83.66.74.58,1.11,1.41,1.11,2.5,0,.63-.15,1.18-.46,1.66-.27.43-.67.75-1.19.98l1.89,3.37h-2.41l-2.39-4.42h.38c.68,0,1.15-.08,1.41-.25.15-.1.27-.25.37-.45.1-.2.15-.43.15-.67,0-.48-.18-.83-.54-1.06-.26-.16-.58-.25-.95-.25h-.87v7.1h-2.34Z"/>
  </g>
  <g>
    <g>
      <path class="cls-tbotb-2" d="M28.05,116.08h0c-.28-.29-.6-.54-.97-.73-.35-.19-.69-.32-1.02-.4-.77-.18-1.46-.14-2.19.09-.42.13-.83.34-1.23.62-.45.31-.82.75-1.09,1.31-.04.08-.07.16-.1.24-.16-.51-.44-.97-.84-1.38-.66-.66-1.56-1-2.67-1-.32,0-.64.03-.96.1-.35.07-.74.23-1.18.48-.47.27-.85.63-1.14,1.08-.18.27-.32.58-.42.91-.1.32-.15.57-.17.77-.02.16-.03.39-.04.68l-.02.73h3.34c-.18.17-.39.36-.65.57-1.03.87-1.81,1.53-2.33,1.97l-.26.21v2.77h7.55v-1.78c.13.24.29.46.46.65.28.3.61.55.97.75.35.19.7.34,1.04.42.34.08.68.13,1.01.13.43,0,.87-.07,1.31-.22.43-.15.84-.37,1.23-.66.42-.32.76-.76,1.01-1.31.25-.54.37-1.15.37-1.82v-2.42c0-.58-.09-1.11-.28-1.58-.19-.48-.43-.87-.73-1.18Z"/>
      <polygon class="cls-tbotb-2" points="29.23 118.29 30.65 118.29 30.65 125.11 34.29 125.11 34.29 115 29.23 115 29.23 118.29"/>
      <path class="cls-tbotb-2" d="M41.39,115.19h0c-.56-.24-1.17-.36-1.82-.36-1.12,0-2.09.38-2.88,1.12-.8.75-1.2,1.73-1.2,2.9,0,.76.18,1.43.53,2.01.35.57.79,1,1.31,1.26.23.12.47.21.71.27l-1.98,2.71h4.35l2.38-3.49c.61-.93.91-1.85.91-2.71,0-1.06-.3-1.95-.9-2.63-.36-.47-.84-.83-1.42-1.08Z"/>
      <path class="cls-tbotb-2" d="M155.03,120.42v-5.42h-3.15l-4.22,6.02v.79h-1.23l.23-.21h0c.61-.56,1.03-1.08,1.28-1.59.25-.52.38-1.12.38-1.77,0-.94-.33-1.74-.99-2.4-.66-.66-1.56-.99-2.67-.99-.32,0-.64.03-.96.1-.35.07-.74.23-1.18.48-.47.27-.85.63-1.14,1.08-.15.24-.28.51-.37.8,0,0,0-.02,0-.03-.19-.48-.43-.87-.73-1.18h0c-.28-.29-.6-.54-.97-.73-.35-.19-.69-.32-1.02-.4-.77-.18-1.46-.14-2.19.09-.42.13-.83.34-1.23.62-.45.31-.82.75-1.09,1.31-.04.08-.07.16-.1.24-.16-.51-.44-.97-.84-1.38-.66-.66-1.56-1-2.67-1-.32,0-.64.03-.96.1-.35.07-.74.23-1.18.48-.47.27-.85.63-1.14,1.08-.18.27-.32.58-.42.91-.1.32-.15.57-.17.77-.02.16-.03.39-.04.68l-.02.73h3.34c-.18.17-.39.36-.65.57-1.03.87-1.81,1.53-2.33,1.97l-.26.21v2.77h7.55v-1.78c.13.24.29.46.46.65.28.3.61.55.97.75.35.19.7.34,1.04.42.34.08.68.13,1.01.13.43,0,.87-.07,1.31-.22.43-.15.84-.37,1.23-.66.38-.29.69-.69.94-1.17v1.89h7.55v-1.52h3.1v1.52h3.55v-1.52h.96v-3.16h-.96Z"/>
      <path class="cls-tbotb-3" d="M61.63,121.54h0c1.44-1.32,2.46-2.57,3.02-3.74.57-1.18.87-2.54.87-4.04,0-2.09-.75-3.89-2.22-5.36-1.47-1.47-3.51-2.22-6.05-2.22-.74,0-1.49.08-2.24.22-.78.16-1.66.52-2.67,1.1-1.03.59-1.88,1.4-2.52,2.39-.39.61-.71,1.3-.94,2.05-.23.74-.36,1.32-.4,1.75-.04.41-.07.95-.09,1.66l-.02.73h6.83v-.7c.06-2.81,1.16-2.81,1.58-2.81.53,0,.94.14,1.23.42.28.27.42.73.42,1.36,0,.95-.24,1.72-.74,2.37-.55.72-1.52,1.66-2.88,2.78-2.64,2.24-4.62,3.91-5.96,5.03l-.26.21v5.45h17.08v-6.19h-6.76c.75-.69,1.66-1.51,2.72-2.48Z"/>
      <path class="cls-tbotb-3" d="M82.31,109.02h0c-.64-.66-1.38-1.22-2.2-1.66-.81-.44-1.6-.75-2.33-.92-.73-.17-1.44-.26-2.11-.26-.95,0-1.92.16-2.89.47-.96.31-1.93.79-2.87,1.44-.99.68-1.8,1.66-2.41,2.91-.6,1.24-.91,2.69-.91,4.31v6.18c0,1.28.2,2.47.6,3.52.4,1.06.93,1.95,1.59,2.65.64.68,1.38,1.26,2.2,1.71.81.45,1.61.77,2.39.97.77.19,1.55.29,2.3.29.99,0,2-.17,2.99-.5.99-.33,1.94-.84,2.83-1.52.92-.7,1.67-1.68,2.24-2.93.56-1.23.84-2.64.84-4.19v-6.18c0-1.34-.21-2.57-.63-3.65-.42-1.08-.97-1.97-1.62-2.65Z"/>
      <path class="cls-tbotb-3" d="M98.69,121.54h0c1.44-1.32,2.46-2.57,3.02-3.74.57-1.18.87-2.54.87-4.04,0-2.09-.75-3.89-2.22-5.36-1.47-1.47-3.51-2.22-6.05-2.22-.74,0-1.49.08-2.24.22-.78.16-1.66.52-2.67,1.1-1.03.59-1.88,1.4-2.52,2.39-.39.61-.71,1.3-.94,2.05-.23.74-.36,1.32-.4,1.75-.04.41-.07.95-.09,1.66l-.02.73h6.83v-.7c.06-2.81,1.16-2.81,1.58-2.81.53,0,.94.14,1.23.42.28.27.42.73.42,1.36,0,.95-.24,1.72-.74,2.37-.55.72-1.52,1.66-2.88,2.78-2.64,2.24-4.62,3.91-5.96,5.03l-.26.21v5.45h17.08v-6.19h-6.76c.75-.69,1.66-1.51,2.72-2.48Z"/>
      <path class="cls-tbotb-3" d="M119.96,116.6h0c-.64-.85-1.51-1.55-2.6-2.07-1.08-.52-2.31-.79-3.65-.79-.77,0-1.47.09-2.1.25l.19-1.2h8.02v-6.19h-13.59l-2.11,13.81,5.8,1.44.24-.55c.44-1.02,1.16-1.49,2.25-1.49.74,0,1.29.21,1.7.64.42.45.62.96.62,1.55s-.22,1.12-.67,1.56c-.46.45-.98.66-1.61.66-.83,0-1.49-.36-2.03-1.09l-.21-.29h-6.91l.16.84c.37,2,1.38,3.68,3.01,5,1.62,1.31,3.69,1.97,6.14,1.97,1.52,0,2.9-.28,4.12-.84,1.22-.56,2.21-1.3,2.94-2.19.71-.87,1.25-1.8,1.61-2.78.37-.99.55-1.98.55-2.96,0-.87-.16-1.78-.47-2.69-.31-.91-.78-1.78-1.39-2.59Z"/>
    </g>
    <g>
      <g>
        <g>
          <path class="cls-tbotb-1" d="M14.82,124.39v-1.72c.52-.44,1.3-1.09,2.33-1.97.55-.45.94-.83,1.17-1.13s.35-.67.35-1.1c0-.33-.08-.57-.25-.73s-.39-.24-.67-.24c-.58,0-.88.46-.89,1.37h-2.11c0-.27.02-.47.04-.63.02-.15.06-.36.15-.63s.19-.51.33-.73c.23-.35.52-.63.89-.84.37-.21.69-.34.96-.4s.55-.08.82-.08c.92,0,1.65.26,2.17.79s.79,1.16.79,1.9c0,.55-.1,1.03-.31,1.46-.21.43-.58.89-1.12,1.38-.7.64-1.24,1.13-1.59,1.45h3.08v1.87h-6.12Z"/>
          <path class="cls-tbotb-1" d="M21.86,121.26v-2.42c0-.59.11-1.12.33-1.57.22-.45.5-.79.85-1.03.35-.24.7-.42,1.05-.53.35-.11.7-.17,1.04-.17.24,0,.5.03.76.09.27.06.55.17.84.33.3.16.56.36.79.6s.42.55.58.94c.15.39.23.83.23,1.33v2.42c0,.57-.1,1.08-.3,1.52-.2.45-.47.79-.79,1.04-.33.25-.67.43-1.03.55-.36.12-.72.18-1.08.18-.27,0-.55-.04-.83-.11s-.57-.19-.87-.35-.56-.37-.79-.62-.42-.56-.56-.94c-.15-.38-.22-.81-.22-1.28ZM24.08,118.79v2.53c0,.34.07.64.22.9s.41.39.8.39c.68,0,1.02-.43,1.02-1.29v-2.53c0-.86-.34-1.29-1.02-1.29-.27,0-.49.08-.65.24s-.26.33-.3.5-.06.36-.06.55Z"/>
          <path class="cls-tbotb-1" d="M31.36,124.39v-6.82h-1.42v-1.87h3.64v8.68h-2.22Z"/>
          <path class="cls-tbotb-1" d="M40.04,124.39h-2.57l1.57-2.15s.09-.11.16-.22.14-.19.18-.25h-.08s-.11.01-.18.02-.13,0-.18,0c-.45,0-.87-.1-1.27-.31-.4-.21-.75-.54-1.03-1-.29-.46-.43-1-.43-1.63,0-.97.33-1.76.98-2.38.65-.62,1.45-.93,2.39-.93.55,0,1.07.1,1.54.3.47.2.85.49,1.14.87.49.56.74,1.28.74,2.18,0,.73-.27,1.5-.8,2.32l-2.16,3.17ZM40.82,118.69h0c0-.38-.12-.67-.36-.88-.24-.21-.52-.32-.83-.32-.33,0-.61.11-.84.33-.23.22-.35.5-.35.83,0,.3.11.58.32.82.21.24.51.36.87.36s.64-.11.86-.34c.22-.23.33-.5.33-.81Z"/>
        </g>
        <g>
          <path class="cls-tbotb-1" d="M127.04,124.39v-1.72c.52-.44,1.3-1.09,2.33-1.97.55-.45.94-.83,1.17-1.13s.35-.67.35-1.1c0-.33-.08-.57-.25-.73s-.39-.24-.67-.24c-.58,0-.88.46-.89,1.37h-2.11c0-.27.02-.47.04-.63.02-.15.06-.36.15-.63s.19-.51.33-.73c.23-.35.52-.63.89-.84.37-.21.69-.34.96-.4s.55-.08.82-.08c.92,0,1.65.26,2.17.79s.79,1.16.79,1.9c0,.55-.1,1.03-.31,1.46-.21.43-.58.89-1.12,1.38-.7.64-1.24,1.13-1.59,1.45h3.08v1.87h-6.12Z"/>
          <path class="cls-tbotb-1" d="M134.08,121.26v-2.42c0-.59.11-1.12.33-1.57.22-.45.5-.79.85-1.03.35-.24.7-.42,1.05-.53.35-.11.7-.17,1.04-.17.24,0,.5.03.76.09.27.06.55.17.84.33.3.16.56.36.79.6s.42.55.58.94c.15.39.23.83.23,1.33v2.42c0,.57-.1,1.08-.3,1.52-.2.45-.47.79-.79,1.04-.33.25-.67.43-1.03.55-.36.12-.72.18-1.08.18-.27,0-.55-.04-.83-.11s-.57-.19-.87-.35-.56-.37-.79-.62-.42-.56-.56-.94c-.15-.38-.22-.81-.22-1.28ZM136.3,118.79v2.53c0,.34.07.64.22.9s.41.39.8.39c.68,0,1.02-.43,1.02-1.29v-2.53c0-.86-.34-1.29-1.02-1.29-.27,0-.49.08-.65.24s-.26.33-.3.5-.06.36-.06.55Z"/>
          <path class="cls-tbotb-1" d="M141.54,124.39v-1.72c.52-.44,1.3-1.09,2.33-1.97.55-.45.94-.83,1.17-1.13s.35-.67.35-1.1c0-.33-.08-.57-.25-.73s-.39-.24-.67-.24c-.58,0-.88.46-.89,1.37h-2.11c0-.27.02-.47.04-.63.02-.15.06-.36.15-.63s.19-.51.33-.73c.23-.35.52-.63.89-.84.37-.21.69-.34.96-.4s.55-.08.82-.08c.92,0,1.65.26,2.17.79s.79,1.16.79,1.9c0,.55-.1,1.03-.31,1.46-.21.43-.58.89-1.12,1.38-.7.64-1.24,1.13-1.59,1.45h3.08v1.87h-6.12Z"/>
          <path class="cls-tbotb-1" d="M152.19,124.39v-1.53h-3.82v-1.62l3.88-5.54h2.06v5.42h.96v1.74h-.96v1.53h-2.12ZM150.6,121.13h1.74v-2.72l-1.74,2.72Z"/>
        </g>
      </g>
      <g>
        <path class="cls-tbotb-1" d="M49.31,129.49v-4.41c1.34-1.12,3.33-2.8,5.97-5.04,1.4-1.16,2.39-2.12,2.98-2.89.59-.77.88-1.7.88-2.8,0-.84-.21-1.46-.64-1.87-.43-.41-1-.62-1.72-.62-1.48,0-2.24,1.17-2.28,3.51h-5.4c.02-.68.05-1.21.09-1.6s.17-.93.38-1.62.49-1.31.85-1.87c.58-.9,1.34-1.62,2.28-2.16s1.76-.88,2.46-1.02c.7-.14,1.4-.21,2.1-.21,2.36,0,4.21.67,5.55,2.01,1.34,1.34,2.01,2.96,2.01,4.86,0,1.4-.27,2.64-.79,3.73-.53,1.09-1.48,2.26-2.86,3.52-1.8,1.64-3.16,2.88-4.08,3.72h7.88v4.77h-15.65Z"/>
        <path class="cls-tbotb-1" d="M67.3,121.49v-6.18c0-1.52.28-2.85.84-4,.56-1.15,1.28-2.03,2.17-2.64.89-.61,1.78-1.06,2.68-1.35.9-.29,1.79-.43,2.67-.43.62,0,1.27.08,1.95.24.68.16,1.4.45,2.16.85.76.41,1.43.92,2.02,1.53.59.61,1.08,1.41,1.47,2.41s.58,2.13.58,3.39v6.18c0,1.46-.26,2.76-.78,3.9-.52,1.14-1.19,2.02-2.02,2.65-.83.63-1.7,1.1-2.62,1.41-.92.31-1.84.46-2.76.46-.7,0-1.41-.09-2.13-.27-.72-.18-1.46-.48-2.22-.9-.76-.42-1.43-.95-2.02-1.57-.59-.63-1.07-1.43-1.44-2.41-.37-.98-.55-2.07-.55-3.27ZM72.96,115.16v6.48c0,.86.19,1.62.57,2.29.38.67,1.06,1,2.04,1,1.74,0,2.61-1.1,2.61-3.3v-6.48c0-2.2-.87-3.3-2.61-3.3-.7,0-1.25.21-1.66.62-.41.41-.67.83-.78,1.27s-.17.91-.17,1.41Z"/>
        <path class="cls-tbotb-1" d="M86.36,129.49v-4.41c1.34-1.12,3.33-2.8,5.97-5.04,1.4-1.16,2.39-2.12,2.98-2.89.59-.77.88-1.7.88-2.8,0-.84-.21-1.46-.64-1.87-.43-.41-1-.62-1.72-.62-1.48,0-2.24,1.17-2.28,3.51h-5.4c.02-.68.05-1.21.09-1.6s.17-.93.38-1.62.49-1.31.85-1.87c.58-.9,1.34-1.62,2.28-2.16s1.76-.88,2.46-1.02c.7-.14,1.4-.21,2.1-.21,2.36,0,4.21.67,5.55,2.01,1.34,1.34,2.01,2.96,2.01,4.86,0,1.4-.27,2.64-.79,3.73-.53,1.09-1.48,2.26-2.86,3.52-1.8,1.64-3.16,2.88-4.08,3.72h7.88v4.77h-15.65Z"/>
        <path class="cls-tbotb-1" d="M106.84,107.31h12.26v4.77h-7.91l-.48,3.03c.8-.44,1.8-.66,3-.66s2.35.24,3.34.72c.99.48,1.77,1.1,2.34,1.86s1,1.56,1.29,2.4c.29.84.43,1.66.43,2.46,0,.9-.17,1.8-.51,2.71-.34.91-.84,1.77-1.5,2.58-.66.81-1.55,1.47-2.68,1.99-1.13.52-2.4.78-3.82.78-2.3,0-4.2-.6-5.7-1.81-1.5-1.21-2.42-2.73-2.76-4.57h5.7c.68.92,1.55,1.38,2.61,1.38.82,0,1.52-.29,2.11-.87.59-.58.88-1.27.88-2.07s-.27-1.46-.81-2.04c-.54-.58-1.28-.87-2.22-.87-1.38,0-2.35.64-2.91,1.92l-4.59-1.14,1.92-12.56Z"/>
      </g>
    </g>
  </g>
</svg>