<?xml version="1.0" encoding="UTF-8"?>
<svg id="Capa_1" data-name="Capa 1" xmlns="http://www.w3.org/2000/svg" xmlns:xlink="http://www.w3.org/1999/xlink" viewBox="0 0 170 142">
  <defs>
    <style>
      .cls-wta-1 {
        fill: none;
      }

      .cls-wta-2 {
        fill: url(#Dorado-2);
      }

      .cls-wta-3 {
        fill: url(#Dorado-3);
      }

      .cls-wta-4 {
        fill: url(#Dorado-4);
      }

      .cls-wta-5 {
        fill: url(#Dorado-5);
      }

      .cls-wta-6 {
        fill: url(#Dorado-8);
      }

      .cls-wta-7 {
        fill: url(#Dorado-6);
      }

      .cls-wta-8 {
        fill: url(#Dorado-9);
      }

      .cls-wta-9 {
        fill: url(#Dorado-7);
      }

      .cls-wta-10 {
        fill: #654900;
      }

      .cls-wta-11 {
        fill: url(#Dorado);
      }

      .cls-wta-12 {
        fill: url(#Degradado_sin_nombre_79-2);
      }

      .cls-wta-13 {
        fill: url(#Degradado_sin_nombre_79-3);
      }

      .cls-wta-14 {
        fill: url(#Degradado_sin_nombre_79-4);
      }

      .cls-wta-15 {
        clip-path: url(#clippath-17);
      }

      .cls-wta-16 {
        clip-path: url(#clippath-19);
      }

      .cls-wta-17 {
        clip-path: url(#clippath-11);
      }

      .cls-wta-18 {
        clip-path: url(#clippath-16);
      }

      .cls-wta-19 {
        clip-path: url(#clippath-18);
      }

      .cls-wta-20 {
        clip-path: url(#clippath-10);
      }

      .cls-wta-21 {
        clip-path: url(#clippath-15);
      }

      .cls-wta-22 {
        clip-path: url(#clippath-13);
      }

      .cls-wta-23 {
        clip-path: url(#clippath-14);
      }

      .cls-wta-24 {
        clip-path: url(#clippath-12);
      }

      .cls-wta-25 {
        clip-path: url(#clippath-27);
      }

      .cls-wta-26 {
        clip-path: url(#clippath-29);
      }

      .cls-wta-27 {
        clip-path: url(#clippath-26);
      }

      .cls-wta-28 {
        clip-path: url(#clippath-28);
      }

      .cls-wta-29 {
        clip-path: url(#clippath-20);
      }

      .cls-wta-30 {
        clip-path: url(#clippath-21);
      }

      .cls-wta-31 {
        clip-path: url(#clippath-22);
      }

      .cls-wta-32 {
        clip-path: url(#clippath-23);
      }

      .cls-wta-33 {
        clip-path: url(#clippath-24);
      }

      .cls-wta-34 {
        clip-path: url(#clippath-25);
      }

      .cls-wta-35 {
        clip-path: url(#clippath-1);
      }

      .cls-wta-36 {
        clip-path: url(#clippath-3);
      }

      .cls-wta-37 {
        clip-path: url(#clippath-4);
      }

      .cls-wta-38 {
        clip-path: url(#clippath-2);
      }

      .cls-wta-39 {
        clip-path: url(#clippath-7);
      }

      .cls-wta-40 {
        clip-path: url(#clippath-6);
      }

      .cls-wta-41 {
        clip-path: url(#clippath-9);
      }

      .cls-wta-42 {
        clip-path: url(#clippath-8);
      }

      .cls-wta-43 {
        clip-path: url(#clippath-5);
      }

      .cls-wta-44 {
        fill: url(#Degradado_sin_nombre_255);
      }

      .cls-wta-45 {
        fill: url(#Degradado_sin_nombre_298);
      }

      .cls-wta-46 {
        fill: url(#Dorado-13);
      }

      .cls-wta-47 {
        fill: url(#Dorado-16);
      }

      .cls-wta-48 {
        fill: url(#Dorado-10);
      }

      .cls-wta-49 {
        fill: url(#Dorado-12);
      }

      .cls-wta-50 {
        fill: url(#Dorado-11);
      }

      .cls-wta-51 {
        fill: url(#Dorado-14);
      }

      .cls-wta-52 {
        fill: url(#Dorado-15);
      }

      .cls-wta-53 {
        fill: #b89924;
      }

      .cls-wta-54 {
        fill: url(#Degradado_sin_nombre_298-10);
      }

      .cls-wta-55 {
        fill: url(#Degradado_sin_nombre_79);
      }

      .cls-wta-56 {
        fill: url(#Degradado_sin_nombre_73);
      }

      .cls-wta-57 {
        fill: url(#Degradado_sin_nombre_64);
      }

      .cls-wta-58 {
        fill: url(#Degradado_sin_nombre_298-5);
      }

      .cls-wta-59 {
        fill: url(#Degradado_sin_nombre_298-4);
      }

      .cls-wta-60 {
        fill: url(#Degradado_sin_nombre_298-3);
      }

      .cls-wta-61 {
        fill: url(#Degradado_sin_nombre_298-9);
      }

      .cls-wta-62 {
        fill: url(#Degradado_sin_nombre_298-8);
      }

      .cls-wta-63 {
        fill: url(#Degradado_sin_nombre_298-7);
      }

      .cls-wta-64 {
        fill: url(#Degradado_sin_nombre_298-2);
      }

      .cls-wta-65 {
        fill: url(#Degradado_sin_nombre_298-6);
      }

      .cls-wta-66 {
        fill: url(#Radial_dorado);
      }

      .cls-wta-67 {
        clip-path: url(#clippath);
      }
    </style>
    <clipPath id="clippath">
      <path class="cls-wta-1" d="M67.28,33.63c-.2.07-.4.15-.61.23-7.99,3.19-13.93,10.42-15.31,19.16-.04.25-.07.5-.11.75-.13,1.03-.2,2.09-.2,3.16,0,13.71,11.11,24.83,24.82,24.83s24.83-11.12,24.83-24.83c0-10.74-6.83-19.89-16.38-23.35-.18-.07-.37-.13-.55-.19-1.54-.52-3.14-.88-4.79-1.09-.19-.02-.37-.04-.56-.06-.83-.08-1.68-.13-2.54-.13-3.02,0-5.92.54-8.6,1.53"/>
    </clipPath>
    <clipPath id="clippath-1">
      <path class="cls-wta-1" d="M52.08,56.93c0,13.15,10.66,23.81,23.8,23.81s23.81-10.65,23.81-23.81-10.66-23.8-23.81-23.8-23.8,10.66-23.8,23.8"/>
    </clipPath>
    <linearGradient id="Dorado" x1="-36.83" y1="-427.88" x2="-36.2" y2="-427.88" gradientTransform="translate(32786.09 2848.3) rotate(90) scale(76.45 -76.45)" gradientUnits="userSpaceOnUse">
      <stop offset="0" stop-color="#fccb00"/>
      <stop offset=".25" stop-color="#fffad2"/>
      <stop offset=".3" stop-color="#f9f0c0"/>
      <stop offset=".39" stop-color="#ecd893"/>
      <stop offset=".51" stop-color="#d7b14c"/>
      <stop offset=".6" stop-color="#c9961a"/>
      <stop offset=".81" stop-color="#e9cd75"/>
      <stop offset=".87" stop-color="#f2dc8e"/>
      <stop offset="1" stop-color="#fffad2"/>
    </linearGradient>
    <clipPath id="clippath-2">
      <path class="cls-wta-1" d="M70.5,33.74h-.01c-4.06.92-7.74,2.9-10.71,5.62v.03c-4.69,4.32-7.65,10.5-7.7,17.38v.33c.09,13.07,10.72,23.64,23.8,23.64,1.48,0,2.93-.14,4.34-.39.05,0,.2-.04.43-.08,1.37-.28,2.7-.68,3.97-1.18.28-.11.57-.23.86-.36h0c2.5-1.11,4.78-2.63,6.74-4.48.12-.11.19-.17.19-.17h0c4.49-4.33,7.28-10.41,7.28-17.14,0-13.14-10.66-23.8-23.81-23.8-1.85,0-3.65.21-5.38.61"/>
    </clipPath>
    <radialGradient id="Radial_dorado" data-name="Radial dorado" cx="-42.82" cy="-433.04" fx="-42.82" fy="-433.04" r=".62" gradientTransform="translate(2580.87 -25377.52) scale(58.71 -58.71)" gradientUnits="userSpaceOnUse">
      <stop offset="0" stop-color="#fffad2"/>
      <stop offset=".11" stop-color="#fbf2c0"/>
      <stop offset=".34" stop-color="#f3de94"/>
      <stop offset=".37" stop-color="#f2dc8e"/>
      <stop offset=".69" stop-color="#f0bf00"/>
      <stop offset="1" stop-color="#c9961a"/>
    </radialGradient>
    <clipPath id="clippath-3">
      <polygon class="cls-wta-1" points="72.9 41.91 72.78 42.03 72.78 42.15 72.58 42.29 72.68 42.39 72.46 42.64 72.7 42.66 72.51 43.17 72.75 42.83 72.68 42.98 72.87 42.93 72.7 43.44 73.31 43.34 73.14 43.51 73.24 43.66 73.41 43.61 73.34 43.95 72.75 44.17 72.93 44.12 72.97 44.29 72.53 44.56 73.1 44.76 73.39 44.66 73.22 44.82 72.87 44.85 72.34 45.31 72.97 45.22 73.07 45.07 73.36 45.1 74.48 44.95 74.66 44.8 74.39 44.7 74.73 44.46 74.75 44.22 74.24 44.17 74.36 44 74.14 43.83 74.29 43.78 73.92 43.46 73.8 43.09 73.31 42.9 73.51 42.8 73.44 42.73 73.66 42.56 73.78 42.24 73.1 42.29 73.19 42.2 73.12 42.15 73.44 41.98 73.39 41.88 72.9 41.91"/>
    </clipPath>
    <radialGradient id="Degradado_sin_nombre_298" data-name="Degradado sin nombre 298" cx="-42.82" cy="-433.11" fx="-42.82" fy="-433.11" r=".62" gradientTransform="translate(2566.36 -25226.11) scale(58.35 -58.35)" gradientUnits="userSpaceOnUse">
      <stop offset="0" stop-color="#fccb00"/>
      <stop offset="1" stop-color="#c9961a"/>
    </radialGradient>
    <clipPath id="clippath-4">
      <polygon class="cls-wta-1" points="71.95 43.32 71.95 43.22 71.76 43.25 71.56 43.44 71.73 43.46 71.58 43.61 71.24 43.58 71.1 43.71 71.27 43.78 71.1 43.88 71.15 43.98 71.41 44.02 71.12 44.27 71.46 44.24 70.92 44.44 71.07 44.49 70.92 44.58 71.12 44.58 70.98 44.68 72.17 44.44 72.31 43.71 72.56 43.51 72.39 43.25 72.07 43.29 72.02 43.17 71.95 43.32"/>
    </clipPath>
    <radialGradient id="Degradado_sin_nombre_298-2" data-name="Degradado sin nombre 298" cx="-42.82" cy="-433.1" fx="-42.82" fy="-433.1" r=".62" gradientTransform="translate(2568.91 -25251.21) scale(58.41 -58.41)" xlink:href="#Degradado_sin_nombre_298"/>
    <radialGradient id="Degradado_sin_nombre_298-3" data-name="Degradado sin nombre 298" cx="66.14" cy="37.45" fx="66.14" fy="37.45" r="5.24" gradientTransform="matrix(1,0,0,1,0,0)" xlink:href="#Degradado_sin_nombre_298"/>
    <radialGradient id="Degradado_sin_nombre_298-4" data-name="Degradado sin nombre 298" cx="66.14" cy="37.45" fx="66.14" fy="37.45" r="5.24" gradientTransform="matrix(1,0,0,1,0,0)" xlink:href="#Degradado_sin_nombre_298"/>
    <clipPath id="clippath-5">
      <path class="cls-wta-59" d="M70.92,33.54l.17.47-.62-.43c-3.98.92-7.58,2.86-10.49,5.54l.22.45.14.05h-.12l.05.07-.3.1-.12.15.03.31.14.07-.09.1.17.15-.1.05.22-.05-.17.08.1.09-.1.05h.29l-.27.05.37.15-.19.07.83-.05-.15.1.22.07-.12.15.12.05.49-.05-.12-.15.24-.02.41-.47.03-.24-.1-.07.36-.12-.1-.07.19.02-.02-.1.29-.07-.15-.1.22.03.03-.15-.2-.07.34-.02-.2-.2.07-.08.24.02.15-.07-.07-.09.17-.05h.39l.03-.12h.1l.12-.17.17.05-.22.12.12.05.05-.1.32.07.12-.19.29.03.42-.24.19-.24.37-.12-.07-.19.17.19.39-.03.14-.09,1-.1,1.29-.54-.85-.07-.73.12.42-.12-.61-.02.22-.05.02-.12.75-.1-.44-.07-.1-.07.05-.05.71.17.25.29h.22l.05-.12.22.12-.07-.2.15-.17-.24.08.19-.15-.31.05.19-.12-.49-.17-.27.12.05-.12.22-.07-.51-.02.51-.1-.46-.09.24.02.51-.19.39.19.51-.09.07-.12-.49-.15.15-.07.73.05-.46-.07.12-.12h-.22l.24-.07-.32-.1.58.12.08-.19-.34-.08.34-.04-.46-.05-.2-.15,1.15-.09v-.1l-.54-.02.12-.05-.07-.05.34-.02-.34-.07-.32.07.34-.25-.07-.02.05-.05.56-.15-.2.05.13-.15.51-.12-.66.1-.02-.1,1.02-.15h-1.19l1.53-.07-.03-.07.68-.12-.72-.21h-.03c-.12,0-.24-.06-.36-.12-.12-.06-.24-.12-.35-.12h-.04Z"/>
    </clipPath>
    <radialGradient id="Degradado_sin_nombre_298-5" data-name="Degradado sin nombre 298" cx="-42.82" cy="-433.1" fx="-42.82" fy="-433.1" r=".62" gradientTransform="translate(2567.51 -25237.44) scale(58.38 -58.38)" xlink:href="#Degradado_sin_nombre_298"/>
    <clipPath id="clippath-6">
      <polygon class="cls-wta-1" points="80.01 34.86 79.38 34.69 79.33 34.74 79.43 34.79 79.26 34.74 79.33 34.84 78.89 34.81 79.21 34.84 79.04 34.89 79.21 34.93 79.92 34.91 79.43 34.98 80.43 35.08 80.82 35.03 81.11 34.84 80.5 34.81 80.57 34.74 80.16 34.81 80.21 34.71 80.09 34.69 80.01 34.86"/>
    </clipPath>
    <radialGradient id="Degradado_sin_nombre_298-6" data-name="Degradado sin nombre 298" cx="-42.82" cy="-433.1" fx="-42.82" fy="-433.1" r=".62" gradientTransform="translate(2568.99 -25251.89) scale(58.41 -58.41)" xlink:href="#Degradado_sin_nombre_298"/>
    <radialGradient id="Degradado_sin_nombre_298-7" data-name="Degradado sin nombre 298" cx="78.59" cy="35.37" fx="78.59" fy="35.37" r=".98" gradientTransform="matrix(1,0,0,1,0,0)" xlink:href="#Degradado_sin_nombre_298"/>
    <radialGradient id="Degradado_sin_nombre_298-8" data-name="Degradado sin nombre 298" cx="78.59" cy="35.37" fx="78.59" fy="35.37" r=".98" gradientTransform="matrix(1,0,0,1,0,0)" xlink:href="#Degradado_sin_nombre_298"/>
    <clipPath id="clippath-7">
      <polygon class="cls-wta-62" points="78.48 34.91 78.65 35.15 78.26 34.91 78.07 34.98 78.14 35.08 77.7 34.98 78.04 34.89 77.31 34.98 77.46 35.1 77.63 35.06 77.55 35.13 77.72 35.18 77.48 35.15 77.92 35.27 77.72 35.3 77.87 35.37 78.26 35.32 78.21 35.3 78.26 35.23 78.43 35.18 78.48 35.3 78.72 35.23 78.68 35.3 78.89 35.32 78.02 35.44 78.09 35.52 78.8 35.47 78.31 35.54 78.6 35.62 78.12 35.59 78.21 35.72 78.7 35.76 78.51 35.79 78.7 35.91 78.87 35.89 79.04 35.64 78.99 35.62 79.14 35.62 79.16 35.44 79.31 35.44 79.31 35.32 79.87 35.2 79.21 35.08 79.14 34.96 78.92 35.03 78.99 34.91 78.63 34.84 78.48 34.91"/>
    </clipPath>
    <radialGradient id="Degradado_sin_nombre_298-9" data-name="Degradado sin nombre 298" cx="-42.82" cy="-433.11" fx="-42.82" fy="-433.11" r=".62" gradientTransform="translate(2567.56 -25237.9) scale(58.38 -58.38)" xlink:href="#Degradado_sin_nombre_298"/>
    <clipPath id="clippath-8">
      <path class="cls-wta-1" d="M91.5,70.89v.37l-.22.22-.12-.07.02.24-.12.07.12.13-.22.15-.05-.1-.02.29-.15-.1-.14.15.05.19-.2-.15-.61.22-.22.54.19.97-.51.88.07.9.82-.45c.64-.49,1.36-1.14,1.69-1.44.06-.06.12-.12.18-.17l-.26-1.05v-.51l.12.2.12-.2-.17-1.02-.24-.34-.15.1Z"/>
    </clipPath>
    <clipPath id="clippath-9">
      <path class="cls-wta-1" d="M83.82,40.51l.25-.15.44.2.17.24-.49.24-.37-.53ZM82.48,37.14l-.12.05-.02-.19-.34.29.15-.27-.23-.05-.41.34-.46-.09.15.2-.22-.1-.3.24.03-.22-.15.17-.02-.12h-.12l-.02.1.12.1-.34-.1-.17.17.05.1-.32.07.29.02-.34.05.03.12-.15-.05-.18.19h.15l-.31.05-.34.27.02.17-.24.12.17.02-.2.07.05.1-.09-.07-.05.1.08.04-.27.1.1.05-.1.1-.15-.02-.34.27.12.12-.75.22-.17.05.17.12h-.34l.05.13-.42.02.37.1-.39.07.07.02-.07.19.41-.1.15.07.15-.14-.05.12h.1l-.22.15-.54-.02.02.12.15-.03-.17.12.12.03-.02.14.24-.24h.22l-.39.27.17.03-.34.12h.34l-.27.29.37.15-.03.1.32.03.56-.41.2.02v-.27l.07.07.05-.15.03.27.15.05v.24l.22.24-.03.2.32.32-.12.12.15.25-.05.07.39.03.09-.27.47-.05.19-.51.02-.34-.1-.05.12-.02-.19-.05.71-.27-.19-.03.27-.19-.41-.29-.08.07v-.78l.27-.17.9-.54-.12-.14.07-.19.17-.08-.07-.07.61-.07.37.17.1.19-.25.05-.8.66-.17.15.22.44-.07.32.44.12.12.15-.07.04,1.39-.29.29-.05v.14l.51.15-.64.07-.07.12-.63-.1-.63.19.07.32h.24l-.05.56-.51-.31-.24.07-.2.32.1.73-.17-.05.12-.27-.44.51-.24.07-.05-.19h-.44l-.97.39-.39-.24-.17.05.07-.07-.59.19.1-.14-.32-.02-.15-.2.02-.34.39-.22-.24-.12.12-.44-.66.32-.07.54.17.09v.17l.09.15-.09.08.12.19-.15.02.03.2-.3-.18-.22.13.15.1-.12-.02h-.51l-.05.39-.1-.05v-.19l-.29.39.24.07-.46.17-.25.1-.29.07-.07.3-.44.19.08.12-.51.03-.27-.15.12.44-.64-.07-.41.12.07.29.85.24h-.12v.17l.29.19.13.44-.1-.1-.17.78-.17.1-2.1-.12-.41.29.19.29-.07.2.03.36-.34.91.24.09-.09.63.51-.07.27.05.36.41.42-.24.8-.05.76-.78-.12-.29.41-.6.78-.41.02-.25.03-.34.29-.12.34.05.37.12.46-.32.42-.25.46.2.34.66,1.51.95.22.54-.17.24.12.12.36-.46-.03-.17-.19-.13.07-.24.14-.09.41.29.02-.1-.17-.27-.71-.29.02-.22-.27.05-.17-.13-.41-.61-.36-.22-.07-.52.46-.07.07.27.24-.17.49.73.29.05.24.17h-.17l.78.47.1.05-.07.56.29.32.34.29-.12.05.17.22h.51l.49.29-.02-.22-.51-.32.15-.02-.02-.15.12.07-.24-.34v-.24l.31.27-.05-.12.19.12-.05-.2.17.1-.24-.2.24-.12.59.08.27.02-.19.24.44-.36.46-.02.02-.1-.29-.12-.07-.14-.2-.24.34-.54.05-.51v.21l.19-.14.03-.22.24-.29-.1-.12.12.07.44-.27.12.15h-.19l.15.02-.07.07.63.08-.34.27.29.1.05.24.2.07.46-.29.32.02.02-.17-.51.05-.2-.25-.29-.12.15-.05.27.19.05-.24v.15l.22-.22,1.05-.27.07.08-.24.17h-.24l.27.24-.56.37,1.68,1,.17.32-.03.19-.37.24-.75.02-.61-.15-.46-.32-.58.02-.73.42-.66-.1.03.15.22.08-1.05.12-.12.17-.07.22.24-.02v.37l.12.1-.24-.1-.03.17.29.1.1.44.34-.02-.29.17.39-.08.46.27.37-.29.68.37.59-.34.32.12.17-.12v.44l.05.46-.29.68-.29.76-.36.1-.34-.1-.12-.12-.42.02-.61.29-1.39-.37-.7-.22-.12-.22-.68-.03-.34.29-.02.59-.34.17-.47-.29-.66-.17-.22-.42-1.34-.34-.51-.34.47-.54-.22-.39.17-.37-.19.1-.27-.22-.34.14-1.29.03-1.29.17-1.17.61-.81-.05-.34-.32-.17.07-.34.68-.9.68-.27.49.03.53-.15.22-.12.17-1,.61-.19.39-.37.29-.14.44-.76,1.2-.12.49.27.29-.12.41.15.37-.22,1.02-.15.39-.24.17.36.49-.09.22v.27l.32.32.37-.1-.22.1.15.32.66.78.12.51.54.39.78.79.66.29,1.02-.29.63.02.41.17,1.19-.58.27-.07.32-.03.53-.02.27.22.17.17v.27l.29.24.81-.22.22.27.24.05.09.32-.07.46-.15.39.07.1-.07.19.19.15-.22-.03-.02.27-.17.15.19.49.68.88.34.47.1.32.02.17.34.85-.07.39.24.78-.05.51-.47.63-.26,1.51.02.34.97,1.86v.68l.27,1.36.47.54.51,1.49h.02c.14-.03.28-.06.42-.08.72-.15,2.24-.51,3.89-1.16.28-.11.57-.23.85-.35l.26-.98-.15-.05.12-.17.73-.32.24-.29.07-.83-.29-.66.02-.29,1.02-.97.61-.24.56-.63.07-2.17-.19-.17-.15-.47.05-.75-.24-.34.17-.71.39-.8.44-.46.39-.61,1.19-1,.69-.78.44-.68.44-1.07.24-.85.17-.02-.12-.05.05-.56-.19-.07-.54.22-1.75.44-.44-.46-.27-.05.29-.19-.12-.34-.68-.73-.39-.15-.12-.24-.07.12-.51-1.22-.41-.37-.24-1.29-.46-.46-.07-.32.1-.02-.22-.22-.68-1.49-.29-.39-.08-.46.59.93.12-.05.15-.61h.05l-.07.56h.2l.9,1.56.36.24.26.59.12.73.61.49.71,1.31v.46l.36,1.1h.51l.32-.27,1.07-.29.29-.29.98-.37.02-.24.24-.17.68-.15.22-.37.29-.07.13-.31.36-.15.02-.56.19-.03.39-.85-.42-.46-.7-.27-.22-.29-.05-.32.02-.27-.12.1-.68.83-.76.02-.19-.12.02-.15.02-.51-.17-.12-.1.59-.27-.44-.07-.39-.66-.78-.27-.32.2-.15-.1-.12.2-.02.07-.22.26.27.15-.07.63.95.83.48.36.07.64-.27.17.1.24.51,1.54.22,1.22-.05.53-.02.44.61.19.05.36.39.42-.05c-.1-7.71-3.94-14.51-9.79-18.69l-1.46.55-.08.23-.27.12-.53-.29.41-.12-.1-.15-.9-.17.27.12.03.36.22.12.02.42-.58-.25-.6.34.39.41-.81-.05.05-.07-.44-.15-.02.2.36.07.15.22-.19.05-.88-.27.02-.15-.17-.17.07-.2-.85-.44,1.97.37.58-.27.03-.12-.12-.2-1.56-.53-.8-.05-.24-.1.27-.05-.34-.08-.05.09-.19-.04h-.03l-.34.04.07-.07-.34-.1.61-.1-.51-.14-.29.12.07-.05-.12-.05.14-.07-.24-.05-.12.22Z"/>
    </clipPath>
    <radialGradient id="Degradado_sin_nombre_298-10" data-name="Degradado sin nombre 298" cx="-42.56" cy="-433.33" fx="-42.56" fy="-433.33" r=".32" gradientTransform="translate(2567.52 -25237.55) scale(58.38 -58.38)" xlink:href="#Degradado_sin_nombre_298"/>
    <clipPath id="clippath-10">
      <polygon class="cls-wta-1" points="83.28 40.83 83.65 41.37 84.13 41.12 83.96 40.88 83.53 40.68 83.28 40.83"/>
    </clipPath>
    <clipPath id="clippath-11">
      <path class="cls-wta-1" d="M105.82,34.72c-4.84,1.09-9.62,4.98-11.05,6.68-1.43,1.7-.21,1.77-.41,3.34-.21,1.57-2.32,3.21-4.03,4.16-1.71.96-2.66,1.5-2.59,2.18.07.68,1.77,1.98,1.77,1.98,0,0-.21.75-.55,1.64-.34.89-.48,1.16-.21,1.5.27.34,2.39,1.36,2.39,1.36h-1.98c-1.3,0-1.3,1.09-.61,1.91.68.82.41,1.23-.41,2.18-.82.96-1.23,1.78-.55,3.14.68,1.36,4.09,1.23,4.09,1.23,0,0,1.64,2.86,2.18,5.32.54,2.46,3.27,6,3.96,7.91.68,1.91-.41,4.37-.41,4.37-2.72,3.12-4.41,6.76-5.34,9.24l-.34.87,23.36,1.18s6.68-14.45,5.99-15.6c-.82-1.38-4.96-7.34-4.96-7.34l-2.2-3.43,1.84-4.71c6.75-5.8,9.75-8.87,9.01-16.78-.69-7.24-11.94-12.48-17.56-12.48-.52,0-.99.04-1.4.14"/>
    </clipPath>
    <linearGradient id="Degradado_sin_nombre_79" data-name="Degradado sin nombre 79" x1="-38.19" y1="-428.9" x2="-37.56" y2="-428.9" gradientTransform="translate(32973.9 2967.97) rotate(90) scale(76.63 -76.63)" gradientUnits="userSpaceOnUse">
      <stop offset="0" stop-color="#fffad2"/>
      <stop offset=".08" stop-color="#f9f0c0"/>
      <stop offset=".24" stop-color="#ecd893"/>
      <stop offset=".45" stop-color="#d7b14c"/>
      <stop offset=".6" stop-color="#c9961a"/>
      <stop offset=".81" stop-color="#e9cd75"/>
      <stop offset=".87" stop-color="#f2dc8e"/>
      <stop offset="1" stop-color="#fffad2"/>
    </linearGradient>
    <clipPath id="clippath-12">
      <path class="cls-wta-1" d="M74.01,91.49c.09.47-1.86,7.08-1.92,8.29l14.16,1.81,12.63-2.5-13.68-9.54s-11.39.88-11.18,1.95"/>
    </clipPath>
    <linearGradient id="Dorado-2" data-name="Dorado" x1="-35.05" y1="-424.95" x2="-34.43" y2="-424.95" gradientTransform="translate(31742.64 2683.78) rotate(90) scale(74.5 -74.5)" xlink:href="#Dorado"/>
    <linearGradient id="Degradado_sin_nombre_79-2" data-name="Degradado sin nombre 79" x1="54.37" y1="82.95" x2="84.77" y2="82.95" gradientTransform="matrix(1,0,0,1,0,0)" xlink:href="#Degradado_sin_nombre_79"/>
    <linearGradient id="Degradado_sin_nombre_79-3" data-name="Degradado sin nombre 79" x1="54.37" y1="82.95" x2="84.77" y2="82.95" gradientTransform="matrix(1,0,0,1,0,0)" xlink:href="#Degradado_sin_nombre_79"/>
    <clipPath id="clippath-13">
      <path class="cls-wta-13" d="M67.63,73.22c.32,1.38,2.23,3.93,2.44,4.78.21.85-1.38,1.81-1.38,1.81,0,0-3.4-1.27-5.21-2.12-1.81-.85-3.51-2.66-4.68-3.83-1.17-1.17-3.19-2.66-3.82-2.66s-.85.85-.32,1.59c.53.74,3.19,4.57,4.25,5.63,1.06,1.06,2.66,3.3,3.51,4.78.85,1.49,2.45,1.91,6.16,3.19,3.72,1.28,4.15,2.87,4.36,3.93.1.47.05,1.9-.01,3.11l6.76,1.46,5.07-.03-.64-6.49s-.42-3.55-.65-4.19c-.23-.64-2.13-3.05-2.13-3.05-1.64.41-4.06.56-4.06.56,0,0-2.85-4.45-3.38-5.4-.53-.96-3.29-3.4-4.57-4.78-.33-.36-.63-.51-.88-.51-.71,0-1.05,1.19-.82,2.21"/>
    </clipPath>
    <linearGradient id="Degradado_sin_nombre_79-4" data-name="Degradado sin nombre 79" x1="-36.84" y1="-430.26" x2="-36.22" y2="-430.26" gradientTransform="translate(26477.93 2325.22) rotate(90) scale(61.38 -61.38)" xlink:href="#Degradado_sin_nombre_79"/>
    <clipPath id="clippath-14">
      <path class="cls-wta-1" d="M93.78,70.32c.19,1.01.46,2.21,1.2,3.36.74,1.15,2.86,4.84,3,5.48.14.65-.23,4.33-.23,4.33l4.42-3.13s-.41-1.2-.69-2.26c-.28-1.06-.09-2.3-.04-3.64.04-1.33.41-2.95.88-4.1.46-1.15.04-1.52-.51-1.75-.55-.23-9.82-2.05-9.82-2.05,0,0,1.61,2.74,1.8,3.75"/>
    </clipPath>
    <linearGradient id="Degradado_sin_nombre_255" data-name="Degradado sin nombre 255" x1="-29.07" y1="-442.12" x2="-28.54" y2="-441.79" gradientTransform="translate(11634.51 827.06) rotate(90) scale(26.1 -26.1)" gradientUnits="userSpaceOnUse">
      <stop offset="0" stop-color="#fffad2"/>
      <stop offset=".15" stop-color="#fcf0bc"/>
      <stop offset=".46" stop-color="#f6d784"/>
      <stop offset=".66" stop-color="#f2c65d"/>
      <stop offset="1" stop-color="#fffad2"/>
    </linearGradient>
    <clipPath id="clippath-15">
      <path class="cls-wta-1" d="M95.99,40.11c-2.21,2.12-1.98,2.67-1.8,3.59.19.92-.04,1.89-.64,2.86-.6.97-3.32,2.39-4.14,2.76-.83.37-1.66,1.1-1.57,1.89.1.78,1.75,1.75,1.75,1.75,0,0-.46,1.2-.92,2.16-.46.97-.09.87.14,1.11.23.23,2.49,1.33,2.49,1.33,0,0-1.2,0-2.03-.05-.83-.05-.88.09-.97.51-.1.47.23,1.24.55,1.75.32.51-.05,1.15-.42,1.66-.37.5-1.52,1.43-.83,3.18.69,1.75,4.53,1.37,4.53,1.37-2.67-.1-1.88-1.52-.56-2.89.61-.64,2.9-2.3,3.87-3.09.97-.78,1.89-.89.41-2.3-2.56-2.46-1.01-3.04-.05-3.78.97-.74,3.64-1.7,4.01-2.63.37-.92-1.11-2.26-1.11-2.26,0,0,1.38.09,2.17.04.78-.04.64-.6-.41-1.7-1.06-1.11-1.29-1.89-1.38-2.9-.1-1.01-2.38-1.16-2.47-1.29-.09-.14.17-.58.37-.82.99-1.15,6.15-8.51,16.38-4.84,11.63,4.17,11.75,13.45,11.75,13.45.6-4.47-2.44-12.21-12.12-15.2-2.07-.64-3.93-.91-5.6-.91-6.13,0-9.66,3.57-11.39,5.24"/>
    </clipPath>
    <linearGradient id="Degradado_sin_nombre_73" data-name="Degradado sin nombre 73" x1="-35.52" y1="-432.88" x2="-34.3" y2="-432.88" gradientTransform="translate(21438.45 1785.53) rotate(90) scale(49.28 -49.28)" gradientUnits="userSpaceOnUse">
      <stop offset="0" stop-color="#fffad2"/>
      <stop offset=".08" stop-color="#f9f0c0"/>
      <stop offset=".24" stop-color="#ecd893"/>
      <stop offset=".45" stop-color="#d7b14c"/>
      <stop offset=".6" stop-color="#c9961a"/>
      <stop offset=".81" stop-color="#e9cd75"/>
      <stop offset=".87" stop-color="#f2dc8e"/>
    </linearGradient>
    <clipPath id="clippath-16">
      <path class="cls-wta-1" d="M94.37,41.19c-1.16,1.43-.64,1.63-.48,2.8,0,0,.14,1.56-.89,2.66-.79.84-2.42,1.76-3.52,2.39-1.1.63-1.89.84-2.05,1.47-.16.63-.31.97,1.27,2.02l.66.58c-.19.55-.21.61-.62,1.42-.37.74-.89,1.49-.21,1.8.68.32,2.1,1.05,2.1,1.05,0,0-1.63-.11-1.94-.11s-.66.23-.76.76c-.09.47-.14.71.39,1.34.53.63.47,1.21-.05,1.68-.53.47-1.71,1.69-1.37,3.1.37,1.52,1.12,2.02,3.94,2.24.11.01.23.02.34.03.05.07,1.29,1.69,1.66,2.46.37.79.58,1.89.95,3.26.37,1.37,1.26,2.52,2.26,4.05,1,1.52,1.58,2.89,1.63,3.68.05.73-.35,2.99-.41,3.32-.18.17-.36.35-.53.52-.17.17-.6.6-.82.88-2.12,2.62-3.6,5.55-4.57,7.88-.1.24-.52,1.37-.61,1.6h.55l1.07-.26c.1-.29.5-1.42.52-1.48,1.24-3.11,2.32-5.5,4.02-7.41,4.19-4.73,9.66-6.28,13-6.79.88-.13,1.63-.2,2.18-.24.07,0,.13-.01.19-.02.28-.02.56,0,.58-.07.04-.14-.32-.25-.39-.26-.33-.08-.83-.13-1.56-.05-4.51.45-10.16,2.67-12.83,4.96.12-.77.26-1.79.26-2.38,0-.07.04-.56.04-.61-.06-.97-.89-2.46-1.93-4.06,0,0-1.89-2.64-2.1-3.94-.21-1.29-.05-1.48-.34-2.11-.32-.68-.79-1.73-1.51-2.85,1.34.05,4.86.15,5.4.2.65.05,2.94.31,4.15.31,1.67,0,2.73-.34,3.78-2.89,0,0,.26.4.99.75.73.34,2.21-.42,2.78-.73,1.04-.57,4.01-2.37,4.83-3.91.82-1.55,1-4.16-.5-5.68-1.25-1.26-3.44-.07-3.61.06-.23.19-.25.19-.11.55.08.19.17.16.45,0,.34-.19,2.16-.8,2.84.1.73.96,1.03,2.42.25,4.33-.77,1.91-2.94,3.02-3.52,3.39-1.34.84-2.58,1.34-3.01,1.11-.51-.26-1.11-.5-1.14-1.96,0-.17-.24-.15-.4.12-.16.27-.74,1.7-1.4,2.69-.43.64-1.05,1.18-2.98,1.12-2.14-.07-3.64-.2-4.6-.27-.91-.07-6.51,0-7.9-.47-.62-.31-.92-.71-1.03-1.21-.3-1.37.23-1.97.92-2.59.44-.4.77-.87.77-1.37,0-.45-.9-1.04-.98-1.34-.08-.3.07-.71.18-.89.1-.17.9-.13,1.68-.08.75.04,1.47.08,1.5-.07.08-.3-2.81-1.61-2.93-1.9-.11-.28.08-.75.23-1.01.14-.26.75-1.95.75-1.95l-1.06-.79c-.77-.53-.7-.81-.7-.99,0-.26.05-.55.15-.68.43-.58,3.97-2.07,4.82-2.98.85-.9,1.45-1.5,1.49-2.33.44.03,1.75,1.02,2.11,1.28.25.18.84.61.89.66l.23.14c-.41-.66-2.32-2.39-2.84-2.92-.38-.39-.61-1.01-.55-1.47.01-.1.03-.17.04-.24.08-.19.21-.41.42-.67.27-.34,6.76-8.24,15.38-6.25,5.26,1.21,9.15,3.39,11.57,6.49,1.76,2.25,2.66,4.94,2.66,7.85,0,.55-.03,1.1-.09,1.66-.31,2.71-1.86,6.43-8.54,11.26l-.49.38c-.41.81-1.79,4.93-1.79,4.93-.14.36-.1.9.68,2.03.24.35,4.42,6.24,5.5,7.99,1.24,2.01,7.24,13.77,7.24,13.77l.91-1.05s-6.81-12.65-7.32-13.47c-.58-.93-5.01-7.13-5.01-7.13-.58-.91-1.21-1.68-1.1-2.1.11-.42,1.14-3.82,1.51-4.19.37-.37,8.71-5.43,9.53-12.53.82-7.09-3.21-14.24-14.87-16.91-1.04-.24-2.05-.34-3.01-.34-7.39,0-12.67,6.13-13.28,6.89"/>
    </clipPath>
    <clipPath id="clippath-17">
      <path class="cls-wta-1" d="M67.37,71.47c-.58,1.31.25,3.19,1.16,4.5.91,1.32,1.25,1.78,1.1,2.59-.1.55-.93.98-.93.98,0,0-3.14-1.41-4.37-1.91-1.23-.51-1.09-.29-1.67-.87-.58-.58-2.73-2.37-3.16-2.66-.43-.29-.75-1.11-1.91-1.98-1.16-.87-2.03-1.66-3.04-1.08-1.01.58-.54,1.11.27,2.53.85,1.48,1.68,2.45,2.77,3.83,1.09,1.38,2.5,2.79,3.15,3.65.65.87,1.78,3.53,3.52,4.11,1.74.58,6.45,2.32,7.39,3.33.77.83,1.2.84.93,4.72l.72.26c.04-.71.08-1.57.08-1.95,0-1.93-.3-2.67-.97-3.35l-.2-.2c-1.29-1.39-7.45-3.45-7.71-3.54-1.04-.35-1.94-1.88-2.54-2.89-.23-.38-.42-.71-.6-.96-.34-.44-.82-.99-1.39-1.62-.57-.64-1.22-1.36-1.77-2.05l-.5-.62c-.85-1.07-1.52-1.91-2.21-3.11l-.25-.43c-.2-.35-.44-.76-.48-.94.03-.02.08-.06.18-.12.41-.24.79-.03,1.88.8l.31.24c.62.46.96.91,1.24,1.27.23.29.43.55.7.73.37.25,2.48,1.99,3.05,2.56.48.48.64.57,1.15.75l.77.29s4.24,1.65,4.27,1.74c-.37.38-.45.87-.1.61.63-.47,2.59-1.45,2.25-2.49-.35-1.05-.76-1.75-1.39-2.65-.6-.86-1.27-2.14-1.27-3.09,0-.28.05-.53.14-.75.44-.71.82-.35,1.13,0,.34.37.64.81,1.04,1.24.75.82,1.82,1.87,2.61,2.46.44.33.42.49.76,1.14.37.69.62,1.52,1.96,3.35,2.96,4.03,3.41,5.32,3.48,5.9.07.58.31,5.58.46,8.85l1.1.19h0c-.21-2.91-.59-8.18-.68-8.89-.14-1.23-.73-2.52-3.34-6.07-2.61-3.55-1.93-4.06-3.09-4.93-1.16-.87-3.24-3.12-3.97-3.77-.37-.33-.74-.59-1.09-.59s-.66.24-.94.88"/>
    </clipPath>
    <clipPath id="clippath-18">
      <rect class="cls-wta-1" x="17.06" y="7.22" width="135.87" height="118.36"/>
    </clipPath>
    <clipPath id="clippath-19">
      <path class="cls-wta-1" d="M45.66,62.3c0-21.66,17.56-39.22,39.22-39.22s39.22,17.56,39.22,39.22-17.56,39.22-39.22,39.22-39.22-17.56-39.22-39.22M30.28,62.3c0,30.15,24.44,54.6,54.59,54.6s54.6-24.44,54.6-54.6S115.03,7.71,84.88,7.71,30.28,32.15,30.28,62.3"/>
    </clipPath>
    <linearGradient id="Dorado-3" data-name="Dorado" x1="-39.17" y1="-422" x2="-38.55" y2="-422" gradientTransform="translate(74071.11 6875.17) rotate(90) scale(175.32 -175.32)" xlink:href="#Dorado"/>
    <clipPath id="clippath-20">
      <path class="cls-wta-1" d="M30.77,62.3c0-29.83,24.27-54.11,54.11-54.11s54.11,24.27,54.11,54.11-24.27,54.11-54.11,54.11-54.11-24.27-54.11-54.11M29.8,62.3c0,30.37,24.71,55.08,55.08,55.08s55.08-24.71,55.08-55.08S115.25,7.22,84.88,7.22,29.8,31.93,29.8,62.3"/>
    </clipPath>
    <clipPath id="clippath-21">
      <path class="cls-wta-1" d="M46.15,62.3c0-21.36,17.37-38.73,38.73-38.73s38.73,17.37,38.73,38.73-17.38,38.73-38.73,38.73-38.73-17.38-38.73-38.73M45.17,62.3c0,21.89,17.81,39.71,39.71,39.71s39.71-17.81,39.71-39.71-17.81-39.7-39.71-39.7-39.71,17.81-39.71,39.7"/>
    </clipPath>
    <clipPath id="clippath-22">
      <rect class="cls-wta-1" x="17.06" y="7.22" width="135.87" height="118.36"/>
    </clipPath>
    <clipPath id="clippath-23">
      <path class="cls-wta-1" d="M132.42,102.66l-2.73,6.41h-.02c-3.48,1.16-11.24,2.91-13.76,5.33h.04c14.72,2.05,25.78,7.12,29.99,9.5l-6.24-11.52,11.87-1.72s-6.95-4.5-19.15-8h-.02Z"/>
    </clipPath>
    <linearGradient id="Dorado-4" data-name="Dorado" x1="-42.81" y1="-424.78" x2="-42.19" y2="-424.78" gradientTransform="translate(9358.34 -92569.93) scale(218.19 -218.19)" xlink:href="#Dorado"/>
    <clipPath id="clippath-24">
      <rect class="cls-wta-1" x="17.06" y="7.22" width="135.87" height="118.36"/>
    </clipPath>
    <linearGradient id="Degradado_sin_nombre_64" data-name="Degradado sin nombre 64" x1="115.97" y1="109.58" x2="129.72" y2="109.58" gradientUnits="userSpaceOnUse">
      <stop offset="0" stop-color="#fffad2"/>
      <stop offset=".13" stop-color="#f2dc8e"/>
      <stop offset=".19" stop-color="#e9cd75"/>
      <stop offset=".4" stop-color="#c9961a"/>
      <stop offset=".49" stop-color="#d7b14c"/>
      <stop offset=".61" stop-color="#ecd893"/>
      <stop offset=".7" stop-color="#f9f0c0"/>
      <stop offset=".75" stop-color="#fffad2"/>
      <stop offset=".99" stop-color="#fccb00"/>
    </linearGradient>
    <clipPath id="clippath-25">
      <path class="cls-wta-1" d="M37.55,102.94c-12.2,3.51-19.15,8-19.15,8l11.72,1.8-6.09,11.44c4.2-2.38,15.26-7.45,29.99-9.51h.05s-.02,0-.02,0c-2.52-2.42-10.23-4.1-13.71-5.25v-.02s-2.62-6.51-2.62-6.51l-.17.05Z"/>
    </clipPath>
    <linearGradient id="Dorado-5" data-name="Dorado" x1="-42.81" y1="-424.78" x2="-42.19" y2="-424.78" gradientTransform="translate(9358.36 -92569.7) scale(218.19 -218.19)" xlink:href="#Dorado"/>
    <clipPath id="clippath-26">
      <rect class="cls-wta-1" x="17.06" y="7.22" width="135.87" height="118.36"/>
    </clipPath>
    <linearGradient id="Dorado-6" data-name="Dorado" x1="40.34" y1="109.93" x2="54.04" y2="109.93" gradientTransform="matrix(1,0,0,1,0,0)" xlink:href="#Dorado"/>
    <clipPath id="clippath-27">
      <path class="cls-wta-1" d="M84.67,83.26c-28.02,0-49.78,12.77-49.78,12.77l5.47,13.55s20.62-11.41,44.62-11.42c20.96,0,39.4,8.06,44.73,11.08l5.63-13.28s-20.81-12.66-50.56-12.69h-.11Z"/>
    </clipPath>
    <linearGradient id="Dorado-7" data-name="Dorado" x1="-42.81" y1="-424.83" x2="-42.19" y2="-424.83" gradientTransform="translate(9358.37 -92597.28) scale(218.19 -218.19)" xlink:href="#Dorado"/>
    <clipPath id="clippath-28">
      <path class="cls-wta-53" d="M51.51,112.7c-.1-.04-.19-.09-.29-.13-.07-.03-.15-.07-.22-.1-2.27-.97-5.07-1.78-7.51-2.48,0,0-.98-.29-1.85-.55,1.38-.71,4.1-2.01,7.85-3.46.3.65,2.41,5.28,3.37,7.39-.41-.24-.86-.46-1.34-.68M120.65,105.57c.64.25,1.27.5,1.88.75.36.15.71.3,1.07.45,2.13.92,3.77,1.74,4.85,2.31-.84.25-1.75.53-1.75.53-2.01.58-4.25,1.23-6.25,1.99-1.21.45-2.32.94-3.25,1.46.99-2.15,3.18-6.87,3.46-7.49M30.87,112.52s-8.94-1.37-11.05-1.7c2.41-1.37,8.56-4.55,17.61-7.18.23.57,1.71,4.22,2.3,5.71.15.38.25.62.25.62h0s.03,0,.03,0l.17.07.21.06,2.83.84c3.18.91,7.39,2.11,9.63,3.57-13.79,2.1-23.78,6.64-27.64,8.63,1.15-2.17,5.66-10.64,5.66-10.64M117.13,114.23c.15-.1.31-.2.48-.29,2.36-1.36,6.28-2.49,9.3-3.36l2.75-.83.39-.12v-.02s.04,0,.04,0l.26-.62,2.37-5.59c8.95,2.61,15.03,5.76,17.43,7.13-2.14.31-11.2,1.63-11.2,1.63,0,0,4.61,8.51,5.8,10.7-3.88-2-13.85-6.53-27.62-8.62M35.5,96.23c2.75-1.55,23.69-12.52,49.28-12.49,27.11.03,47.31,10.82,49.96,12.4-.15.35-1.37,3.22-2.59,6.11l-.17.38s-1.96,4.59-2.51,5.88c-2.34-1.28-4.95-2.48-7.93-3.65-.31-.12-.63-.25-.95-.37h0s-.01,0-.01,0l-.41-.16h0c-7.67-2.9-21.38-6.67-35.17-6.66-13.55,0-27.57,4.29-35.34,7.22h-.05c-2.18.71-6.83,2.83-8.99,3.98-.39-.97-4.81-11.92-5.1-12.64M84.68,82.77c-27.84,0-49.85,12.72-50.04,12.84l-.35.22,2.79,6.91c-11.91,3.47-18.86,7.91-18.93,7.96l-1.07.69s11.11,1.71,12.31,1.89c-.58,1.08-6.55,12.31-6.55,12.31l1.45-.82c2.08-1.18,13.28-7.12,29.73-9.43.3-.04.55-.08.78-.11l-4.38-9.58c7.69-2.86,21.41-7,34.59-7.01,13.6,0,27.17,3.72,34.76,6.58l-4.15,8.99h0s-.35.73-.35.73c0,0,.34.06.74.11,16.46,2.32,27.65,8.26,29.73,9.44l1.47.83s-6.12-11.3-6.71-12.4c1.22-.18,12.47-1.81,12.47-1.81l-1.09-.7c-.07-.04-6.95-4.44-18.75-7.9l2.85-6.73-.34-.22c-.19-.12-21.28-12.73-50.83-12.77h-.1Z"/>
    </clipPath>
    <clipPath id="clippath-29">
      <rect class="cls-wta-1" x="17.06" y="7.22" width="135.87" height="118.36"/>
    </clipPath>
    <linearGradient id="Dorado-8" data-name="Dorado" x1="29.65" y1="124.59" x2="39.82" y2="124.59" gradientTransform="matrix(1,0,0,1,0,0)" xlink:href="#Dorado"/>
    <linearGradient id="Dorado-9" data-name="Dorado" x1="40.3" y1="124.72" x2="50.71" y2="124.72" gradientTransform="matrix(1,0,0,1,0,0)" xlink:href="#Dorado"/>
    <linearGradient id="Dorado-10" data-name="Dorado" x1="51.17" y1="124.59" x2="61.34" y2="124.59" gradientTransform="matrix(1,0,0,1,0,0)" xlink:href="#Dorado"/>
    <linearGradient id="Dorado-11" data-name="Dorado" x1="61.93" y1="124.59" x2="72.1" y2="124.59" gradientTransform="matrix(1,0,0,1,0,0)" xlink:href="#Dorado"/>
    <linearGradient id="Dorado-12" data-name="Dorado" x1="98.93" y1="124.59" x2="109.11" y2="124.59" gradientTransform="matrix(1,0,0,1,0,0)" xlink:href="#Dorado"/>
    <linearGradient id="Dorado-13" data-name="Dorado" x1="109.59" y1="124.72" x2="120" y2="124.72" gradientTransform="matrix(1,0,0,1,0,0)" xlink:href="#Dorado"/>
    <linearGradient id="Dorado-14" data-name="Dorado" x1="120.45" y1="124.59" x2="130.63" y2="124.59" gradientTransform="matrix(1,0,0,1,0,0)" xlink:href="#Dorado"/>
    <linearGradient id="Dorado-15" data-name="Dorado" x1="131.17" y1="124.85" x2="141.35" y2="124.85" gradientTransform="matrix(1,0,0,1,0,0)" xlink:href="#Dorado"/>
    <linearGradient id="Dorado-16" data-name="Dorado" x1="81.37" y1="124.75" x2="89.73" y2="124.75" gradientTransform="matrix(1,0,0,1,0,0)" xlink:href="#Dorado"/>
  </defs>
  <g class="cls-wta-67">
    <rect class="cls-wta-53" x="41.31" y="22.35" width="69.16" height="69.16" transform="translate(-14.28 86.44) rotate(-55)"/>
  </g>
  <g class="cls-wta-35">
    <rect class="cls-wta-11" x="42.22" y="23.27" width="67.33" height="67.33" transform="translate(-18.03 70.33) rotate(-45)"/>
  </g>
  <g class="cls-wta-38">
    <rect class="cls-wta-66" x="52.55" y="33.6" width="46.66" height="46.66"/>
  </g>
  <g class="cls-wta-36">
    <rect class="cls-wta-45" x="72.34" y="41.88" width="2.41" height="3.44"/>
  </g>
  <g class="cls-wta-37">
    <rect class="cls-wta-64" x="70.92" y="43.17" width="1.63" height="1.51"/>
  </g>
  <g>
    <path class="cls-wta-60" d="M70.92,33.54l.17.47-.62-.43c-3.98.92-7.58,2.86-10.49,5.54l.22.45.14.05h-.12l.05.07-.3.1-.12.15.03.31.14.07-.09.1.17.15-.1.05.22-.05-.17.08.1.09-.1.05h.29l-.27.05.37.15-.19.07.83-.05-.15.1.22.07-.12.15.12.05.49-.05-.12-.15.24-.02.41-.47.03-.24-.1-.07.36-.12-.1-.07.19.02-.02-.1.29-.07-.15-.1.22.03.03-.15-.2-.07.34-.02-.2-.2.07-.08.24.02.15-.07-.07-.09.17-.05h.39l.03-.12h.1l.12-.17.17.05-.22.12.12.05.05-.1.32.07.12-.19.29.03.42-.24.19-.24.37-.12-.07-.19.17.19.39-.03.14-.09,1-.1,1.29-.54-.85-.07-.73.12.42-.12-.61-.02.22-.05.02-.12.75-.1-.44-.07-.1-.07.05-.05.71.17.25.29h.22l.05-.12.22.12-.07-.2.15-.17-.24.08.19-.15-.31.05.19-.12-.49-.17-.27.12.05-.12.22-.07-.51-.02.51-.1-.46-.09.24.02.51-.19.39.19.51-.09.07-.12-.49-.15.15-.07.73.05-.46-.07.12-.12h-.22l.24-.07-.32-.1.58.12.08-.19-.34-.08.34-.04-.46-.05-.2-.15,1.15-.09v-.1l-.54-.02.12-.05-.07-.05.34-.02-.34-.07-.32.07.34-.25-.07-.02.05-.05.56-.15-.2.05.13-.15.51-.12-.66.1-.02-.1,1.02-.15h-1.19l1.53-.07-.03-.07.68-.12-.72-.21h-.03c-.12,0-.24-.06-.36-.12-.12-.06-.24-.12-.35-.12h-.04Z"/>
    <g class="cls-wta-43">
      <rect class="cls-wta-58" x="59.85" y="33.54" width="12.58" height="7.83"/>
    </g>
  </g>
  <g class="cls-wta-40">
    <rect class="cls-wta-65" x="78.89" y="34.69" width="2.22" height=".39"/>
  </g>
  <g>
    <polygon class="cls-wta-63" points="78.48 34.91 78.65 35.15 78.26 34.91 78.07 34.98 78.14 35.08 77.7 34.98 78.04 34.89 77.31 34.98 77.46 35.1 77.63 35.06 77.55 35.13 77.72 35.18 77.48 35.15 77.92 35.27 77.72 35.3 77.87 35.37 78.26 35.32 78.21 35.3 78.26 35.23 78.43 35.18 78.48 35.3 78.72 35.23 78.68 35.3 78.89 35.32 78.02 35.44 78.09 35.52 78.8 35.47 78.31 35.54 78.6 35.62 78.12 35.59 78.21 35.72 78.7 35.76 78.51 35.79 78.7 35.91 78.87 35.89 79.04 35.64 78.99 35.62 79.14 35.62 79.16 35.44 79.31 35.44 79.31 35.32 79.87 35.2 79.21 35.08 79.14 34.96 78.92 35.03 78.99 34.91 78.63 34.84 78.48 34.91"/>
    <g class="cls-wta-39">
      <rect class="cls-wta-61" x="77.31" y="34.84" width="2.56" height="1.07"/>
    </g>
  </g>
  <g class="cls-wta-42">
    <rect class="cls-wta-53" x="89.31" y="70.8" width="2.77" height="4.99"/>
  </g>
  <g class="cls-wta-41">
    <rect class="cls-wta-54" x="67.12" y="37.25" width="32.08" height="42.63"/>
  </g>
  <g class="cls-wta-20">
    <rect class="cls-wta-53" x="83.28" y="40.68" width=".86" height=".68"/>
  </g>
  <g class="cls-wta-17">
    <rect class="cls-wta-55" x="70.45" y="31.63" width="71.56" height="66.23" transform="translate(-7.74 114.63) rotate(-55)"/>
  </g>
  <g class="cls-wta-24">
    <rect class="cls-wta-2" x="70.82" y="85.19" width="29.32" height="20.76" transform="translate(-28.34 36.53) rotate(-20.77)"/>
  </g>
  <g>
    <path class="cls-wta-12" d="M67.63,73.22c.32,1.38,2.23,3.93,2.44,4.78.21.85-1.38,1.81-1.38,1.81,0,0-3.4-1.27-5.21-2.12-1.81-.85-3.51-2.66-4.68-3.83-1.17-1.17-3.19-2.66-3.82-2.66s-.85.85-.32,1.59c.53.74,3.19,4.57,4.25,5.63,1.06,1.06,2.66,3.3,3.51,4.78.85,1.49,2.45,1.91,6.16,3.19,3.72,1.28,4.15,2.87,4.36,3.93.1.47.05,1.9-.01,3.11l6.76,1.46,5.07-.03-.64-6.49s-.42-3.55-.65-4.19c-.23-.64-2.13-3.05-2.13-3.05-1.64.41-4.06.56-4.06.56,0,0-2.85-4.45-3.38-5.4-.53-.96-3.29-3.4-4.57-4.78-.33-.36-.63-.51-.88-.51-.71,0-1.05,1.19-.82,2.21"/>
    <g class="cls-wta-22">
      <rect class="cls-wta-14" x="50.88" y="63.55" width="37.14" height="38.8" transform="translate(-38.33 92.27) rotate(-55)"/>
    </g>
  </g>
  <g class="cls-wta-23">
    <rect class="cls-wta-44" x="87.34" y="65.76" width="20.05" height="18.54" transform="translate(-19.94 111.76) rotate(-55)"/>
  </g>
  <g class="cls-wta-21">
    <rect class="cls-wta-56" x="81.88" y="24.9" width="48.87" height="50.42" transform="translate(4.28 108.45) rotate(-55)"/>
  </g>
  <g class="cls-wta-18">
    <rect class="cls-wta-53" x="70.65" y="29.62" width="73.21" height="68.54" transform="translate(-6.6 115.1) rotate(-55)"/>
  </g>
  <g class="cls-wta-15">
    <rect class="cls-wta-53" x="49.29" y="64.62" width="35.43" height="36.06" transform="translate(-39.13 90.13) rotate(-55)"/>
  </g>
  <g class="cls-wta-19">
    <path class="cls-wta-53" d="M109.78,60.26c-.78-.11-1.43.14-1.88.65-.44.51-.06,1.27.27,1.33.2.03.51-.24.34-.44-.17-.21-.12-.69.38-.93.51-.24,1,.02,1.51,0,.75-.03,1.76-.4,2.27-1.22.38-.6.89-1.54.27-2.63-.81-1.44-2.53-.74-2.63-.51-.27.65-.09.49.31.31.37-.17,1.07-.21,1.64.54.41.55.1,1.33-.2,1.84-.31.51-1.28,1.2-2.28,1.06"/>
    <path class="cls-wta-53" d="M97.55,47.96c-.37-.36-1.51-1.26-1.83-1.46s-.43.13-.58.43c-.15.3-.19,1.11-.19,1.31,0,.18.23.18.86.31.28.06,2.43.25,2.43.25-.06-.13-.33-.49-.7-.85"/>
    <path class="cls-wta-53" d="M89.4,52.03c-.5-.13-.51-.08-.47.02.02.07.69.51,1.14.76.45.25.64.28.77.24.13-.05.4-.12-.04-.52-.44-.4-.9-.37-1.4-.5"/>
    <path class="cls-wta-53" d="M81.77,81.04l-.84.18s1.76,2,2.01,2.6c.22.54.75,1.89,1.07,8.93,0,.15.13,2.09.14,2.24l1.04-.32c-.17-2.01-.62-6.56-1.16-9.9-.31-1.87-1.28-2.53-2.25-3.73"/>
  </g>
  <g class="cls-wta-16">
    <rect class="cls-wta-3" x="30.28" y="7.71" width="109.19" height="109.19"/>
  </g>
  <g class="cls-wta-29">
    <rect class="cls-wta-53" x="29.8" y="7.22" width="110.16" height="110.16"/>
  </g>
  <g class="cls-wta-30">
    <rect class="cls-wta-53" x="45.17" y="22.6" width="79.41" height="79.41"/>
  </g>
  <g class="cls-wta-31">
    <path class="cls-wta-10" d="M40.74,86.29c-.36.3-.58.53-.63.74-.03.15.04.39.08.49.04.11.06.18-.03.22-.08.03-.14-.05-.2-.2-.24-.58-.45-1.21-.49-1.31-.04-.1-.28-.58-.54-1.23-.06-.16-.06-.25,0-.28.09-.04.14.05.18.16.04.09.08.2.16.26.09.08.17.07.3.02.15-.06.48-.33.93-.67.66-.49,3.62-2.91,4.17-3.37v-.04s-6.72.21-6.72.21c-.36.02-.48-.03-.52-.12-.05-.12.09-.25.39-.54l4.68-4.62v-.03c-.85.1-4.16.41-5.63.55-.29.03-.54.09-.69.15-.18.07-.29.24-.12.67.05.11.04.2-.02.23-.08.03-.14-.05-.2-.21-.24-.59-.4-1.08-.44-1.18-.03-.08-.26-.55-.41-.92-.05-.12-.06-.21,0-.24.08-.03.13.01.18.11.04.11.12.27.21.37.21.23.71.17,1.44.14,1.62-.06,5.65-.34,7.55-.47.44-.04.6-.03.66.11.05.11-.06.23-.41.57l-4.65,4.61v.02c.67-.02,5.23-.15,6.45-.08.55.02.7.03.76.16.05.11-.06.21-.31.43l-6.13,5.26Z"/>
    <path class="cls-wta-10" d="M38.88,71.02c-2.06.17-4.83-.96-5.13-4.57-.25-2.99,1.34-5.01,4.09-5.24,2.76-.23,5.09,1.51,5.35,4.57.29,3.45-2.18,5.07-4.31,5.24M38.42,62.85c-2.69.23-4.24,1.92-4.07,3.89.12,1.38,1.02,2.89,4.01,2.64,2.5-.21,4.37-1.76,4.18-4.07-.07-.84-.64-2.76-4.12-2.46"/>
    <path class="cls-wta-10" d="M37.48,56.74c-1.81-.31-2.14-.36-2.53-.4-.41-.05-.62.02-.76.4-.04.09-.09.29-.11.46-.02.13-.06.2-.14.18-.08-.01-.09-.1-.06-.28.11-.63.27-1.38.31-1.62.07-.41.19-1.32.25-1.69.13-.75.33-1.53.88-2.1.28-.3.97-.67,1.77-.53.88.15,1.63.66,2.4,2.02,1.51-.83,2.71-1.48,3.57-2.05.8-.55.97-1.02,1.03-1.2.05-.13.08-.23.09-.33.02-.1.06-.14.12-.13.09.02.1.1.08.25l-.19,1.13c-.11.67-.22.95-.44,1.23-.36.46-1,.82-2.03,1.33-.73.37-1.64.78-1.84.9-.08.05-.1.12-.12.2l-.2,1.03c-.01.06,0,.1.08.11l.17.03c1.11.19,2.05.35,2.56.37.35.02.62,0,.73-.35.05-.17.12-.43.15-.58.01-.1.06-.14.12-.13.08.01.11.1.08.26-.12.69-.3,1.56-.33,1.74-.04.23-.13.98-.21,1.46-.03.16-.08.23-.16.22-.06-.01-.09-.06-.06-.21.03-.18.03-.33.02-.44,0-.25-.26-.35-.6-.46-.49-.14-1.43-.3-2.52-.49l-2.1-.35ZM38.66,55.5c.13.02.18,0,.23-.07.13-.24.22-.59.27-.88.08-.48.06-.64-.06-.88-.2-.4-.69-.84-1.67-1.01-1.69-.29-2.37.75-2.49,1.45-.05.3-.07.51-.06.64,0,.09.05.12.15.14l3.62.61Z"/>
    <path class="cls-wta-10" d="M42.52,45.53c1.44.57,2.21.88,2.5.72.25-.12.44-.38.79-1.26.24-.59.4-1.04.21-1.44-.09-.19-.35-.45-.56-.56-.1-.05-.16-.1-.12-.19.03-.08.09-.07.23-.01.12.05.93.46,1.22.68.22.17.25.25.02.83-.32.81-.58,1.38-.79,1.88-.22.5-.39.89-.58,1.35-.05.12-.15.37-.24.65-.1.26-.2.56-.29.78-.06.15-.12.21-.2.18-.06-.02-.07-.08-.02-.22.07-.17.1-.31.12-.42.04-.24-.18-.4-.49-.57-.45-.24-1.33-.6-2.37-1.01l-1.97-.79c-1.71-.68-2.02-.8-2.39-.92-.39-.13-.61-.11-.83.23-.06.08-.12.21-.18.36-.05.12-.1.18-.18.15-.08-.03-.07-.12,0-.29.21-.53.52-1.22.64-1.52.11-.27.4-1.1.57-1.54.06-.16.12-.23.2-.19.08.03.07.11.02.24-.05.12-.11.31-.14.45-.06.33.09.49.47.67.35.16.66.29,2.37.97l1.97.79Z"/>
    <path class="cls-wta-10" d="M43.82,37.75c-1.5-1.06-1.77-1.25-2.1-1.46-.35-.22-.56-.25-.86.03-.08.07-.2.23-.3.36-.08.11-.14.15-.21.1-.07-.05-.04-.13.06-.28.37-.52.84-1.12,1.03-1.4.22-.31.63-.95,1.04-1.54.87-1.23,2.03-2.88,3.92-3.16.86-.13,2.01-.02,3.18.81,1.24.88,1.82,2.07,1.99,3.02.14.78.12,2.3-1.17,4.12-.25.35-.57.74-.86,1.09-.29.35-.57.68-.74.92-.08.11-.23.33-.39.57-.16.23-.32.5-.46.69-.09.13-.17.18-.24.13-.05-.03-.05-.1.03-.21.1-.15.17-.28.21-.38.1-.22-.08-.43-.34-.67-.38-.34-1.16-.89-2.07-1.53l-1.74-1.23ZM45.78,37.28c1.04.74,1.81,1.26,2.01,1.39.25.16.66.42.83.42.28,0,.76-.23,1.31-1.01.71-1,.99-1.81.89-2.77-.1-1.01-.85-1.84-1.87-2.56-1.25-.89-2.43-.93-3.13-.8-1.51.29-2.42,1.33-2.96,2.1-.14.2-.37.58-.38.69-.02.12,0,.18.11.26.33.25,1.19.85,1.96,1.4l1.24.88Z"/>
    <path class="cls-wta-10" d="M55.57,21.11l-1.45,1.06c-.56.42-.77.63-.76.96,0,.22.04.37.07.46.03.09.03.15-.03.19-.07.05-.12.01-.2-.1-.11-.16-.55-1.19-.58-1.28-.06-.15-.07-.23-.01-.27.08-.05.25-.02.51-.18.31-.17.7-.41,1.03-.64l3.93-2.73c.32-.22.52-.4.65-.52.13-.13.19-.21.23-.24.07-.05.12,0,.22.15.14.21.59.91.77,1.17.06.11.08.18.02.22-.08.05-.13.02-.25-.12l-.09-.1c-.2-.24-.66-.34-1.56.26l-1.27.84,2.82,4.07c.63.91,1.18,1.7,1.52,2.09.22.26.43.43.76.27.15-.08.38-.21.53-.31.11-.07.18-.08.21-.03.05.07-.01.15-.12.23-.65.45-1.3.86-1.58,1.05-.23.16-.83.62-1.23.9-.13.09-.22.11-.27.04-.03-.05-.01-.11.1-.19.15-.1.25-.2.33-.29.17-.18.08-.44-.09-.74-.24-.45-.78-1.23-1.42-2.15l-2.82-4.07Z"/>
    <path class="cls-wta-10" d="M64.78,18.93c-.68-1.71-.81-2.02-.97-2.37-.17-.37-.34-.52-.74-.45-.1.01-.29.08-.45.14-.12.05-.2.06-.23-.02-.03-.08.04-.13.21-.2.59-.24,1.31-.48,1.55-.58.38-.15,1.22-.53,1.57-.67.71-.28,1.48-.51,2.26-.34.4.09,1.08.48,1.38,1.23.33.83.29,1.73-.48,3.1,1.5.86,2.67,1.55,3.61,1.98.89.4,1.38.29,1.56.26.13-.03.24-.06.33-.09.09-.04.15-.02.17.04.04.09-.03.14-.17.2l-1.07.43c-.63.25-.93.31-1.28.26-.58-.06-1.22-.42-2.19-1.03-.7-.44-1.52-.99-1.73-1.1-.08-.05-.15-.03-.23,0l-.98.37c-.06.02-.08.06-.05.13l.06.16c.42,1.04.77,1.93,1.01,2.38.16.31.33.53.68.44.18-.04.43-.12.57-.17.09-.04.15-.02.17.03.03.08-.03.14-.18.2-.65.26-1.49.56-1.66.62-.21.09-.91.4-1.36.58-.15.06-.24.05-.27-.02-.02-.06.01-.11.14-.16.17-.07.29-.14.39-.21.21-.13.16-.4.08-.75-.13-.49-.49-1.38-.9-2.41l-.79-1.97ZM66.45,19.28c.05.12.09.16.18.16.27-.02.62-.12.9-.23.45-.18.58-.28.72-.51.24-.38.36-1.03,0-1.94-.64-1.59-1.87-1.63-2.54-1.37-.28.11-.48.2-.57.28-.07.05-.08.11-.04.2l1.36,3.41Z"/>
    <path class="cls-wta-10" d="M76.05,17.88c-.06.01-.08.04-.09.11l-.37,1.81c-.07.32-.09.61-.06.76.03.21.16.35.53.29l.18-.03c.14-.02.18,0,.19.07.01.1-.05.13-.18.15-.38.06-.9.1-1.27.16-.13.02-.78.16-1.4.26-.16.02-.23.01-.25-.08-.01-.07.03-.1.13-.12.11-.02.27-.05.37-.08.54-.16.7-.6.84-1.23l1.81-7.96c.09-.37.14-.51.26-.53.11-.02.2.08.36.33.39.61,3.07,5.18,4.12,6.87.62,1,.99,1.11,1.25,1.14.18,0,.36,0,.51-.03.1-.02.16-.01.17.07.01.09-.09.14-.53.2-.43.07-1.3.2-2.26.33-.22.02-.36.04-.37-.04-.01-.07.03-.1.15-.13.08-.04.15-.16.06-.29l-1.35-2.38c-.03-.05-.07-.07-.13-.06l-2.66.42ZM78.39,16.9c.06-.01.07-.05.05-.08l-1.54-2.78-.08-.1-.06.12-.63,3.11.06.08,2.19-.35Z"/>
    <path class="cls-wta-10" d="M83.56,12.15c-.25-.67-.45-.82-.88-.96-.18-.06-.37-.06-.47-.07-.11,0-.14-.04-.14-.11,0-.1.14-.1.32-.1.64.03,1.32.1,1.75.11.3.01.88,0,1.48.03.14,0,.28.04.27.12,0,.08-.08.1-.19.1-.19,0-.37,0-.48.06-.09.06-.13.14-.13.25,0,.16.09.5.24.94l1.84,5.57h.05c.58-1.3,2.32-5.12,2.64-5.9.06-.15.12-.33.13-.44,0-.1-.04-.2-.15-.24-.14-.05-.32-.07-.48-.08-.11,0-.2-.02-.2-.11,0-.1.12-.12.35-.11.6.03,1.11.09,1.26.09.2,0,.77,0,1.13.01.16,0,.25.03.25.12,0,.09-.08.11-.2.1-.12,0-.37-.02-.6.12-.16.1-.35.3-.71,1.06-.52,1.11-.88,1.75-1.59,3.2-.85,1.73-1.47,3.02-1.77,3.61-.34.69-.42.88-.59.87-.16,0-.22-.18-.43-.76l-2.72-7.5Z"/>
    <path class="cls-wta-10" d="M95.02,15.63c.46-1.78.54-2.1.62-2.48.08-.4.03-.62-.33-.8-.09-.05-.28-.11-.45-.15-.13-.03-.19-.08-.17-.16.02-.08.11-.08.28-.04.32.08.65.18.94.26.3.09.57.17.73.21.37.1,2.7.7,2.93.74.23.03.42.06.52.06.06,0,.14-.01.2,0,.06.01.06.06.04.12-.02.08-.12.21-.29.73-.04.11-.2.62-.26.76-.03.06-.07.12-.15.1-.08-.02-.09-.09-.06-.19.02-.08.06-.28.04-.44-.03-.23-.11-.4-.67-.62-.19-.08-1.41-.42-1.65-.48-.06-.02-.09.01-.11.1l-.76,2.96c-.02.08-.02.13.05.15.26.07,1.6.41,1.88.46.29.05.47.06.6-.03.11-.07.17-.12.23-.1.05.01.08.04.06.11-.02.07-.11.25-.31.83-.07.23-.23.69-.25.77-.02.09-.05.22-.16.19-.08-.02-.09-.07-.08-.13.02-.12.06-.27.06-.43,0-.25-.12-.47-.54-.62-.22-.08-1.37-.39-1.65-.46-.06-.01-.08.03-.1.1l-.24.92c-.1.4-.39,1.47-.47,1.81-.18.81-.04,1.04,1.15,1.34.3.08.8.2,1.14.14.34-.06.54-.27.75-.73.06-.12.09-.16.17-.14.09.02.07.12.04.24-.07.27-.37,1.04-.49,1.26-.16.28-.27.26-.71.14-.88-.23-1.52-.42-2.02-.56-.5-.15-.86-.26-1.21-.35-.13-.03-.39-.1-.67-.16-.27-.07-.58-.12-.81-.18-.15-.04-.22-.1-.2-.18.01-.06.07-.08.21-.05.17.05.32.06.43.06.24.01.37-.23.5-.56.19-.48.42-1.4.7-2.47l.53-2.06Z"/>
    <path class="cls-wta-10" d="M104.32,21.05c-.67,1.4-1.03,2.15-.89,2.45.11.25.35.46,1.2.87.58.28,1.01.47,1.42.3.2-.08.47-.32.6-.52.06-.09.11-.15.2-.11.08.04.06.1,0,.23-.06.12-.52.9-.76,1.18-.18.21-.26.24-.83-.03-.79-.37-1.34-.67-1.83-.91-.48-.26-.87-.45-1.31-.67-.12-.06-.36-.17-.63-.29-.25-.12-.54-.23-.76-.34-.14-.07-.2-.14-.16-.21.03-.05.08-.07.22,0,.16.08.3.12.41.14.24.06.41-.15.6-.45.27-.43.68-1.29,1.16-2.29l.91-1.92c.79-1.66.94-1.96,1.08-2.32.15-.38.15-.6-.17-.85-.08-.06-.2-.14-.34-.2-.12-.06-.18-.11-.14-.19.04-.08.12-.06.29.02.51.24,1.18.61,1.48.75.26.12,1.07.47,1.5.67.15.07.22.13.18.21-.04.08-.11.07-.24,0-.12-.06-.3-.13-.44-.17-.32-.09-.49.06-.7.43-.19.34-.33.64-1.13,2.3l-.91,1.92Z"/>
    <path class="cls-wta-10" d="M114.26,27.89s-.08-.04-.14,0l-1.65.82c-.29.14-.53.31-.63.42-.15.16-.17.35.1.6l.13.12c.11.1.12.14.07.19-.07.07-.13.04-.23-.05-.28-.26-.64-.64-.92-.9-.1-.09-.61-.51-1.07-.94-.12-.11-.15-.17-.09-.24.05-.05.1-.04.17.03.08.07.21.18.29.24.46.32.9.18,1.49-.1l7.38-3.5c.34-.16.49-.2.58-.12.08.07.06.2-.04.49-.24.68-2.17,5.61-2.85,7.48-.4,1.11-.26,1.47-.12,1.69.11.15.23.28.34.38.07.06.11.12.05.18-.07.07-.16.01-.49-.29-.32-.3-.96-.9-1.66-1.57-.15-.16-.26-.25-.2-.32.05-.05.1-.04.2.04.08.04.21.02.27-.13l1.03-2.53c.02-.06.01-.1-.03-.14l-1.97-1.83ZM116.48,29.12h.09s1.23-2.94,1.23-2.94l.03-.12-.13.03-2.83,1.42-.02.09,1.63,1.51Z"/>
    <path class="cls-wta-10" d="M124,30.66c.3-.36.47-.63.48-.84,0-.16-.11-.38-.17-.47-.06-.1-.09-.17-.01-.22.07-.05.14.02.23.17.34.53.66,1.11.72,1.2.06.09.37.52.75,1.11.09.14.11.23.04.27-.08.05-.14-.02-.2-.13-.05-.08-.12-.18-.2-.23-.1-.06-.18-.04-.3.03-.13.08-.41.41-.79.82-.56.6-3.05,3.51-3.5,4.06l.02.03,6.56-1.4c.35-.08.48-.06.53.02.07.11-.05.26-.29.6l-3.78,5.38.02.03c.8-.25,4.01-1.15,5.42-1.55.28-.08.52-.18.66-.27.16-.1.25-.29,0-.68-.06-.1-.08-.19-.02-.23.07-.04.14.02.24.18.34.54.59.99.64,1.08.05.07.35.49.57.83.07.11.1.2.03.23-.07.05-.13.01-.19-.08-.06-.1-.17-.24-.28-.32-.25-.19-.73-.04-1.44.12-1.58.35-5.5,1.34-7.35,1.81-.43.12-.58.14-.67,0-.06-.1.02-.24.3-.63l3.76-5.37v-.02c-.65.14-5.12,1.07-6.34,1.23-.54.07-.7.1-.77-.02-.06-.1.02-.21.23-.47l5.1-6.27Z"/>
    <path class="cls-wta-10" d="M127.41,46.96c-.02-.06-.05-.07-.13-.07l-1.84-.11c-.32-.02-.62,0-.76.05-.21.06-.32.21-.21.57l.05.17c.04.14.03.18-.04.2-.09.03-.14-.03-.18-.16-.12-.37-.24-.87-.35-1.23-.04-.13-.27-.75-.46-1.35-.05-.15-.05-.23.05-.26.07-.02.11.02.14.11.03.11.1.26.14.35.24.51.7.6,1.35.65l8.14.62c.38.03.53.06.56.18.03.1-.05.2-.28.4-.55.47-4.67,3.79-6.19,5.08-.9.76-.95,1.15-.94,1.41.02.18.06.36.11.5.03.09.04.15-.05.18-.09.03-.15-.07-.28-.49-.13-.41-.4-1.25-.66-2.18-.05-.21-.1-.35-.01-.37.07-.02.11.02.15.13.05.07.18.12.3.02l2.15-1.69s.06-.08.05-.14l-.81-2.57ZM128.72,49.13c.02.06.06.06.09.04l2.52-1.93.09-.09-.12-.03-3.17-.17-.06.07.66,2.12Z"/>
    <path class="cls-wta-10" d="M132.12,55.75c1.83-.15,2.17-.18,2.55-.23.41-.06.59-.17.64-.57.02-.1,0-.31,0-.47-.01-.13,0-.21.09-.21.09,0,.12.08.13.25.05.64.08,1.4.1,1.65.03.41.14,1.32.17,1.69.06.76.05,1.57-.34,2.26-.2.36-.78.89-1.58.95-.89.07-1.74-.23-2.83-1.37-1.26,1.18-2.26,2.1-2.95,2.87-.65.73-.69,1.23-.71,1.41-.01.13-.02.24,0,.34,0,.1-.02.15-.08.15-.1,0-.13-.07-.14-.22l-.09-1.14c-.06-.67-.02-.98.12-1.31.23-.54.76-1.04,1.64-1.79.62-.54,1.4-1.15,1.56-1.33.07-.07.07-.14.07-.22l-.06-1.05c0-.06-.03-.09-.1-.09h-.17c-1.12.1-2.07.18-2.57.28-.34.06-.6.16-.62.52,0,.18-.01.45,0,.59,0,.1-.02.15-.08.15-.08,0-.13-.07-.14-.23-.06-.7-.09-1.59-.11-1.77-.02-.23-.12-.98-.15-1.46-.01-.16.02-.24.1-.25.06,0,.1.04.11.18.01.18.05.32.08.43.07.24.34.27.69.29.51.02,1.46-.06,2.57-.15l2.12-.17ZM131.28,57.25c-.13.01-.18.04-.21.13-.06.26-.07.62-.04.92.04.48.1.63.27.84.3.34.88.64,1.86.56,1.71-.14,2.11-1.31,2.05-2.02-.02-.3-.06-.52-.1-.63-.03-.08-.08-.1-.18-.09l-3.66.3Z"/>
    <path class="cls-wta-10" d="M132.4,66.89c1.81.32,2.14.38,2.52.42.41.05.62-.01.77-.39.04-.09.09-.29.12-.46.02-.13.06-.2.14-.18.08.01.09.1.06.28-.11.63-.28,1.37-.34,1.71-.06.37-.16,1.12-.29,1.84-.26,1.48-.61,3.47-2.2,4.53-.72.49-1.81.87-3.22.62-1.5-.26-2.53-1.1-3.09-1.88-.46-.65-1.09-2.03-.7-4.23.08-.43.2-.91.31-1.35.12-.45.22-.86.28-1.15.02-.13.07-.39.11-.68.05-.27.08-.59.12-.83.03-.15.08-.23.16-.22.06,0,.09.06.06.21-.03.18-.03.33-.03.44,0,.25.26.35.59.46.49.15,1.43.31,2.52.51l2.09.37ZM130.82,68.15c-1.26-.22-2.18-.37-2.41-.4-.3-.04-.78-.1-.93-.03-.25.12-.59.53-.75,1.47-.21,1.21-.12,2.06.37,2.88.52.88,1.56,1.31,2.79,1.52,1.51.27,2.6-.19,3.17-.62,1.24-.91,1.62-2.24,1.78-3.17.04-.24.08-.68.05-.79-.03-.12-.08-.16-.21-.18-.4-.08-1.44-.27-2.38-.43l-1.5-.26Z"/>
    <path class="cls-wta-10" d="M124.43,76.9c.15-.14.22-.15.47-.05.61.26,1.26.59,1.43.68.16.08.27.17.23.26-.04.1-.15.07-.23.03-.14-.06-.4-.12-.61-.14-.93-.11-1.51.41-1.8,1.1-.43,1,.03,1.78.62,2.03.54.24,1.12.29,2.24-.32l.62-.34c1.48-.81,2.44-.9,3.34-.51,1.22.53,1.65,1.92.99,3.46-.31.72-.62,1.14-.83,1.39-.07.09-.12.13-.2.1-.14-.06-.44-.24-1.31-.62-.24-.11-.32-.18-.28-.27.03-.08.12-.08.25-.02.1.04.47.14.86.03.28-.08.75-.25,1.06-.97.35-.82.09-1.53-.57-1.81-.51-.22-1.01-.13-2.1.49l-.37.21c-1.59.9-2.56,1.05-3.61.6-.64-.28-1.3-.85-1.48-1.87-.12-.71.05-1.37.31-1.96.28-.64.57-1.11.99-1.5"/>
  </g>
  <g class="cls-wta-32">
    <rect class="cls-wta-4" x="115.92" y="102.65" width="35.66" height="21.24"/>
  </g>
  <g class="cls-wta-33">
    <path class="cls-wta-57" d="M115.97,114.37c2.52-2.42,10.28-4.17,13.75-5.32-2.1-1.17-5.05-2.63-9.32-4.26l-4.43,9.58Z"/>
  </g>
  <g class="cls-wta-34">
    <rect class="cls-wta-5" x="18.4" y="102.89" width="35.67" height="21.29"/>
  </g>
  <g class="cls-wta-27">
    <path class="cls-wta-7" d="M54.04,114.65c-2.52-2.42-10.23-4.1-13.71-5.25,1.87-1.05,7.12-3.47,9.4-4.19l4.31,9.44Z"/>
  </g>
  <g class="cls-wta-25">
    <rect class="cls-wta-9" x="34.89" y="83.25" width="100.46" height="26.31"/>
  </g>
  <g>
    <path class="cls-wta-53" d="M51.51,112.7c-.1-.04-.19-.09-.29-.13-.07-.03-.15-.07-.22-.1-2.27-.97-5.07-1.78-7.51-2.48,0,0-.98-.29-1.85-.55,1.38-.71,4.1-2.01,7.85-3.46.3.65,2.41,5.28,3.37,7.39-.41-.24-.86-.46-1.34-.68M120.65,105.57c.64.25,1.27.5,1.88.75.36.15.71.3,1.07.45,2.13.92,3.77,1.74,4.85,2.31-.84.25-1.75.53-1.75.53-2.01.58-4.25,1.23-6.25,1.99-1.21.45-2.32.94-3.25,1.46.99-2.15,3.18-6.87,3.46-7.49M30.87,112.52s-8.94-1.37-11.05-1.7c2.41-1.37,8.56-4.55,17.61-7.18.23.57,1.71,4.22,2.3,5.71.15.38.25.62.25.62h0s.03,0,.03,0l.17.07.21.06,2.83.84c3.18.91,7.39,2.11,9.63,3.57-13.79,2.1-23.78,6.64-27.64,8.63,1.15-2.17,5.66-10.64,5.66-10.64M117.13,114.23c.15-.1.31-.2.48-.29,2.36-1.36,6.28-2.49,9.3-3.36l2.75-.83.39-.12v-.02s.04,0,.04,0l.26-.62,2.37-5.59c8.95,2.61,15.03,5.76,17.43,7.13-2.14.31-11.2,1.63-11.2,1.63,0,0,4.61,8.51,5.8,10.7-3.88-2-13.85-6.53-27.62-8.62M35.5,96.23c2.75-1.55,23.69-12.52,49.28-12.49,27.11.03,47.31,10.82,49.96,12.4-.15.35-1.37,3.22-2.59,6.11l-.17.38s-1.96,4.59-2.51,5.88c-2.34-1.28-4.95-2.48-7.93-3.65-.31-.12-.63-.25-.95-.37h0s-.01,0-.01,0l-.41-.16h0c-7.67-2.9-21.38-6.67-35.17-6.66-13.55,0-27.57,4.29-35.34,7.22h-.05c-2.18.71-6.83,2.83-8.99,3.98-.39-.97-4.81-11.92-5.1-12.64M84.68,82.77c-27.84,0-49.85,12.72-50.04,12.84l-.35.22,2.79,6.91c-11.91,3.47-18.86,7.91-18.93,7.96l-1.07.69s11.11,1.71,12.31,1.89c-.58,1.08-6.55,12.31-6.55,12.31l1.45-.82c2.08-1.18,13.28-7.12,29.73-9.43.3-.04.55-.08.78-.11l-4.38-9.58c7.69-2.86,21.41-7,34.59-7.01,13.6,0,27.17,3.72,34.76,6.58l-4.15,8.99h0s-.35.73-.35.73c0,0,.34.06.74.11,16.46,2.32,27.65,8.26,29.73,9.44l1.47.83s-6.12-11.3-6.71-12.4c1.22-.18,12.47-1.81,12.47-1.81l-1.09-.7c-.07-.04-6.95-4.44-18.75-7.9l2.85-6.73-.34-.22c-.19-.12-21.28-12.73-50.83-12.77h-.1Z"/>
    <g class="cls-wta-28">
      <rect class="cls-wta-53" x="17.06" y="82.77" width="135.87" height="42.82"/>
    </g>
  </g>
  <g class="cls-wta-26">
    <polygon points="126.19 94.66 125.68 96.08 125.17 94.66 124.6 94.66 124.6 96.65 124.97 96.65 124.97 95.05 125.52 96.65 125.84 96.65 126.39 95.05 126.39 96.65 126.76 96.65 126.76 94.66 126.19 94.66"/>
    <polygon points="122.57 94.99 123.22 94.99 123.22 96.65 123.62 96.65 123.62 94.99 124.27 94.99 124.27 94.66 122.57 94.66 122.57 94.99"/>
    <path d="M120.55,96.69h-.02v.03c-.04.14-.1.24-.19.31-.09.07-.2.11-.33.11-.21,0-.36-.07-.47-.23-.11-.15-.17-.34-.17-.57,0-.16.03-.3.1-.44.11-.21.27-.31.51-.31.17,0,.29.04.38.13.09.09.14.19.15.31v.03h.39v-.04c-.03-.32-.18-.55-.44-.69-.15-.08-.32-.11-.51-.11-.3,0-.55.11-.74.33-.19.22-.28.49-.28.81,0,.35.11.63.32.83.2.21.46.31.75.31.23,0,.43-.06.6-.2.17-.13.28-.32.32-.56v-.04s-.04,0-.04,0h-.31Z"/>
    <path d="M119.93,94.43c-.53,0-.99.19-1.36.56-.38.37-.57.83-.57,1.36s.19.99.57,1.37c.37.38.83.57,1.36.57s.99-.19,1.36-.57c.37-.38.56-.84.56-1.37s-.19-.99-.56-1.36c-.38-.37-.84-.56-1.36-.56M119.93,97.95c-.44,0-.82-.16-1.12-.47-.31-.31-.46-.69-.46-1.13s.16-.82.46-1.12c.31-.31.69-.47,1.12-.47s.81.16,1.12.47c.31.31.46.69.46,1.12s-.15.82-.46,1.13c-.31.31-.69.47-1.12.47"/>
  </g>
  <path class="cls-wta-10" d="M51.44,91.15c.5-.27,1.36-.38,2.24-.65,1.06-.32,1.57-.49,1.96-.62.08.01.16.29.1.36-.38.19-.56.28-.73.39-.23.15-.25.36-.05.68.79,1.32,2.64,4.15,3.65,5.77.02,0,.05-.01.06-.03.18-1.83.7-6.24.77-7.68.2-.03.65-.14.8-.19.69,1.21,3.48,5.4,4.27,6.59.02,0,.05-.01.06-.03.16-1.36.63-5.14.69-6.47.02-.54,0-.93-.54-.96-.28-.03-.53-.01-1.03.02-.08-.05-.11-.34-.07-.36.21-.14,1.28-.2,1.98-.33,1.08-.19,1.55-.3,1.92-.38.06.04.1.31.06.36-.38.13-.62.22-.78.31-.38.23-.55.49-.69,1.14-.4,1.98-1.03,6.93-1.18,8.81-.11,0-.61.11-.73.17-.66-1.27-3.15-5.09-4.27-6.65-.02,0-.05.03-.06.05-.25,1.96-.71,6.25-.78,7.81-.11.01-.6.15-.74.22-.98-1.76-3.73-6.01-4.72-7.32-.5-.65-.73-.8-1.23-.78-.3.01-.5.04-.89.12-.07-.03-.15-.33-.08-.36Z"/>
  <path class="cls-wta-10" d="M67.48,87.27c.18-.13,1.34-.16,2.24-.29.94-.13,1.83-.39,2.05-.32.05.02.11.29.06.36-.33.07-.63.16-.82.22-.37.16-.42.38-.38.89.05.64.25,2.09.43,3.47.22,1.62.43,3.15.53,3.7.08.45.18.72.63.79.23.02.56.03.91.03.07.04.05.35.01.37-.22.12-1.15.09-1.93.2-.94.13-1.71.44-2.15.37-.06,0-.1-.31-.06-.36.29-.08.56-.15.74-.23.42-.16.46-.4.44-.8-.02-.45-.32-2.46-.58-4.22-.19-1.3-.33-2.43-.5-3.13-.09-.36-.17-.64-.57-.68-.24-.02-.56-.03-1.03,0-.06-.04-.07-.35-.04-.37Z"/>
  <path class="cls-wta-10" d="M72.64,86.56c.23-.12,1.29-.09,2.05-.16.37-.04.68-.06.82-.09.08.14.23.33.73.81,1.99,1.91,5.76,5.89,6.54,6.76.02-.01.03-.02.05-.03-.04-2.15-.09-5.45-.2-6.54-.05-.47-.16-.73-.68-.85-.32-.07-.68-.11-1.14-.14-.06-.05-.04-.35,0-.37.27-.12,1.25,0,2.24-.01.59,0,1.64-.11,1.79-.06.06.02.05.32,0,.37-.3.05-.52.08-.73.15-.48.13-.57.45-.59.87-.06,1.22-.06,3.86-.05,6.41,0,.73.04,1.65.06,2.16-.18-.01-.85,0-1.04.02-.86-1.16-6.06-6.65-7.09-7.62-.02-.01-.07,0-.07.02.13,1.63.47,5.56.59,6.42.1.69.34.87.74.95.25.05.58.05.94.07.07.04.05.35.01.37-.21.1-1.09.03-1.95.12-.89.08-1.59.29-1.79.23-.04-.01-.09-.33-.04-.37.34-.07.55-.14.76-.23.34-.14.57-.35.54-1.05-.03-.78-.21-3.57-.51-6.86-.02-.22-.19-.57-.52-.74-.37-.19-.78-.24-1.44-.23-.06-.04-.06-.35-.02-.37Z"/>
  <path class="cls-wta-10" d="M85.37,85.87c.25-.09,1.29.06,2.05.08.38,0,.68.02.82,0,.07.15.19.36.63.89,1.75,2.13,5.03,6.53,5.71,7.48.02-.01.03-.02.05-.03.21-2.14.55-5.42.56-6.52,0-.48-.07-.75-.57-.92-.31-.11-.66-.19-1.12-.27-.05-.05,0-.35.05-.37.28-.09,1.24.15,2.22.25.59.06,1.65.08,1.78.15.06.02.02.32-.04.37-.31.01-.52.02-.74.06-.49.07-.62.38-.69.8-.2,1.21-.51,3.82-.8,6.36-.08.73-.15,1.64-.19,2.16-.18-.03-.84-.1-1.04-.1-.71-1.26-5.24-7.32-6.14-8.4-.02-.02-.07,0-.07.01-.06,1.63-.18,5.57-.16,6.44.02.7.24.91.62,1.03.24.07.57.12.92.18.06.05,0,.35-.03.37-.22.08-1.09-.09-1.95-.11-.89-.02-1.61.1-1.8.02-.04-.02-.05-.34,0-.37.34-.03.56-.07.78-.14.36-.1.6-.28.66-.98.06-.78.21-3.57.3-6.87,0-.22-.12-.59-.43-.79-.34-.23-.74-.33-1.4-.4-.05-.05-.02-.35.02-.37Z"/>
  <path class="cls-wta-10" d="M98.47,86.72c.3-.05,1.22.21,2.19.35,1.38.2,2.06.31,3.43.56.67.12,1.57.28,1.93.32.02,0,.04.06.04.07-.23.44-.56,1.44-.71,2.05-.08.05-.39-.01-.44-.05.04-.48.03-.79,0-1.03-.07-.39-.2-.62-.78-.76-.37-.09-2.4-.44-2.66-.45-.13,0-.22.16-.24.24-.13.78-.49,2.94-.57,3.48,0,.06.02.13.07.14.55.09,2.05.35,2.6.4.44.04.6-.14.75-.38.1-.16.19-.36.28-.57.09-.03.4.06.44.12-.11.29-.3.89-.4,1.43-.11.6-.11,1.22-.23,1.39-.03.05-.4,0-.43-.08,0-.31,0-.42-.02-.62-.03-.21-.09-.48-.53-.6-.46-.12-2-.39-2.56-.46-.03,0-.1.08-.1.11-.09.6-.38,2.48-.48,3.32-.04.35.12.58.28.64.3.12,1.35.32,2.18.47.83.14,1.07-.01,1.38-.23.29-.2.79-.76,1.15-1.24.05,0,.3.14.33.22-.18.45-.8,1.6-1.11,1.95-.13.15-.21.2-1.01.05-1.15-.22-2.11-.46-4.06-.75-1.05-.15-2.04-.07-2.4-.27-.04-.02-.03-.31.04-.37.46,0,.86.02,1.16-.01.37-.04.53-.22.66-.8.07-.32.33-2.11.58-3.9.21-1.48.4-2.93.41-3.21.03-.58-.02-.74-.42-.9-.22-.09-.48-.16-.87-.26-.05-.05.02-.34.08-.35Z"/>
  <path class="cls-wta-10" d="M107.85,88.33c.33,0,1.39.36,1.92.48,1.19.28,2.07.49,2.82.69,2.02.53,2.74,1.88,2.35,3.19-.38,1.29-1.54,1.77-2.63,1.9-.04,0-.05.07-.04.09.33,1.02,1.13,3.24,1.68,4.22.48.87.68,1.01,1.48,1.37.02.04-.1.32-.18.33-.67-.18-1.87-.61-2.35-1.03-.21-.18-.4-.44-.57-.82-.41-.84-1-2.78-1.4-3.78-.07-.2-.21-.31-.33-.35-.21-.07-.88-.22-1.11-.28-.03,0-.08.05-.09.08-.21.86-.57,2.35-.68,2.92-.12.57-.03.76.28.91.22.11.49.22.82.36.04.06-.07.35-.12.35-.2.01-1.07-.33-1.99-.54-1.07-.25-1.81-.3-1.97-.4-.05-.03,0-.33.08-.36.35.03.61.05.81.05.39,0,.56-.17.71-.74.11-.4.65-2.58.85-3.44.31-1.34.72-3.15.82-3.69.07-.42,0-.67-.39-.85-.23-.1-.54-.2-.87-.31-.04-.07.05-.35.11-.35ZM110.73,89.57s-.14.13-.16.19c-.15.47-.67,2.58-1,3.91-.01.05.03.11.04.11.87.26,1.73.47,2.11.43.58-.06,1.32-.42,1.63-1.55.4-1.44-.2-2.55-2.03-3.01-.16-.04-.42-.09-.61-.09Z"/>
  <g>
    <rect class="cls-wta-10" x="80.44" y="121.54" width="10.17" height="6.36"/>
    <g>
      <path class="cls-wta-10" d="M72.06,127.26h-1.05s.04-.03.05-.05c.39-.35.77-.7,1.12-1.09.54-.6.92-1.26,1.19-2.02.37-1.07.39-2.19.37-3.3-.02-1.21-.16-2.49-.89-3.49-.82-1.12-1.94-1.88-3.26-2.29-1.16-.36-2.46-.42-3.66-.27-.61.08-1.22.17-1.8.4-.67.26-1.21.56-1.77,1-.24.19-.47.41-.67.64-.15-.17-.3-.32-.47-.47-.11-.1-.23-.18-.36-.25-.51-.38-1.04-.68-1.65-.92-.67-.26-1.4-.37-2.12-.44-.79-.07-1.57,0-2.36.1-.69.1-1.32.31-1.96.59-.69.31-1.34.8-1.85,1.4-.15-.16-.28-.33-.45-.46-.09-.07-.18-.14-.27-.2-.92-.71-1.99-1.16-3.15-1.33-1.36-.19-2.75-.2-4.09.15-1.05.28-2.1.84-2.81,1.67-.02.03-.04.05-.06.08-.13-.14-.26-.27-.4-.39-.11-.1-.23-.18-.36-.25-.51-.38-1.04-.68-1.65-.92-.67-.26-1.4-.37-2.12-.44-.79-.07-1.57,0-2.36.1-.69.1-1.32.31-1.96.59-1.33.59-2.48,1.84-2.85,3.25-.25.94-.25,1.91-.25,2.87v1.97c0,.89.75,1.64,1.64,1.64h.68c-.14.15-.29.29-.42.44-.78.92-1.37,1.96-1.7,3.12-.24.85-.32,1.74-.32,2.62v1.56c0,.89.75,1.64,1.64,1.64h10.13c.58,0,1.11-.33,1.4-.81.35.22.71.4,1.11.56.63.26,1.3.37,1.97.44.64.07,1.3.08,1.94.04,1.23-.08,2.53-.34,3.58-1.03.29.47.81.79,1.39.79h10.13c.11,0,.21-.01.31-.03.1.02.21.03.31.03h10.13c.89,0,1.64-.75,1.64-1.64v-3.98c0-.89-.75-1.64-1.64-1.64ZM60.25,127.26c.24-.23.49-.45.73-.68.43-.42.84-.87,1.14-1.39.01-.02.02-.04.03-.06h.58c-.14.15-.29.29-.42.44-.44.52-.81,1.09-1.12,1.68h-.93Z"/>
      <path class="cls-wta-6" d="M38.53,117.47h0c-.93-.78-2.18-1.16-3.71-1.16-1.72,0-3.03.43-3.9,1.27-.49.46-.81.98-.95,1.54-.13.51-.19,1.12-.19,1.88v2.5h4.28v-2.68c0-.33.03-.43.04-.45.08-.24.22-.4.65-.4.21,0,.34.04.42.12.12.12.18.37.18.71v1.12c0,.4-.06.7-.19.89-.1.17-.39.51-1.18,1.24-.12.12-.39.37-.79.72-.43.37-.78.7-1.05.97-.27.27-.53.53-.78.8-1.14,1.25-1.71,2.78-1.71,4.56v1.77h10.13v-3.98h-4.95c.06-.12.12-.22.19-.31.2-.26.62-.69,1.24-1.28l.64-.59c.29-.26.5-.46.61-.57.63-.55,1.08-1,1.4-1.39.3-.38.53-.83.67-1.32.13-.47.21-.83.23-1.12.01-.25.02-.68.02-1.3,0-1.03-.1-1.77-.3-2.25-.19-.47-.52-.91-.99-1.3Z"/>
      <path class="cls-wta-8" d="M49.31,117.49c-.9-.78-2.23-1.18-3.94-1.18-2.69,0-4.33,1.04-4.88,3.1-.13.48-.19,1.09-.19,1.82v7.23c0,.81.11,1.5.31,2.06.5,1.4,1.64,2.25,3.41,2.53.44.06.94.09,1.5.09,1.94,0,3.34-.49,4.18-1.46.67-.79,1.01-1.96,1.01-3.5v-6.56c0-1.21-.1-2.05-.29-2.56-.23-.63-.61-1.16-1.11-1.56ZM46.11,128.65c0,.49-.1.68-.19.73-.04.02-.15.08-.43.08-.49,0-.53-.19-.56-.33-.03-.14-.05-.31-.05-.5v-7.77c0-.48.16-.56.2-.58.14-.07.28-.1.41-.1.5,0,.56.2.59.3.01.06.03.18.03.4v7.77Z"/>
      <path class="cls-wta-48" d="M60.05,117.47h0c-.93-.78-2.18-1.16-3.71-1.16-1.72,0-3.03.43-3.9,1.27-.49.46-.81.98-.95,1.54-.13.51-.19,1.12-.19,1.88v2.5h4.28v-2.68c0-.33.03-.43.04-.45.08-.24.22-.4.65-.4.18,0,.34.04.42.12.12.12.18.37.18.71v1.12c0,.4-.06.7-.19.89-.1.17-.39.51-1.18,1.24-.12.12-.39.37-.79.72-.43.37-.78.7-1.05.97-.27.27-.53.53-.78.8-1.14,1.25-1.71,2.78-1.71,4.56v1.77h10.13v-3.98h-4.95c.06-.12.12-.22.19-.31.2-.26.62-.69,1.24-1.28l.64-.59c.29-.26.5-.46.61-.57.63-.55,1.08-1,1.4-1.39.3-.38.53-.83.67-1.32.13-.47.21-.83.23-1.12.01-.25.02-.68.02-1.3,0-1.03-.1-1.77-.3-2.25-.19-.47-.52-.91-.99-1.3Z"/>
      <path class="cls-wta-50" d="M68.55,127.31l.63-.58c.29-.26.5-.46.61-.57.63-.55,1.08-1,1.4-1.39.3-.38.53-.83.67-1.32.13-.47.21-.83.23-1.12.01-.25.02-.68.02-1.3,0-1.03-.1-1.77-.3-2.25-.19-.47-.52-.91-1-1.31-.93-.77-2.18-1.16-3.71-1.16-1.72,0-3.03.43-3.9,1.27-.49.46-.81.98-.95,1.54-.13.51-.19,1.12-.19,1.88v2.5h4.28v-2.68c0-.33.03-.43.04-.45.08-.24.22-.4.65-.4.18,0,.34.04.42.12.12.12.18.37.18.71v1.12c0,.4-.06.7-.19.89-.1.17-.39.51-1.18,1.24-.12.12-.39.37-.79.72-.43.37-.78.7-1.05.97-.27.27-.53.53-.78.8-1.14,1.25-1.71,2.78-1.71,4.56v1.77h10.13v-3.98h-4.95c.06-.12.12-.22.19-.31.2-.26.62-.69,1.25-1.28Z"/>
    </g>
    <g>
      <path class="cls-wta-10" d="M142.96,125.21c-.02-.37-.08-.73-.13-1.09-.05-.31-.1-.62-.2-.92-.18-.53-.44-1.02-.78-1.45.45-.3.76-.8.76-1.37v-3.78c0-.89-.75-1.64-1.64-1.64h-9.62c-.64,0-1.2.39-1.47.94-.45-.3-.9-.56-1.43-.76-.69-.26-1.43-.37-2.16-.43-1.47-.12-2.96.11-4.3.72-.67.31-1.3.79-1.8,1.37-.14-.15-.28-.32-.44-.45-.97-.84-2.15-1.36-3.43-1.53-1.36-.19-2.75-.21-4.09.15-1.05.28-2.1.84-2.81,1.67-.02.03-.04.05-.06.08-.13-.14-.26-.27-.4-.4-.12-.1-.24-.19-.37-.26-.52-.37-1.04-.68-1.66-.92-.69-.26-1.43-.37-2.16-.43-1.47-.12-2.96.11-4.3.72-1.31.6-2.45,1.85-2.81,3.26-.24.93-.25,1.9-.25,2.86v1.96c0,.89.75,1.64,1.64,1.64h.68c-.14.15-.29.29-.42.44-.78.92-1.37,1.96-1.7,3.12-.24.85-.32,1.74-.32,2.62v1.56c0,.89.75,1.64,1.64,1.64h10.13c.58,0,1.11-.33,1.4-.81.35.22.71.4,1.11.56.63.26,1.3.37,1.97.44.64.07,1.3.08,1.94.04,1.23-.08,2.53-.34,3.58-1.03.29.47.81.79,1.39.79h10.13c.57,0,1.07-.31,1.37-.76.43.26.89.46,1.37.61.94.3,1.97.39,2.95.39,1.04,0,2.13-.11,3.1-.5.48-.19.95-.39,1.37-.7.58-.42,1.05-.88,1.45-1.47.64-.94.76-2.13.79-3.24.01-.59,0-1.18,0-1.77s.01-1.24-.02-1.86Z"/>
      <path class="cls-wta-49" d="M107.81,117.47c-.93-.77-2.18-1.16-3.71-1.16-1.72,0-3.03.43-3.9,1.27-.49.46-.81.98-.95,1.54-.13.51-.19,1.12-.19,1.88v2.5h4.28v-2.68c0-.33.03-.43.04-.45.08-.24.22-.4.65-.4.19,0,.34.04.42.12.12.12.18.37.18.71v1.12c0,.4-.06.7-.19.89-.1.17-.39.51-1.18,1.24-.12.12-.39.37-.79.72-.43.37-.78.7-1.05.97-.27.27-.53.53-.78.8-1.14,1.25-1.71,2.78-1.71,4.56v1.77h10.13v-3.98h-4.95c.06-.12.12-.22.19-.31.2-.26.62-.69,1.24-1.28l.64-.59c.29-.26.5-.46.61-.57.63-.55,1.08-1,1.4-1.39.3-.38.53-.83.67-1.32.13-.47.21-.83.23-1.12.01-.25.02-.68.02-1.3,0-1.03-.1-1.77-.3-2.25-.19-.47-.52-.91-1-1.31Z"/>
      <path class="cls-wta-46" d="M118.61,117.5c-.9-.79-2.23-1.19-3.95-1.19-2.69,0-4.33,1.04-4.88,3.1-.13.48-.19,1.09-.19,1.82v7.23c0,.81.11,1.5.31,2.06.5,1.4,1.64,2.25,3.41,2.53.44.06.94.09,1.5.09,1.94,0,3.34-.49,4.18-1.46.67-.79,1.01-1.96,1.01-3.5v-6.56c0-1.21-.1-2.05-.29-2.56-.23-.64-.61-1.17-1.1-1.56ZM115.4,120.88v7.77c0,.49-.1.68-.19.73-.04.02-.15.08-.43.08-.49,0-.53-.19-.56-.33-.03-.14-.05-.31-.05-.5v-7.77c0-.48.16-.56.2-.58.14-.07.28-.1.41-.1.5,0,.56.2.59.3.01.06.03.18.03.4Z"/>
      <path class="cls-wta-51" d="M129.33,117.47c-.93-.77-2.18-1.16-3.71-1.16-1.72,0-3.03.43-3.9,1.27-.49.46-.81.98-.95,1.54-.13.51-.19,1.12-.19,1.88v2.5h4.28v-2.68c0-.33.03-.43.04-.45.08-.24.22-.4.65-.4.19,0,.34.04.42.12.12.12.18.37.18.71v1.12c0,.4-.06.7-.19.89-.1.17-.39.51-1.18,1.24-.12.12-.39.37-.79.72-.43.37-.78.7-1.05.97-.27.27-.53.53-.78.8-1.14,1.25-1.71,2.78-1.71,4.56v1.77h10.13v-3.98h-4.95c.06-.12.12-.22.19-.31.2-.26.62-.69,1.24-1.28l.64-.59c.29-.26.5-.46.61-.57.63-.55,1.08-1,1.4-1.39.3-.38.53-.83.67-1.32.13-.47.21-.83.23-1.12.01-.25.02-.68.02-1.3,0-1.03-.1-1.77-.3-2.25-.19-.47-.52-.91-1-1.31Z"/>
      <path class="cls-wta-52" d="M141.32,125.21c-.01-.27-.06-.62-.14-1.06-.09-.49-.26-.91-.5-1.26-.24-.33-.54-.62-.92-.88-.63-.42-1.42-.63-2.32-.63-.73,0-1.35.15-1.84.43v-1.45h5.38v-3.78h-9.62v9.34h4.23v-.55c0-.13.02-.23.04-.3,0,0,.02-.05.12-.16.11-.06.25-.09.44-.09.48,0,.59.17.64.45l.02.21c.01.12.02.22.02.29v2.71c0,.46-.09.77-.23.85-.22.12-.6.13-.88-.05-.06-.04-.17-.23-.17-.74v-1.73h-4.43v1.54c0,1.14.1,1.96.32,2.49.61,1.5,2.22,2.26,4.79,2.26,1.73,0,3.05-.41,3.94-1.22.39-.36.67-.74.83-1.14.15-.38.24-.84.27-1.41.01-.25.02-.63.02-1.15v-1.85c0-.5,0-.88-.02-1.14Z"/>
    </g>
    <rect class="cls-wta-47" x="81.37" y="122.68" width="8.37" height="4.15"/>
  </g>
</svg>