<?xml version="1.0" encoding="UTF-8"?>
<svg id="Capa_6" xmlns="http://www.w3.org/2000/svg" xmlns:xlink="http://www.w3.org/1999/xlink" version="1.1" viewBox="0 0 534.37 320.15">
  <!-- Generator: Adobe Illustrator 30.1.0, SVG Export Plug-In . SVG Version: 2.1.1 Build 136)  -->
  <defs>
    <style>
      .stPrivateSnorkeling0 {
        fill: none;
      }

      .stPrivateSnorkeling1 {
        fill: #010101;
      }

      .stPrivateSnorkeling2 {
        fill: #fac83a;
      }

      .stPrivateSnorkeling3 {
        fill: #f7e018;
      }

      .stPrivateSnorkeling4 {
        fill: #f5a14a;
      }

      .stPrivateSnorkeling5 {
        fill: url(#Degradado_sin_nombre_3333);
      }

      .stPrivateSnorkeling6 {
        fill: url(#Degradado_sin_nombre_3335);
      }

      .stPrivateSnorkeling7 {
        fill: url(#Degradado_sin_nombre_3332);
      }

      .stPrivateSnorkeling8 {
        fill: url(#Degradado_sin_nombre_3331);
      }

      .stPrivateSnorkeling9 {
        fill: url(#Degradado_sin_nombre_3337);
      }

      .stPrivateSnorkeling10 {
        fill: url(#Degradado_sin_nombre_3334);
      }

      .stPrivateSnorkeling11 {
        fill: url(#Degradado_sin_nombre_3336);
      }

      .stPrivateSnorkeling12 {
        fill: url(#Degradado_sin_nombre_3339);
      }

      .stPrivateSnorkeling13 {
        fill: url(#Degradado_sin_nombre_3338);
      }

      .stPrivateSnorkeling14 {
        fill: url(#Degradado_sin_nombre_333);
      }
    </style>
    <linearGradient id="Degradado_sin_nombre_333" data-name="Degradado sin nombre 333" x1="-1069.58" y1="1095.84" x2="-994.32" y2="1095.84" gradientTransform="translate(1414.92 -494.51) rotate(19.39)" gradientUnits="userSpaceOnUse">
      <stop offset="0" stop-color="#dbdbdb"/>
      <stop offset=".41" stop-color="#fff"/>
      <stop offset="1" stop-color="#636363"/>
    </linearGradient>
    <linearGradient id="Degradado_sin_nombre_3331" data-name="Degradado sin nombre 333" x1="-992.7" y1="1017.03" x2="-949.56" y2="1017.03" xlink:href="#Degradado_sin_nombre_333"/>
    <linearGradient id="Degradado_sin_nombre_3332" data-name="Degradado sin nombre 333" x1="-945.99" y1="990.94" x2="-901.02" y2="990.94" xlink:href="#Degradado_sin_nombre_333"/>
    <linearGradient id="Degradado_sin_nombre_3333" data-name="Degradado sin nombre 333" x1="-688.03" y1="907.94" x2="-643.79" y2="907.94" xlink:href="#Degradado_sin_nombre_333"/>
    <linearGradient id="Degradado_sin_nombre_3334" data-name="Degradado sin nombre 333" x1="-901.41" y1="973.79" x2="-860.14" y2="973.79" xlink:href="#Degradado_sin_nombre_333"/>
    <linearGradient id="Degradado_sin_nombre_3335" data-name="Degradado sin nombre 333" x1="-859.15" y1="954.03" x2="-814.86" y2="954.03" xlink:href="#Degradado_sin_nombre_333"/>
    <linearGradient id="Degradado_sin_nombre_3336" data-name="Degradado sin nombre 333" x1="-812.67" y1="941.02" x2="-784.89" y2="941.02" xlink:href="#Degradado_sin_nombre_333"/>
    <linearGradient id="Degradado_sin_nombre_3337" data-name="Degradado sin nombre 333" x1="-779.59" y1="932.56" x2="-753.02" y2="932.56" xlink:href="#Degradado_sin_nombre_333"/>
    <linearGradient id="Degradado_sin_nombre_3338" data-name="Degradado sin nombre 333" x1="-747.86" y1="924.09" x2="-731.8" y2="924.09" xlink:href="#Degradado_sin_nombre_333"/>
    <linearGradient id="Degradado_sin_nombre_3339" data-name="Degradado sin nombre 333" x1="-728.22" y1="917.23" x2="-688.75" y2="917.23" xlink:href="#Degradado_sin_nombre_333"/>
  </defs>
  <path class="stPrivateSnorkeling0" d="M99.23,201.34c-.41-.75-.56-1.55-1.51-1.88-5.22-11.21-13.05-21.51-16.93-33.32-8.36-25.42,14.98-32.34,35.26-30.77,3.09.24,6.35,1.32,9.32,1.08,1.38-.87,7.6-15.43,8.42-17.93.28-.48.53-1.07.7-1.62l2.15-4.95s0,0,0,0l-2.15,4.95c-.17.55-.42,1.14-.7,1.62-.82,2.5-7.05,17.06-8.42,17.93-2.98.24-6.23-.84-9.32-1.08-20.28-1.57-43.62,5.35-35.26,30.77,3.88,11.81,11.72,22.11,16.93,33.32.96.32,1.11,1.12,1.51,1.88,2.75,5.1,5.19,11.69,5.75,17.46,3.89,39.73-40.35,60.55-73.55,62.87-3.41.24-6.91.26-10.33.15h0c3.42.11,6.92.09,10.33-.15,33.2-2.32,77.44-23.14,73.55-62.87-.57-5.77-3-12.36-5.75-17.46Z"/>
  <path d="M89.25,178.91c-4.77-9.17-12.26-23.23-4.44-32.68,4.28-5.17,20.73-5.18,27.13-4.38,1.95.25,5.81,1.64,7.14,1.53,1.94-.15,3.7-3.51,5.25-4.09.95-.35,2.41.14,2.61.02.54-.32,4.97-9.73,5.64-11.2,2.57-5.65,4.63-11.56,7.16-17.24-9.51-2.48-20.51-1.46-30.17.11-28.36,4.61-69.55,25.52-71.91,57.82-2.02,27.51,27.06,47.3,24.36,69.59-.43,3.55-2.55,11.07-5.62,13.06-1.82,1.18-11.97,3.16-14.68,3.61-2.28.38-13.73,1.16-14.46,1.57-1.35.76-.96,2.63-2.29,3.57-1.34.95-6.44.76-7.16,1.77l-9.92,28.17c10.37.33,20.82.36,31.05-1.63,31.01-6.04,74.09-36.06,68.07-72.09-2.27-13.57-11.52-25.57-17.74-37.54ZM31.42,281.68c-3.41.24-6.91.26-10.33.15h0s0,0,0,0c.66-1.93,1.37-3.85,2.03-5.78-.62-.78.16-2,.44-2.81,1.17-3.46,2.39-6.94,3.66-10.36.31-.83,1.26-4.09,1.56-4.26.28-.16,5.47-.28,6.39-.3,2.58-.32,16.22-2.57,19.21-3.5,14.54-4.53,24.55-17.04,22.93-32.76-.5-.19-2.65-8.5-3.44-10.16-3.47-7.32-9.31-14.85-13.3-22.25-1.95-3.62-3.81-7.23-5.3-11.07-1.22-3.14-1.82-5.14-2.44-8.44-2.31-12.2.46-23.97,9.43-32.94.1-.13.07-.35.17-.48,5.85-8.09,13.62-12.63,22.56-16.42,16.14-6.84,34.1-9.9,51.64-8.34h0s0,0,0,0l-2.15,4.95c-.17.55-.42,1.14-.7,1.62-.82,2.5-7.05,17.06-8.42,17.93-2.98.24-6.23-.84-9.32-1.08-20.28-1.57-43.62,5.35-35.26,30.77,3.88,11.81,11.72,22.11,16.93,33.32.96.32,1.11,1.12,1.51,1.88,2.75,5.1,5.19,11.69,5.75,17.46,3.89,39.73-40.35,60.55-73.55,62.87Z"/>
  <path class="stPrivateSnorkeling14" d="M104.98,218.8c-.57-5.77-3-12.36-5.75-17.46-.41-.75-.56-1.55-1.51-1.88-5.22-11.21-13.05-21.51-16.93-33.32-8.36-25.42,14.98-32.34,35.26-30.77,3.09.24,6.35,1.32,9.32,1.08,1.38-.87,7.6-15.43,8.42-17.93.28-.48.53-1.07.7-1.62l2.15-4.95c-17.54-1.56-35.5,1.5-51.64,8.34-8.94,3.79-16.71,8.33-22.56,16.42-.1.13-.07.35-.17.48-8.97,8.97-11.74,20.75-9.43,32.94.63,3.3,1.22,5.3,2.44,8.44,1.49,3.84,3.35,7.45,5.3,11.07,3.99,7.4,9.83,14.93,13.3,22.25.79,1.66,2.94,9.97,3.44,10.16,1.62,15.72-8.4,28.22-22.93,32.76-2.99.93-17.31,3.32-19.34,3.51-2.15.05-5.98.13-6.26.29-.31.17-1.25,3.43-1.56,4.26-1.27,3.42-2.49,6.9-3.66,10.36-.28.82-1.06,2.03-.44,2.81-.66,1.93-1.37,3.85-2.03,5.78,3.42.11,6.92.09,10.33-.15,33.2-2.32,77.44-23.14,73.55-62.87Z"/>
  <g>
    <polygon class="stPrivateSnorkeling1" points="165.5 170.87 190.61 111.98 175.49 113.68 163.15 145.01 160.53 115.01 144.19 118.56 147.47 124.86 120.47 181.33 135.57 178.41 149.83 144.85 152.87 173.38 165.5 170.87"/>
    <path class="stPrivateSnorkeling1" d="M116.21,184.62l28.55-59.72-4.17-8.04,22.12-4.8,1.96,22.49,9.11-23.12,20.69-2.32-27.25,63.89-16.48,3.28-2.33-21.89-11.12,26.16-21.08,4.07ZM147.8,120.25l2.37,4.56-25.45,53.23,9.12-1.76,17.41-40.96,3.74,35.18,8.78-1.75,22.99-53.9-9.55,1.07-15.58,39.55-3.27-37.51-10.56,2.29Z"/>
  </g>
  <g>
    <path class="stPrivateSnorkeling1" d="M191.23,163.6c9.71,5.6,25.01-1.49,34.16-15.84,4.69-7.35,6.85-15.18,6.55-21.83l6.62-3.96s-4.96-9.7-17.12-11.62h0c-9.65-2.9-22.94,4.14-31.21,17.11-9.16,14.35-8.71,30.53,1.01,36.14ZM198.01,130.49c5.75-9.49,15.06-14.37,20.79-10.89,2.1,1.27,3.42,3.5,3.98,6.26l-3.42.5,1.29,9.65c.24,1.8-.03,3.63-.87,5.24-.31.61-.65,1.21-1.02,1.81-5.75,9.49-15.06,14.37-20.79,10.89-5.73-3.47-5.72-13.98.03-23.47Z"/>
    <path class="stPrivateSnorkeling1" d="M198.64,167.89c-3.1,0-6.03-.71-8.62-2.2-4.04-2.33-6.83-6.26-8.08-11.36-2.04-8.32.3-18.85,6.24-28.17,8.75-13.71,22.93-21.32,33.79-18.17,13.11,2.15,18.52,12.44,18.74,12.88l1.03,2.02-7.36,4.4c-.02,7.05-2.46,14.73-6.96,21.77-7.47,11.72-18.97,18.84-28.8,18.84ZM216.84,112.12c-8.19,0-18.12,6.53-24.57,16.65-5.25,8.22-7.35,17.35-5.62,24.42.93,3.79,2.93,6.67,5.79,8.32h0c8.59,4.96,22.46-1.79,30.91-15.05,4.21-6.61,6.46-14.05,6.17-20.41l-.07-1.45,5.71-3.41c-1.98-2.64-6.44-7.22-14.11-8.44l-.32-.07c-1.24-.37-2.55-.55-3.91-.55ZM202.19,157.51c-1.96,0-3.81-.48-5.47-1.48-3.53-2.14-5.47-6.24-5.46-11.55,0-4.87,1.66-10.28,4.67-15.24,3.01-4.96,7.04-8.94,11.35-11.2,4.71-2.47,9.24-2.65,12.77-.51,2.62,1.59,4.38,4.3,5.1,7.85l.51,2.5-3.58.53.98,7.28c.32,2.35-.07,4.66-1.12,6.68-.34.67-.71,1.32-1.1,1.95-4.99,8.24-12.34,13.18-18.65,13.18ZM214.6,120.89c-1.95,0-3.87.8-5.07,1.43-3.54,1.85-6.9,5.2-9.45,9.42h0c-2.55,4.22-3.96,8.74-3.97,12.74,0,2.06.4,5.75,3.13,7.41,4.51,2.73,12.5-1.89,17.47-10.08.34-.56.65-1.11.94-1.67.59-1.13.8-2.45.62-3.81l-1.61-12.02,2.92-.43c-.45-.86-1.1-1.66-2.02-2.22-.93-.56-1.94-.78-2.94-.78Z"/>
  </g>
  <g>
    <path class="stPrivateSnorkeling1" d="M477.18,146.06l4.61.99c1.49.32,2.26,1.74,1.7,3.17h0c-.62,1.64-1.33,2.53-2.84,3.14-2.61,1.05-13.34.55-11.83-6.79,1.51-7.34,9.91-17.89,25.08-9.16l7.53-5.77s-.98-3.21-12.59-5.53h0c-9.32-2.84-21.3,1.24-28.11,10-7.53,9.69-5.86,21.45,3.72,26.25,9.58,4.8,25.28,5.37,32.07-8.75.38-.79.55-1.51.74-2.22.26-.96,1.24-1.54,2.2-1.3l1.75.44,1.97-6.24-24.7-4.29-1.31,6.07Z"/>
    <path class="stPrivateSnorkeling1" d="M477.41,166.86c-5.17,0-10.08-1.44-13.62-3.22-4.59-2.3-7.73-6.22-8.81-11.03-1.28-5.66.39-12,4.6-17.42,7.1-9.14,19.54-13.55,29.61-10.52,11.5,2.31,13.34,5.57,13.62,6.52l.29.96-9.09,6.98-.84-.48c-5.7-3.28-10.76-3.98-15.03-2.06-4.71,2.12-7.2,6.84-7.9,10.25-.33,1.6.03,2.77,1.13,3.69,2.42,2.02,7.37,2.01,8.73,1.46,1.04-.42,1.51-.96,2.02-2.3.12-.31.12-.58,0-.8-.12-.22-.35-.37-.64-.44l-6.03-1.29,1.91-8.85,27.71,4.81-2.89,9.13-3.08-.77c-.2-.05-.4.07-.45.27l-.06.23c-.18.66-.38,1.41-.77,2.23-2.68,5.56-6.99,9.49-12.47,11.37-2.61.89-5.31,1.27-7.94,1.27ZM482.65,126.66c-7.59,0-15.79,3.9-20.78,10.32-3.67,4.72-5.15,10.19-4.06,14.99.89,3.94,3.48,7.16,7.28,9.07,4.81,2.41,12.42,4.15,19.32,1.8,4.8-1.64,8.43-4.96,10.79-9.88.28-.58.42-1.13.58-1.72l.07-.25c.46-1.71,2.24-2.76,3.96-2.33l.43.11,1.06-3.35-21.68-3.76-.71,3.28,3.18.68c1.13.24,2.07.94,2.59,1.9s.58,2.14.15,3.21c-.79,2.08-1.85,3.23-3.65,3.96-2.23.9-8.36.85-11.68-1.92-1.34-1.12-2.8-3.16-2.11-6.51.84-4.08,3.85-9.75,9.55-12.31,3.43-1.54,9.09-2.45,16.82,1.71l5.56-4.26c-1.18-.93-4.05-2.54-10.78-3.89l-.14-.04c-1.83-.56-3.78-.83-5.76-.83Z"/>
  </g>
  <g>
    <path class="stPrivateSnorkeling1" d="M245.63,115.66l-1.05,3-16.98,43.07,14.97-1.18,6.72-21.22,4.51,20.16,15.33-1.24-5.73-20.03s5.6-.83,11.78-5.95c3.88-3.21,6.52-7.78,6.87-12.81.09-1.24.04-2.48-.24-3.57-.98-3.84-.86-12.02-23.4-8.62l-16.2,3.18-1.04,5.12,4.46.09ZM257.91,118.99c10.31-.59,7.85,5.93,5.32,8.16-2.53,2.24-9.04,3.62-9.04,3.62l3.73-11.78Z"/>
    <path class="stPrivateSnorkeling1" d="M223.93,164.45l18.31-46.43-4.01-.08,1.94-9.55,17.78-3.49c20.41-3.08,24.56,2.78,26.02,9.56.06.3.12.58.19.84.32,1.25.42,2.71.31,4.34-.38,5.46-3.2,10.75-7.74,14.51-4.03,3.34-7.87,5-10.31,5.8l5.86,20.49-20.37,1.64-3.01-13.45-4.5,14.22-20.46,1.62ZM244.12,113.21l4.9.1-2.15,6.15-15.59,39.55,9.47-.75,8.93-28.23,6.02,26.87,10.28-.83-5.68-19.84,2.73-.41s5.08-.85,10.59-5.42c3.52-2.92,5.71-6.97,6-11.11.08-1.12.02-2.06-.17-2.81-.08-.32-.15-.66-.23-1.02-.74-3.43-1.85-8.61-20.46-5.81l-14.51,2.85-.14.7ZM250.62,134l5.49-17.34,1.67-.09c6.51-.38,8.86,1.94,9.68,3.95,1.21,2.95-.4,6.48-2.62,8.45-2.92,2.59-9.42,4.02-10.15,4.17l-4.06.86ZM259.7,121.38l-1.85,5.84c1.55-.55,3.02-1.21,3.78-1.88.92-.81,1.61-2.34,1.35-2.98-.14-.34-1.02-.9-3.28-.98Z"/>
  </g>
  <g>
    <polygon class="stPrivateSnorkeling1" points="290.54 114.81 274.96 157.84 287.31 157.1 293.89 136.31 299.23 156.53 313.38 156.04 305.84 130.1 335.12 107.17 315.56 106.45 299.12 125.75 306.96 106.26 288.54 106.09 287.07 114.81 290.54 114.81"/>
    <path class="stPrivateSnorkeling1" d="M271.43,160.48l15.66-43.25h-2.88s2.29-13.58,2.29-13.58l24.03.21-3.62,9,7.56-8.88,27.36,1.01-33.2,26.01,7.95,27.35-19.19.66-3.7-14.02-4.56,14.42-17.69,1.06ZM289.94,112.39h4.06s-15.5,42.82-15.5,42.82l7.02-.42,8.59-27.16.65,2.48,8.63-21.45-12.8-.11-.65,3.86ZM295.67,133.53l5.41,20.51,9.11-.32-7.13-24.52,25.36-19.86-11.78-.43-20.97,24.62Z"/>
  </g>
  <g>
    <polygon class="stPrivateSnorkeling1" points="348.91 155.7 352.18 145.43 335.69 145.22 338.67 136.29 352.25 137.55 354.58 128.26 344.44 127.18 347.06 118.89 361.38 120.69 366.21 109.1 337.39 107.28 334.66 115.91 338.12 116.07 322.03 155.84 348.91 155.7"/>
    <path class="stPrivateSnorkeling1" d="M318.43,158.28l16.17-39.95-3.19-.16,4.25-13.43,34.1,2.16-6.85,16.42-14.14-1.77-1.12,3.54,9.96,1.06-3.52,14-13.73-1.27-1.32,3.97,16.45.2-4.81,15.06-32.25.17ZM337.92,113.64l3.72.18-16.02,39.58,21.51-.11,1.75-5.48-16.54-.21,4.63-13.9,13.42,1.25,1.15-4.57-10.31-1.1,4.12-13.03,14.49,1.82,2.82-6.75-23.54-1.49-1.21,3.83Z"/>
  </g>
  <g>
    <polygon class="stPrivateSnorkeling1" points="389.51 111.19 373.68 109.71 355.4 155.77 383.29 156.56 386.28 147.1 372.27 146.92 389.51 111.19"/>
    <path class="stPrivateSnorkeling1" d="M385.05,159.03l-33.17-.94,20.22-50.96,21.11,1.97-17.1,35.45,13.47.18-4.53,14.31ZM358.93,153.45l22.6.64,1.46-4.61-14.55-.19,17.38-36.02-10.55-.98-16.33,41.16Z"/>
  </g>
  <g>
    <polygon class="stPrivateSnorkeling1" points="420.48 114.8 407.13 113.12 388.67 156.8 400.74 157.45 420.48 114.8"/>
    <path class="stPrivateSnorkeling1" d="M402.24,159.96l-17.15-.92,20.51-48.54,18.46,2.32-21.83,47.14ZM392.24,154.57l6.98.37,17.66-38.15-8.25-1.04-16.4,38.82Z"/>
  </g>
  <g>
    <polygon class="stPrivateSnorkeling1" points="443.39 160.91 463.77 121.5 448.28 118.88 439.89 140.84 440.25 117.62 425.01 115.41 424.42 123.96 409.08 157.98 420.82 158.85 428.97 137.92 431.77 159.78 443.39 160.91"/>
    <path class="stPrivateSnorkeling1" d="M444.79,163.47l-15.17-1.46-1.84-14.35-5.35,13.74-16.97-1.25,16.59-36.79.74-10.71,19.93,2.89-.18,11.64,4.21-11.01,20.72,3.5-22.66,43.81ZM433.93,157.56l8.07.78,18.1-35.01-10.26-1.73-12.58,32.91.53-34.79-10.55-1.53-.44,6.37-14.1,31.27,6.5.48,10.95-28.11,3.77,29.37Z"/>
  </g>
  <polygon class="stPrivateSnorkeling8" points="171.12 166.53 196.24 107.64 181.12 109.33 168.77 140.67 166.15 110.67 149.82 114.21 153.09 120.52 126.09 176.99 141.19 174.07 155.46 140.51 158.49 169.04 171.12 166.53"/>
  <path class="stPrivateSnorkeling7" d="M196.85,159.25c9.71,5.6,25.01-1.49,34.16-15.84,4.69-7.35,6.85-15.18,6.55-21.83l6.62-3.96s-4.96-9.7-17.12-11.62h0c-9.65-2.9-22.94,4.14-31.21,17.11-9.16,14.35-8.71,30.53,1.01,36.14ZM225.21,136.63c-.33,1.54-.96,3-1.88,4.27-5.82,8.05-14.44,11.91-19.72,8.71-5.73-3.47-5.72-13.98.03-23.47,5.75-9.49,15.06-14.37,20.79-10.89,2.1,1.27,3.42,3.5,3.98,6.26l-3.42.5.62,4.61c.45,3.33.31,6.72-.4,10h0Z"/>
  <path class="stPrivateSnorkeling5" d="M482.8,141.72l4.61.99c1.49.32,2.26,1.74,1.7,3.17h0c-.62,1.64-1.33,2.53-2.84,3.14-2.61,1.05-13.34.55-11.83-6.79,1.51-7.34,9.91-17.89,25.08-9.16l7.53-5.77s-.98-3.21-12.59-5.53h0c-9.32-2.84-21.3,1.24-28.11,10-7.53,9.69-5.86,21.45,3.72,26.25,9.58,4.8,25.28,5.37,32.07-8.75.38-.79.55-1.51.74-2.22.26-.96,1.24-1.54,2.2-1.3l1.75.44,1.97-6.24-24.7-4.29-1.31,6.07Z"/>
  <path class="stPrivateSnorkeling10" d="M251.25,111.32l-1.05,3-16.98,43.07,14.97-1.18,6.72-21.22,4.51,20.16,15.33-1.24-5.73-20.03s5.6-.83,11.78-5.95c3.88-3.21,6.52-7.78,6.87-12.81.09-1.24.04-2.48-.24-3.57-.98-3.84-.86-12.02-23.4-8.62l-16.2,3.18-1.04,5.12,4.46.09ZM263.54,114.64c10.31-.59,7.85,5.93,5.32,8.16-2.53,2.24-9.04,3.62-9.04,3.62l3.73-11.78Z"/>
  <polygon class="stPrivateSnorkeling6" points="296.16 110.46 280.58 153.5 292.94 152.75 299.52 131.96 304.85 152.18 319 151.69 311.46 125.76 340.74 102.82 321.18 102.11 304.74 121.4 312.58 101.91 294.16 101.75 292.7 110.46 296.16 110.46"/>
  <polygon class="stPrivateSnorkeling11" points="354.53 151.35 357.81 141.08 341.31 140.87 344.29 131.94 357.87 133.2 360.2 123.91 350.06 122.83 352.68 114.55 367 116.34 371.84 104.76 343.02 102.93 340.29 111.56 343.74 111.73 327.65 151.49 354.53 151.35"/>
  <polygon class="stPrivateSnorkeling9" points="395.13 106.84 379.3 105.37 361.03 151.42 388.91 152.22 391.91 142.76 377.9 142.57 395.13 106.84"/>
  <polygon class="stPrivateSnorkeling13" points="426.1 110.46 412.75 108.78 394.29 152.46 406.36 153.11 426.1 110.46"/>
  <polygon class="stPrivateSnorkeling12" points="449.02 156.56 469.4 117.15 453.91 114.54 445.52 136.49 445.87 113.28 430.63 111.07 430.05 119.61 414.7 153.64 426.44 154.51 434.59 133.58 437.4 155.44 449.02 156.56"/>
  <g>
    <path class="stPrivateSnorkeling1" d="M163.39,181.63c1.91,3.65,3.82,7.29,5.71,10.94.21.72-.05,1.18-.76,1.39-.4.11-.94-.1-1.63-.65-3.63-2.97-6.68-4.74-9.15-5.32-2.47-.57-5.7-.28-9.7.87-2.24.65-4.34,1.46-6.32,2.43.82,4.52,1.99,9.39,3.5,14.62.26.89.72,2.38,1.38,4.48l2.84-.78c1.76-.51,3.21-1.19,4.35-2.05,1.14-.85,1.93-2.2,2.37-4.04.44-1.83.65-2.99.65-3.48,0-.86.26-1.37.81-1.53.7-.2,1.13,0,1.3.59.05.17.08.38.1.62.15,1.63,1.33,6.28,3.55,13.95.31,1.07.69,2.01,1.13,2.82.13.23.22.44.27.61.2.7-.1,1.16-.89,1.39-.55.16-1.16-.38-1.84-1.61-1.17-2.17-2.81-3.59-4.92-4.29-2.12-.69-5.09-.51-8.91.54,1.08,4.21,1.81,6.97,2.19,8.29,1.64,5.66,2.7,9,3.18,10.02s1.37,1.7,2.65,2.04c1.28.34,3.23.14,5.84-.62,9.47-2.74,14.82-7.54,16.07-14.41.18-.97.51-1.52,1.01-1.66.72-.21,1.16-.01,1.33.58.12.4.19.93.22,1.59l.67,11.39-13.5,3.86c-3.81,1.07-7.38,2.01-10.71,2.81s-5.93,1.47-7.79,2.01c-2.09.6-5.19,1.64-9.32,3.1-.51.2-.89.34-1.13.41-1.17.34-1.86.12-2.08-.65-.2-.69.17-1.18,1.11-1.45,2.41-.7,3.84-1.82,4.3-3.36.46-1.54.1-4.32-1.06-8.35l-5.32-19.23c-1.89-6.55-3.14-10.55-3.73-12.01-.6-1.45-1.32-2.35-2.17-2.68-.85-.33-2.27-.36-4.26-.08-.82.13-1.32-.1-1.49-.7-.22-.75.14-1.25,1.06-1.52l9.06-2.32,30.09-8.59Z"/>
    <path class="stPrivateSnorkeling1" d="M201.66,203.42l1.4-2.64c1.62-3.05,2.56-4.9,2.83-5.57.27-.66.35-1.21.26-1.64-.16-.73-1.13-1.03-2.93-.88-.91.09-1.43-.18-1.56-.81-.15-.68.39-1.15,1.6-1.42.35-.08.97-.16,1.85-.24,1.12-.08,2.26-.25,3.42-.5,1.16-.25,2.24-.55,3.22-.89.64-.24,1.04-.38,1.22-.42.96-.21,1.51,0,1.64.64.14.63-.42,1.15-1.66,1.55-.9.27-1.62.64-2.16,1.12-.55.48-1.27,1.51-2.17,3.11l-3,5.4-2.37,4.55,11.42,9.65c1.78,1.5,3.27,2.5,4.48,3.02,1.21.52,2.49.78,3.84.78,1.16-.01,1.8.26,1.92.82.16.76-.34,1.26-1.5,1.51-.61.13-1.68.29-3.23.49-1.41.2-3.47.59-6.17,1.17-2.53.54-4.75,1.11-6.65,1.71-.79.25-1.37.41-1.72.49-1.01.22-1.59-.03-1.75-.74-.13-.61.39-1.13,1.57-1.57,1.51-.59,2.19-1.26,2.03-2.02-.12-.58-.89-1.46-2.29-2.63-1.23-1.03-1.98-1.69-2.25-1.98-.26-.2-.54-.43-.84-.68l-2.82-2.41-3.05,5.75c-1.21,2.24-1.74,3.72-1.59,4.43.12.58.45.94.97,1.08.52.14,1.57.15,3.16.02.91-.06,1.43.19,1.56.78.15.71-.37,1.19-1.55,1.44-.3.06-.73.13-1.27.19-1.3.12-2.89.38-4.79.79-1.21.26-3,.75-5.36,1.47-.22.07-.4.12-.52.15-1.06.23-1.67-.04-1.84-.79-.13-.61.46-1.13,1.76-1.57,1.3-.46,2.42-1.14,3.35-2.03.93-.89,1.84-2.24,2.71-4.07.11-.26.25-.51.42-.78l4.37-8.24-11.6-9.79c-1.64-1.37-2.85-2.26-3.63-2.67s-1.79-.66-3.05-.73c-.88-.05-1.37-.3-1.47-.76-.16-.73.27-1.21,1.28-1.43.38-.08,1.22-.21,2.54-.39,1.68-.2,2.97-.4,3.88-.6,3.54-.76,6.33-1.47,8.39-2.12.52-.16.94-.28,1.27-.35.91-.2,1.45.08,1.61.82.12.54-.49,1.09-1.81,1.64-.98.41-1.42.84-1.33,1.28.15.68,1.04,1.66,2.67,2.92.34.27.65.54.91.8l4.38,3.76Z"/>
    <path class="stPrivateSnorkeling1" d="M235.65,188.91c1.13-1.78,2.42-3.19,3.86-4.22,1.44-1.03,3.02-1.68,4.76-1.95,3.58-.56,7.23.49,10.95,3.14,3.72,2.65,5.97,6.44,6.73,11.37.72,4.62-.26,8.88-2.95,12.76s-6.21,6.17-10.59,6.85c-1.56.24-3.11.25-4.63.03s-3.05-.67-4.57-1.35c1.59,10.2,2.79,16.1,3.62,17.71.83,1.61,2.48,2.27,4.97,1.99.9-.12,1.41.16,1.51.82.11.69-.44,1.13-1.64,1.32-.69.11-1.76.24-3.2.39-3.02.28-5.64.59-7.86.94-1.51.23-3.32.61-5.44,1.12-1.04.24-1.69.38-1.97.42-1.33.21-2.04-.02-2.15-.69-.1-.61.56-1.09,1.97-1.44,2.29-.59,3.46-2.23,3.51-4.92.05-2.69-1.11-11.67-3.49-26.95l-2.17-12.46c-.38-2.43-.91-3.95-1.61-4.58-.69-.62-1.69-.9-2.97-.83-.98.05-1.52-.23-1.61-.85-.12-.74.37-1.2,1.47-1.37,4.51-.7,8.75-1.46,12.72-2.29l.68,3.85c.02.15.06.55.1,1.17ZM251.35,200.3c-.72-4.64-1.97-8.14-3.73-10.49-1.77-2.35-3.75-3.36-5.94-3.01-2.25.35-3.73,1.98-4.44,4.88-.71,2.91-.64,7.1.21,12.59.67,4.34,1.69,7.23,3.04,8.68,1.35,1.45,3.23,1.99,5.63,1.61,2.43-.38,4.08-1.76,4.95-4.14s.97-5.76.29-10.12Z"/>
    <path class="stPrivateSnorkeling1" d="M278.72,194.47c.05.75.09,1.29.13,1.62.37,3.65,1.58,6.65,3.63,9.01,2.05,2.35,4.59,3.37,7.62,3.06,3.11-.32,6.04-1.98,8.77-4.99.56-.6.97-.92,1.23-.94.67-.07,1.04.26,1.11.98.06.57-.61,1.66-2,3.28-1.39,1.62-3.17,2.92-5.33,3.9-2.16.97-4.44,1.58-6.83,1.83-5.25.53-9.52-.65-12.82-3.55-3.3-2.9-5.17-6.52-5.61-10.87-.53-5.22.73-9.77,3.77-13.66,3.05-3.88,7.12-6.09,12.21-6.6,4.78-.49,8.59.75,11.43,3.71,2.84,2.96,4.4,5.89,4.7,8.8.09.93-.09,1.5-.56,1.73-.47.23-2.04.48-4.72.75l-16.72,1.94ZM278.67,191.63c3.81-.34,6.01-.53,6.6-.59,2.91-.3,4.67-.68,5.28-1.16s.86-1.35.73-2.61c-.21-2.11-1.01-3.91-2.38-5.41-1.37-1.5-2.9-2.16-4.57-1.99-3.96.4-5.85,4.32-5.66,11.76Z"/>
    <path class="stPrivateSnorkeling1" d="M317.91,182.64c1.15-2.68,2.52-4.71,4.13-6.09,1.61-1.38,3.44-2.13,5.51-2.25,1.96-.11,3.56.37,4.8,1.44,1.24,1.07,1.9,2.46,2,4.16.07,1.34-.28,2.51-1.07,3.5-.79.99-1.79,1.52-3,1.59-.9.05-1.66-.14-2.28-.57-.62-.43-1.3-1.22-2.04-2.37-1.02-1.65-1.89-2.46-2.58-2.42-.96.05-1.99,1.08-3.09,3.08-1.11,2-1.5,5.79-1.19,11.35.39,7.04.85,10.93,1.37,11.69.52.76,1.6,1.09,3.22,1,1.42-.08,2.15.27,2.19,1.04.04.72-.64,1.12-2.03,1.2-.77.04-1.9.03-3.38-.02-1.35-.04-2.62-.03-3.8.04-2.56.14-5.08.37-7.57.69-1.05.14-1.67.21-1.85.22-1.08.06-1.65-.32-1.69-1.13-.04-.71.57-1.12,1.83-1.25,1.24-.12,2.08-.46,2.55-1.01.46-.55.64-1.72.54-3.5l-.38-9.68c-.11-1.96-.32-4.39-.64-7.29-.32-2.9-.56-4.63-.72-5.18-.16-.55-.52-1.02-1.07-1.43-.55-.41-1.28-.63-2.19-.65-.94-.05-1.53-.14-1.78-.27-.25-.13-.39-.41-.42-.85-.04-.7.59-1.09,1.88-1.19,2.37-.16,6.4-.69,12.07-1.61l.71,7.77Z"/>
    <path class="stPrivateSnorkeling1" d="M351.89,173.6c.17,3.62.34,10.07.52,19.34l.04,8.34c.03,1.68.33,2.8.9,3.36.57.56,1.48.92,2.75,1.07,1.45.15,2.18.55,2.19,1.2.01.7-.55,1.06-1.69,1.08-.54.01-1.49-.01-2.83-.06-2.85-.13-5.67-.17-8.46-.11-1.37.03-2.76.12-4.18.29-.85.13-1.43.2-1.74.2-1.14.02-1.71-.32-1.73-1.02-.01-.67.73-1.09,2.23-1.24,1.99-.22,3.09-.9,3.3-2.06.21-1.15.28-3.49.22-7-.09-4.55-.23-8.73-.45-12.54s-.52-5.98-.92-6.52c-.4-.54-1.41-.88-3.04-1.03-1.27-.11-1.91-.47-1.92-1.09-.01-.62.63-.99,1.92-1.12l.81-.09,12.08-1ZM351.11,160.51c.03,1.53-.5,2.85-1.57,3.97-1.08,1.12-2.38,1.69-3.9,1.72-1.55.03-2.88-.5-3.99-1.57-1.11-1.08-1.67-2.38-1.7-3.9-.03-1.55.49-2.88,1.55-3.98,1.07-1.11,2.37-1.67,3.92-1.7,1.52-.03,2.85.49,3.97,1.56,1.12,1.07,1.69,2.37,1.72,3.92Z"/>
    <path class="stPrivateSnorkeling1" d="M373.47,190.03c-.04.75-.07,1.29-.08,1.63-.08,3.67.74,6.8,2.48,9.38,1.74,2.59,4.13,3.91,7.18,3.98,3.13.07,6.23-1.22,9.32-3.86.63-.53,1.08-.79,1.34-.78.67.02,1,.39.98,1.11-.01.57-.81,1.57-2.4,3.01-1.58,1.44-3.51,2.51-5.77,3.2-2.27.7-4.6,1.02-7,.97-5.27-.12-9.37-1.82-12.28-5.11-2.91-3.29-4.32-7.11-4.22-11.48.12-5.25,1.93-9.61,5.44-13.08,3.51-3.48,7.82-5.16,12.93-5.04,4.81.11,8.43,1.81,10.88,5.1,2.45,3.29,3.64,6.39,3.57,9.31-.02.93-.28,1.48-.77,1.65-.5.17-2.09.23-4.77.16l-16.83-.15ZM373.77,187.2c3.82.14,6.03.21,6.63.23,2.92.07,4.71-.1,5.38-.5s1.02-1.23,1.05-2.5c.05-2.12-.52-4.01-1.69-5.66s-2.61-2.5-4.29-2.54c-3.98-.09-6.34,3.57-7.08,10.97Z"/>
    <path class="stPrivateSnorkeling1" d="M414.56,182.93c1.94-2.34,3.99-4.05,6.14-5.12,2.15-1.08,4.39-1.53,6.74-1.34,1.96.15,3.71.79,5.26,1.93,1.55,1.13,2.55,2.42,3.03,3.85.47,1.44.61,3.43.41,5.98l-1.55,15.4c-.16,2.11-.08,3.53.25,4.26.33.73,1.11,1.24,2.33,1.54,1.02.26,1.5.71,1.45,1.36-.05.67-.58.97-1.59.89-.85-.07-2.71-.31-5.58-.75-1-.13-1.81-.22-2.43-.27-.59-.05-2.3-.05-5.13,0l-1.89-.15c-1.06-.08-1.56-.47-1.5-1.17.04-.57.55-.9,1.52-1.01.89-.11,1.61-.36,2.16-.73s1.05-2.37,1.5-6c.45-3.63.82-7.23,1.09-10.82.31-3.97.21-6.72-.31-8.24s-1.66-2.35-3.44-2.49c-2.19-.17-4.35,1.28-6.46,4.34-2.12,3.06-3.44,7.92-3.95,14.57-.2,2.58-.22,4.46-.05,5.64.17,1.18.43,1.93.78,2.26.35.33,1.12.64,2.32.94.71.19,1.04.59,1,1.21-.06.72-.61,1.04-1.67.96-.52-.04-1.08-.11-1.7-.2-2.46-.4-3.79-.61-4-.63-3.71-.29-6.76-.4-9.15-.32-.39.02-.7.02-.93,0-.95-.07-1.4-.48-1.34-1.23.05-.64.5-.98,1.36-1.02,1.33-.05,2.24-.34,2.75-.88.51-.53.99-2.28,1.44-5.24.45-2.96.84-6.51,1.16-10.64.41-5.26.47-8.54.18-9.82s-1.15-2.26-2.57-2.95c-1.02-.49-1.52-.94-1.49-1.32.05-.62.83-.87,2.35-.75,4.28.33,7.76.44,10.44.31.8,2.32,1.18,4.88,1.11,7.67Z"/>
    <path class="stPrivateSnorkeling1" d="M444.44,195.68c.65-4.82,2.85-8.72,6.62-11.71,3.77-2.99,8.15-4.15,13.14-3.48,3.28.44,6.06,1.61,8.35,3.53,2.29,1.91,3.29,3.94,3,6.09-.17,1.28-.68,2.24-1.54,2.87s-1.86.87-3.01.71c-2.2-.3-3.57-2.1-4.09-5.42-.28-1.82-.67-3.14-1.19-3.97-.54-.83-1.41-1.33-2.62-1.49-2.1-.28-3.83.56-5.17,2.52-1.35,1.96-2.3,5.05-2.86,9.25-.65,4.82-.29,8.8,1.06,11.92,1.36,3.12,3.42,4.87,6.19,5.24,3.69.49,6.59-1.35,8.69-5.53.67-1.32,1.34-1.93,2.01-1.84.72.1,1.02.53.92,1.3-.3,2.23-1.76,4.49-4.37,6.79s-6.18,3.14-10.69,2.54c-4.95-.66-8.76-2.81-11.43-6.44-2.67-3.63-3.67-7.92-3.01-12.86Z"/>
    <path class="stPrivateSnorkeling1" d="M491.83,201.46c-.16.73-.28,1.26-.34,1.59-.68,3.61-.37,6.83.92,9.66,1.29,2.84,3.44,4.54,6.44,5.1,3.07.58,6.35-.19,9.82-2.29.71-.42,1.19-.6,1.45-.56.66.12.92.54.79,1.25-.11.56-1.06,1.42-2.85,2.58-1.8,1.16-3.87,1.9-6.22,2.22-2.35.32-4.7.26-7.07-.19-5.18-.98-8.94-3.32-11.28-7.04-2.34-3.72-3.1-7.72-2.29-12.02.97-5.16,3.47-9.16,7.49-12.02,4.02-2.86,8.55-3.81,13.58-2.87,4.73.89,8.03,3.16,9.91,6.8,1.88,3.64,2.55,6.9,2.01,9.77-.17.92-.52,1.42-1.03,1.5-.52.09-2.1-.12-4.74-.62l-16.58-2.89ZM492.58,198.72c3.75.76,5.92,1.19,6.5,1.3,2.87.54,4.67.67,5.39.38.72-.28,1.2-1.05,1.44-2.29.39-2.08.14-4.04-.75-5.86-.89-1.83-2.16-2.89-3.82-3.21-3.91-.74-6.84,2.49-8.77,9.67Z"/>
  </g>
  <g>
    <path class="stPrivateSnorkeling1" d="M78.05,90.2l4.94,13.89c1.05,2.92,2.14,4.67,3.28,5.23,1.14.57,2.55.57,4.25.02,1.13-.38,1.87-.54,2.22-.49.35.05.6.3.76.74.23.63-.37,1.2-1.78,1.71-.63.23-2.13.68-4.5,1.36-3.18.95-5.38,1.64-6.63,2.09-1.36.49-3.21,1.25-5.53,2.27-1.92.85-3.33,1.44-4.23,1.76-.78.28-1.29.08-1.54-.6-.19-.54.35-1.14,1.62-1.82,1.27-.67,2.09-1.36,2.47-2.06.38-.7.48-1.72.28-3.06s-1.25-4.74-3.18-10.18c-1.92-5.44-3.63-10.23-5.11-14.37l-4.15-11.48c-.56-1.56-1.38-2.67-2.47-3.33-1.09-.67-2.58-.66-4.48.02-.85.31-1.4.12-1.64-.56-.29-.8.32-1.47,1.83-2.02l.96-.3c1.39-.42,2.98-.95,4.78-1.59l14.82-5.56c7.54-2.7,13.21-3.46,17-2.27,3.79,1.19,6.41,3.8,7.86,7.84,1.45,4.04,1.01,7.85-1.32,11.44-2.33,3.59-7.11,6.68-14.37,9.28-1.68.6-3.73,1.28-6.15,2.04ZM77.12,87.61c1.43-.37,2.52-.7,3.28-.97,3.87-1.39,6.35-3.59,7.43-6.61,1.09-3.02,1.05-6.15-.11-9.38-1.1-3.06-2.8-5.04-5.12-5.94-2.31-.9-4.76-.89-7.34.04-1.34.48-3.14,1.36-5.4,2.63l7.25,20.23Z"/>
    <path class="stPrivateSnorkeling1" d="M121.8,73.9c.57-2.86,1.51-5.13,2.8-6.81,1.29-1.68,2.93-2.79,4.93-3.32,1.9-.51,3.56-.36,4.99.43,1.43.79,2.37,2.02,2.81,3.67.35,1.3.24,2.51-.33,3.64-.57,1.13-1.44,1.85-2.61,2.16-.87.23-1.66.2-2.35-.09-.7-.3-1.52-.93-2.48-1.91-1.34-1.41-2.35-2.02-3.02-1.84-.92.25-1.72,1.46-2.4,3.65-.67,2.18-.29,5.97,1.15,11.36,1.82,6.81,3.06,10.53,3.73,11.17.67.64,1.78.75,3.36.33,1.37-.37,2.16-.18,2.36.57.19.7-.39,1.23-1.74,1.59-.75.2-1.85.42-3.31.67-1.33.23-2.57.5-3.72.81-2.47.66-4.9,1.4-7.27,2.22-1,.35-1.59.55-1.77.59-1.05.28-1.68.03-1.89-.76-.18-.69.33-1.22,1.54-1.6,1.19-.37,1.95-.87,2.29-1.51.34-.64.28-1.82-.18-3.54l-2.35-9.39c-.51-1.89-1.21-4.23-2.11-7.01-.9-2.78-1.49-4.42-1.76-4.92-.27-.5-.72-.9-1.34-1.18-.63-.29-1.39-.35-2.28-.19-.93.14-1.53.17-1.8.1s-.47-.32-.58-.75c-.18-.67.35-1.19,1.59-1.55,2.29-.64,6.12-1.98,11.49-4.03l2.27,7.46Z"/>
    <path class="stPrivateSnorkeling1" d="M149.24,45.85c.32,1.49.06,2.89-.79,4.19-.84,1.31-2.01,2.12-3.5,2.44-1.52.33-2.92.06-4.21-.78-1.29-.85-2.1-2.02-2.42-3.51-.33-1.52-.07-2.92.76-4.21.83-1.29,2.01-2.1,3.53-2.42,1.49-.32,2.89-.06,4.19.77,1.3.83,2.12,2.01,2.44,3.52ZM152.52,58.56c.86,3.52,2.26,9.81,4.21,18.89l1.63,8.18c.35,1.64.86,2.68,1.52,3.12.66.44,1.63.62,2.91.53,1.45-.13,2.25.13,2.38.76.15.68-.34,1.14-1.45,1.38-.53.11-1.46.27-2.79.48-2.82.42-5.59.92-8.32,1.51-1.34.29-2.69.65-4.05,1.09-.81.29-1.37.47-1.67.53-1.11.24-1.74.02-1.89-.67-.14-.66.51-1.21,1.95-1.65,1.91-.59,2.86-1.48,2.84-2.65-.01-1.17-.39-3.48-1.13-6.92-.95-4.45-1.9-8.52-2.84-12.22-.94-3.7-1.65-5.77-2.15-6.22-.49-.45-1.55-.59-3.18-.43-1.27.14-1.96-.09-2.09-.7-.13-.61.43-1.1,1.67-1.47l.78-.25,11.67-3.29Z"/>
    <path class="stPrivateSnorkeling1" d="M185.06,76.84c1.08-3.82,2.01-7.8,2.81-11.95s1.11-6.7.95-7.65c-.17-1.03-.86-1.61-2.09-1.73-1.17-.12-1.8-.45-1.89-.99-.1-.64.3-1.03,1.22-1.18.46-.07,1.41-.16,2.87-.25,1.32-.1,2.23-.19,2.75-.27,1.12-.18,2.16-.44,3.1-.76.52-.17.94-.28,1.24-.33.79-.13,1.25.18,1.37.92.09.55-.39,1.01-1.43,1.37-2.36.77-4.02,3.33-4.96,7.68-1.08,4.97-2.13,9.58-3.15,13.83-1.02,4.25-1.84,7.34-2.44,9.25-.6,1.92-.99,2.96-1.16,3.13-.17.17-.39.28-.67.33-.34.05-.7-.14-1.09-.57-.39-.43-2.12-2.79-5.2-7.05l-11.7-16.18c-1.68-2.3-2.9-3.65-3.64-4.03-.74-.39-1.37-.6-1.87-.65-1.03-.07-1.59-.35-1.67-.83-.12-.71.31-1.15,1.28-1.31.41-.07,1.05-.13,1.93-.2,2.1-.15,4.13-.38,6.09-.7.79-.13,1.68-.31,2.66-.54,1.79-.45,2.86-.71,3.21-.77,1.68-.27,2.57-.12,2.67.47.12.71-.29,1.2-1.22,1.45-1.31.34-1.87,1.06-1.69,2.16.11.66,1.61,3.12,4.5,7.36,2.89,4.25,5.29,7.58,7.21,9.99Z"/>
    <path class="stPrivateSnorkeling1" d="M218.87,79.26c-1.44,1.68-2.93,2.98-4.48,3.9-1.54.92-3.14,1.47-4.78,1.64-2.62.27-4.73-.32-6.32-1.76s-2.5-3.29-2.73-5.56c-.18-1.75.09-3.36.81-4.83s1.68-2.64,2.87-3.53c1.19-.89,3.2-2.01,6.02-3.37,2.37-1.13,3.95-1.98,4.74-2.57s1.41-1.39,1.87-2.41c.47-1.02.62-2.3.47-3.84-.17-1.69-.73-3-1.68-3.92s-2.16-1.31-3.65-1.16c-1.28.13-2.16.54-2.63,1.24-.47.72-.77,1.82-.9,3.31-.3,2.98-1.73,4.6-4.3,4.86-1.06.11-1.99-.11-2.79-.65-.81-.54-1.27-1.39-1.39-2.55-.25-2.47.9-4.45,3.47-5.95,2.56-1.49,5.71-2.43,9.44-2.81,3.21-.33,5.88-.1,8,.67,2.12.77,3.53,1.77,4.22,3,.7,1.23,1.18,3.21,1.46,5.93l.85,9.15c.49,4.81.96,7.88,1.42,9.21.46,1.33,1.22,1.94,2.27,1.83.15-.02.36-.05.61-.1.51-.1.85-.16,1.03-.18,1.05-.11,1.61.14,1.67.73.04.39-.15.74-.56,1.05s-1.69.79-3.85,1.42-4.12,1.04-5.9,1.22c-1.77.18-3.02-.03-3.75-.64-.72-.61-1.23-1.72-1.53-3.34ZM217.8,63.74c-.54.81-1.92,1.95-4.13,3.43-2.02,1.35-3.35,2.5-3.98,3.45-.63.97-.86,2.31-.68,4.02.18,1.81.7,3.14,1.56,4,.85.86,1.83,1.24,2.94,1.13,1.49-.15,2.81-.98,3.96-2.49,1.15-1.51,1.54-4.01,1.19-7.49-.11-1.08-.39-3.1-.85-6.05Z"/>
    <path class="stPrivateSnorkeling1" d="M249.08,47.28c1.57-.16,3.98-.31,7.24-.47,1.47-.07,2.69,0,3.66.21-.29,1.96-.58,3.01-.87,3.15-.29.14-3.56.55-9.82,1.22l.41,17.1c.12,2.43.33,4.2.63,5.33.3,1.12.91,2.05,1.83,2.78.92.73,2.07,1.06,3.47,1,1.19-.06,2.85-.77,4.98-2.15.33-.2.61-.3.84-.31.49-.02.75.22.77.74.04.75-.96,1.82-2.99,3.21-2.03,1.39-4.45,2.16-7.26,2.3-3.33.16-5.99-.52-7.96-2.06s-3.09-4.92-3.35-10.16c-.28-5.78-.46-11.56-.54-17.33-2.56.13-4.37.15-5.43.07-1.07-.08-1.61-.43-1.64-1.05-.03-.52.56-.96,1.76-1.33,2.37-.66,4.48-1.75,6.3-3.26,1.83-1.51,3.34-3.85,4.53-7.02.48-1.29.81-2.08.99-2.36.18-.28.45-.43.81-.45.75-.04,1.15.56,1.21,1.8l.44,9.02Z"/>
    <path class="stPrivateSnorkeling1" d="M275.77,62.34c-.03.75-.04,1.29-.04,1.63-.01,3.67.88,6.78,2.66,9.34,1.79,2.55,4.21,3.83,7.26,3.84,3.13,0,6.21-1.34,9.24-4.04.62-.54,1.06-.81,1.32-.81.67,0,1.01.37,1,1.09,0,.57-.78,1.59-2.34,3.06-1.56,1.47-3.46,2.57-5.71,3.32-2.25.74-4.58,1.11-6.98,1.1-5.27-.02-9.4-1.64-12.37-4.87s-4.46-7.03-4.44-11.4c.02-5.25,1.74-9.64,5.18-13.19,3.44-3.54,7.72-5.31,12.83-5.29,4.81.02,8.47,1.64,10.98,4.88s3.76,6.32,3.75,9.24c0,.93-.25,1.49-.74,1.66-.49.18-2.08.26-4.77.26l-16.83.18ZM276.01,59.51c3.83.07,6.04.1,6.63.1,2.92,0,4.71-.19,5.37-.6.66-.41.99-1.25,1-2.52,0-2.12-.59-4-1.8-5.63-1.21-1.63-2.65-2.45-4.34-2.46-3.98-.01-6.27,3.69-6.86,11.11Z"/>
  </g>
  <path class="stPrivateSnorkeling1" d="M24.98,282.37c-1.25,0-2.56-.02-3.91-.06l-.65-.02.21-.62c.33-.97.67-1.93,1.02-2.89.32-.89.63-1.77.94-2.66-.43-.8-.01-1.77.3-2.49.08-.19.16-.38.22-.55,1.27-3.76,2.47-7.16,3.66-10.37.09-.24.23-.67.39-1.16.88-2.75,1.09-3.18,1.39-3.35.26-.14.96-.23,6.28-.35h.21c2.04-.2,16.29-2.59,19.2-3.49,14.96-4.67,24.03-17.55,22.61-32.08-.31-.43-.72-1.64-1.84-5.37-.61-2.01-1.23-4.09-1.57-4.8-1.92-4.07-4.64-8.29-7.28-12.37-2.09-3.24-4.24-6.58-6.01-9.86-2.17-4.02-3.9-7.45-5.33-11.12-1.27-3.28-1.85-5.27-2.47-8.52-2.44-12.88.93-24.71,9.5-33.31.04-.19.08-.34.18-.49,6.36-8.8,15.08-13.32,22.76-16.58,16.57-7.02,34.51-9.92,51.87-8.38l.67.06-2.41,5.56c-.17.56-.44,1.18-.73,1.68-.55,1.69-6.95,17.06-8.58,18.1l-.22.07c-1.89.15-3.87-.21-5.79-.55-1.2-.22-2.43-.44-3.62-.53-15.02-1.16-27.32,2.39-32.9,9.5-4.05,5.16-4.67,12.1-1.87,20.63,2.34,7.1,6.18,13.78,9.9,20.24,2.4,4.17,4.88,8.47,6.93,12.85.8.35,1.09.99,1.36,1.57.07.15.14.3.22.46,3.12,5.78,5.29,12.38,5.81,17.64,1.28,13.04-2.45,24.83-11.09,35.04-15.89,18.8-43.82,27.03-62.91,28.36-2.04.14-4.18.21-6.47.21ZM21.76,281.36c3.53.09,6.68.04,9.63-.17,18.9-1.32,46.54-9.45,62.24-28.02,8.46-10.01,12.11-21.55,10.86-34.32h0c-.5-5.15-2.63-11.61-5.7-17.28-.09-.17-.17-.34-.25-.51-.28-.61-.46-.96-.99-1.14l-.2-.07-.09-.19c-2.05-4.4-4.55-8.75-6.97-12.95-3.74-6.5-7.61-13.22-9.98-20.42-2.91-8.86-2.23-16.1,2.02-21.53,5.78-7.37,18.4-11.06,33.74-9.87,1.23.09,2.49.32,3.71.54,1.81.33,3.68.66,5.39.55,1.34-1.28,7.24-14.88,8.14-17.61.29-.52.53-1.08.7-1.62l1.9-4.38c-17-1.4-34.53,1.49-50.74,8.36-7.56,3.2-16.13,7.64-22.35,16.25-.03.17-.06.33-.17.48-8.55,8.56-11.77,19.8-9.35,32.57.6,3.18,1.17,5.14,2.42,8.35,1.41,3.63,3.13,7.03,5.28,11.01,1.75,3.24,3.9,6.57,5.97,9.79,2.65,4.11,5.38,8.35,7.34,12.48.37.77.98,2.8,1.62,4.94.58,1.91,1.36,4.5,1.66,5.02l.17.07.03.3c1.55,15.07-7.8,28.44-23.27,33.27-2.95.92-17.34,3.33-19.44,3.53h-.24c-1.67.05-5.04.12-5.78.24-.23.43-.72,1.95-.99,2.8-.17.52-.31.96-.4,1.2-1.19,3.21-2.38,6.59-3.65,10.34-.06.19-.15.4-.25.62-.27.64-.58,1.36-.27,1.74l.16.21-.09.25c-.33.97-.67,1.93-1.02,2.89-.27.75-.54,1.51-.8,2.26Z"/>
  <path class="stPrivateSnorkeling1" d="M125.24,177.64l27.31-57.12-3.45-6.65,17.49-3.8,2.49,28.5,11.7-29.69,16.23-1.82-25.54,59.89-13.4,2.67-2.89-27.21-13.64,32.08-16.3,3.15ZM150.54,114.55l3.09,5.95-26.69,55.82,13.9-2.69,14.9-35.04,3.18,29.86,11.86-2.36,24.69-57.89-14,1.57-12.99,32.98-2.75-31.51-15.18,3.3Z"/>
  <path class="stPrivateSnorkeling1" d="M204.34,161.64c-2.78,0-5.41-.63-7.73-1.97h0c-3.57-2.06-6.05-5.57-7.16-10.15-1.91-7.82.33-17.79,5.99-26.67,8.33-13.06,21.69-20.34,31.76-17.31,12.2,1.92,17.36,11.76,17.41,11.86l.21.4-6.76,4.04c.25,6.98-2.1,14.71-6.64,21.82-7.11,11.15-17.95,17.97-27.09,17.97ZM197.09,158.83c9.47,5.47,24.51-1.57,33.51-15.68,4.49-7.04,6.79-14.69,6.47-21.54v-.29s6.45-3.86,6.45-3.86c-1.09-1.81-6.17-9.33-16.54-10.97-9.58-2.87-22.76,4.4-30.73,16.89-5.53,8.66-7.72,18.35-5.87,25.92,1.06,4.32,3.37,7.61,6.71,9.54h0ZM207.81,151.2c-1.63,0-3.15-.38-4.46-1.17-5.95-3.61-6.01-14.43-.14-24.14,5.88-9.7,15.5-14.66,21.46-11.06,2.14,1.3,3.6,3.58,4.21,6.58l.1.5-3.45.51.56,4.14c.46,3.4.32,6.82-.4,10.17-.35,1.62-1.03,3.16-1.96,4.45-4.53,6.27-10.77,10.01-15.9,10.01ZM220.2,114.61c-5.25,0-11.76,4.53-16.16,11.78-5.6,9.25-5.69,19.48-.19,22.81,5.02,3.04,13.4-.73,19.08-8.58.86-1.19,1.48-2.6,1.8-4.09h0c.7-3.24.83-6.55.39-9.84l-.68-5.09,3.37-.5c-.6-2.49-1.86-4.36-3.65-5.45-1.18-.72-2.53-1.06-3.97-1.06Z"/>
  <path class="stPrivateSnorkeling1" d="M483.03,161.55c-4.99,0-9.75-1.4-13.18-3.11-4.33-2.17-7.28-5.86-8.3-10.37-1.22-5.37.39-11.42,4.42-16.61,6.88-8.85,18.92-13.12,28.63-10.16,11.52,2.3,12.8,5.5,12.91,5.85l.1.32-8.05,6.18-.28-.16c-5.9-3.4-11.41-4.13-15.91-2.1-5.04,2.27-7.7,7.31-8.45,10.94-.4,1.93.09,3.49,1.46,4.63,2.73,2.28,8.16,2.24,9.71,1.61,1.31-.53,1.96-1.25,2.57-2.85.22-.57.2-1.13-.05-1.6s-.71-.8-1.29-.93l-5.08-1.09,1.51-7,25.7,4.46-2.28,7.2-2.19-.55c-.7-.18-1.43.25-1.62.95l-.06.24c-.17.65-.35,1.32-.71,2.06-2.6,5.4-6.6,9.06-11.91,10.87-2.51.86-5.11,1.22-7.64,1.22ZM488.3,121.36c-7.9,0-16.41,4.04-21.57,10.69-3.85,4.95-5.39,10.71-4.24,15.8.96,4.23,3.73,7.68,7.79,9.72,4.99,2.5,12.88,4.3,20.07,1.85,5.05-1.72,8.87-5.21,11.35-10.37.32-.66.48-1.28.64-1.89l.07-.24c.33-1.21,1.58-1.95,2.79-1.64l1.31.33,1.67-5.28-23.69-4.11-1.11,5.14,4.13.89c.86.19,1.55.69,1.94,1.41.39.73.43,1.58.11,2.4-.7,1.86-1.55,2.78-3.11,3.41-1.99.8-7.7.73-10.7-1.77-1.64-1.37-2.25-3.29-1.78-5.57.79-3.85,3.63-9.21,9-11.63,4.73-2.13,10.43-1.44,16.51,1.99l6.94-5.32c-.58-.78-3.02-3.12-12.05-4.93-1.93-.59-3.97-.87-6.06-.87Z"/>
  <path class="stPrivateSnorkeling1" d="M232.49,157.93l17.27-43.79.82-2.35-4.37-.09,1.22-6.01,16.51-3.24c21.33-3.21,22.85,3.85,23.76,8.06.07.32.14.63.21.91.27,1.05.35,2.3.25,3.73-.34,4.93-2.91,9.72-7.04,13.15-5.17,4.28-9.91,5.61-11.47,5.95l5.75,20.09-16.34,1.32-4.21-18.82-6.27,19.82-16.06,1.27ZM247.38,110.76l4.55.09-1.27,3.63-16.7,42.36,13.87-1.1,7.16-22.63,4.81,21.5,14.32-1.15-5.72-19.99.55-.08c.05,0,5.56-.89,11.54-5.84,3.93-3.26,6.37-7.8,6.7-12.47.09-1.32.02-2.47-.22-3.42-.07-.29-.14-.61-.22-.95-.84-3.89-2.24-10.39-22.64-7.32l-15.86,3.11-.86,4.24ZM259.09,127.07l4.08-12.89.33-.02c5.37-.3,7.19,1.33,7.78,2.75.91,2.22-.69,5-2.11,6.26-2.6,2.29-8.99,3.67-9.26,3.73l-.81.17ZM263.9,115.11l-3.37,10.65c1.81-.45,6.12-1.65,8-3.32,1.18-1.04,2.59-3.4,1.86-5.17-.65-1.57-2.9-2.33-6.49-2.17Z"/>
  <path class="stPrivateSnorkeling1" d="M279.88,154.02l15.6-43.08h-3.35s1.63-9.69,1.63-9.69l19.54.17-7,17.39,14.66-17.21,21.12.78-30.07,23.55,7.62,26.22-15.16.52-5.01-18.98-6.18,19.51-13.42.81ZM293.27,109.98h3.59s-15.57,42.99-15.57,42.99l11.29-.68,6.98-22.06,5.66,21.46,13.14-.45-7.46-25.65,28.5-22.32-18.01-.66-18.21,21.38,8.69-21.59-17.29-.15-1.31,7.74Z"/>
  <path class="stPrivateSnorkeling1" d="M326.93,151.98l16.11-39.8-3.4-.17,3.03-9.59,29.87,1.89-5.24,12.55-14.28-1.79-2.32,7.34,10.1,1.08-2.57,10.23-13.61-1.26-2.65,7.94,16.48.21-3.58,11.23-27.95.15ZM340.94,111.11l3.51.17-16.08,39.73,25.8-.14,2.97-9.31-16.5-.21,3.31-9.93,13.55,1.26,2.09-8.35-10.17-1.09,2.92-9.23,14.35,1.8,4.43-10.62-27.76-1.76-2.43,7.67Z"/>
  <path class="stPrivateSnorkeling1" d="M389.27,152.71l-28.95-.82,18.67-47.04,16.88,1.57-17.21,35.68,13.9.18-3.3,10.43ZM361.73,150.96l26.83.76,2.69-8.49-14.12-.18,17.27-35.79-14.77-1.38-17.89,45.08Z"/>
  <path class="stPrivateSnorkeling1" d="M406.66,153.61l-13.08-.7,18.87-44.65,14.37,1.81-20.16,43.55ZM395.01,152.01l11.05.59,19.33-41.75-12.33-1.55-18.05,42.71Z"/>
  <path class="stPrivateSnorkeling1" d="M449.3,157.07l-12.33-1.19-2.61-20.36-7.59,19.49-12.78-.94,15.59-34.58.62-8.98,16.18,2.34-.32,20.9,7.55-19.77,16.53,2.79-20.84,40.29ZM437.83,154.99l10.91,1.05,19.92-38.53-14.44-2.44-9.23,24.15.39-25.53-14.3-2.07-.59,8.19-15.06,33.4,10.69.79,8.71-22.37,3,23.36Z"/>
  <g>
    <path class="stPrivateSnorkeling1" d="M526.23,69.01c.5-1.18.37-2.56-.81-3.41-.31-.29-.71-.51-1.16-.63-6.78-3.36-13.57-6.72-20.35-10.07-1.77-7.57-3.54-15.15-5.31-22.72-.28-1.2-1.15-1.92-2.16-2.18-1.01-.35-2.18-.22-3.08.7-5.44,5.57-10.88,11.13-16.32,16.7-7.51-.63-15.03-1.27-22.54-1.9-.69-.24-1.39-.17-2.01.12-1.22.39-1.89,1.54-1.96,2.75-.07.58.02,1.19.34,1.75,0,0,0,0,0,0,0,0,0-.02.01-.03.01.03.03.06.04.08-.02-.02-.04-.04-.05-.06,3.59,6.85,7.18,13.69,10.77,20.54-3.05,7.25-6.11,14.51-9.16,21.76-1.02,2.42,1.76,4.26,3.82,3.91,7.55-1.28,15.11-2.57,22.66-3.85,5.79,5,11.58,10.01,17.37,15.01,1.57,1.35,4.92,1.28,5.3-1.33,1.14-7.8,2.29-15.59,3.43-23.39,6.61-4,13.21-7.99,19.82-11.99.7-.42,1.14-1.06,1.35-1.77Z"/>
    <g>
      <path id="Path_73" class="stPrivateSnorkeling3" d="M485.45,69.43h0l35.95-1.52-20.96-10.38-15,11.89h0Z"/>
      <path id="Path_75" class="stPrivateSnorkeling2" d="M501.4,80.02l20-12.1-35.95,1.52,15.95,10.59Z"/>
      <path id="Path_77" class="stPrivateSnorkeling3" d="M466.29,70.07l-9.14,21.7,28.39-22.51-19.25.81Z"/>
      <path id="Path_78" class="stPrivateSnorkeling4" d="M485.54,69.25l-28.39,22.51,23.21-3.95,5.18-18.56h0Z"/>
      <path id="Path_79" class="stPrivateSnorkeling4" d="M500.45,57.54l-5.33-22.77-9.67,34.67,15-11.89Z"/>
      <path id="Path_80" class="stPrivateSnorkeling4" d="M485.55,69.25h0l12.64,33.95,3.42-23.3-16.06-10.66Z"/>
      <path id="Path_81" class="stPrivateSnorkeling2" d="M485.55,69.25l-5.18,18.56,17.82,15.39-12.64-33.95h0Z"/>
      <path id="Path_82" class="stPrivateSnorkeling3" d="M485.45,69.43h0l9.67-34.67-16.35,16.73,6.68,17.94h0Z"/>
      <path id="Path_83" class="stPrivateSnorkeling2" d="M478.82,51.19l-23.46-1.98,30.19,20.05-6.72-18.06Z"/>
      <path id="Path_84" class="stPrivateSnorkeling4" d="M485.55,69.25h0l-30.19-20.05,10.93,20.86,19.25-.81h0Z"/>
    </g>
  </g>
  <g>
    <path class="stPrivateSnorkeling1" d="M436.05,56.65c.19-.96-.13-1.97-1.14-2.42-.28-.17-.61-.27-.97-.29-5.6-1.44-11.2-2.88-16.79-4.32-2.52-5.38-5.04-10.76-7.56-16.14-.4-.86-1.17-1.26-1.96-1.29-.81-.1-1.66.18-2.19,1.01-3.19,5.02-6.37,10.04-9.56,15.05-5.71.71-11.43,1.42-17.14,2.13-.56-.07-1.07.09-1.48.41-.85.49-1.17,1.45-1.03,2.36.04.45.2.88.53,1.25,0,0,0,0,0,0,0,0,0-.01,0-.02.01.02.03.04.05.06-.02-.01-.03-.02-.05-.03,3.76,4.55,7.52,9.1,11.28,13.65-1.14,5.9-2.28,11.8-3.41,17.7-.38,1.96,1.99,2.9,3.47,2.32,5.44-2.15,10.88-4.3,16.32-6.46,5.12,2.82,10.23,5.65,15.35,8.47,1.38.76,3.88.18,3.75-1.83-.37-6-.75-12.01-1.12-18.01,4.3-4.03,8.61-8.06,12.91-12.09.45-.42.68-.97.73-1.54Z"/>
    <g>
      <path id="Path_731" data-name="Path_73" class="stPrivateSnorkeling3" d="M405.65,63.39h0l26.62-6.81-17.29-4.45-9.33,11.25h0Z"/>
      <path id="Path_751" data-name="Path_75" class="stPrivateSnorkeling2" d="M419.24,68.79l13.04-12.2-26.62,6.81,13.59,5.39Z"/>
      <path id="Path_771" data-name="Path_77" class="stPrivateSnorkeling3" d="M391.44,66.89l-3.4,17.65,17.66-21.3-14.25,3.64Z"/>
      <path id="Path_781" data-name="Path_78" class="stPrivateSnorkeling4" d="M405.69,63.25l-17.66,21.3,16.72-6.61.94-14.68h0Z"/>
      <path id="Path_791" data-name="Path_79" class="stPrivateSnorkeling4" d="M414.98,52.14l-7.57-16.17-1.75,27.43,9.33-11.25Z"/>
      <path id="Path_801" data-name="Path_80" class="stPrivateSnorkeling4" d="M405.7,63.25h0l14.8,23.37-1.12-17.94-13.68-5.43Z"/>
      <path id="Path_811" data-name="Path_81" class="stPrivateSnorkeling2" d="M405.7,63.25l-.94,14.68,15.74,8.69-14.8-23.37h0Z"/>
      <path id="Path_821" data-name="Path_82" class="stPrivateSnorkeling3" d="M405.65,63.39h0l1.75-27.42-9.57,15.08,7.82,12.35h0Z"/>
      <path id="Path_831" data-name="Path_83" class="stPrivateSnorkeling2" d="M397.82,50.81l-17.84,2.22,25.72,10.21-7.87-12.43Z"/>
      <path id="Path_841" data-name="Path_84" class="stPrivateSnorkeling4" d="M405.7,63.24h0l-25.72-10.21,11.46,13.86,14.25-3.64h0Z"/>
    </g>
  </g>
  <g>
    <path class="stPrivateSnorkeling1" d="M361.15,54.51c.1-.74-.19-1.49-.98-1.78-.22-.12-.47-.18-.75-.17-4.32-.83-8.64-1.65-12.96-2.48-2.17-3.97-4.34-7.93-6.5-11.9-.34-.63-.95-.9-1.55-.89-.62-.04-1.25.21-1.61.87-2.18,3.96-4.37,7.92-6.55,11.89-4.31.81-8.61,1.62-12.92,2.43-.43-.03-.81.12-1.1.38-.62.41-.82,1.16-.67,1.84.05.34.2.66.46.93,0,0,0,0,0,0,0,0,0-.01,0-.02.01.01.02.03.04.04-.01,0-.03-.02-.04-.02,3.07,3.28,6.14,6.55,9.22,9.83-.58,4.54-1.17,9.07-1.75,13.61-.19,1.51,1.65,2.11,2.75,1.6,4.03-1.89,8.06-3.78,12.09-5.68,4.02,1.9,8.04,3.81,12.06,5.71,1.09.51,2.95-.05,2.76-1.57-.57-4.54-1.14-9.09-1.71-13.63,3.08-3.26,6.16-6.53,9.23-9.79.32-.34.47-.77.48-1.2Z"/>
    <g>
      <path id="Path_732" data-name="Path_73" class="stPrivateSnorkeling3" d="M338.38,61.07h0l19.9-6.43-13.35-2.56-6.55,8.99h0Z"/>
      <path id="Path_752" data-name="Path_75" class="stPrivateSnorkeling2" d="M348.95,64.53l9.32-9.88-19.9,6.43,10.57,3.45Z"/>
      <path id="Path_772" data-name="Path_77" class="stPrivateSnorkeling3" d="M327.75,64.4l-1.75,13.57,12.4-17.01-10.65,3.44Z"/>
      <path id="Path_782" data-name="Path_78" class="stPrivateSnorkeling4" d="M338.4,60.96l-12.4,17.01,12.39-5.81.02-11.2h0Z"/>
      <path id="Path_792" data-name="Path_79" class="stPrivateSnorkeling4" d="M344.93,52.09l-6.52-11.93-.03,20.91,6.55-8.99Z"/>
      <path id="Path_802" data-name="Path_80" class="stPrivateSnorkeling4" d="M338.4,60.96h0l12.35,17.05-1.7-13.58-10.65-3.48Z"/>
      <path id="Path_812" data-name="Path_81" class="stPrivateSnorkeling2" d="M338.4,60.96l-.02,11.2,12.37,5.85-12.35-17.05h0Z"/>
      <path id="Path_822" data-name="Path_82" class="stPrivateSnorkeling3" d="M338.38,61.07h0l.03-20.91-6.56,11.9,6.52,9.01h0Z"/>
      <path id="Path_832" data-name="Path_83" class="stPrivateSnorkeling2" d="M331.83,51.89l-13.45,2.53,20.02,6.54-6.57-9.07Z"/>
      <path id="Path_842" data-name="Path_84" class="stPrivateSnorkeling4" d="M338.4,60.96h0l-20.02-6.54,9.36,9.98,10.65-3.44h0Z"/>
    </g>
  </g>
</svg>