<?xml version="1.0" encoding="UTF-8"?>
<svg id="Capa_2" xmlns="http://www.w3.org/2000/svg" xmlns:xlink="http://www.w3.org/1999/xlink" version="1.1" viewBox="0 0 400 400">
  <!-- Generator: Adobe Illustrator 30.1.0, SVG Export Plug-In . SVG Version: 2.1.1 Build 136)  -->
  <defs>
    <style>
      .stPrivateSnorkeling0, .stPrivateSnorkeling1 {
        fill: none;
      }

      .stPrivateSnorkeling2 {
        fill: #f0de39;
      }

      .stPrivateSnorkeling3 {
        fill: #030406;
      }

      .stPrivateSnorkeling4 {
        fill: url(#Degradado_sin_nombre_3333);
      }

      .stPrivateSnorkeling5 {
        fill: url(#Degradado_sin_nombre_3335);
      }

      .stPrivateSnorkeling6 {
        fill: url(#Degradado_sin_nombre_3332);
      }

      .stPrivateSnorkeling7 {
        fill: url(#Degradado_sin_nombre_3331);
      }

      .stPrivateSnorkeling8 {
        fill: url(#Degradado_sin_nombre_3337);
      }

      .stPrivateSnorkeling9 {
        fill: url(#Degradado_sin_nombre_3334);
      }

      .stPrivateSnorkeling10 {
        fill: url(#Degradado_sin_nombre_3336);
      }

      .stPrivateSnorkeling11 {
        fill: url(#Degradado_sin_nombre_3339);
      }

      .stPrivateSnorkeling12 {
        fill: url(#Degradado_sin_nombre_3338);
      }

      .stPrivateSnorkeling13 {
        fill: #e09e50;
      }

      .stPrivateSnorkeling14 {
        fill: #fff;
      }

      .stPrivateSnorkeling15 {
        fill: url(#Degradado_sin_nombre_333);
      }

      .stPrivateSnorkeling16, .stPrivateSnorkeling17, .stPrivateSnorkeling18 {
        fill: #020407;
      }

      .stPrivateSnorkeling17 {
        stroke-width: 1.69px;
      }

      .stPrivateSnorkeling17, .stPrivateSnorkeling18, .stPrivateSnorkeling1 {
        stroke: #020407;
        stroke-miterlimit: 10;
      }

      .stPrivateSnorkeling18 {
        stroke-width: 1.01px;
      }

      .stPrivateSnorkeling1 {
        stroke-width: .34px;
      }

      .stPrivateSnorkeling19 {
        fill: #ecc548;
      }
    </style>
    <linearGradient id="Degradado_sin_nombre_333" data-name="Degradado sin nombre 333" x1="149.11" y1="27.67" x2="199.1" y2="27.67" gradientTransform="translate(-73.57 89.21) rotate(20.26)" gradientUnits="userSpaceOnUse">
      <stop offset="0" stop-color="#dbdbdb"/>
      <stop offset=".41" stop-color="#fff"/>
      <stop offset="1" stop-color="#636363"/>
    </linearGradient>
    <linearGradient id="Degradado_sin_nombre_3331" data-name="Degradado sin nombre 333" x1="200.17" y1="-24.67" x2="228.82" y2="-24.67" xlink:href="#Degradado_sin_nombre_333"/>
    <linearGradient id="Degradado_sin_nombre_3332" data-name="Degradado sin nombre 333" x1="188.99" y1="170.04" x2="225.47" y2="170.04" gradientTransform="translate(-31.44 -38.25) rotate(.87)" xlink:href="#Degradado_sin_nombre_333"/>
    <linearGradient id="Degradado_sin_nombre_3333" data-name="Degradado sin nombre 333" x1="402.52" y1="-97.12" x2="431.9" y2="-97.12" xlink:href="#Degradado_sin_nombre_333"/>
    <linearGradient id="Degradado_sin_nombre_3334" data-name="Degradado sin nombre 333" x1="218.19" y1="167.7" x2="254.37" y2="167.7" gradientTransform="translate(-31.44 -38.25) rotate(.87)" xlink:href="#Degradado_sin_nombre_333"/>
    <linearGradient id="Degradado_sin_nombre_3335" data-name="Degradado sin nombre 333" x1="288.87" y1="-66.51" x2="318.29" y2="-66.51" xlink:href="#Degradado_sin_nombre_333"/>
    <linearGradient id="Degradado_sin_nombre_3336" data-name="Degradado sin nombre 333" x1="319.74" y1="-75.15" x2="338.19" y2="-75.15" xlink:href="#Degradado_sin_nombre_333"/>
    <linearGradient id="Degradado_sin_nombre_3337" data-name="Degradado sin nombre 333" x1="341.71" y1="-80.77" x2="359.36" y2="-80.77" xlink:href="#Degradado_sin_nombre_333"/>
    <linearGradient id="Degradado_sin_nombre_3338" data-name="Degradado sin nombre 333" x1="362.78" y1="-86.39" x2="373.45" y2="-86.39" xlink:href="#Degradado_sin_nombre_333"/>
    <linearGradient id="Degradado_sin_nombre_3339" data-name="Degradado sin nombre 333" x1="375.83" y1="-90.95" x2="402.04" y2="-90.95" xlink:href="#Degradado_sin_nombre_333"/>
  </defs>
  <path class="stPrivateSnorkeling14" d="M375.28,137.46c-.09-.15-.18-.3-.28-.45.64-1.83.73-3.85.17-5.79-2.11-7.31-11.42-9.58-15.03-10.37-3.78-1.11-7.89-1.21-11.91-.41-1.39-1.56-3.26-2.65-5.37-3.04l-10.26-1.89c-.96-.18-1.91-.2-2.84-.09-.83-.41-1.74-.71-2.71-.86l-10.1-1.62c-.54-.09-1.09-.11-1.63-.11-.5-.16-1.02-.3-1.55-.37l-8.85-1.25c-2.23-.31-4.41.19-6.24,1.29-1.52-1.55-3.53-2.56-5.74-2.8l-10.5-1.14c-.89-.1-1.77-.06-2.63.09-.83-.31-1.7-.53-2.61-.6l-19.12-1.5c-.29-.02-.57-.02-.85-.02-.3-.04-.6-.08-.91-.1l-12.99-.67c-1.02-.05-2.04.06-3,.33-.94-.34-1.94-.53-2.97-.55l-12.23-.29c-1.92-.04-3.76.49-5.3,1.47-5.99-2.29-13-1.34-16.22-.9-.14.02-.28.04-.42.07l-10.79,1.95c-1.48.27-2.84.87-3.99,1.73-1.74-.81-3.7-1.48-5.89-1.91-5.4-1.51-11.44-.63-17.17,2.32-1.84-1.32-4.12-1.98-6.45-1.76l-10.06.97c-1.71.17-3.31.79-4.65,1.76-1.91-.99-4.12-1.31-6.26-.88l-9.55,1.92c-1.03-.87-2.25-1.52-3.59-1.89-8.45-2.34-17.72-1.39-23.96-.47-20.5,3.02-53.94,18.23-56.42,46.23-1.1,12.44,4.82,22.69,9.59,30.92,3.33,5.75,6.47,11.19,5.94,15.09-.06.46-.24,1.15-.45,1.78-1.66.36-3.8.76-5.15.97-.47.06-2.25.19-3.43.28-5.89.44-7.29.54-9.37,1.68-1.13.61-2.01,1.35-2.72,2.1-2.14.44-4.78,1.42-6.73,4.07-.53.71-.95,1.5-1.26,2.33l-6.87,18.61c-1.05,2.84-.68,6.01.99,8.54,1.67,2.53,4.45,4.1,7.48,4.24,2.66.12,5.49.23,8.43.23,4.58,0,9.43-.26,14.32-1.14.33-.06.67-.14,1.01-.2-2.68,3.46-3.21,8.13-1.31,12.23.94,2.12,2.46,3.88,4.39,5.12l11.51,7.49,1.58,13.99c.48,4.24,3.12,7.73,7.06,9.35,1.49.61,3.07.91,4.66.91,2.81,0,5.61-.94,7.82-2.72l10.57-8.54,13.3,2.71c4.37.89,9.05-.73,11.94-4.14.71-.84,1.29-1.76,1.73-2.72.56.47,1.17.9,1.83,1.28,3.87,2.2,8.82,2.12,12.61-.21l11.58-7.13,12.84,4.39c4.22,1.44,9.07.43,12.37-2.58.49-.45.94-.93,1.34-1.44.39.39.81.76,1.27,1.1,3.56,2.69,8.48,3.25,12.53,1.42l12.4-5.57,12.17,6.01c4,1.97,8.94,1.6,12.6-.96,1.57-1.1,2.8-2.51,3.63-4.11.65,1.56,1.65,2.99,2.98,4.18,3.32,2.97,8.17,3.94,12.36,2.47l12.83-4.51,11.62,7.01c3.82,2.3,8.78,2.34,12.64.11,1.72-1,3.08-2.37,4.06-3.98.28,2.21,1.18,4.33,2.73,6.11,2.93,3.36,7.62,4.92,11.97,3.98l13.28-2.9,10.67,8.39c2.2,1.73,4.95,2.63,7.71,2.63,1.64,0,3.28-.32,4.81-.97,3.91-1.66,6.5-5.18,6.92-9.42l1.4-14.04,11.41-7.64c2.29-1.54,3.98-3.83,4.78-6.48,1.6-4.9-.07-10.17-4.16-13.13-1-.76-2.13-1.36-3.33-1.76l-11.7-5.13-3.63-12.82c2.19-1.43,5.39-3.92,6.26-8.03.46-2.13.29-4.27-.46-6.19,1.87-1.45,3.45-3.67,4.13-6.86,1.07-5.04.2-10.5-2.58-16.22-2.19-4.49-6.84-10.29-16.59-12.36-6.02-1.28-11.86-.67-17.16,1.72-.92-2.24-2.69-4.12-5.07-5.13-1.21-.51-2.55-.92-4.05-1.23.25-2.06.02-3.98-.63-5.72.46-.07.92-.16,1.37-.3,1.05.57,2.21.94,3.46,1.08l7.71.86c.35.04.71.06,1.06.06,2.25,0,4.39-.81,6.07-2.21,1.07.87,2.23,1.64,3.5,2.31,3.79,1.97,8.45,3.21,13.2,3.21,5.63,0,11.39-1.74,16-6.04,3-1.78,5.54-4.26,7.5-7.29,2.29-1.07,4.16-3.04,5.01-5.61l1.37-4.12c.87-2.6.57-5.45-.82-7.81Z"/>
  <g>
    <g>
      <path class="stPrivateSnorkeling3" d="M130.37,199.21l2.05,10.5c.44,2.21,1.03,3.58,1.79,4.11.76.53,1.77.69,3.05.47.85-.15,1.4-.19,1.64-.11.24.08.4.28.47.61.09.48-.39.82-1.46,1.04-.48.09-1.6.26-3.37.5-2.38.34-4.04.6-4.98.79-1.03.2-2.44.55-4.22,1.04-1.47.41-2.54.68-3.23.81-.59.12-.94-.08-1.04-.6-.08-.41.37-.78,1.36-1.13.98-.35,1.65-.75,2-1.21.35-.46.53-1.18.53-2.17,0-.99-.39-3.54-1.18-7.65-.8-4.12-1.5-7.74-2.12-10.87l-1.75-8.69c-.23-1.18-.71-2.06-1.42-2.66-.71-.6-1.78-.75-3.22-.47-.64.13-1.02-.07-1.12-.58-.12-.61.39-1.02,1.53-1.25l.72-.11c1.04-.15,2.24-.36,3.61-.63l11.24-2.4c5.71-1.13,9.86-1.06,12.45.2s4.19,3.42,4.8,6.47c.6,3.05-.12,5.74-2.18,8.07-2.06,2.33-5.83,4.03-11.32,5.12-1.27.25-2.82.52-4.63.8ZM129.99,197.25c1.07-.12,1.89-.23,2.46-.34,2.93-.58,4.95-1.9,6.05-3.95,1.1-2.05,1.42-4.3.93-6.75-.46-2.32-1.47-3.92-3.03-4.81-1.57-.89-3.32-1.15-5.27-.76-1.01.2-2.4.64-4.16,1.31l3.03,15.3Z"/>
      <path class="stPrivateSnorkeling3" d="M166.51,183.55c.99-2.83,2.27-5,3.82-6.53,1.55-1.53,3.39-2.42,5.5-2.68,2.01-.25,3.68.14,5.02,1.15,1.34,1.01,2.12,2.39,2.33,4.13.17,1.37-.12,2.59-.86,3.66-.74,1.07-1.73,1.68-2.97,1.83-.92.11-1.72-.03-2.38-.43-.67-.4-1.41-1.17-2.25-2.3-1.16-1.63-2.1-2.39-2.81-2.31-.98.12-1.96,1.24-2.96,3.37-1,2.13-1.15,6.04-.45,11.73.88,7.19,1.62,11.16,2.2,11.9.59.74,1.71,1.01,3.37.81,1.45-.18,2.22.13,2.32.92.09.74-.58,1.2-2,1.37-.79.1-1.95.17-3.47.21-1.39.05-2.69.15-3.9.29-2.61.32-5.19.73-7.72,1.23-1.07.21-1.7.33-1.88.35-1.11.14-1.71-.21-1.82-1.04-.09-.72.51-1.19,1.8-1.4,1.26-.21,2.11-.61,2.54-1.21.44-.6.54-1.81.32-3.63l-1.05-9.9c-.25-2-.63-4.48-1.15-7.44-.52-2.96-.89-4.71-1.09-5.26-.2-.55-.6-1.02-1.2-1.4-.6-.38-1.36-.56-2.29-.52-.96.01-1.58-.04-1.85-.16-.27-.11-.43-.4-.48-.84-.09-.71.53-1.16,1.84-1.35,2.42-.32,6.51-1.15,12.27-2.47l1.25,7.92Z"/>
      <path class="stPrivateSnorkeling3" d="M199.92,172.43c.35,3.71.84,10.32,1.47,19.84l.44,8.56c.11,1.72.47,2.86,1.08,3.4.61.55,1.57.87,2.88.97,1.5.09,2.27.46,2.31,1.13.05.72-.51,1.11-1.68,1.19-.56.04-1.53.06-2.91.07-2.93,0-5.83.1-8.69.29-1.41.09-2.83.26-4.28.5-.87.18-1.46.27-1.78.29-1.17.08-1.77-.24-1.82-.96-.04-.69.7-1.15,2.23-1.38,2.03-.32,3.12-1.08,3.29-2.27.16-1.2.12-3.6-.12-7.2-.31-4.67-.66-8.95-1.07-12.86s-.82-6.12-1.26-6.65c-.43-.53-1.49-.83-3.18-.91-1.31-.05-1.98-.39-2.03-1.03-.04-.64.6-1.05,1.92-1.24l.83-.13,12.36-1.61ZM199.28,162.65c.1,1.56-.37,2.95-1.42,4.15-1.05,1.2-2.36,1.85-3.93,1.96-1.59.1-2.98-.37-4.17-1.42s-1.83-2.36-1.94-3.93c-.1-1.59.36-2.98,1.4-4.17s2.36-1.83,3.95-1.94c1.56-.1,2.95.37,4.15,1.41,1.2,1.04,1.85,2.35,1.96,3.95Z"/>
      <path class="stPrivateSnorkeling3" d="M229.99,196.05c1.7-3.71,3.28-7.6,4.74-11.69,1.46-4.09,2.18-6.63,2.18-7.63,0-1.07-.62-1.77-1.85-2.08-1.17-.31-1.76-.75-1.76-1.3,0-.66.47-1,1.43-1.01.48,0,1.46.06,2.95.2,1.36.11,2.3.16,2.83.16,1.17,0,2.26-.1,3.27-.29.56-.09,1-.14,1.32-.14.82,0,1.24.38,1.24,1.15,0,.58-.55.97-1.67,1.17-2.52.41-4.61,2.75-6.25,7.02-1.88,4.88-3.67,9.39-5.38,13.55-1.71,4.16-3.02,7.16-3.94,9.02-.92,1.85-1.47,2.85-1.67,3-.2.15-.44.22-.73.22-.35,0-.69-.25-1.02-.75-.33-.5-1.72-3.17-4.17-7.99l-9.33-18.28c-1.35-2.6-2.37-4.16-3.06-4.67-.69-.51-1.3-.83-1.8-.96-1.04-.23-1.56-.6-1.56-1.11,0-.74.5-1.12,1.51-1.13.42,0,1.09.03,1.99.1,2.15.18,4.25.26,6.3.25.82,0,1.75-.05,2.79-.13,1.89-.18,3.02-.27,3.39-.27,1.76-.01,2.63.29,2.64.9,0,.74-.48,1.17-1.47,1.28-1.38.14-2.07.78-2.06,1.93,0,.69,1.14,3.42,3.41,8.19,2.27,4.77,4.18,8.53,5.75,11.29Z"/>
      <path class="stPrivateSnorkeling3" d="M263.59,204.11c-1.75,1.45-3.49,2.52-5.21,3.19-1.72.67-3.43.95-5.13.83-2.7-.18-4.74-1.14-6.1-2.87-1.36-1.73-1.96-3.77-1.81-6.11.12-1.81.67-3.39,1.66-4.75.98-1.36,2.16-2.39,3.52-3.08,1.36-.7,3.59-1.49,6.68-2.37,2.6-.73,4.35-1.33,5.24-1.79s1.67-1.17,2.32-2.12c.65-.96,1.03-2.22,1.13-3.81.12-1.74-.22-3.16-1.03-4.26-.8-1.1-1.97-1.7-3.5-1.81-1.32-.09-2.28.18-2.88.8-.6.65-1.1,1.72-1.49,3.2-.81,2.97-2.55,4.36-5.2,4.18-1.09-.07-1.99-.45-2.72-1.14-.73-.69-1.05-1.63-.97-2.82.17-2.55,1.69-4.36,4.54-5.43,2.86-1.07,6.21-1.48,10.05-1.22,3.31.22,5.98.91,7.99,2.06,2.01,1.15,3.27,2.41,3.76,3.77.49,1.37.65,3.45.46,6.26l-.71,9.42c-.34,4.96-.38,8.15-.15,9.58.24,1.43.9,2.18,1.99,2.25.16.01.37.01.64,0,.53-.02.89-.02,1.08,0,1.09.07,1.61.42,1.57,1.02-.03.4-.28.72-.74.97s-1.85.51-4.15.78c-2.3.27-4.36.35-6.19.22-1.83-.12-3.06-.56-3.69-1.3-.63-.74-.95-1.96-.97-3.65ZM265.18,188.19c-.69.73-2.28,1.65-4.78,2.76-2.28,1.02-3.82,1.96-4.63,2.81-.81.88-1.27,2.2-1.39,3.95-.13,1.86.17,3.3.89,4.33.72,1.02,1.64,1.57,2.79,1.65,1.54.1,3.02-.51,4.44-1.84s2.25-3.79,2.5-7.38c.08-1.12.14-3.21.18-6.28Z"/>
      <path class="stPrivateSnorkeling3" d="M299.77,177.24c1.62.14,4.08.44,7.4.89,1.5.21,2.72.51,3.66.9-.67,1.92-1.16,2.93-1.48,3.02-.32.09-3.71-.12-10.15-.63l-2.82,17.36c-.34,2.48-.46,4.31-.37,5.5.09,1.19.53,2.25,1.32,3.16.79.91,1.89,1.47,3.31,1.66,1.21.17,3.02-.24,5.44-1.23.37-.14.67-.19.91-.16.5.07.71.37.64.89-.1.76-1.31,1.66-3.63,2.68-2.31,1.02-4.91,1.34-7.78.95-3.4-.47-5.95-1.66-7.66-3.59-1.71-1.92-2.19-5.56-1.46-10.91.81-5.9,1.72-11.77,2.74-17.61-2.61-.36-4.44-.68-5.5-.96-1.06-.28-1.55-.74-1.46-1.37.07-.53.75-.86,2.03-1.01,2.52-.22,4.85-.92,6.99-2.1,2.13-1.18,4.1-3.26,5.91-6.23.73-1.21,1.21-1.95,1.45-2.2.24-.25.54-.35.91-.3.76.1,1.06.79.88,2.05l-1.26,9.2Z"/>
      <path class="stPrivateSnorkeling3" d="M323.72,197.71c-.19.75-.32,1.29-.39,1.63-.78,3.69-.55,7.01.72,9.96,1.26,2.94,3.43,4.74,6.5,5.4,3.14.67,6.53-.04,10.15-2.12.74-.41,1.24-.59,1.5-.54.68.14.94.58.78,1.31-.12.57-1.12,1.43-2.99,2.58-1.88,1.15-4.02,1.86-6.45,2.13-2.42.27-4.84.15-7.26-.36-5.3-1.13-9.11-3.63-11.43-7.5-2.31-3.88-3.01-8.01-2.07-12.4,1.12-5.28,3.78-9.34,7.99-12.18,4.2-2.84,8.88-3.72,14.03-2.62,4.84,1.03,8.18,3.44,10.02,7.23,1.85,3.79,2.45,7.15,1.83,10.09-.2.94-.56,1.44-1.1,1.52-.53.08-2.15-.17-4.85-.75l-16.97-3.36ZM324.56,194.91c3.84.87,6.05,1.37,6.65,1.5,2.94.62,4.78.8,5.53.52.75-.27,1.26-1.05,1.53-2.32.45-2.13.24-4.15-.63-6.04-.87-1.9-2.16-3.03-3.84-3.39-4-.85-7.09,2.39-9.24,9.73Z"/>
    </g>
    <g>
      <path class="stPrivateSnorkeling0" d="M94.48,178.93c-.26-.5-.35-1.04-.99-1.26-3.35-7.49-8.45-14.42-10.91-22.3-5.3-16.96,10.27-21.33,23.73-20.08,2.05.19,4.2.94,6.18.81.92-.56,5.2-10.17,5.77-11.82.19-.32.36-.71.48-1.07l1.47-3.27s0,0,0,0l-1.47,3.26c-.12.37-.29.75-.48,1.07-.57,1.65-4.85,11.26-5.77,11.82-1.98.13-4.13-.62-6.18-.81-13.45-1.25-29.02,3.12-23.73,20.08,2.46,7.88,7.56,14.8,10.91,22.3.63.23.72.76.99,1.26,1.78,3.41,3.33,7.81,3.64,11.65,2.18,26.42-27.4,39.81-49.48,41.01-2.27.12-4.59.1-6.86,0h0c2.27.11,4.6.13,6.86,0,22.07-1.21,51.66-14.59,49.48-41.01-.32-3.84-1.87-8.24-3.64-11.65Z"/>
      <path d="M88.08,163.93c-3.07-6.14-7.91-15.55-2.62-21.75,2.9-3.39,13.82-3.23,18.06-2.63,1.29.18,3.84,1.15,4.73,1.09,1.29-.08,2.49-2.3,3.53-2.66.63-.22,1.6.12,1.73.04.36-.21,3.4-6.41,3.86-7.38,1.76-3.73,3.19-7.63,4.93-11.37-6.29-1.74-13.61-1.18-20.04-.23-18.88,2.78-46.44,16.25-48.34,37.67-1.62,18.25,17.49,31.68,15.48,46.46-.32,2.35-1.8,7.32-3.87,8.62-1.22.77-7.98,1.98-9.79,2.25-1.52.23-9.13.63-9.62.9-.9.49-.67,1.74-1.56,2.35-.9.62-4.28.44-4.77,1.1l-6.87,18.61c6.89.32,13.82.45,20.63-.77,20.65-3.7,49.57-23.2,45.93-47.19-1.37-9.03-7.39-17.1-11.4-25.11ZM48.64,231.6c-2.27.12-4.59.1-6.86,0h0s0,0,0,0c.46-1.27.95-2.54,1.41-3.82-.41-.53.13-1.32.32-1.86.81-2.29,1.66-4.58,2.53-6.84.21-.55.88-2.7,1.08-2.81.19-.1,3.64-.13,4.24-.14,1.71-.19,10.8-1.54,12.79-2.13,9.7-2.86,16.47-11.07,15.56-21.52-.33-.13-1.67-5.67-2.18-6.78-2.23-4.9-6.03-9.96-8.61-14.91-1.26-2.42-2.46-4.84-3.41-7.4-.78-2.1-1.15-3.43-1.54-5.63-1.41-8.12.55-15.92,6.6-21.78.06-.09.05-.23.12-.32,3.96-5.31,9.17-8.25,15.15-10.67,10.79-4.38,22.74-6.23,34.38-5.02h0s0,0,0,0l-1.47,3.27c-.12.37-.29.75-.48,1.07-.57,1.65-4.85,11.26-5.77,11.82-1.98.13-4.13-.62-6.18-.81-13.45-1.25-29.02,3.12-23.73,20.08,2.46,7.88,7.56,14.8,10.91,22.3.63.23.72.76.99,1.26,1.78,3.41,3.33,7.81,3.64,11.65,2.18,26.42-27.4,39.81-49.48,41.01Z"/>
      <path class="stPrivateSnorkeling15" d="M98.12,190.58c-.32-3.84-1.87-8.24-3.64-11.65-.26-.5-.35-1.04-.99-1.26-3.35-7.49-8.45-14.42-10.91-22.3-5.3-16.96,10.27-21.33,23.73-20.08,2.05.19,4.2.94,6.18.81.92-.56,5.2-10.17,5.77-11.82.19-.32.36-.71.48-1.07l1.47-3.26c-11.63-1.21-23.59.64-34.38,5.02-5.97,2.42-11.18,5.36-15.15,10.67-.06.09-.05.23-.12.32-6.05,5.87-8.01,13.66-6.6,21.78.38,2.2.76,3.53,1.54,5.63.95,2.57,2.15,4.98,3.41,7.4,2.57,4.95,6.38,10.01,8.61,14.91.51,1.11,1.85,6.65,2.18,6.78.91,10.45-5.86,18.66-15.56,21.52-1.99.59-11.53,2.03-12.88,2.14-1.43.01-3.97.03-4.16.13-.2.11-.87,2.26-1.08,2.81-.88,2.26-1.72,4.56-2.53,6.84-.19.54-.73,1.34-.32,1.86-.46,1.27-.95,2.54-1.41,3.82,2.27.11,4.6.13,6.86,0,22.07-1.21,51.66-14.59,49.48-41.01Z"/>
      <polygon class="stPrivateSnorkeling17" points="138.79 159.36 156.06 120.51 146.01 121.48 137.49 142.17 136.06 122.22 125.17 124.41 127.28 128.63 108.78 165.86 118.84 164.07 128.65 141.92 130.38 160.9 138.79 159.36"/>
      <path class="stPrivateSnorkeling17" d="M155.95,154.79c6.39,3.82,16.62-.74,22.85-10.18,3.19-4.84,4.7-10.01,4.57-14.43l4.44-2.56s-3.2-6.49-11.25-7.89h0c-6.38-2.02-15.27,2.52-20.9,11.05-6.22,9.44-6.09,20.19.3,24.01ZM160.79,132.87c3.91-6.24,10.14-9.39,13.92-7.02,1.38.87,2.24,2.36,2.58,4.2l-2.27.3.76,6.42c.14,1.19-.06,2.41-.63,3.47-.22.4-.45.8-.69,1.19-3.91,6.24-10.14,9.39-13.92,7.02-3.77-2.36-3.66-9.34.25-15.59Z"/>
      <path class="stPrivateSnorkeling18" d="M346.02,146.02l3.05.7c.99.23,1.48,1.18,1.1,2.12h0c-.43,1.08-.91,1.67-1.92,2.06-1.74.67-8.86.23-7.78-4.63,1.08-4.86,6.76-11.78,16.74-5.83l5.06-3.76s-.62-2.14-8.3-3.8h0c-6.16-1.98-14.16.61-18.77,6.36-5.1,6.36-4.11,14.18,2.21,17.47,6.32,3.29,16.74,3.82,21.39-5.49.26-.52.38-1,.51-1.46.18-.64.84-1.01,1.48-.84l1.16.31,1.37-4.12-16.36-3.1-.93,4.02Z"/>
      <path class="stPrivateSnorkeling17" d="M192.56,123.51l-.73,1.98-11.71,28.43,9.95-.63,4.67-14.03,2.79,13.43,10.19-.67-3.6-13.36s3.73-.5,7.88-3.83c2.61-2.1,4.41-5.1,4.69-8.44.07-.82.05-1.65-.12-2.38-.61-2.56-.45-7.99-15.45-5.96l-10.79,1.95-.74,3.39,2.96.11ZM200.68,125.84c6.85-.28,5.15,4.01,3.45,5.47-1.7,1.46-6.04,2.31-6.04,2.31l2.59-7.79Z"/>
      <polygon class="stPrivateSnorkeling17" points="222.39 123.39 211.61 151.81 219.83 151.44 224.4 137.7 227.74 151.18 237.15 151 232.4 133.7 252.07 118.76 239.09 118.09 227.98 130.74 233.38 117.88 221.15 117.58 220.09 123.35 222.39 123.39"/>
      <polygon class="stPrivateSnorkeling17" points="260.74 151.13 263.02 144.34 252.07 144.04 254.14 138.14 263.14 139.11 264.78 132.96 258.06 132.14 259.88 126.67 269.37 128.01 272.7 120.36 253.58 118.86 251.68 124.56 253.98 124.71 242.89 150.95 260.74 151.13"/>
      <polygon class="stPrivateSnorkeling17" points="288.15 121.98 277.66 120.84 265.05 151.24 283.56 152.05 285.65 145.8 276.35 145.54 288.15 121.98"/>
      <polygon class="stPrivateSnorkeling17" points="308.68 124.69 299.83 123.44 287.14 152.26 295.14 152.82 308.68 124.69"/>
      <polygon class="stPrivateSnorkeling17" points="323.43 155.54 337.36 129.57 327.1 127.68 321.31 142.18 321.78 126.76 311.68 125.14 311.21 130.81 300.68 153.25 308.46 153.95 314.08 140.13 315.73 154.68 323.43 155.54"/>
      <polygon class="stPrivateSnorkeling7" points="142.57 156.53 159.84 117.68 149.78 118.65 141.27 139.34 139.83 119.39 128.95 121.58 131.06 125.8 112.56 163.03 122.62 161.24 132.43 139.1 134.16 158.08 142.57 156.53"/>
      <path class="stPrivateSnorkeling6" d="M159.73,151.96c6.39,3.82,16.62-.74,22.85-10.18,3.19-4.84,4.7-10.01,4.57-14.43l4.44-2.56s-3.2-6.49-11.25-7.89h0c-6.38-2.02-15.27,2.52-20.9,11.05-6.22,9.44-6.09,20.19.3,24.01ZM178.79,137.23c-.24,1.02-.67,1.98-1.29,2.82-3.95,5.29-9.71,7.76-13.18,5.58-3.77-2.36-3.66-9.34.25-15.59,3.91-6.24,10.14-9.39,13.92-7.02,1.38.87,2.24,2.36,2.58,4.2l-2.27.3.36,3.07c.26,2.22.14,4.46-.36,6.64h0Z"/>
      <path class="stPrivateSnorkeling4" d="M349.8,143.19l3.05.7c.99.23,1.48,1.18,1.1,2.12h0c-.43,1.08-.91,1.67-1.92,2.06-1.74.67-8.86.23-7.78-4.63,1.08-4.86,6.76-11.78,16.74-5.83l5.06-3.76s-.62-2.14-8.3-3.8h0c-6.16-1.98-14.16.61-18.77,6.36-5.1,6.36-4.11,14.18,2.21,17.47,6.32,3.29,16.74,3.82,21.39-5.49.26-.52.38-1,.51-1.46.18-.64.84-1.01,1.48-.84l1.16.31,1.37-4.12-16.36-3.1-.93,4.02Z"/>
      <path class="stPrivateSnorkeling9" d="M196.34,120.68l-.73,1.98-11.71,28.43,9.95-.63,4.67-14.03,2.79,13.43,10.19-.67-3.6-13.36s3.73-.5,7.88-3.83c2.61-2.1,4.41-5.1,4.69-8.44.07-.82.05-1.65-.12-2.38-.61-2.56-.45-7.99-15.45-5.96l-10.79,1.95-.74,3.39,2.96.11ZM204.46,123.01c6.85-.28,5.15,4.01,3.45,5.47-1.7,1.46-6.04,2.31-6.04,2.31l2.59-7.79Z"/>
      <polygon class="stPrivateSnorkeling5" points="226.17 120.56 215.39 148.98 223.6 148.61 228.18 134.87 231.52 148.35 240.92 148.17 236.18 130.87 255.85 115.94 242.87 115.26 231.76 127.91 237.16 115.05 224.93 114.75 223.87 120.52 226.17 120.56"/>
      <polygon class="stPrivateSnorkeling10" points="264.52 148.3 266.8 141.51 255.85 141.21 257.92 135.31 266.92 136.28 268.56 130.14 261.84 129.32 263.66 123.84 273.15 125.18 276.48 117.53 257.36 116.03 255.46 121.73 257.75 121.88 246.67 148.12 264.52 148.3"/>
      <polygon class="stPrivateSnorkeling8" points="291.93 119.15 281.43 118.01 268.83 148.41 287.34 149.22 289.43 142.97 280.12 142.71 291.93 119.15"/>
      <polygon class="stPrivateSnorkeling12" points="312.46 121.86 303.61 120.62 290.91 149.44 298.92 149.99 312.46 121.86"/>
      <polygon class="stPrivateSnorkeling11" points="327.21 152.71 341.14 126.74 330.88 124.85 325.09 139.35 325.56 123.93 315.46 122.31 314.99 127.98 304.45 150.42 312.24 151.12 317.86 137.3 319.51 151.85 327.21 152.71"/>
      <path class="stPrivateSnorkeling1" d="M98.12,190.58c-.32-3.84-1.87-8.24-3.64-11.65-.26-.5-.35-1.04-.99-1.26-3.35-7.49-8.45-14.42-10.91-22.3-5.3-16.96,10.27-21.33,23.73-20.08,2.05.19,4.2.94,6.18.81.92-.56,5.2-10.17,5.77-11.82.19-.32.36-.71.48-1.07l1.47-3.26c-11.63-1.21-23.59.64-34.38,5.02-5.97,2.42-11.18,5.36-15.15,10.67-.06.09-.05.23-.12.32-6.05,5.87-8.01,13.66-6.6,21.78.38,2.2.76,3.53,1.54,5.63.95,2.57,2.15,4.98,3.41,7.4,2.57,4.95,6.38,10.01,8.61,14.91.51,1.11,1.85,6.65,2.18,6.78.91,10.45-5.86,18.66-15.56,21.52-1.99.59-11.53,2.03-12.88,2.14-1.43.01-3.97.03-4.16.13-.2.11-.87,2.26-1.08,2.81-.88,2.26-1.72,4.56-2.53,6.84-.19.54-.73,1.34-.32,1.86-.46,1.27-.95,2.54-1.41,3.82,2.27.11,4.6.13,6.86,0,22.07-1.21,51.66-14.59,49.48-41.01Z"/>
      <polygon class="stPrivateSnorkeling1" points="142.57 156.53 159.84 117.68 149.78 118.65 141.27 139.34 139.83 119.39 128.95 121.58 131.06 125.8 112.56 163.03 122.62 161.24 132.43 139.1 134.16 158.08 142.57 156.53"/>
      <path class="stPrivateSnorkeling1" d="M159.73,151.96c6.39,3.82,16.62-.74,22.85-10.18,3.19-4.84,4.7-10.01,4.57-14.43l4.44-2.56s-3.2-6.49-11.25-7.89h0c-6.38-2.02-15.27,2.52-20.9,11.05-6.22,9.44-6.09,20.19.3,24.01ZM178.79,137.23c-.24,1.02-.67,1.98-1.29,2.82-3.95,5.29-9.71,7.76-13.18,5.58-3.77-2.36-3.66-9.34.25-15.59,3.91-6.24,10.14-9.39,13.92-7.02,1.38.87,2.24,2.36,2.58,4.2l-2.27.3.36,3.07c.26,2.22.14,4.46-.36,6.64h0Z"/>
      <path class="stPrivateSnorkeling1" d="M349.8,143.19l3.05.7c.99.23,1.48,1.18,1.1,2.12h0c-.43,1.08-.91,1.67-1.92,2.06-1.74.67-8.86.23-7.78-4.63,1.08-4.86,6.76-11.78,16.74-5.83l5.06-3.76s-.62-2.14-8.3-3.8h0c-6.16-1.98-14.16.61-18.77,6.36-5.1,6.36-4.11,14.18,2.21,17.47,6.32,3.29,16.74,3.82,21.39-5.49.26-.52.38-1,.51-1.46.18-.64.84-1.01,1.48-.84l1.16.31,1.37-4.12-16.36-3.1-.93,4.02Z"/>
      <path class="stPrivateSnorkeling1" d="M196.34,120.68l-.73,1.98-11.71,28.43,9.95-.63,4.67-14.03,2.79,13.43,10.19-.67-3.6-13.36s3.73-.5,7.88-3.83c2.61-2.1,4.41-5.1,4.69-8.44.07-.82.05-1.65-.12-2.38-.61-2.56-.45-7.99-15.45-5.96l-10.79,1.95-.74,3.39,2.96.11ZM204.46,123.01c6.85-.28,5.15,4.01,3.45,5.47-1.7,1.46-6.04,2.31-6.04,2.31l2.59-7.79Z"/>
      <polygon class="stPrivateSnorkeling1" points="226.17 120.56 215.39 148.98 223.6 148.61 228.18 134.87 231.52 148.35 240.92 148.17 236.18 130.87 255.85 115.94 242.87 115.26 231.76 127.91 237.16 115.05 224.93 114.75 223.87 120.52 226.17 120.56"/>
      <polygon class="stPrivateSnorkeling1" points="264.52 148.3 266.8 141.51 255.85 141.21 257.92 135.31 266.92 136.28 268.56 130.14 261.84 129.32 263.66 123.84 273.15 125.18 276.48 117.53 257.36 116.03 255.46 121.73 257.75 121.88 246.67 148.12 264.52 148.3"/>
      <polygon class="stPrivateSnorkeling1" points="291.93 119.15 281.43 118.01 268.83 148.41 287.34 149.22 289.43 142.97 280.12 142.71 291.93 119.15"/>
      <polygon class="stPrivateSnorkeling1" points="312.46 121.86 303.61 120.62 290.91 149.44 298.92 149.99 312.46 121.86"/>
      <polygon class="stPrivateSnorkeling1" points="327.21 152.71 341.14 126.74 330.88 124.85 325.09 139.35 325.56 123.93 315.46 122.31 314.99 127.98 304.45 150.42 312.24 151.12 317.86 137.3 319.51 151.85 327.21 152.71"/>
    </g>
    <g>
      <g>
        <path class="stPrivateSnorkeling16" d="M359.76,253.35c.35-.95.19-2.03-.76-2.65-.26-.22-.57-.38-.94-.45-5.45-2.39-10.9-4.78-16.35-7.17-1.67-5.88-3.33-11.77-5-17.65-.26-.94-.98-1.47-1.78-1.64-.81-.24-1.72-.09-2.39.66-4.07,4.57-8.14,9.14-12.21,13.71-5.92-.23-11.85-.45-17.77-.68-.55-.16-1.1-.08-1.57.17-.94.35-1.43,1.28-1.44,2.23-.03.46.06.93.33,1.36,0,0,0,0,0,0,0,0,0-.01,0-.02.01.02.02.04.04.06-.01-.01-.03-.03-.04-.04,3.07,5.25,6.13,10.49,9.2,15.74-2.14,5.81-4.27,11.62-6.41,17.42-.71,1.93,1.54,3.28,3.14,2.93,5.89-1.28,11.77-2.57,17.66-3.85,4.73,3.72,9.46,7.44,14.19,11.16,1.28,1.01,3.91.83,4.12-1.24.62-6.16,1.23-12.33,1.85-18.49,5.04-3.38,10.09-6.76,15.13-10.14.53-.36.85-.88,1-1.44Z"/>
        <g>
          <path id="Path_73" class="stPrivateSnorkeling2" d="M327.75,255.16h0l28.18-2.5-16.83-7.39-11.35,9.88h0Z"/>
          <path id="Path_75" class="stPrivateSnorkeling19" d="M340.65,262.9l15.27-10.23-28.18,2.5,12.91,7.74Z"/>
          <path id="Path_77" class="stPrivateSnorkeling2" d="M312.72,256.35l-6.39,17.37,21.48-18.71-15.09,1.34Z"/>
          <path id="Path_78" class="stPrivateSnorkeling13" d="M327.81,255.02l-21.48,18.71,18.09-3.94,3.39-14.77h0Z"/>
          <path id="Path_79" class="stPrivateSnorkeling13" d="M339.09,245.28l-5.01-17.69-6.34,27.58,11.35-9.88Z"/>
          <path id="Path_80" class="stPrivateSnorkeling13" d="M327.81,255.02h0l11.16,26.21,1.84-18.42-13-7.79Z"/>
          <path id="Path_81" class="stPrivateSnorkeling19" d="M327.81,255.02l-3.39,14.77,14.55,11.44-11.16-26.21h0Z"/>
          <path id="Path_82" class="stPrivateSnorkeling2" d="M327.75,255.16h0l6.34-27.58-12.23,13.73,5.9,13.85h0Z"/>
          <path id="Path_83" class="stPrivateSnorkeling19" d="M321.88,241.07l-18.5-.71,24.43,14.65-5.94-13.94Z"/>
          <path id="Path_84" class="stPrivateSnorkeling13" d="M327.82,255.01h0l-12.22-7.32-12.22-7.32,4.67,7.99,4.67,7.99,7.54-.67,7.54-.67h0Z"/>
        </g>
      </g>
      <g>
        <path class="stPrivateSnorkeling16" d="M299.42,238.5c.23-.98-.06-2.04-1.08-2.53-.28-.19-.61-.3-.99-.33-5.7-1.7-11.4-3.41-17.11-5.11-2.38-5.63-4.76-11.27-7.13-16.9-.38-.9-1.15-1.34-1.96-1.41-.83-.14-1.72.12-2.29.95-3.48,5.04-6.96,10.07-10.43,15.11-5.91.51-11.81,1.01-17.72,1.52-.57-.1-1.1.05-1.54.36-.89.47-1.26,1.45-1.15,2.39.03.46.17.92.49,1.31,0,0,0,0,0,0,0,0,0-.01,0-.02.01.02.03.04.04.06-.02-.01-.03-.02-.05-.04,3.69,4.83,7.38,9.66,11.07,14.49-1.4,6.03-2.81,12.05-4.21,18.08-.47,2.01,1.93,3.07,3.48,2.52,5.68-2,11.37-4,17.05-5.99,5.15,3.11,10.3,6.22,15.45,9.33,1.39.84,3.98.34,3.93-1.73-.15-6.19-.29-12.39-.44-18.58,4.59-3.97,9.18-7.95,13.77-11.92.48-.42.74-.97.81-1.55Z"/>
        <g>
          <path id="Path_731" data-name="Path_73" class="stPrivateSnorkeling2" d="M267.88,244.24h0l27.66-5.95-17.62-5.26-10.04,11.21h0Z"/>
          <path id="Path_751" data-name="Path_75" class="stPrivateSnorkeling19" d="M281.64,250.33l13.9-12.03-27.66,5.95,13.76,6.09Z"/>
          <path id="Path_771" data-name="Path_77" class="stPrivateSnorkeling2" d="M253.12,247.27l-4.2,18.03,19.01-21.21-14.81,3.18Z"/>
          <path id="Path_781" data-name="Path_78" class="stPrivateSnorkeling13" d="M267.93,244.09l-19.01,21.21,17.47-6.14,1.55-15.07h0Z"/>
          <path id="Path_791" data-name="Path_79" class="stPrivateSnorkeling13" d="M277.92,233.03l-7.15-16.94-2.89,28.15,10.04-11.21Z"/>
          <path id="Path_801" data-name="Path_80" class="stPrivateSnorkeling13" d="M267.93,244.09h0l14.3,24.64-.44-18.51-13.86-6.13Z"/>
          <path id="Path_811" data-name="Path_81" class="stPrivateSnorkeling19" d="M267.93,244.09l-1.55,15.07,15.85,9.57-14.3-24.64h0Z"/>
          <path id="Path_821" data-name="Path_82" class="stPrivateSnorkeling2" d="M267.88,244.24h0l2.89-28.15-10.45,15.13,7.56,13.02h0Z"/>
          <path id="Path_831" data-name="Path_83" class="stPrivateSnorkeling19" d="M260.32,230.98l-18.44,1.58,26.05,11.53-7.61-13.11Z"/>
          <path id="Path_841" data-name="Path_84" class="stPrivateSnorkeling13" d="M267.93,244.09h0l-13.03-5.76-13.03-5.76,5.62,7.36,5.62,7.36,7.4-1.59,7.4-1.59h0Z"/>
        </g>
      </g>
      <g>
        <path class="stPrivateSnorkeling16" d="M239.8,232.63c.15-1-.23-2.02-1.29-2.43-.3-.16-.64-.25-1.01-.25-5.82-1.22-11.65-2.44-17.47-3.65-2.84-5.41-5.68-10.83-8.53-16.24-.45-.86-1.26-1.24-2.07-1.24-.84-.07-1.7.26-2.2,1.14-3.04,5.31-6.09,10.62-9.13,15.93-5.84,1-11.69,2-17.53,3-.58-.05-1.09.15-1.5.49-.85.54-1.13,1.55-.95,2.48.06.46.25.9.6,1.27,0,0,0,0,0,0,0,0,0-.02,0-.02.02.02.03.04.05.06-.02-.01-.03-.02-.05-.03,4.08,4.5,8.16,9.01,12.24,13.51-.89,6.12-1.79,12.25-2.68,18.37-.3,2.04,2.18,2.89,3.68,2.22,5.5-2.47,10.99-4.94,16.49-7.4,5.39,2.67,10.79,5.33,16.18,8,1.46.72,4,0,3.78-2.06-.67-6.16-1.33-12.32-2-18.48,4.24-4.34,8.48-8.69,12.72-13.03.45-.46.66-1.03.68-1.61Z"/>
        <g>
          <path id="Path_732" data-name="Path_73" class="stPrivateSnorkeling2" d="M208.85,240.99h0l27.06-8.25-18-3.76-9.07,12.01h0Z"/>
          <path id="Path_752" data-name="Path_75" class="stPrivateSnorkeling19" d="M223.08,245.91l12.84-13.16-27.06,8.25,14.23,4.91Z"/>
          <path id="Path_772" data-name="Path_77" class="stPrivateSnorkeling2" d="M194.4,245.25l-2.67,18.32,17.16-22.73-14.49,4.41Z"/>
          <path id="Path_782" data-name="Path_78" class="stPrivateSnorkeling13" d="M208.89,240.84l-17.16,22.73,16.89-7.58.28-15.15h0Z"/>
          <path id="Path_792" data-name="Path_79" class="stPrivateSnorkeling13" d="M217.92,228.98l-8.55-16.28-.52,28.29,9.07-12.01Z"/>
          <path id="Path_802" data-name="Path_80" class="stPrivateSnorkeling13" d="M208.89,240.84h0l16.32,23.35-1.99-18.4-14.32-4.94Z"/>
          <path id="Path_812" data-name="Path_81" class="stPrivateSnorkeling19" d="M208.89,240.84l-.28,15.15,16.59,8.2-16.31-23.35h0Z"/>
          <path id="Path_822" data-name="Path_82" class="stPrivateSnorkeling2" d="M208.85,240.99h0l.52-28.29-9.14,15.95,8.62,12.34h0Z"/>
          <path id="Path_832" data-name="Path_83" class="stPrivateSnorkeling19" d="M200.21,228.42l-18.25,3.12,26.93,9.3-8.68-12.42Z"/>
          <path id="Path_842" data-name="Path_84" class="stPrivateSnorkeling13" d="M208.89,240.84h0l-13.46-4.65-13.46-4.65,6.22,6.86,6.22,6.86,7.25-2.21,7.25-2.21h0Z"/>
        </g>
      </g>
      <g>
        <path class="stPrivateSnorkeling16" d="M181.91,231.53c.02-1.01-.49-1.98-1.59-2.25-.32-.12-.66-.17-1.03-.12-5.93-.45-11.87-.91-17.8-1.36-3.52-5-7.04-10-10.56-15-.56-.8-1.41-1.06-2.22-.96-.84.04-1.65.48-2.04,1.42-2.33,5.66-4.66,11.32-6.99,16.98-5.66,1.75-11.33,3.49-16.99,5.24-.58.03-1.06.29-1.43.68-.77.65-.92,1.68-.62,2.58.12.45.36.86.76,1.18,0,0,0,0,0,0,0,0,0-.02,0-.02.02.02.04.03.06.05-.02,0-.04-.02-.06-.02,4.63,3.94,9.26,7.87,13.89,11.81-.09,6.19-.19,12.37-.28,18.56-.03,2.06,2.54,2.59,3.94,1.73,5.13-3.16,10.26-6.32,15.39-9.48,5.69,1.95,11.39,3.89,17.08,5.84,1.54.53,3.96-.51,3.48-2.53-1.46-6.02-2.92-12.04-4.37-18.06,3.64-4.86,7.28-9.71,10.92-14.57.38-.51.52-1.11.47-1.69Z"/>
        <g>
          <path id="Path_733" data-name="Path_73" class="stPrivateSnorkeling2" d="M152.3,243.83h0l25.77-11.68-18.33-1.4-7.44,13.08h0Z"/>
          <path id="Path_753" data-name="Path_75" class="stPrivateSnorkeling19" d="M167.04,246.86l11.03-14.71-25.77,11.68,14.74,3.03Z"/>
          <path id="Path_773" data-name="Path_77" class="stPrivateSnorkeling2" d="M138.52,249.93l-.28,18.51,14.08-24.76-13.8,6.25Z"/>
          <path id="Path_783" data-name="Path_78" class="stPrivateSnorkeling13" d="M152.31,243.68l-14.08,24.76,15.77-9.71-1.68-15.06h0Z"/>
          <path id="Path_793" data-name="Path_79" class="stPrivateSnorkeling13" d="M159.73,230.75l-10.58-15.04,3.15,28.12,7.44-13.08Z"/>
          <path id="Path_803" data-name="Path_80" class="stPrivateSnorkeling13" d="M152.32,243.67h0l19.2,21.04-4.36-17.99-14.84-3.05Z"/>
          <path id="Path_813" data-name="Path_81" class="stPrivateSnorkeling19" d="M152.32,243.67l1.68,15.06,17.52,5.98-19.2-21.04h0Z"/>
          <path id="Path_823" data-name="Path_82" class="stPrivateSnorkeling2" d="M152.3,243.83h0l-3.15-28.12-7,17,10.15,11.12h0Z"/>
          <path id="Path_833" data-name="Path_83" class="stPrivateSnorkeling19" d="M142.1,232.48l-17.69,5.46,27.91,5.74-10.22-11.19Z"/>
          <path id="Path_843" data-name="Path_84" class="stPrivateSnorkeling13" d="M152.32,243.67h0l-13.95-2.87-13.95-2.87,7.05,6,7.05,6,6.9-3.13,6.9-3.13h0Z"/>
        </g>
      </g>
      <g>
        <path class="stPrivateSnorkeling16" d="M123.43,238.71c-.11-1-.74-1.9-1.86-2.03-.33-.08-.68-.08-1.04.02-5.94.31-11.89.61-17.83.92-4.13-4.51-8.26-9.02-12.38-13.53-.66-.72-1.53-.88-2.32-.67-.83.15-1.58.69-1.84,1.67-1.59,5.91-3.18,11.82-4.77,17.73-5.4,2.46-10.79,4.91-16.19,7.37-.57.1-1.02.42-1.33.86-.69.74-.7,1.79-.29,2.64.18.43.47.81.9,1.07,0,0,0,0,0,0,0,0,0-.02,0-.02.02.01.04.03.06.04-.02,0-.04-.01-.06-.02,5.09,3.31,10.19,6.63,15.28,9.94.7,6.15,1.39,12.3,2.09,18.45.23,2.05,2.85,2.24,4.13,1.21,4.69-3.79,9.37-7.57,14.06-11.36,5.9,1.2,11.79,2.41,17.69,3.61,1.6.33,3.87-1.02,3.13-2.95-2.21-5.79-4.43-11.57-6.64-17.36,2.99-5.28,5.98-10.56,8.97-15.85.32-.56.37-1.17.25-1.73Z"/>
        <g>
          <path id="Path_734" data-name="Path_73" class="stPrivateSnorkeling2" d="M95.63,254.69h0l24.07-14.87-18.36.95-5.71,13.92h0Z"/>
          <path id="Path_754" data-name="Path_75" class="stPrivateSnorkeling19" d="M110.64,255.81l9.06-16-24.07,14.87,15.01,1.12Z"/>
          <path id="Path_774" data-name="Path_77" class="stPrivateSnorkeling2" d="M82.73,262.49l2.08,18.39,10.8-26.35-12.89,7.96Z"/>
          <path id="Path_784" data-name="Path_78" class="stPrivateSnorkeling13" d="M95.62,254.53l-10.8,26.36,14.4-11.64-3.59-14.72h0Z"/>
          <path id="Path_794" data-name="Path_79" class="stPrivateSnorkeling13" d="M101.33,240.76l-12.41-13.57,6.71,27.49,5.71-13.92Z"/>
          <path id="Path_804" data-name="Path_80" class="stPrivateSnorkeling13" d="M95.63,254.53h0l21.73,18.42-6.62-17.29-15.11-1.13Z"/>
          <path id="Path_814" data-name="Path_81" class="stPrivateSnorkeling19" d="M95.63,254.53l3.59,14.72,18.14,3.7-21.73-18.42h0Z"/>
          <path id="Path_824" data-name="Path_82" class="stPrivateSnorkeling2" d="M95.63,254.69h0l-6.71-27.49-4.77,17.76,11.48,9.73h0Z"/>
          <path id="Path_834" data-name="Path_83" class="stPrivateSnorkeling19" d="M84.07,244.73l-16.85,7.67,28.41,2.13-11.56-9.8Z"/>
          <path id="Path_844" data-name="Path_84" class="stPrivateSnorkeling13" d="M95.62,254.53h0l-14.2-1.07-14.2-1.07,7.76,5.05,7.76,5.05,6.44-3.98,6.44-3.98h0Z"/>
        </g>
      </g>
    </g>
  </g>
</svg>