<?xml version="1.0" encoding="UTF-8"?>
<svg id="Capa_2" xmlns="http://www.w3.org/2000/svg" xmlns:xlink="http://www.w3.org/1999/xlink" version="1.1" viewBox="0 0 400 400">
  <!-- Generator: Adobe Illustrator 30.1.0, SVG Export Plug-In . SVG Version: 2.1.1 Build 136)  -->
  <defs>
    <style>
      .stPrivateSnorkeling0, .stPrivateSnorkeling1 {
        fill: none;
      }

      .stPrivateSnorkeling2 {
        fill: #f0de39;
      }

      .stPrivateSnorkeling3 {
        fill: #030406;
      }

      .stPrivateSnorkeling4 {
        fill: #e09e50;
      }

      .stPrivateSnorkeling5 {
        fill: #fff;
      }

      .stPrivateSnorkeling6 {
        fill: url(#Degradado_Private_Snorkeling);
      }

      .stPrivateSnorkeling7 {
        fill: url(#Degradado_Private_Snorkeling_7);
      }

      .stPrivateSnorkeling8 {
        fill: url(#Degradado_Private_Snorkeling_6);
      }

      .stPrivateSnorkeling9 {
        fill: url(#Degradado_Private_Snorkeling_5);
      }

      .stPrivateSnorkeling10 {
        fill: url(#Degradado_Private_Snorkeling_8);
      }

      .stPrivateSnorkeling11 {
        fill: url(#Degradado_Private_Snorkeling_4);
      }

      .stPrivateSnorkeling12 {
        fill: url(#Degradado_Private_Snorkeling_9);
      }

      .stPrivateSnorkeling13 {
        fill: url(#Degradado_Private_Snorkeling_3);
      }

      .stPrivateSnorkeling14 {
        fill: url(#Degradado_Private_Snorkeling_2);
      }

      .stPrivateSnorkeling15, .stPrivateSnorkeling16, .stPrivateSnorkeling17 {
        fill: #020407;
      }

      .stPrivateSnorkeling18 {
        fill: url(#Degradado_Private_Snorkeling_10);
      }

      .stPrivateSnorkeling16 {
        stroke-width: 1.69px;
      }

      .stPrivateSnorkeling16, .stPrivateSnorkeling17, .stPrivateSnorkeling1 {
        stroke: #020407;
        stroke-miterlimit: 10;
      }

      .stPrivateSnorkeling17 {
        stroke-width: 1.01px;
      }

      .stPrivateSnorkeling1 {
        stroke-width: .34px;
      }

      .stPrivateSnorkeling19 {
        fill: #ecc548;
      }
    </style>
    <linearGradient id="Degradado_Private_Snorkeling" data-name="Degradado sin nombre" x1="162.99" y1="655.24" x2="218.57" y2="655.24" gradientTransform="translate(-338.55 721.91) rotate(20.26) scale(1 -1)" gradientUnits="userSpaceOnUse">
      <stop offset="0" stop-color="#dbdbdb"/>
      <stop offset=".41" stop-color="#fff"/>
      <stop offset="1" stop-color="#636363"/>
    </linearGradient>
    <linearGradient id="Degradado_Private_Snorkeling_2" data-name="Degradado sin nombre 2" x1="219.8" y1="713.45" x2="251.66" y2="713.45" gradientTransform="translate(-338.55 721.91) rotate(20.26) scale(1 -1)" gradientUnits="userSpaceOnUse">
      <stop offset="0" stop-color="#dbdbdb"/>
      <stop offset=".41" stop-color="#fff"/>
      <stop offset="1" stop-color="#636363"/>
    </linearGradient>
    <linearGradient id="Degradado_Private_Snorkeling_3" data-name="Degradado sin nombre 3" x1="187.77" y1="250.89" x2="228.33" y2="250.89" gradientTransform="translate(-41.04 375.87) rotate(.87) scale(1 -1)" gradientUnits="userSpaceOnUse">
      <stop offset="0" stop-color="#dbdbdb"/>
      <stop offset=".41" stop-color="#fff"/>
      <stop offset="1" stop-color="#636363"/>
    </linearGradient>
    <linearGradient id="Degradado_Private_Snorkeling_4" data-name="Degradado sin nombre 4" x1="444.86" y1="794.02" x2="477.54" y2="794.02" gradientTransform="translate(-338.55 721.91) rotate(20.26) scale(1 -1)" gradientUnits="userSpaceOnUse">
      <stop offset="0" stop-color="#dbdbdb"/>
      <stop offset=".41" stop-color="#fff"/>
      <stop offset="1" stop-color="#636363"/>
    </linearGradient>
    <linearGradient id="Degradado_Private_Snorkeling_5" data-name="Degradado sin nombre 5" x1="220.23" y1="253.49" x2="260.46" y2="253.49" gradientTransform="translate(-41.04 375.87) rotate(.87) scale(1 -1)" gradientUnits="userSpaceOnUse">
      <stop offset="0" stop-color="#dbdbdb"/>
      <stop offset=".41" stop-color="#fff"/>
      <stop offset="1" stop-color="#636363"/>
    </linearGradient>
    <linearGradient id="Degradado_Private_Snorkeling_6" data-name="Degradado sin nombre 6" x1="318.45" y1="759.97" x2="351.17" y2="759.97" gradientTransform="translate(-338.55 721.91) rotate(20.26) scale(1 -1)" gradientUnits="userSpaceOnUse">
      <stop offset="0" stop-color="#dbdbdb"/>
      <stop offset=".41" stop-color="#fff"/>
      <stop offset="1" stop-color="#636363"/>
    </linearGradient>
    <linearGradient id="Degradado_Private_Snorkeling_7" data-name="Degradado sin nombre 7" x1="352.78" y1="769.59" x2="373.3" y2="769.59" gradientTransform="translate(-338.55 721.91) rotate(20.26) scale(1 -1)" gradientUnits="userSpaceOnUse">
      <stop offset="0" stop-color="#dbdbdb"/>
      <stop offset=".41" stop-color="#fff"/>
      <stop offset="1" stop-color="#636363"/>
    </linearGradient>
    <linearGradient id="Degradado_Private_Snorkeling_8" data-name="Degradado sin nombre 8" x1="377.21" y1="775.84" x2="396.84" y2="775.84" gradientTransform="translate(-338.55 721.91) rotate(20.26) scale(1 -1)" gradientUnits="userSpaceOnUse">
      <stop offset="0" stop-color="#dbdbdb"/>
      <stop offset=".41" stop-color="#fff"/>
      <stop offset="1" stop-color="#636363"/>
    </linearGradient>
    <linearGradient id="Degradado_Private_Snorkeling_9" data-name="Degradado sin nombre 9" x1="400.65" y1="782.09" x2="412.51" y2="782.09" gradientTransform="translate(-338.55 721.91) rotate(20.26) scale(1 -1)" gradientUnits="userSpaceOnUse">
      <stop offset="0" stop-color="#dbdbdb"/>
      <stop offset=".41" stop-color="#fff"/>
      <stop offset="1" stop-color="#636363"/>
    </linearGradient>
    <linearGradient id="Degradado_Private_Snorkeling_10" data-name="Degradado sin nombre 10" x1="415.15" y1="787.16" x2="444.31" y2="787.16" gradientTransform="translate(-338.55 721.91) rotate(20.26) scale(1 -1)" gradientUnits="userSpaceOnUse">
      <stop offset="0" stop-color="#dbdbdb"/>
      <stop offset=".41" stop-color="#fff"/>
      <stop offset="1" stop-color="#636363"/>
    </linearGradient>
  </defs>
  <g>
    <g>
      <path class="stPrivateSnorkeling5" d="M127.82,198.71c6.28-1.25,10.49-3.16,12.88-5.86,2.39-2.7,3.24-5.87,2.54-9.42-.71-3.55-2.6-6.09-5.62-7.56-2.98-1.45-7.74-1.54-14.18-.26l-12.49,2.67c-1.54.3-2.84.53-3.99.7l-.82.13c-1.99.4-2.24,1.31-2.11,2,.1.49.35.75.55.88.33.22.77.28,1.3.17,1.44-.28,2.5-.14,3.15.41.7.59,1.18,1.49,1.41,2.67l1.95,9.66c.6,3.02,1.26,6.45,2.01,10.3l.35,1.79c1.08,5.6,1.3,7.67,1.3,8.41,0,.97-.16,1.68-.48,2.1-.32.42-.99.82-1.99,1.17-.56.2-2.06.73-1.85,1.84.08.41.27.71.56.91.21.14.47.22.77.22.14,0,.28-.02.44-.05.76-.14,1.95-.44,3.63-.91,2.02-.56,3.54-.93,4.66-1.15.99-.2,2.74-.48,5.51-.87,1.83-.25,3.17-.45,3.78-.56,1.5-.31,2.19-.9,2.02-1.77-.15-.69-.55-.96-.87-1.06-.26-.08-.7-.14-2.07.1-1.29.22-2.27.08-3.01-.44-.5-.34-1.21-1.36-1.78-4.25l-2.18-11.15c1.74-.27,3.3-.55,4.64-.81h0Z"/>
      <path class="stPrivateSnorkeling5" d="M128.49,201.12c7.24-1.47,15.94-4.76,17.28-13.1.67-4.17-.51-8.72-3.46-11.81-2.54-2.66-6.02-3.75-9.61-3.95-5.45-.31-10.87,1.15-16.17,2.28-1.97.42-3.94.85-5.91,1.26-1.2.25-2.41.47-3.62.66-1.55.24-3.16.45-4.34,1.61-1.3,1.28-1.51,3.32-.55,4.86.64,1.05,1.83,1.7,3.05,1.76.71.03,1.95-.46,2.51-.1-.34-.22.2.66.27.92s.12.53.17.8c.19.92.37,1.84.55,2.75,1.13,5.61,2.24,11.22,3.33,16.83.27,1.38.54,2.75.79,4.13.15.83.3,1.67.43,2.51.06.34.11.68.16,1.02.02.11.03.22.05.33.05.35-.05-.46,0,.01.04.34.09.69.11,1.03.02.27-.11.86-.02,1.05.06.12-.07.21.07-.01.1-.16.2-.06-.03-.02s-.57.27-.8.37c-.85.34-1.69.66-2.36,1.32-1.62,1.6-1.54,4.39.38,5.74s4.15.49,6.15-.05c3.51-.95,6.96-1.68,10.56-2.19,1.74-.25,3.66-.31,5.31-.95,2.15-.83,3.46-2.94,2.48-5.19-.78-1.78-2.49-2.45-4.32-2.25-.74.08-1.64.1-2.29.17.05,0-.24-.15-.24-.15.07,0,.51.38.24.16.46.38.01,0-.15-.33-.12-.23-.03-.04,0,0-.08-.19-.15-.39-.21-.59-.16-.5-.29-1.02-.41-1.53-.06-.26-.11-.52-.16-.78-.16-.82-.32-1.64-.48-2.46l-1.35-6.93-.28-1.44-1.75,3.08c1.03-.16,2.06-.33,3.09-.52.93-.17,1.95-.23,2.65-.93,2.28-2.28-1.26-5.81-3.54-3.54h0c.37-.21.74-.43,1.1-.64-1.54.3-3.09.56-4.64.81-1.4.22-1.98,1.87-1.75,3.08.72,3.7,1.42,7.4,2.16,11.09s2.25,6.83,6.4,6.67c0,0,2.53-.35,2.54-.26,0,.03-.52-.1-.57-.12-.76-.36-.74-.92-.5-1.52.36-.86.38-.55-.42-.38-1.96.42-3.99.58-5.96.88-1.73.26-3.44.54-5.14.96-1.24.3-2.48.65-3.71.98-.92.25-2.02.7-2.95.58l1.26.34c.52.24.11,1.44.03,1.75-.06.23-.3-.11.13-.03-.27-.05-.13.05.1-.04.36-.15.72-.28,1.08-.44,1.14-.5,2.14-1.21,2.71-2.35.69-1.38.64-2.94.46-4.42-.5-4.09-1.37-8.14-2.16-12.18-.68-3.48-1.36-6.96-2.06-10.43-.49-2.46-.79-5.07-1.54-7.46-.85-2.72-3.06-4.49-5.96-4.29-.21.01-1.06.05-1.13.15-.03.04.75.41.87.75.07.21.07.48.01.7,0,.01-.35.62-.36.58-.03-.08,1.62-.34,1.89-.38,2.72-.42,5.4-1.02,8.09-1.59s5.22-1.13,7.83-1.67c3.89-.81,8.39-1.48,12.12-.18.5.18,1.7.84,2.4,1.5.77.72,1.38,1.59,1.8,2.57,1.05,2.46,1.08,5.35-.27,7.69-2.49,4.32-8.08,5.7-12.79,6.65-1.32.27-2.09,1.84-1.75,3.08.38,1.38,1.75,2.02,3.08,1.75Z"/>
    </g>
    <g>
      <path class="stPrivateSnorkeling5" d="M168.83,178.32c.27-.03,1.07.14,2.65,2.36,1,1.34,1.87,2.22,2.65,2.69.83.5,1.83.69,2.98.55,1.53-.19,2.76-.94,3.67-2.25.9-1.3,1.25-2.79,1.05-4.43-.25-2.07-1.19-3.74-2.79-4.94-1.6-1.21-3.61-1.67-5.96-1.38-2.46.3-4.62,1.35-6.42,3.13-1.44,1.42-2.67,3.32-3.67,5.66l-1.18-7.46-.54.12c-6.53,1.5-10.97,2.39-13.61,2.74-2.23.32-2.58,1.31-2.49,2.07.1.87.52,1.22.84,1.35.25.11.73.24,2.29.22.91-.04,1.66.13,2.25.5.56.36.94.79,1.13,1.3.13.35.45,1.56,1.19,5.76.56,3.2.99,5.98,1.27,8.24l1.17,11.02c.28,2.35.02,3.29-.26,3.67-.39.54-1.23.93-2.49,1.14-2.19.36-2.53,1.36-2.43,2.13.08.64.47,1.64,2.04,1.64.17,0,.35-.01.55-.04.2-.02.78-.13,2.13-.4,2.77-.55,5.65-1.01,8.55-1.36,1.37-.16,2.81-.27,4.29-.32,1.71-.04,3.02-.13,3.91-.24,1.19-.14,1.97-.46,2.37-.98.25-.31.35-.7.3-1.12-.11-.84-.74-1.77-3.15-1.47-1.65.2-2.75-.04-3.28-.71-.33-.43-1.08-2.68-2.34-12.98-.76-6.2-.61-10.5.46-12.76,1.27-2.72,2.27-3.38,2.88-3.45Z"/>
      <path class="stPrivateSnorkeling5" d="M168.83,180.82c.17-.01-.59-.13-.58-.14-.06,0-.33-.08-.07-.01.09.03.35.28-.05-.05.57.48,1,1.09,1.45,1.68,1.08,1.42,2.27,2.81,3.93,3.55,3.94,1.76,8.45-.39,10.11-4.22,1.55-3.59.56-8.15-2.4-10.74-3.13-2.74-7.58-3.18-11.42-1.74-4.3,1.62-7.18,5.19-8.99,9.29l4.57.6-1.18-7.46c-.22-1.37-1.88-2.02-3.08-1.75-2.76.63-5.52,1.25-8.3,1.82-2.08.42-4.2.67-6.27,1.11-2.97.63-4.91,3.5-3.37,6.38.54,1.01,1.51,1.67,2.61,1.92,1.17.27,2.49-.04,3.56.41-.1-.04-.1-.37-.02,0,.04.21.11.42.16.64.24,1.03.44,2.08.63,3.12.57,3.09,1.13,6.19,1.5,9.31.33,2.81.6,5.63.9,8.45.12,1.14.28,2.29.36,3.44.04.53.07,1.07,0,1.59.07-.55,0,.01-.06.11.01-.02.26-.54.29-.49-.1-.17.8.1-.13.06.09,0-.76.19-.7.18-.87.2-1.71.34-2.5.8-2.32,1.34-2.9,4.44-1.11,6.48,1.93,2.2,4.83,1.35,7.3.87,3.54-.68,7.12-1.27,10.73-1.46,2.76-.15,6.71.31,8.86-1.81,2.35-2.31,1.02-6.13-2.01-6.91-.37-.1-3.95-.28-3.98-.1,0-.04.57.75.36.42-.27-.43.11.45.1.26-.02-.37-.26-.84-.35-1.2-.18-.72-.32-1.44-.45-2.16-.52-2.82-.89-5.68-1.24-8.53-.37-3.06-.74-6.9-.33-9.62.08-.5.18-.99.32-1.48.06-.21.13-.42.21-.63-.24.61.41-.77.49-.92.31-.55.46-.78.79-1.15s-.34.03.05-.06c.47-.11-.63.14-.04.04,1.33-.23,2.08-1.87,1.75-3.08-.39-1.41-1.74-1.98-3.08-1.75-2.15.37-3.56,2.83-4.38,4.6-.94,2.04-1.21,4.28-1.26,6.51-.14,5.58.82,11.31,1.78,16.79.37,2.1.61,4.93,2.61,6.18,1.11.69,2.48.85,3.76.77.37-.02,1.41-.04,1.55-.09.39-.15.14.26-.14-.12-.37-.52-.35-.26-.16-.84.28-.86.09-.5-.59-.39-.52.08-1.05.09-1.57.12-1.66.1-3.32.12-4.98.26-3.56.31-7.1.91-10.6,1.59-.54.1-1.07.2-1.61.31-.27.05-.74.01.14,0,.06,0-.55.03-.55.04.02-.05.68.8.4.36.05.07.02.6.05.18,0,.03-.3,1.05-.42.88-.03-.04,1.38-.35,1.43-.36.65-.15,1.32-.36,1.9-.68,1.06-.59,1.82-1.47,2.16-2.64.42-1.46.21-3,.05-4.48-.8-7.59-1.59-15.14-3.09-22.63-.4-2.02-.81-3.83-2.68-5.07-1.62-1.07-3.26-.8-5.08-.99.36.04.09.03.09,0-.08-.02-.15-.04-.23-.07.41.1.71.35.9.76.07.17,0,.08,0-.04,0,.18-.4.91-.4.91.01.04,5.65-1.05,6.24-1.17,3-.6,5.99-1.27,8.97-1.96l-3.08-1.75,1.18,7.46c.32,2.04,3.73,2.51,4.57.6,1.35-3.07,3.32-6.21,6.72-7.24,3-.91,6.56-.18,7.39,3.24.33,1.36.08,2.92-1.04,3.87-.84.72-2.19.85-2.99.27-1.95-1.41-3.29-5.48-6.38-5.29-1.35.09-2.5,1.09-2.5,2.5,0,1.29,1.15,2.59,2.5,2.5Z"/>
    </g>
    <g>
      <path class="stPrivateSnorkeling5" d="M187.89,206.5c-2,.3-2.98,1-2.92,2.08.04.6.39,1.56,2.19,1.56.12,0,.25,0,.39-.01.42-.03,1.13-.14,2.03-.33,1.65-.27,3.19-.45,4.71-.55,3.21-.21,6.45-.32,9.63-.32,1.66-.01,2.67-.04,3.27-.08.76-.05,1.31-.21,1.7-.49.46-.33.68-.8.64-1.38-.09-1.56-2.32-1.7-3.04-1.74-1.34-.1-2.31-.42-2.9-.95-.39-.35-.89-1.22-1.03-3.42l-.49-9.53c-.7-10.53-1.25-17.96-1.64-22.08l-.12-.46h-.47l-13.76,1.79-.92.14c-1.77.26-2.64.9-2.58,1.93.08,1.01,1,1.55,2.75,1.62,2.26.11,2.95.56,3.16.83.23.28.7,1.57,1.29,7.12.44,4.2.83,8.87,1.19,14.28.26,3.95.31,6.61.14,7.9-.15,1.07-1.24,1.77-3.23,2.09Z"/>
      <path class="stPrivateSnorkeling5" d="M187.23,204.09c-1.61.28-3.33.92-4.21,2.4-.74,1.24-.7,2.9.05,4.13,2.05,3.36,6.7,1.55,9.76,1.25,4.06-.4,8.14-.39,12.22-.45,1.52-.02,3.15.03,4.56-.62,1.85-.86,2.83-2.87,2.27-4.86-.44-1.57-1.9-2.58-3.43-2.94-.34-.08-3.07-.55-3.11-.51-.05.05.27.21.07.1-.05-.03-.12-.32-.05-.07.08.29-.03-.13-.04-.15-.13-.51-.22-.99-.25-1.52s-.05-1.04-.08-1.56c-.21-4.07-.42-8.14-.69-12.2-.25-3.73-.51-7.45-.8-11.18-.19-2.52-.12-5.32-.76-7.77-.28-1.06-1.32-1.84-2.41-1.84-2.59,0-5.28.63-7.84.96s-5.29.61-7.9,1.05c-1.46.25-2.93.79-3.8,2.07s-.9,2.87-.15,4.16c.69,1.19,1.99,1.85,3.31,2.08.76.13,1.53.1,2.29.22.19.03.39.11.59.13.46.06-.19-.24.23.1-.08-.06-.83-1-.58-.53-.32-.6-.16-.47-.06-.07.18.75.34,1.5.46,2.26.46,2.87.68,5.8.93,8.69.34,3.93.66,7.87.85,11.8.07,1.43.13,2.88.05,4.31,0,.17-.04.35-.04.52.02.6.15-.49.17-.41-.03-.13.29.02-.12.08-.49.07-.99.28-1.48.36-1.33.24-2.08,1.86-1.75,3.08.39,1.4,1.74,1.98,3.08,1.75,1.41-.25,2.88-.74,3.89-1.81.95-1,1.17-2.23,1.24-3.56.15-2.9-.12-5.84-.33-8.73-.43-6.16-.68-12.53-1.9-18.59-.26-1.31-.63-2.62-1.82-3.39-.92-.6-1.98-.8-3.06-.93-.5-.06-1.15-.2-1.66-.14-.74.09-.08-.23-.1.1-.03.37.42.71.13,1.23-.52.94-.5.26-.19.29-.13,0,.74-.18.67-.16.17-.03,1.12-.29,1.24-.2-.1-.07-.86.11-.46.06.21-.03.41-.05.62-.08l4.41-.57,6.05-.79c.99-.13,2-.33,3-.33l-2.41-1.84c.05.18.17.73.05,0,.03.2.04.41.06.62.03.37.07.75.1,1.12.09,1.06.18,2.12.26,3.18.2,2.6.39,5.2.58,7.81.3,4.31.6,8.62.82,12.94l.25,4.85c.09,1.73.14,3.62,1.06,5.14.65,1.08,1.67,1.77,2.86,2.17.68.24,1.4.34,2.12.42.25.03.5.04.74.06.53.04-.37-.06.19.03l.24.05c.28.1.31.1.1,0,.32-.1.02.46-.24-.46l.08-.74c.59-.37.7-.49.34-.36-.1-.01-.4.07-.51.09-1.48.17-3.03.06-4.51.07-3.94.04-7.91.16-11.81.69-.93.13-1.85.32-2.78.46-.57.08.35.01-.35.05-.16-.04-.31-.02-.45.04-.34-.09-.39-.1-.17-.04l.45.46c.11.33.12.37.05.12.05.33-.07.49-.1.8,0-.03-.18.35-.24.26-.01-.02,1.36-.34,1.46-.35,1.33-.23,2.08-1.87,1.75-3.08-.39-1.41-1.74-1.97-3.08-1.75Z"/>
    </g>
    <g>
      <path class="stPrivateSnorkeling5" d="M188.29,164.04c1.3,1.14,2.82,1.72,4.52,1.72.16,0,.32,0,.49-.02h0c1.88-.13,3.47-.92,4.72-2.36,1.25-1.43,1.83-3.11,1.71-4.99h0c-.13-1.9-.93-3.5-2.36-4.74-1.43-1.24-3.11-1.81-4.99-1.69-1.91.13-3.51.92-4.75,2.33-1.24,1.42-1.8,3.1-1.68,5.01.13,1.88.92,3.47,2.33,4.72Z"/>
      <path class="stPrivateSnorkeling5" d="M186.52,165.81c2.96,2.54,6.9,3.16,10.46,1.5,3.34-1.56,5.43-5.26,5.25-8.9-.07-1.35-1.09-2.5-2.5-2.5h0l2.5,2.5c-.2-2.42-1.1-4.69-2.93-6.36s-4.12-2.63-6.58-2.58c-5.05.09-9.23,4.22-9.28,9.29-.02,2.68,1.1,5.26,3.08,7.06.97.88,2.59,1.03,3.54,0,.88-.96,1.03-2.6,0-3.54-.21-.19-.42-.39-.61-.6-.14-.15-.36-.5-.13-.14-.15-.23-.3-.45-.43-.69-.1-.2-.23-.55-.08-.14-.16-.46-.29-.92-.37-1.4.1.62,0-.31,0-.43,0-.22.02-.44.03-.67.03-.3.03-.29,0,.02.03-.14.06-.28.09-.42.05-.21.12-.41.18-.61.1-.27.1-.26-.01,0,.06-.13.12-.26.19-.38.1-.19.23-.37.34-.55.17-.23.17-.24,0-.02.09-.11.19-.22.29-.33.14-.16.29-.31.45-.45.1-.09.21-.18.32-.27-.23.18-.24.19,0,.03.21-.12.4-.25.62-.36.56-.29-.22.02.25-.11.23-.06.46-.14.7-.2.13-.03.87-.1.29-.06.26-.02.52-.03.78-.03.13,0,.91.07.31-.01.25.03.49.09.73.15s.47.14.7.23c-.53-.21.16.1.27.16.22.13.43.26.64.41-.41-.3.18.17.26.25.18.17.34.36.51.54.18.22.18.21,0-.02.06.08.12.17.17.26.13.2.24.41.35.62.12.26.12.25,0-.04.04.1.07.19.1.29.08.23.14.46.19.7.03.14.06.28.08.42-.04-.31-.05-.32-.02-.02.11,1.35,1.05,2.5,2.5,2.5h0l-2.5-2.5c.01.3,0,.59,0,.89-.01.66.08-.27,0,.08-.03.14-.05.28-.08.42-.07.28-.16.54-.25.81-.11.34.27-.48-.05.08-.07.12-.14.25-.21.38s-.16.25-.24.37c-.11.17-.17.21-.01.03-.22.25-.43.49-.67.72-.1.1-.21.18-.32.28-.26.24.31-.18.01-.02-.27.15-.52.32-.79.47-.24.13-.16.06.04,0-.13.04-.26.09-.39.14-.27.08-.53.14-.81.2-.47.1.23.02-.08,0,.05,0-.3.02-.23.02-.31.02-.61-.02-.91-.01-.36.01.54.12-.08,0-.14-.03-.28-.06-.41-.09-.27-.07-.54-.16-.8-.26.22.09.23.11.02-.01-.15-.09-.31-.17-.46-.27-.12-.08-.24-.16-.36-.24-.33-.21.42.36-.1-.09-.99-.85-2.57-1.05-3.54,0-.86.93-1.06,2.63,0,3.54Z"/>
    </g>
    <g>
      <path class="stPrivateSnorkeling5" d="M213.1,178.39l10.38,20.33c2.81,5.54,4.3,8.37,4.67,8.94.47.71.99,1.07,1.57,1.07.44,0,.81-.12,1.12-.35.22-.16.54-.56,2.01-3.52,1.02-2.06,2.5-5.45,4.4-10.06,1.88-4.57,3.89-9.65,5.99-15.08,1.74-4.54,3.95-7.06,6.56-7.48,1.51-.27,2.28-.88,2.28-1.81,0-1.14-.69-1.8-1.9-1.8-.37,0-.86.05-1.56.16-1.11.21-2.3.31-3.54.31-.6,0-1.68-.06-3.1-.18-1.54-.14-2.72-.22-3.33-.22-1.83.02-2.1,1.04-2.1,1.64,0,.88.79,1.53,2.35,1.95,1.49.38,1.67,1.21,1.67,1.81,0,.73-.42,2.77-2.39,8.31-1.48,4.13-3.1,8.17-4.83,12.01-1.62-2.92-3.55-6.74-5.87-11.61-3.26-6.84-3.74-8.51-3.74-8.89,0-.67.2-1.46,1.83-1.63,1.82-.2,2.09-1.3,2.09-1.95-.02-1.53-2.51-1.51-3.45-1.51-.43,0-1.68.1-3.81.3-1.27.1-2.25.14-3.07.14-2.3,0-4.64-.08-6.96-.28-.95-.07-1.73-.11-2.26-.11-1.91.02-2.19,1.12-2.19,1.77,0,.84.72,1.42,2.12,1.73.5.13,1.13.47,1.82.98.48.35,1.43,1.51,3.25,5.02Z"/>
      <path class="stPrivateSnorkeling5" d="M210.94,179.65c2.58,5.06,5.17,10.13,7.75,15.19.95,1.86,1.9,3.71,2.84,5.57,1.18,2.32,2.35,4.64,3.57,6.94.94,1.77,2.06,3.7,4.32,3.84,2.48.16,3.65-1.38,4.67-3.3,1.19-2.25,2.22-4.57,3.23-6.9,2.8-6.5,5.4-13.09,7.96-19.69.84-2.19,2-5.06,3.89-6.21,0,0,.75-.38.32-.2.23-.1.48-.15.72-.21.72-.18,1.39-.31,2.05-.66,1.37-.72,2.29-2.02,2.31-3.61.01-1.7-.93-3.24-2.49-3.91s-3-.27-4.55-.06c-2.84.39-5.62-.17-8.46-.24-1.68-.04-3.43.42-4.39,1.91-.79,1.22-.86,2.89-.13,4.15.45.77,1.18,1.38,1.97,1.78.35.18,1.61.78,1.76.56-.03.05-.22-1.16-.23-.34,0,.56.17-.68-.02.12-1.54,6.45-4.14,12.73-6.85,18.77h4.32c-2.87-5.19-5.47-10.56-7.89-15.98-.19-.43-.38-.86-.57-1.29-.32-.74.17.42-.1-.25-.07-.18-.14-.35-.21-.53-.17-.43-.32-.87-.47-1.31-.03-.09-.04-.3-.09-.37.12.15-.03.87.07.3-.03.17-.43,1.37-.77,1.12,0,0,.85-.17.76-.15.86-.16,1.65-.45,2.34-1,2.23-1.79,2.08-5.36-.56-6.69-1.8-.91-3.95-.7-5.9-.53-3.15.27-6.25.35-9.42.18-2.79-.15-6.91-1.17-8.67,1.77-.71,1.18-.81,2.73-.18,3.96.83,1.61,2.31,1.84,3.78,2.5,0,0,.62.39.63.4-.27-.2.06.05.12.1.08.08.14.17.22.25.42.43-.22-.35.1.14.83,1.25,1.56,2.55,2.26,3.87,1.49,2.85,5.81.33,4.32-2.52-.93-1.77-1.89-3.71-3.28-5.18-.6-.63-1.37-1.14-2.15-1.52-.39-.19-1.27-.63-1.72-.61-.29.01-.29-.48.15.26.24.4.19.5.11.77.14-.46-.24.28-.27.32-.31.49-.47.07-.06.18.43.12.98.04,1.43.07,1.54.09,3.07.23,4.61.28,2.82.1,5.57-.04,8.38-.28.7-.06,1.4-.12,2.1-.11.24,0,.89.05.87.04-.32-.06.47.1.42.12-.42.14-.73-1.72-.69-1.15.03.42-.01-.15.09-.28.03-.04.33-.36.33-.34,0,.08-1.03.2-1.27.25-1.34.33-2.57,1.33-2.93,2.71-.61,2.35,1,4.98,1.9,7.01,2.42,5.42,5.02,10.79,7.89,15.98.84,1.52,3.54,1.74,4.32,0,2.58-5.76,5-11.68,6.78-17.74.35-1.2.74-2.48.78-3.74.03-1.07-.33-2.17-1.07-2.95-.42-.44-.91-.76-1.46-1.01-.21-.1-1.72-.68-1.75-.64.12-.17.36,1.8.27.73-.04-.39-.07.33-.15.46-.07.12-.58.68-.62.46-.02-.12.52-.06.57-.06,1.33-.06,2.71.2,4.03.29,1.2.09,2.38.14,3.58.06.81-.05,1.61-.15,2.41-.29.21-.03,1.24-.08,1.31-.16-.13.16-.61-.74-.59-.65-.03-.17.29-.64.25-.74-.05-.11-.66.07-.95.14-1.06.26-2.03.73-2.9,1.38-2.14,1.61-3.53,3.94-4.58,6.38-2.59,6.03-4.79,12.23-7.31,18.29-.95,2.28-1.92,4.56-2.98,6.79-.47.99-.96,1.97-1.48,2.93-.17.31-.34.61-.52.91-.05.1-.16.2-.2.3.02-.05.47-.52.21-.29.45-.39.46-.17.92-.2.76-.05.25.29.22,0-.01-.1-.18-.31-.23-.39-.32-.56-.62-1.14-.93-1.72-1.18-2.25-2.33-4.51-3.48-6.78-.77-1.52-1.55-3.04-2.33-4.56-2.68-5.26-5.37-10.51-8.05-15.77-1.46-2.87-5.78-.34-4.32,2.52Z"/>
    </g>
    <g>
      <path class="stPrivateSnorkeling5" d="M259.2,209.53c1.95.14,3.94-.18,5.93-.96,1.68-.65,3.4-1.66,5.13-2.99.13,1.49.51,2.6,1.15,3.35.8.94,2.3,1.48,4.46,1.63.65.05,1.33.07,2.04.07,1.5,0,3.14-.1,4.94-.32,3.54-.42,4.44-.73,4.8-.93.68-.37,1.04-.87,1.09-1.5.03-.38-.09-.72-.32-.99-.36-.41-.98-.64-1.89-.7-.24-.03-.66-.03-1.27,0-.28,0-.5.01-.66,0-.6-.04-1.44-.3-1.74-2.07-.18-1.09-.29-3.81.17-10.53l.79-10.48c.21-3.16.03-5.57-.54-7.17-.59-1.62-2.07-3.13-4.41-4.47-2.3-1.32-5.37-2.11-9.11-2.36-4.31-.3-8.15.17-11.39,1.39-3.37,1.26-5.18,3.45-5.38,6.49-.1,1.48.32,2.67,1.24,3.55.9.85,2.02,1.32,3.34,1.41,3.22.22,5.35-1.47,6.32-5.03.41-1.56.93-2.68,1.53-3.33.56-.58,1.5-.82,2.79-.73,1.56.11,2.71.7,3.51,1.8.82,1.11,1.17,2.59,1.05,4.4-.1,1.65-.5,2.99-1.17,3.98-.67.98-1.48,1.72-2.39,2.19-.97.5-2.89,1.16-5.73,1.95-3.51,1-5.97,1.87-7.52,2.67-1.59.81-2.97,2.01-4.1,3.58-1.15,1.58-1.8,3.45-1.94,5.55-.17,2.73.54,5.13,2.12,7.15,1.6,2.04,4.01,3.18,7.16,3.39Z"/>
      <path class="stPrivateSnorkeling5" d="M259.2,212.03c4.54.24,8.76-1.59,12.32-4.29l-3.76-2.16c.2,1.93.63,3.88,2.05,5.3,1.22,1.21,2.91,1.77,4.57,2.01,3.96.57,8.14.13,12.06-.58,2.77-.5,5.68-2.52,4.6-5.78-.71-2.13-2.95-2.81-4.98-2.84-.38,0-.77,0-1.15.03-.66.06-.06-.05.06.04-.17-.12-.24-.19.14.13.45.38.36.41.28,0,0-.02-.09-.45-.09-.45.02,0,.05.68.05.34-.02-4.14.08-8.25.39-12.39s.99-8.47.63-12.6c-.14-1.64-.41-3.28-1.19-4.76-.86-1.62-2.27-2.86-3.74-3.89-3.21-2.24-7.1-3.11-10.94-3.45-6.67-.58-17.21.28-19.57,7.97-1.21,3.94.42,7.92,4.36,9.37,3.24,1.19,7.08.16,9.19-2.56,1.13-1.46,1.58-3.13,2.16-4.86.08-.25.17-.48.29-.71.1-.2.48-.64.3-.53-.26.16.06-.02.2-.01.37.03.72-.02,1.09.05,2.77.54,2.08,5.2.65,6.77-.44.49-.93.79-1.53,1.07.39-.19-.35.13-.47.18-.35.13-.71.25-1.07.37-1.94.65-3.93,1.15-5.88,1.77-3.3,1.05-6.63,2.26-9.05,4.85-2.8,3-4.12,6.98-3.61,11.06.48,3.76,2.64,7.39,6.11,9.12,1.76.88,3.62,1.27,5.57,1.42,1.35.11,2.5-1.23,2.5-2.5,0-1.44-1.15-2.39-2.5-2.5-2.76-.22-5.14-1.53-6.24-4.17s-.62-6.02,1.17-8.3,4.33-3.18,6.98-4.04c3.05-.99,6.31-1.61,9.2-3.04,6.12-3.02,7.25-14.38,0-16.75-1.62-.53-3.59-.56-5.17.12s-2.42,2.05-3.04,3.57c-.53,1.29-.7,2.75-1.52,3.9-.46.64-1.1,1.02-1.74,1.13-1.01.17-2.47,0-3.09-.92-.57-.85-.27-2.13.1-2.97.32-.72,1.1-1.51,1.98-2.02,1.29-.76,2.78-1.17,4.24-1.48,3.46-.75,7.28-.71,10.74-.04,2.71.53,5.86,1.58,7.61,3.88,1.35,1.77,1.05,4.98.89,7.26-.09,1.3-.2,2.59-.29,3.88-.29,3.89-.64,7.78-.77,11.68-.06,1.7-.12,3.42.06,5.12.15,1.37.5,2.78,1.53,3.77,1.16,1.1,2.52,1.1,4.01,1.1.12,0,.65.09.74.03.19-.12-.28-1.03-.24-1.35,0-.08.11-.26-.06-.1.04-.04.67-.2.22-.11-.91.19-1.79.4-2.72.53-1.82.25-3.65.41-5.49.43-1.41.02-3.08.07-4.37-.43-.4-.15-.54-.2-.76-.53-.26-.39-.38-1.08-.44-1.59-.17-1.64-2.08-3.43-3.76-2.16-2.91,2.2-6.07,3.8-9.79,3.6-3.22-.17-3.21,4.83,0,5Z"/>
    </g>
    <g>
      <path class="stPrivateSnorkeling5" d="M312.57,162.2c-.25-.33-.63-.54-1.08-.6-.57-.08-1.07.09-1.45.49-.29.3-.79,1.06-1.68,2.54-1.96,3.22-4.11,5.49-6.38,6.75-2.31,1.27-4.85,2.04-7.58,2.28-1.09.13-2.56.43-2.71,1.56-.1.69.17,1.61,2,2.1,1.12.3,3.02.64,5.65,1.01-1.08,6.21-2.07,12.63-2.96,19.08-.84,6.17-.27,10.28,1.75,12.55,1.97,2.22,4.94,3.62,8.84,4.16.9.12,1.77.18,2.63.18,2.26,0,4.38-.43,6.3-1.28,2.82-1.24,4.2-2.32,4.34-3.38.12-.87-.31-1.45-1.16-1.57-.36-.05-.77.02-1.27.21-2.59,1.06-4.54,1.51-5.79,1.33-1.43-.19-2.56-.75-3.36-1.67-.8-.92-1.25-2-1.34-3.21-.1-1.3.04-3.32.41-6l3.06-18.84c10.38.82,10.78.71,11,.65.41-.12.88-.49,1.99-3.69l.16-.46-.45-.19c-1.08-.45-2.49-.8-4.2-1.04-3.49-.47-5.96-.78-7.7-.94l1.33-9.74c.15-1.03.03-1.77-.34-2.26Z"/>
      <path class="stPrivateSnorkeling5" d="M314.34,160.43c-1.6-1.71-4.4-1.79-6.07-.11-1.17,1.18-1.9,2.84-2.82,4.2-2.09,3.09-4.75,5.17-8.38,6.13-1.85.49-3.93.36-5.65,1.24s-2.57,2.66-2.15,4.49c.87,3.78,6.36,3.91,9.39,4.34l-1.75-3.08c-.9,5.22-1.73,10.45-2.48,15.7-.65,4.53-1.53,9.28-.42,13.81,2.14,8.7,13.85,11.27,21.35,8.72,2.06-.7,4.4-1.71,5.95-3.3,1.45-1.47,1.96-3.8.65-5.54-3.05-4.02-7.66,1.65-10.91-.33-1.4-.85-1.32-2.53-1.25-3.97.05-1.04.16-2.08.29-3.11.03-.27.08-.56.04-.29,0-.06.02-.13.03-.19.27-1.71.56-3.42.83-5.13.73-4.49,1.46-8.98,2.19-13.47l-2.41,1.84c3.48.27,7.09.8,10.59.69,3.18-.11,4.09-3.49,4.97-6.02.48-1.39-.57-2.59-1.75-3.08-2.22-.92-4.54-1.21-6.9-1.52-2.03-.27-4.07-.53-6.11-.73l2.41,3.16c.28-2.03.56-4.06.83-6.1.33-2.41,1.28-5.67-.1-7.83-1.73-2.7-6.06-.2-4.32,2.52.22.34.05.01.05.58,0-.4.04-.24.02-.11-.03.31-.08.61-.13.92l-.46,3.33c-.24,1.79-.49,3.58-.73,5.36s.64,2.99,2.41,3.16c3.87.38,8.07.57,11.68,2.08l-1.75-3.08c-.29.84-.56,1.7-.93,2.43-.08.15-.22.34-.28.5-.14.38.24-.26.12-.15.12-.11.56-.35.68-.38-.34.1.74,0,.47-.06-.15-.03-.36,0-.51,0-3.42-.02-6.88-.42-10.28-.69-.99-.08-2.25.83-2.41,1.84-.56,3.47-1.13,6.93-1.69,10.4-.65,4-1.46,8.03-1.8,12.07-.14,1.72-.24,3.57.35,5.23.78,2.18,2.36,3.84,4.51,4.67,1.79.7,3.65.62,5.49.18,1.03-.25,2.01-.63,3-1,.05-.02.56-.16.58-.21,0-.01-.12-.03-.12-.03.03-.18-.87-1.15-.92-1.4l.12-.26c-.12.19-.13.22-.03.09.16-.08-.33.33-.48.44-.06.05-.65.39-.85.51-.86.49-1.77.91-2.71,1.22-2.08.67-4.28.82-6.44.54-1.82-.24-3.67-.74-5.27-1.66-.66-.38-1.25-.81-1.79-1.35-.6-.6-.59-.57-1.01-1.37-.17-.32-.44-1.18-.59-1.89-.17-.82-.22-1.63-.24-2.51-.05-2.43.28-4.84.62-7.24.79-5.57,1.66-11.12,2.62-16.66.21-1.2-.31-2.87-1.75-3.08-1.51-.22-3.02-.44-4.52-.75-.19-.04-1.41-.46-1.53-.38.09-.06.21.86.21.68.01-.58-.25,1.1-.47.88-.06-.06.31-.1.5-.14.48-.11,1.38-.17,2.14-.29,1.52-.24,3.01-.64,4.44-1.22,2.77-1.13,5.14-2.77,7.07-5.07,1.08-1.29,2.02-2.67,2.91-4.11.34-.55.7-1.08,1.04-1.63.25-.4-.27.12.02-.01-.25.12-.77.36-1,.11,2.2,2.36,5.73-1.19,3.54-3.54Z"/>
    </g>
    <g>
      <path class="stPrivateSnorkeling5" d="M337.99,198.05l18.4,3.64c4.12.89,5.16.91,5.58.84.83-.12,1.38-.83,1.65-2.09.71-3.38.01-7.27-2.08-11.55-2.11-4.35-5.98-7.15-11.5-8.32-5.84-1.25-11.22-.24-16,2.99-4.77,3.22-7.83,7.88-9.1,13.87-1.07,4.97-.27,9.74,2.36,14.16,2.64,4.41,7.03,7.3,13.05,8.58,1.79.38,3.6.57,5.4.57.95,0,1.9-.05,2.84-.16,2.75-.31,5.24-1.13,7.39-2.44,2.94-1.81,3.45-2.66,3.56-3.2.12-.56.07-1.03-.17-1.39-.23-.35-.59-.58-1.1-.68-.44-.08-1.04.11-2.02.66-3.9,2.24-7.58,3.01-10.92,2.3-3.27-.7-5.52-2.57-6.86-5.71-1.36-3.15-1.61-6.77-.77-10.77.06-.29.16-.72.3-1.3Z"/>
      <path class="stPrivateSnorkeling5" d="M337.32,200.46c6.13,1.21,12.27,2.39,18.4,3.64,2.1.43,4.72,1.34,6.89.84,3.85-.88,4.04-6.01,3.65-9.16-.48-3.87-1.91-7.84-4.3-10.95-2.11-2.73-4.95-4.61-8.17-5.8-7.36-2.75-15.79-1.63-22.06,3.12s-9.7,11.81-9.74,19.38c-.04,7.65,4.17,15.1,10.99,18.65s16.48,4.38,23.57.5c2.34-1.28,5.45-3.15,5.55-6.16.07-2.21-1.77-4.22-4.03-4.19-2.01.03-3.68,1.49-5.48,2.22-2.95,1.19-6.63,1.62-9.4-.27-2.51-1.71-3.41-5.19-3.48-8.08-.05-1.88.25-3.68.7-5.5.77-3.12-4.05-4.46-4.82-1.33-1.58,6.44-1.23,14.55,4.57,18.85,2.58,1.92,6.06,2.61,9.22,2.24,1.95-.23,3.77-.75,5.57-1.52.88-.38,1.73-.81,2.57-1.28-.01,0,.75-.4.76-.36.02.13-.78-.24-.53-.12-.34-.16-.63-.59-.62-.9-.01.36.18-.36.11-.24-.22.4.23-.21.07-.05-.27.28-.62.62-.87.82-1.26.97-2.7,1.82-4.2,2.35-3.33,1.19-7.07,1.34-10.54.7-6-1.11-11.21-4.29-13.53-10.14-2.34-5.91-.98-12.97,2.84-17.99s10.33-7.86,16.72-7.07c2.85.35,5.78,1.27,8.09,3.01s3.6,4.09,4.52,6.67c.57,1.6,1,3.26,1.05,4.97.02.63.01,1.28-.08,1.91-.04.3-.27.77-.24,1.06.06.57-.06.13-.07.12-.04-.03.52-.35.54-.36-.49.24.26-.02.25-.02-.06-.02-.18.01-.25,0-.11-.01-.23-.01-.34-.02-.1,0-.66-.07-.32-.03s-.33-.05-.44-.07c-.28-.05-.57-.1-.85-.15-.85-.16-1.7-.34-2.55-.51-5.92-1.21-11.85-2.35-17.77-3.52l-.63-.12c-1.32-.26-2.7.38-3.08,1.75-.34,1.23.42,2.81,1.75,3.08Z"/>
    </g>
    <g>
      <path class="stPrivateSnorkeling5" d="M88.73,187.71c-1.12-7.37-4.97-14.15-8.7-20.71-1.44-2.54-2.8-4.93-4.03-7.37l-.16-.32c-3.34-6.68-8.39-16.78-2.82-23.31,2.94-3.44,14.42-3.49,19.62-2.75.59.08,1.48.34,2.34.58,1.23.35,2.38.68,3.03.64,1.02-.06,1.86-.95,2.68-1.8.49-.52,1-1.05,1.38-1.18.33-.11.86-.03,1.21.03.37.06.59.1.8-.03.66-.39,4.46-8.35,4.5-8.43,1.01-2.15,1.94-4.38,2.84-6.54.84-2.02,1.71-4.1,2.64-6.11l.26-.55-.59-.16c-7.59-2.1-16.48-1.16-22.5-.27-21.22,3.13-52.07,18.33-54.2,42.36-.95,10.67,4.29,19.72,9.35,28.48,4.59,7.93,8.92,15.42,7.87,23.17-.34,2.46-1.92,7.87-4.07,9.22-1.14.72-8.01,2.03-10.69,2.43-.68.1-2.54.24-4.51.39-4.53.34-6,.47-6.36.67-.68.37-.91,1-1.12,1.56-.17.45-.31.84-.66,1.08-.37.26-1.53.39-2.46.49-1.58.18-2.57.31-2.97.85l-7.95,21.49.7.03c2.8.13,5.79.25,8.86.25,4.62,0,9.45-.26,14.2-1.11,24.21-4.34,55.51-26.62,51.5-53.07Z"/>
      <path class="stPrivateSnorkeling5" d="M91.14,187.04c-1.57-9.86-7.46-18.21-12.04-26.85-1.72-3.25-3.42-6.57-4.65-10.05-1.15-3.25-2.17-7.14-.8-10.48.27-.66.66-1.35,1.13-1.89.1-.12.65-.6.23-.28.23-.18.49-.33.74-.47.93-.51,2.48-.9,3.91-1.16,3.13-.56,6.64-.59,9.92-.4.67.04,1.34.09,2.01.16.16.02.32.03.48.05.43.05-.47-.09.06.01.59.11,1.17.27,1.75.43,2.26.63,4.5,1.39,6.65,0,.49-.32.95-.72,1.37-1.13.12-.12,1.17-1.04,1.14-1.17-.02-.08.4-.21-.17.02-.45.18-.17,0-.09.1.26.33,1.67.04,1.97-.05,1.22-.4,1.85-1.52,2.45-2.57,3.66-6.48,6.16-13.48,9.29-20.21.67-1.44.18-3.21-1.49-3.67-8.69-2.4-17.99-1.65-26.76-.04-7.21,1.32-14.21,3.67-20.87,6.71-13.28,6.07-26.77,16.03-31.42,30.49-2.88,8.96-1.19,18.11,2.67,26.49,2.14,4.64,4.83,8.99,7.34,13.43s5.11,9.1,5.81,14.19c.49,3.57-.23,7.51-2.05,10.68-.05.09-.54.83-.41.67-.1.13-.23.25-.34.37-.34.35-.07.07-.08.07.13.11-.55-.06,0,.01.27.04.12-.04-.09.02-.35.1-.7.22-1.05.32-1.71.47-3.46.82-5.2,1.15-.78.15-1.55.29-2.33.42-.32.05-.64.11-.97.16-.14.02-.27.05-.41.06.62-.08-.25.01-.37.02-2.37.22-4.74.35-7.1.56-1.08.09-2.26.11-3.3.43-.96.3-1.82,1.04-2.33,1.9-.13.22-.72,1.38-.63,1.45-.05-.04.72-.45.67-.49-.07-.06-.8.16-.96.19-2.06.3-4.63.24-5.68,2.43-.18.38-.31.8-.46,1.2l-2.16,5.85-5.13,13.85-.33.9c-.59,1.6.92,3.1,2.41,3.16,8.65.4,17.38.56,25.91-1.21,6.5-1.34,12.8-3.75,18.7-6.75,11.92-6.07,23.39-15.32,29.45-27.48,3.37-6.77,4.71-14.12,3.62-21.62-.2-1.34-1.89-2.07-3.08-1.75-1.43.39-1.94,1.73-1.75,3.08,1.75,11.99-4.88,23.22-13.4,31.35-9.06,8.64-20.75,14.98-32.91,17.92-8.69,2.1-17.67,1.88-26.54,1.47l2.41,3.16c2.32-6.27,4.64-12.54,6.96-18.8l.99-2.69-.64,1.1c.14-.16.28-.2-.16.03-.64.33-.08.08.1.06.27-.03.54-.11.8-.15.96-.14,1.94-.17,2.88-.39.89-.21,1.64-.63,2.22-1.34.28-.35.46-.69.63-1.1-.02.04.27-.73.24-.61.06-.21.21-.17.06-.17.01,0-.85.25-.45.26.09,0,.2-.08.28-.06.43.11-.1,0-.03,0,.23-.02.46-.05.69-.07,1.67-.17,3.34-.28,5.02-.4,3-.22,5.92-.6,8.87-1.18,2.26-.44,5.1-.72,7.11-1.94,2.6-1.57,3.81-5.13,4.6-7.89.98-3.44,1.07-6.94.39-10.45-1.62-8.23-6.85-15.39-10.81-22.62-3.62-6.61-6.64-13.71-6.13-21.4.35-5.31,2.43-10.43,5.52-14.91,6.44-9.35,17.03-15.94,27.44-20.22,5.25-2.16,10.71-3.85,16.28-4.94,6.63-1.29,13.73-2.04,20.44-1.09,1.52.22,3.02.57,4.5.98l-1.49-3.67c-2.9,6.25-5.32,12.68-8.52,18.79-.28.54-.57,1.07-.87,1.6-.12.2-.24.41-.36.61-.24.4-.31.22.04,0-.26.16,1.49-.48,1.49-.48-.05-.09-.85-.12-.96-.13-.53-.05-1.07-.05-1.59.1-1.29.39-2.11,1.51-3.04,2.39-.59.56-.49.54-1.19.37-1.19-.29-2.35-.71-3.55-.94-1.56-.3-3.18-.4-4.77-.47-3.61-.16-7.27,0-10.82.67-3.29.63-6.18,1.88-8.03,4.8-4.64,7.32-.31,16.64,3.09,23.5,4.69,9.45,11.53,18.34,13.22,28.98.21,1.33,1.88,2.08,3.08,1.75,1.42-.39,1.96-1.74,1.75-3.08Z"/>
    </g>
    <g>
      <polygon class="stPrivateSnorkeling5" points="118.56 120.6 97.64 162.69 110.11 160.47 111.27 157.87 114.32 157.33 120.81 142.67 122.12 157.1 132.3 155.23 133.45 152.65 136.5 152.09 156.18 107.82 143.8 109.01 142.63 111.87 139.61 112.16 134.62 124.28 133.57 109.7 120.23 112.38 121.28 114.48 116.03 115.53 118.56 120.6"/>
      <path class="stPrivateSnorkeling5" d="M116.4,119.34c-2.36,4.75-4.72,9.49-7.08,14.24l-11.23,22.6c-.87,1.75-1.74,3.5-2.61,5.25-1.02,2.04.65,4.06,2.82,3.67,2.92-.52,5.83-1.04,8.75-1.56,1.2-.21,2.46-.33,3.64-.65,1.66-.44,2.11-2.37,2.73-3.77l-1.49,1.15c1.67-.3,3.81-.27,4.67-1.97.75-1.49,1.36-3.07,2.04-4.59,1.44-3.26,2.89-6.52,4.33-9.78l-4.66-1.26c.44,4.81.88,9.62,1.31,14.42.16,1.71,1.46,2.72,3.16,2.41,2.48-.45,4.95-.91,7.43-1.36.9-.16,1.86-.25,2.74-.5,1.6-.46,2.05-2.38,2.65-3.73l-1.49,1.15c1.55-.28,3.76-.27,4.6-1.82.35-.65.61-1.38.92-2.06l4.41-9.92c3.84-8.63,7.67-17.26,11.51-25.89.93-2.1,1.86-4.19,2.79-6.29.68-1.54-.07-3.96-2.16-3.76-4.13.4-8.25.8-12.38,1.19-1.23.12-1.95.72-2.41,1.84l-1.17,2.86,2.41-1.84-3.02.29c-1.23.12-1.95.72-2.41,1.84l-4.99,12.12,4.91.66-1.05-14.58c-.12-1.7-1.49-2.75-3.16-2.41-4.45.89-8.89,1.79-13.34,2.68-1.68.34-2.16,2.33-1.49,3.67l1.05,2.09,1.49-3.67c-1.75.35-3.5.7-5.25,1.06s-2.16,2.33-1.49,3.67l2.53,5.07c1.44,2.88,5.75.35,4.32-2.52l-2.53-5.07-1.49,3.67c1.75-.35,3.5-.7,5.25-1.06s2.16-2.33,1.49-3.67l-1.05-2.09-1.49,3.67c4.45-.89,8.89-1.79,13.34-2.68l-3.16-2.41,1.05,14.58c.21,2.93,3.85,3.25,4.91.66,1.66-4.04,3.33-8.08,4.99-12.12l-2.41,1.84,3.02-.29c1.23-.12,1.95-.72,2.41-1.84l1.17-2.86-2.41,1.84c4.13-.4,8.25-.8,12.38-1.19l-2.16-3.76c-2.22,4.98-4.43,9.97-6.65,14.95-3.53,7.94-7.06,15.89-10.6,23.83-.81,1.83-1.62,3.65-2.44,5.48l1.49-1.15c-1.08.2-2.34.25-3.35.69-1.37.59-1.79,2.35-2.34,3.61l1.49-1.15c-3.39.62-6.78,1.24-10.18,1.86l3.16,2.41c-.44-4.81-.88-9.62-1.31-14.42-.1-1.11-.71-2.1-1.84-2.41-.98-.27-2.38.15-2.82,1.15-2.16,4.88-4.33,9.77-6.49,14.65l1.49-1.15c-1.13.2-2.64.2-3.65.79-1.14.66-1.55,2.37-2.05,3.5l1.49-1.15c-4.16.74-8.31,1.48-12.47,2.22l2.82,3.67c2.36-4.75,4.72-9.49,7.08-14.24,3.74-7.53,7.49-15.07,11.23-22.6.87-1.75,1.74-3.5,2.61-5.25,1.43-2.87-2.88-5.41-4.32-2.52Z"/>
    </g>
    <g>
      <path class="stPrivateSnorkeling5" d="M150.27,122.71h0c-4.31,6.54-6.08,13.92-4.75,19.76.64,2.82,1.98,5.1,3.89,6.71h-.27l1.6.96c1.78,1.07,3.83,1.58,6.02,1.58,4.54,0,9.69-2.22,14.31-6.38,3.83-2.35,7.28-5.75,9.98-9.83,3.23-4.9,5.05-10.32,5.15-15.3l.92-.53-.22-.44s-.02-.04-.06-.12l3.52-2.03-13.26,32.21,12.24-.78.98-2.94,3.22-.2,1.71-5.13,1.59,7.66,12.41-.82-.76-2.82,4.79-.32-1.13,2.98,10.28-.46,1-3,3.19-.14,1.78-5.35,2.04,8.23,11.54-.22-.84-3.05,5.03-.1-5.35-19.54,18.34-13.92-2.39,7.17,2.5.16-12.35,29.22,21,.21,1.07-3.18,3.14.03,2.88-8.57-12.17-.33.71-2.04,7.06.76.93-3.5,3.27.35,2.09-7.83-7.44-.91.5-1.51,7.5,1.06,1.53-3.52,2.67.38,4.15-9.53-22.28-1.75h0s-16.09-.85-16.09-.85l-2.83,3.22-1.38-.07-4.91,5.59,3.75-8.94-14.8-.36-.59,3.24-3.61-.09-.43,2.32c-.89-3.09-3.58-6.79-17.31-4.93l-12.34,2.23-.54,2.49-3.66.66-.42,1.9c-2.06-2.14-5.35-4.57-10.11-5.4-5.27-1.67-12.19.56-18,5.76-3.84,2.34-7.31,5.76-10.03,9.88ZM191.01,115.38l-.11.31c-.05-.09-.12-.2-.2-.32h.31ZM209.83,130.42c1.34-.7,2.64-1.55,3.86-2.53.39-.31.79-.68,1.22-1.11,1.04-.6,2.05-1.29,2.98-2.04,3.06-2.46,5.01-5.9,5.38-9.49l.9.02-10.78,28.41-3.57-13.26ZM262.32,109.43l-2.91-.23,4-3.03-1.09,3.26Z"/>
      <g>
        <path class="stPrivateSnorkeling5" d="M147.77,122.71h0c.11-.42.23-.84.34-1.26-5.32,8.19-9.09,22.02-.46,29.5l1.77-4.27h-.27c-2.5,0-3.38,3.39-1.26,4.66,2.73,1.63,5.42,2.83,8.67,2.88,3.78.06,7.54-1.22,10.8-3.07,1.9-1.08,3.49-2.5,5.25-3.79,1.62-1.19,3.28-2.29,4.77-3.66,3.06-2.8,5.67-6.21,7.6-9.88,2.21-4.21,3.61-8.84,3.75-13.61l-1.24,2.16.92-.53c1.22-.7,1.51-2.22.9-3.42-.09-.19-.19-.37-.29-.56l-.9,3.42,3.52-2.03-3.67-2.82c-3.87,9.4-7.75,18.81-11.62,28.21-.55,1.33-1.1,2.66-1.64,3.99-.6,1.47.92,3.26,2.41,3.16,4.08-.26,8.16-.52,12.24-.78,1.16-.07,2.04-.73,2.41-1.84l.98-2.94-2.41,1.84,3.22-.2c1.16-.07,2.04-.73,2.41-1.84l1.71-5.13h-4.82c.53,2.55,1.06,5.11,1.59,7.66.21,1.01,1.38,1.9,2.41,1.84,4.14-.27,8.27-.54,12.41-.82,1.61-.11,2.86-1.51,2.41-3.16l-.76-2.82-2.41,3.16,4.79-.32-2.41-3.16-1.13,2.98c-.57,1.49.89,3.23,2.41,3.16,3.43-.15,6.85-.31,10.28-.46,1.16-.05,2.05-.75,2.41-1.84l1-3-2.41,1.84,3.19-.14c1.16-.05,2.05-.75,2.41-1.84l1.78-5.35h-4.82c.68,2.74,1.36,5.49,2.04,8.23.26,1.04,1.34,1.86,2.41,1.84,3.85-.07,7.69-.15,11.54-.22,1.62-.03,2.85-1.57,2.41-3.16l-.84-3.05-2.41,3.16,5.03-.1c1.62-.03,2.85-1.57,2.41-3.16-1.78-6.51-3.57-13.03-5.35-19.54l-1.15,2.82c5.34-4.05,10.67-8.1,16.01-12.15l2.33-1.77-3.67-2.82c-.8,2.39-1.59,4.78-2.39,7.17-.55,1.64.88,3.06,2.41,3.16l2.5.16-2.16-3.76c-3.61,8.54-7.21,17.07-10.82,25.61l-1.53,3.62c-.72,1.69.08,3.74,2.16,3.76,7,.07,14,.14,21,.21,1.15.01,2.06-.79,2.41-1.84l1.07-3.18-2.41,1.84,3.14.03c1.15.01,2.06-.79,2.41-1.84.96-2.86,1.92-5.71,2.88-8.57.53-1.59-.87-3.12-2.41-3.16-4.06-.11-8.11-.22-12.17-.33l2.41,3.16.71-2.04-2.41,1.84c2.35.25,4.7.51,7.06.76,1.07.11,2.15-.86,2.41-1.84l.93-3.5-2.41,1.84,3.27.35c1.07.11,2.15-.86,2.41-1.84.7-2.61,1.39-5.22,2.09-7.83.46-1.72-.82-2.97-2.41-3.16-2.48-.3-4.96-.6-7.44-.91l2.41,3.16.5-1.51-3.08,1.75c2.5.35,5,.71,7.5,1.06,1,.14,2.35-.07,2.82-1.15l1.53-3.52-2.82,1.15,2.67.38c1,.14,2.35-.07,2.82-1.15,1.38-3.18,2.77-6.35,4.15-9.53.78-1.79-.14-3.6-2.16-3.76-6.49-.51-12.98-1.02-19.46-1.53-.94-.07-1.87-.15-2.81-.22l1.26,4.66h0c1.94-1.47,1.37-4.52-1.26-4.66-3.85-.2-7.7-.4-11.55-.61-1.49-.08-3.01-.27-4.5-.24-1.97.05-3.46,2.61-4.64,3.95l1.77-.73c-1.16-.06-2.23-.21-3.17.69-.53.51-.99,1.12-1.47,1.67-1.14,1.29-2.27,2.59-3.41,3.88l4.18,2.43c1.25-2.98,2.5-5.96,3.75-8.94.66-1.56-.97-3.13-2.41-3.16-4.93-.12-9.87-.24-14.8-.36-1.01-.02-2.22.79-2.41,1.84l-.59,3.24,2.41-1.84-3.61-.09c-1.01-.02-2.22.79-2.41,1.84l-.43,2.32h4.82c-1.38-4.71-5.6-6.61-10.18-7.11-5.59-.62-11.15.61-16.62,1.6-1.98.36-3.95.71-5.93,1.07-.8.14-1.58.97-1.75,1.75l-.54,2.49,1.75-1.75-3.66.66c-.8.14-1.58.97-1.75,1.75l-.42,1.9,4.18-1.1c-5.36-5.51-13.93-8.11-21.34-5.73-2.1.67-4.13,1.64-5.99,2.82s-3.4,2.56-5.15,3.76c-3.84,2.65-7.01,6.04-9.59,9.91-1.79,2.68,2.54,5.19,4.32,2.52,2.09-3.12,4.7-5.97,7.8-8.11s5.92-4.71,9.59-5.96c5.88-2,12.53-.09,16.83,4.33,1.26,1.3,3.77.75,4.18-1.1l.42-1.9-1.75,1.75,3.66-.66c.8-.14,1.58-.97,1.75-1.75l.54-2.49-1.75,1.75c3.7-.67,7.39-1.34,11.09-2,.29-.05.58-.1.87-.16.12-.02.59-.1.19-.04,2.01-.31,4.07-.44,6.1-.44,1.58,0,2.8.07,4.09.35.51.11,1,.25,1.49.42.22.07.68.29.22.07.24.12.48.23.71.37.21.12.41.26.62.4-.43-.29-.14-.13.08.09.13.13.26.27.39.4.44.42-.15-.34.06.07.15.3.33.65.52.92.19.29-.18-.59-.03-.05.05.18.12.36.17.54.65,2.22,4.35,2.54,4.82,0l.43-2.32-2.41,1.84,3.61.09c1.01.02,2.22-.79,2.41-1.84l.59-3.24-2.41,1.84c4.93.12,9.87.24,14.8.36l-2.41-3.16c-1.25,2.98-2.5,5.96-3.75,8.94-.97,2.32,2.6,4.22,4.18,2.43s3.27-3.73,4.91-5.59l-1.77.73c.57.03,1.15.11,1.71.03.89-.13,1.39-.64,1.94-1.26l2.32-2.64-1.77.73c5.36.28,10.73.56,16.09.84l-1.26-4.66h0c-1.98,1.5-1.33,4.46,1.26,4.66,6.49.51,12.98,1.02,19.46,1.53.94.07,1.87.15,2.81.22l-2.16-3.76c-1.38,3.18-2.77,6.35-4.15,9.53l2.82-1.15-2.67-.38c-1-.14-2.35.07-2.82,1.15l-1.53,3.52,2.82-1.15c-2.5-.35-5-.71-7.5-1.06-1.4-.2-2.6.33-3.08,1.75l-.5,1.51c-.57,1.7.91,2.98,2.41,3.16,2.48.3,4.96.6,7.44.91l-2.41-3.16c-.7,2.61-1.39,5.22-2.09,7.83l2.41-1.84-3.27-.35c-1.07-.11-2.15.86-2.41,1.84l-.93,3.5,2.41-1.84c-2.35-.25-4.7-.51-7.06-.76-1.13-.12-2.07.87-2.41,1.84l-.71,2.04c-.56,1.59.89,3.12,2.41,3.16,4.06.11,8.11.22,12.17.33l-2.41-3.16c-.96,2.86-1.92,5.71-2.88,8.57l2.41-1.84-3.14-.03c-1.15-.01-2.06.79-2.41,1.84l-1.07,3.18,2.41-1.84c-7-.07-14-.14-21-.21l2.16,3.76c3.61-8.54,7.21-17.07,10.82-25.61.51-1.21,1.02-2.41,1.53-3.62.75-1.77-.11-3.63-2.16-3.76l-2.5-.16,2.41,3.16c.8-2.39,1.59-4.78,2.39-7.17.65-1.94-1.92-4.16-3.67-2.82-5.34,4.05-10.67,8.1-16.01,12.15-.78.59-1.55,1.18-2.33,1.77-.9.68-1.47,1.66-1.15,2.82,1.78,6.51,3.57,13.03,5.35,19.54l2.41-3.16-5.03.1c-1.62.03-2.85,1.57-2.41,3.16l.84,3.05,2.41-3.16c-3.85.07-7.69.15-11.54.22l2.41,1.84-2.04-8.23c-.62-2.51-4.07-2.24-4.82,0l-1.78,5.35,2.41-1.84-3.19.14c-1.16.05-2.05.75-2.41,1.84l-1,3,2.41-1.84c-3.43.15-6.85.31-10.28.46l2.41,3.16,1.13-2.98c.56-1.47-.89-3.26-2.41-3.16l-4.79.32c-1.61.11-2.86,1.51-2.41,3.16l.76,2.82,2.41-3.16c-4.14.27-8.27.54-12.41.82l2.41,1.84c-.53-2.55-1.06-5.11-1.59-7.66s-4.09-2.18-4.82,0c-.57,1.71-1.14,3.42-1.71,5.13l2.41-1.84-3.22.2c-1.16.07-2.04.73-2.41,1.84l-.98,2.94,2.41-1.84c-4.08.26-8.16.52-12.24.78l2.41,3.16c3.87-9.4,7.75-18.81,11.62-28.21.55-1.33,1.1-2.66,1.64-3.99.87-2.11-1.94-3.82-3.67-2.82l-3.52,2.03c-1.2.69-1.53,2.23-.9,3.42.1.18.19.37.29.56l.9-3.42c-.3.17-.61.33-.89.51-1.27.84-1.22,2-1.32,3.36-.13,1.77-.53,3.52-1.06,5.22-1.18,3.77-3.19,7.36-5.73,10.38-1.21,1.43-2.53,2.77-3.96,3.98s-3.13,2.27-4.64,3.5c-2.73,2.24-6.04,4.02-9.55,4.6-1.81.3-3.72.19-5.44-.47-1.01-.38-1.95-1.04-2.87-1.59l-1.26,4.66h.27c2.05,0,3.45-2.81,1.77-4.27-3.25-2.82-3.93-7.18-3.47-11.27.25-2.24.9-4.47,1.73-6.56.43-1.07.94-2.11,1.49-3.12.61-1.11,1.84-2.45,1.84-3.75,0-3.22-5-3.22-5,0Z"/>
        <path class="stPrivateSnorkeling5" d="M188.6,114.72l-.1.27v.04c1.51-.2,3.03-.4,4.56-.6-.06-.11-.13-.22-.2-.32l-2.16,3.76h.27s.03.01.04.01c.34.01.67-.06.96-.22.31-.1.58-.27.8-.52.24-.23.42-.49.52-.8.16-.3.23-.62.22-.96l-.09-.66c-.12-.42-.33-.79-.64-1.1l-.51-.39c-.39-.23-.81-.34-1.26-.34h-.27s-.03-.01-.04-.01c-.45,0-.87.12-1.26.34-.38.22-.67.52-.9.9-.23.39-.34.81-.34,1.26,0,.45.12.87.34,1.26.07.11.13.21.2.32l.39.51.51.39.6.25c.33.1.66.12,1,.04.23,0,.44-.06.63-.17.21-.06.4-.17.55-.32.19-.11.34-.26.45-.45.22-.24.37-.52.45-.85l.1-.27v-.04c.12-.33.13-.66.06-1-.02-.33-.11-.64-.3-.93-.16-.29-.37-.53-.64-.7-.24-.22-.52-.37-.85-.45l-.66-.09c-.45,0-.87.12-1.26.34l-.51.39c-.31.31-.52.68-.64,1.1Z"/>
        <path class="stPrivateSnorkeling5" d="M211.09,132.58c1.95-1.04,3.54-2.38,5.27-3.71,1.56-1.2,3.24-2.15,4.64-3.56,2.72-2.76,4.32-6.22,4.78-10.04l-2.5,2.5.9.02-2.41-3.16c-3.14,8.28-6.28,16.57-9.43,24.85-.45,1.19-.9,2.37-1.35,3.56h4.82c-1.19-4.42-2.38-8.84-3.57-13.26-.84-3.1-5.66-1.79-4.82,1.33,1.19,4.42,2.38,8.84,3.57,13.26.69,2.55,3.99,2.19,4.82,0,3.14-8.28,6.28-16.57,9.43-24.85.45-1.19.9-2.37,1.35-3.56.59-1.57-.92-3.14-2.41-3.16l-.9-.02c-1.47-.03-2.34,1.18-2.5,2.5-.33,2.74-1.89,5.23-3.89,7.06-1.26,1.15-2.81,1.88-4.06,3.01s-2.72,2.11-4.26,2.93c-2.84,1.52-.32,5.83,2.52,4.32Z"/>
        <path class="stPrivateSnorkeling5" d="M262.32,106.93c-.97-.08-1.94-.15-2.91-.23l1.26,4.66c1.16-.88,2.33-1.77,3.49-2.65l.5-.38-3.67-2.82c-.32.95-.63,1.9-.95,2.85l-.14.41c-.2.6-.06,1.4.25,1.93s.9,1.01,1.49,1.15c.64.15,1.36.11,1.93-.25s.94-.85,1.15-1.49c.32-.95.63-1.9.95-2.85l.14-.41.09-.66-.09-.66-.25-.6c-.16-.29-.37-.53-.64-.7-.16-.15-.34-.26-.55-.32-.19-.11-.41-.17-.63-.17-.22-.06-.44-.06-.66,0-.33.02-.64.11-.93.3-1.16.88-2.33,1.77-3.49,2.65l-.5.38-.51.39c-.24.23-.42.49-.52.8-.11.19-.17.41-.17.63-.07.33-.06.66.04,1,.13.41.35.78.64,1.1.45.5,1.13.68,1.77.73.97.08,1.94.15,2.91.23.61.05,1.35-.31,1.77-.73s.76-1.15.73-1.77-.24-1.32-.73-1.77l-.51-.39c-.39-.23-.81-.34-1.26-.34Z"/>
      </g>
    </g>
    <g>
      <polygon class="stPrivateSnorkeling5" points="293.31 147.18 294.41 143.9 297.52 144.03 300.19 136.05 289.95 135.76 303.05 109.62 290.25 108.23 288.82 111.68 286.06 111.38 271.6 146.23 293.31 147.18"/>
      <path class="stPrivateSnorkeling5" d="M295.72,147.84l1.1-3.28-2.41,1.84,3.11.14c1.14.05,2.07-.82,2.41-1.84.89-2.66,1.78-5.32,2.67-7.98.53-1.59-.87-3.12-2.41-3.16-3.41-.1-6.83-.19-10.24-.29l2.16,3.76c3.82-7.62,7.64-15.24,11.46-22.86.55-1.09,1.1-2.19,1.65-3.28.91-1.81-.24-3.55-2.16-3.76-4.27-.46-8.53-.93-12.8-1.39-1.18-.13-2.02.89-2.41,1.84-.48,1.15-.95,2.3-1.43,3.45l2.41-1.84-2.76-.3c-1.18-.13-2.02.89-2.41,1.84-4.22,10.17-8.44,20.35-12.66,30.52l-1.79,4.33c-.66,1.59.97,3.1,2.41,3.16,6.33.28,12.66.55,18.99.83l2.72.12c3.22.14,3.21-4.86,0-5-6.33-.28-12.66-.55-18.99-.83l-2.72-.12,2.41,3.16c4.22-10.17,8.44-20.35,12.66-30.52l1.79-4.33-2.41,1.84,2.76.3c1.18.13,2.02-.89,2.41-1.84.48-1.15.95-2.3,1.43-3.45l-2.41,1.84c4.27.46,8.53.93,12.8,1.39l-2.16-3.76c-3.82,7.62-7.64,15.24-11.46,22.86l-1.65,3.28c-.85,1.7.19,3.71,2.16,3.76,3.41.1,6.83.19,10.24.29l-2.41-3.16c-.89,2.66-1.78,5.32-2.67,7.98l2.41-1.84-3.11-.14c-1.14-.05-2.07.82-2.41,1.84l-1.1,3.28c-1.02,3.06,3.8,4.37,4.82,1.33Z"/>
    </g>
    <g>
      <path class="stPrivateSnorkeling5" d="M376.15,133.42l9.13-6.81-.1-.34c-.08-.27-1.02-2.73-9.57-4.57-6.33-2.03-14.2.08-19.61,5.27-2.01,1.15-3.75,2.58-5.24,4.23l7.01-13.06-12.52-2.31-1.46,3.65-2.74-.51-1.06,2.67.2-6.69-12.23-1.96-.31,3.77-3.48-.56,1.7-3.53-10.93-1.53-1.55,3.51-2.66-.38-14.57,33.08,9.98.7,1.6-3.33,2.6.18,13.32-27.67-.47,5.66-11.98,25.54,9.77.88,1.38-3.4,2.82.25,2.06-5.08,1.02,8.96,9.32,1.04,1.83-3.41,2.37.27,4.81-8.96c-.41,1.84-.47,3.69-.1,5.45.72,3.4,2.88,6.19,6.1,7.87,2.9,1.51,6.44,2.47,10.01,2.47,4.26,0,8.54-1.37,11.75-4.82,2.98-1.48,5.32-3.88,6.94-7.12.28-.56.43-1.09.56-1.55l.05-.16c.12-.43.58-.69,1.02-.58l1.76.47,1.86-5.6-10.38-1.97Z"/>
      <path class="stPrivateSnorkeling5" d="M377.42,135.57c3.04-2.27,6.09-4.54,9.13-6.81.89-.67,1.48-1.67,1.15-2.82-1.02-3.53-5.32-5-8.46-5.92s-6.68-1.81-10.13-1.54-7.05,1.37-10.15,3.16c-1.73,1-3.13,2.38-4.76,3.48-1.88,1.27-3.64,2.61-5.19,4.29l3.93,3.03c2.34-4.35,4.67-8.71,7.01-13.06.7-1.31.16-3.37-1.49-3.67-4.17-.77-8.35-1.54-12.52-2.31-1.45-.27-2.54.4-3.08,1.75l-1.46,3.65,3.08-1.75-2.74-.51c-1.45-.27-2.54.4-3.08,1.75l-1.06,2.67,4.91.66c.07-2.23.14-4.46.2-6.69.03-.99-.79-2.24-1.84-2.41-4.08-.65-8.15-1.31-12.23-1.96-1.69-.27-3.02.66-3.16,2.41l-.31,3.77,3.16-2.41-3.48-.56,1.49,3.67c.57-1.18,1.13-2.35,1.7-3.53.61-1.27.24-3.43-1.49-3.67-3.64-.51-7.29-1.02-10.93-1.53-1-.14-2.35.07-2.82,1.15-.52,1.17-1.03,2.34-1.55,3.51l2.82-1.15-2.66-.38c-1-.14-2.35.07-2.82,1.15-4.25,9.65-8.5,19.29-12.74,28.94l-1.82,4.14c-.78,1.78.14,3.62,2.16,3.76l9.98.7c.81.06,1.8-.5,2.16-1.24l1.6-3.33-2.16,1.24,2.6.18c.81.06,1.8-.5,2.16-1.24,3.88-8.06,7.76-16.13,11.65-24.19.56-1.16,1.11-2.32,1.67-3.47l-4.66-1.26-.47,5.66.34-1.26c-3.5,7.45-6.99,14.91-10.49,22.36-.5,1.06-.99,2.12-1.49,3.18-.84,1.8.19,3.58,2.16,3.76,3.26.29,6.51.59,9.77.88,1.18.11,2.02-.87,2.41-1.84l1.38-3.4-2.41,1.84,2.82.25c1.18.11,2.02-.87,2.41-1.84.69-1.69,1.38-3.39,2.06-5.08l-4.91-.66c.34,2.99.68,5.97,1.02,8.96.17,1.46,1.02,2.33,2.5,2.5,3.11.35,6.21.69,9.32,1.04.82.09,1.78-.53,2.16-1.24l1.83-3.41-2.16,1.24,2.37.27c.82.09,1.78-.53,2.16-1.24,1.6-2.99,3.21-5.98,4.81-8.96l-4.57-1.93c-.82,3.95-.42,8.16,1.96,11.53,2.22,3.16,5.47,5.06,9.09,6.24,3.86,1.26,8.11,1.55,12.08.65,1.85-.42,3.68-1.16,5.3-2.16s2.89-2.29,4.45-3.3c1.77-1.14,3.27-2.57,4.54-4.24.59-.77,1.12-1.58,1.58-2.43.3-.56.57-1.14.79-1.74.07-.19.14-.38.19-.58.27-.91.05-.05-.1.09l-1.1.64c-.5.17-.92-.18-.38,0,.18.06.37.1.56.15l.88.24c1.36.36,2.65-.45,3.08-1.75.62-1.87,1.24-3.74,1.86-5.6.4-1.21-.47-2.83-1.75-3.08-3.46-.66-6.92-1.31-10.38-1.97-1.33-.25-2.7.37-3.08,1.75-.34,1.22.41,2.82,1.75,3.08,3.46.66,6.92,1.31,10.38,1.97l-1.75-3.08c-.62,1.87-1.24,3.74-1.86,5.6l3.08-1.75c-.99-.27-2.04-.67-3.08-.53-2.38.32-2.48,2.33-3.4,4.03-.78,1.44-1.73,2.72-2.95,3.82-.52.47-1.08.88-1.69,1.25-.88.54-1.62,1.05-2.38,1.76-2.49,2.33-5.87,3.34-9.24,3.34s-7.47-.95-10.31-3.09c-2.99-2.25-4.03-5.95-3.29-9.53.55-2.65-3.16-4.55-4.57-1.93-1.6,2.99-3.21,5.98-4.81,8.96l2.16-1.24-2.37-.27c-.82-.09-1.78.53-2.16,1.24l-1.83,3.41,2.16-1.24c-3.11-.35-6.21-.69-9.32-1.04l2.5,2.5c-.34-2.99-.68-5.97-1.02-8.96s-3.83-3.33-4.91-.66c-.69,1.69-1.38,3.39-2.06,5.08l2.41-1.84-2.82-.25c-1.18-.11-2.02.87-2.41,1.84l-1.38,3.4,2.41-1.84c-3.26-.29-6.51-.59-9.77-.88l2.16,3.76c3.96-8.44,8.01-16.85,11.89-25.33.45-.98.48-1.96.57-3.01l.34-4.12c.2-2.44-3.6-3.46-4.66-1.26-3.88,8.06-7.76,16.13-11.65,24.19-.56,1.16-1.11,2.32-1.67,3.47l2.16-1.24-2.6-.18c-.81-.06-1.8.5-2.16,1.24l-1.6,3.33,2.16-1.24-9.98-.7,2.16,3.76c4.25-9.65,8.5-19.29,12.74-28.94.61-1.38,1.22-2.76,1.82-4.14l-2.82,1.15,2.66.38c1,.14,2.35-.07,2.82-1.15.52-1.17,1.03-2.34,1.55-3.51l-2.82,1.15c3.64.51,7.29,1.02,10.93,1.53l-1.49-3.67c-.57,1.18-1.13,2.35-1.7,3.53-.62,1.3-.23,3.4,1.49,3.67l3.48.56c1.69.27,3.02-.67,3.16-2.41l.31-3.77-3.16,2.41c4.08.65,8.15,1.31,12.23,1.96l-1.84-2.41c-.07,2.23-.14,4.46-.2,6.69-.04,1.23.98,2.31,2.17,2.46,1.32.16,2.27-.6,2.74-1.79l1.06-2.67-3.08,1.75,2.74.51c1.45.27,2.54-.4,3.08-1.75l1.46-3.65-3.08,1.75c4.17.77,8.35,1.54,12.52,2.31l-1.49-3.67c-2.34,4.35-4.67,8.71-7.01,13.06-1.3,2.42,1.93,5.19,3.93,3.03.75-.82,1.55-1.61,2.42-2.3s1.95-1.2,2.81-1.93c1.45-1.22,2.84-2.34,4.54-3.23,3.08-1.61,6.73-2.42,10.2-1.97,1.79.24,3.65.8,5.39,1.31,1.48.43,2.51.78,3.75,1.48.22.13.44.27.66.4.6.36-.13-.16.12.07.18.17.37.43.57.56-.06-.04-.3-.53-.05,0-.24-.5-.25-.66-.08-.08l1.15-2.82c-3.04,2.27-6.09,4.54-9.13,6.81-1.08.81-1.63,2.16-.9,3.42.62,1.07,2.33,1.71,3.42.9Z"/>
    </g>
    <g>
      <path class="stPrivateSnorkeling5" d="M378.04,256.86l-.16-.23c-.19-.26-.43-.49-.71-.68-.35-.29-.76-.49-1.2-.58l-17.91-7.85-5.49-19.39c-.31-1.14-1.18-1.94-2.33-2.18-1.19-.35-2.38-.02-3.19.89l-13.42,15.07-19.46-.74c-.69-.18-1.42-.1-2.01.22-.37.14-.7.36-.98.63-.03-1.07-.58-1.99-1.53-2.46-.36-.24-.79-.38-1.26-.43l-8.17-2.44c-3.52-1.05-7.05-2.11-10.57-3.16-2.61-6.19-5.23-12.38-7.83-18.57-.46-1.09-1.41-1.78-2.57-1.88-1.23-.21-2.37.27-3.06,1.27l-3.21,4.64c-2.75,3.99-5.51,7.97-8.25,11.96l-19.4,1.66c-.71-.11-1.41.06-1.97.46-.05.03-.1.06-.14.09-.04-.02-.07-.03-.11-.04-.41-.22-.85-.33-1.31-.34-6.38-1.34-12.76-2.67-19.14-4l-2.12-4.03c-2.42-4.6-4.83-9.21-7.26-13.81-.54-1.03-1.57-1.65-2.71-1.65h0c-1.23-.11-2.34.47-2.94,1.53l-10.03,17.51-19.19,3.28c-.49-.03-.97.07-1.42.3l-19.49-1.49-11.6-16.48c-.67-.96-1.75-1.43-2.92-1.29-1.24.06-2.25.77-2.72,1.9l-7.68,18.66-9,2.77c-3.2.99-6.41,1.97-9.61,2.96-.71.05-1.35.37-1.83.87-.16.13-.3.29-.43.46-.04,0-.08.01-.12.02l-19.54,1.01c-4.54-4.96-9.08-9.91-13.6-14.87-.81-.88-1.93-1.2-3.05-.9-1.22.22-2.14,1.06-2.45,2.23l-5.24,19.48-17.73,8.07c-.71.14-1.31.54-1.7,1.1-.84.9-1,2.28-.42,3.49.26.62.67,1.1,1.2,1.42l16.79,10.92,2.3,20.28c.12,1.04.71,1.83,1.67,2.22.42.17.89.26,1.37.26.87,0,1.75-.28,2.39-.79l15.45-12.48,9.56,1.95c3.29.67,6.58,1.35,9.87,2.01,1.25.26,2.77-.27,3.61-1.25.67-.79.83-1.75.46-2.72l-7.3-19.08c3.04-5.37,6.08-10.74,9.12-16.12l13.22,11.24-.31,20.4c-.02,1.05.48,1.91,1.38,2.42,1.11.63,2.71.61,3.79-.05l16.91-10.42c3.09,1.06,6.18,2.11,9.27,3.17,3.17,1.08,6.33,2.16,9.5,3.25,1.21.42,2.78.09,3.73-.77.77-.69,1.05-1.63.81-2.65-1.6-6.62-3.21-13.23-4.8-19.85l10.29-13.73,11.33,12.5-2.95,20.19c-.15,1.03.22,1.95,1.05,2.58,1.02.77,2.61.96,3.77.44l4.44-2c4.56-2.05,9.11-4.09,13.67-6.13,2.88,1.43,5.76,2.85,8.64,4.27,3.04,1.5,6.09,3.01,9.13,4.52,1.15.57,2.75.44,3.81-.29.84-.59,1.25-1.48,1.14-2.52l-2.2-20.31,13.36-13.69,11.3,14.79-2.24,9.63c-.8,3.41-1.59,6.82-2.38,10.24-.24,1.02.06,1.97.84,2.66.96.85,2.52,1.17,3.71.74,6.24-2.2,12.49-4.39,18.73-6.58l16.98,10.25c1.1.66,2.7.67,3.81.03.89-.52,1.36-1.37,1.34-2.41l-.48-20.42,15.13-13.1c.08-.07.14-.14.2-.21.03.51.17.98.43,1.4l10.11,17.3-2.92,7.94c-1.37,3.74-2.75,7.47-4.13,11.21-.36.98-.18,1.95.5,2.74.84.97,2.35,1.47,3.58,1.2l19.4-4.23,15.59,12.26c.64.5,1.52.77,2.37.77.49,0,.97-.09,1.41-.27.95-.4,1.53-1.2,1.64-2.24l2.03-20.32,16.63-11.14c.11-.07.21-.15.31-.24l.32-.27.52-.89c.05-.12.1-.24.14-.37l.02-.06c.29-.79.29-1.57.03-2.24l-.18-.39Z"/>
      <path class="stPrivateSnorkeling5" d="M380.2,255.6c-.44-.63-.89-1.14-1.5-1.61-.27-.21-.53-.41-.84-.57-.21-.11-1.3-.46-.64-.22-.23-.09-.46-.2-.69-.3l-3.88-1.7c-3.57-1.56-7.14-3.13-10.7-4.69l-2.63-1.15,1.15,1.49c-1.75-6.17-3.5-12.35-5.25-18.52-.5-1.75-1.24-3.34-2.92-4.26-2.49-1.37-5.41-.78-7.28,1.28-2.26,2.49-4.47,5.02-6.7,7.52s-4.31,4.84-6.46,7.26l1.77-.73c-3.7-.14-7.4-.28-11.1-.42l-6.71-.26c-.52-.02-1.04-.03-1.55-.06-.03,0-.07,0-.1,0,.71.05-1.05-.07-1.25-.05-1.35.13-2.49.76-3.5,1.63l4.27,1.77c-.25-2.95-2.07-4.65-4.84-5.36-1.5-.38-2.98-.89-4.46-1.33-4.69-1.4-9.38-2.81-14.07-4.2l1.49,1.15c-1.64-3.88-3.28-7.75-4.91-11.63-.83-1.96-1.65-3.93-2.48-5.89-.77-1.83-1.83-3.36-3.84-3.95-1.76-.51-3.7-.27-5.17.84-.79.59-1.33,1.38-1.88,2.18-.95,1.37-1.9,2.74-2.84,4.12-2.71,3.92-5.42,7.84-8.12,11.76l2.16-1.24c-3.56.31-7.13.61-10.69.92l-6.67.57c-1.85.16-3.8.07-5.41,1.07l1.93-.25c.49.2-.63-.26-.74-.29-.38-.1-.77-.12-1.16-.19-.8-.14-1.6-.33-2.39-.5-1.83-.38-3.67-.77-5.5-1.15-3.59-.75-7.18-1.5-10.77-2.25l1.49,1.15c-1.69-3.22-3.37-6.43-5.06-9.65-.76-1.44-1.51-2.88-2.27-4.32s-1.45-3.1-2.42-4.45c-1.68-2.33-5.12-3.05-7.61-1.57-1.88,1.12-2.88,3.58-3.93,5.42l-4.82,8.41c-1.09,1.9-2.17,3.79-3.26,5.69l1.49-1.15-10.21,1.75-6.56,1.12c-.65.11-1.3.23-1.95.33-.15.02-.29.06-.44.08h-.03c.51-.13.39-.13-.37,0-.59.1-1.1.31-1.65.55l1.26-.34c-6.5-.5-13-.99-19.49-1.49l2.16,1.24c-3.71-5.28-7.43-10.55-11.14-15.83-1.2-1.71-2.62-3.06-4.85-3.19-2.84-.17-4.89,1.5-5.93,4.01-1.28,3.1-2.55,6.2-3.83,9.3s-2.5,6.07-3.75,9.1l1.75-1.75c-2.6.8-5.21,1.61-7.81,2.41-1.77.55-3.54,1.09-5.31,1.64-1.6.49-3.2.99-4.8,1.48s-2.93.85-4.05,2.19l1.1-.64c1.17-.21-.02-.04-.33-.02l-2.28.12-6.62.34c-3.26.17-6.51.34-9.77.5l1.77.73c-4.15-4.53-8.3-9.06-12.44-13.6-.88-.96-1.69-1.94-2.9-2.5-1.38-.64-2.95-.64-4.38-.14-1.83.64-3.05,2.09-3.6,3.91-1.39,4.63-2.52,9.36-3.77,14.03l-1.44,5.34,1.15-1.49c-5.71,2.6-11.41,5.2-17.12,7.79-.2.09-.95.31-.36.12-1.8.6-3.3,2.18-3.78,4.03-.7,2.71.72,5.22,2.93,6.68,2.78,1.83,5.59,3.64,8.38,5.45s5.39,3.51,8.08,5.26l-1.24-2.16c.73,6.41,1.45,12.81,2.18,19.22.2,1.73.44,3.37,1.81,4.63,2.35,2.15,5.85,1.6,8.16-.24,2.54-2.02,5.05-4.08,7.57-6.12s5.15-4.16,7.72-6.24l-2.43.64c2.73.56,5.47,1.12,8.2,1.67,1.79.36,3.57.73,5.36,1.09,1.65.34,3.29.67,4.94,1.01,1.87.38,3.6.5,5.34-.44,2.38-1.28,3.58-3.92,2.71-6.51-.27-.82-.62-1.62-.93-2.42l-3.61-9.44c-.91-2.37-1.82-4.75-2.72-7.12l-.25,1.93c3.04-5.37,6.08-10.75,9.12-16.12l-3.93.51c4.41,3.75,8.81,7.49,13.22,11.24l-.73-1.77c-.1,6.43-.19,12.85-.29,19.28-.03,1.7.1,3.35,1.33,4.69,1.98,2.16,5.36,2.28,7.77.85,2.82-1.67,5.58-3.44,8.37-5.16s5.57-3.43,8.35-5.14l-1.93.25c4.14,1.42,8.29,2.83,12.43,4.25,2.1.72,4.19,1.58,6.33,2.17,1.93.53,4.02.21,5.63-1,1.79-1.33,2.4-3.36,1.98-5.5s-1.06-4.36-1.58-6.54c-1.08-4.44-2.15-8.87-3.22-13.31l-.25,1.93c3.43-4.58,6.86-9.15,10.29-13.73l-3.93.51c3.78,4.17,7.55,8.33,11.33,12.5l-.64-2.43c-.73,5.02-1.46,10.04-2.2,15.06-.27,1.82-.56,3.63-.79,5.46-.42,3.36,2.23,5.98,5.52,6.13,1.79.08,3.33-.76,4.9-1.47,5.41-2.43,10.82-4.86,16.23-7.28h-2.52c5.42,2.68,10.84,5.35,16.26,8.04,1.3.64,2.51,1.32,3.99,1.42,1.32.1,2.75-.23,3.87-.97,1.63-1.08,2.51-2.87,2.36-4.81-.37-4.9-1.06-9.8-1.59-14.68l-.59-5.49-.73,1.77c4.45-4.56,8.91-9.13,13.36-13.69l-3.93-.51c3.77,4.93,7.53,9.86,11.3,14.79l-.25-1.93c-.75,3.2-1.49,6.4-2.24,9.6-.45,1.95-.91,3.9-1.36,5.85-.49,2.11-1.55,4.69-1.07,6.86s2.31,3.72,4.39,4.15c2.34.49,4.38-.5,6.55-1.26,5.15-1.81,10.3-3.62,15.45-5.43l-1.93-.25c5.46,3.29,10.91,6.59,16.37,9.88,1.77,1.07,3.84,1.6,5.87.87,2.46-.88,3.69-2.96,3.65-5.5-.06-3.42-.16-6.83-.24-10.25-.08-3.24-.15-6.48-.23-9.71l-.73,1.77c2.55-2.21,5.11-4.42,7.66-6.63s5.35-4.26,7.68-6.68l-4.27-1.77c.21,1.86,1.07,3.16,1.97,4.71l3.48,5.95c1.81,3.1,3.62,6.19,5.43,9.29l-.25-1.93c-.92,2.49-1.83,4.98-2.75,7.47-.86,2.34-1.72,4.67-2.58,7.01-1.17,3.18-3.31,6.86-.58,9.84,1.57,1.72,3.94,2.25,6.16,1.81.85-.17,1.69-.37,2.54-.55l9.66-2.11c2.35-.51,4.71-1.03,7.06-1.54l-2.43-.64c5,3.93,10,7.87,15,11.8,1.76,1.39,3.62,2.23,5.94,1.84,2.75-.47,4.1-2.68,4.37-5.26.36-3.38.68-6.77,1.02-10.15s.65-6.53.98-9.79l-1.24,2.16c5.51-3.69,11.12-7.27,16.54-11.09,2.62-1.85,3.48-4.96,2.14-7.93-.55-1.23-2.34-1.53-3.42-.9-1.27.74-1.45,2.18-.9,3.42.03.07.13.21.13.29-.01-.45-.11-.05-.11-.03-.04.16-.08.32-.14.48-.06.18.22-.43,0-.02-.12.23-.27.43-.39.66.51-1.01.31-.26.12-.26-.29.01.2-.12.1-.08-.42.19-.82.55-1.2.8l-6.07,4.07-6.78,4.55c-1.5,1.01-3.57,1.93-3.8,3.89-.5,4.31-.86,8.64-1.3,12.96l-.66,6.61c-.02.2-.03.41-.06.61,0,.04,0,.08-.01.12.09-.52,0-.09-.1-.07-.29.08-.51.13-.81.06-.22-.05-.7-.33-.24-.03-.12-.08-.22-.18-.33-.26-3.87-3-7.7-6.06-11.55-9.09-1.23-.96-2.45-1.93-3.68-2.89-1.57-1.23-3.53-.42-5.31-.04-5.06,1.1-10.12,2.21-15.18,3.31-.42.09-.92.28-1.36.3-.26,0-.84-.11-1.01-.35-.35-.5.63-2.27.84-2.84,1.34-3.64,2.68-7.29,4.02-10.93l1.44-3.92c.34-.92.9-1.95.76-2.95-.2-1.46-1.52-3.03-2.24-4.26-2.57-4.4-5.14-8.79-7.71-13.19-.12-.21-.52-.66-.55-.92-.23-2.02-2.63-3.47-4.27-1.77-.77.81-1.69,1.5-2.53,2.23l-5.24,4.53-5.31,4.59c-.84.72-2.08,1.48-2.65,2.46-.64,1.1-.3,2.93-.27,4.13l.16,6.84.17,7.09c.03,1.12.28,2.49.09,3.6-.09.49-.81.49-1.4.23-.32-.14-.63-.38-.93-.56l-5.01-3.03c-3.56-2.15-7.08-4.38-10.68-6.45-1.07-.61-2.03-.54-3.2-.13-2.42.85-4.84,1.7-7.26,2.55s-4.84,1.7-7.26,2.55c-1.11.39-2.29.98-3.44,1.2-.3.06-1.03.1-1.24-.23-.28-.45.36-1.96.48-2.48.29-1.24.58-2.48.87-3.72.35-1.49.69-2.97,1.04-4.46.48-2.07.96-4.14,1.44-6.2.34-1.45,1.29-3.78.43-5.16-.74-1.18-1.72-2.26-2.57-3.36-2.71-3.54-5.42-7.09-8.12-10.63l-.55-.72c-.95-1.24-2.69-1.77-3.93-.51-2.29,2.34-4.57,4.68-6.86,7.02l-4.58,4.69c-.8.82-1.97,1.71-2.44,2.78s-.05,2.48.07,3.56l.7,6.45c.4,3.67.85,7.34,1.19,11.02.04.43.22.61-.21.8-.59.27-1.08.03-1.6-.23-1.09-.54-2.17-1.08-3.26-1.61-4.26-2.11-8.52-4.21-12.78-6.32-1.4-.69-2.32-1.1-3.83-.43-1.14.5-2.28,1.02-3.42,1.53-2.2.99-4.41,1.98-6.61,2.97-2.33,1.05-4.66,2.09-6.99,3.14-.27.12-.55.27-.83.37.33-.12.2,0-.16-.03-.32-.02-.53-.11-.83-.19-.17-.05-.22-.49-.19.02,0-.12.04-.26.06-.38.21-1.54.45-3.07.67-4.6l1.9-13.01c.22-1.53.76-3.31-.33-4.6-.71-.84-1.49-1.64-2.23-2.46l-8.48-9.36-.62-.69c-1.19-1.31-3.02-.7-3.93.51-1.89,2.52-3.78,5.04-5.67,7.56l-3.61,4.81c-.3.39-.63.78-.89,1.19-.84,1.31-.18,2.88.15,4.26,1.07,4.44,2.15,8.88,3.22,13.31.25,1.05.51,2.1.76,3.15.12.5.48,1.08.09,1.44-.33.3-.88.2-1.26.12-1.14-.26-2.28-.78-3.39-1.16-4.2-1.44-8.4-2.87-12.6-4.3-1.52-.52-3.24-1.5-4.79-.65-.34.19-.67.41-1,.61l-10.18,6.27-4.51,2.78c-.55.34-1.81,1.35-2.46.77-.3-.27-.06-1.92-.05-2.39l.09-5.75.18-11.6c.02-1.12-.06-2.09-.96-2.92-1.08-.99-2.24-1.9-3.35-2.85l-8.98-7.64-.64-.55c-1.2-1.02-3.08-.99-3.93.51-2.2,3.89-4.4,7.78-6.6,11.67-.52.92-1.04,1.84-1.56,2.76-.62,1.1-1.57,2.29-1.21,3.62.06.22.16.43.24.64l3.98,10.41,2.14,5.6c.3.79.73,1.61.93,2.43.29,1.2-1.51.79-2.17.66-2.12-.43-4.23-.86-6.35-1.29-1.78-.36-3.56-.73-5.35-1.09l-5.9-1.2c-1.14-.23-2.1-.28-3.1.51-.2.15-.39.31-.58.47-2.92,2.36-5.85,4.73-8.77,7.09l-4.42,3.57c-.43.35-.87.7-1.3,1.05-.1.08-.21.18-.32.25-.02.01-.03.03-.05.04.51-.35-.31.08-.55.08-.13,0-.48,0-.54-.03-.09-.02-.19-.54-.07,0,0-.03,0-.07-.01-.1-.06-.39-.09-.79-.13-1.18l-.59-5.2-1.37-12.06c-.16-1.44-.13-2.95-1.44-3.88-.76-.54-1.57-1.02-2.35-1.53l-10.51-6.83c-1.19-.77-2.4-1.53-3.57-2.32-.25-.17-.42-.25-.56-.53-.46-.93.54-1.14,1.17-1.42,2.91-1.29,5.8-2.64,8.7-3.96l5.81-2.65c1.02-.46,2.13-.86,3.1-1.41,1.12-.63,1.29-1.81,1.59-2.92l1.39-5.16,3.1-11.52c.21-.77.24-1.85,1.08-1.88.53-.02.77.42,1.12.81.83.91,1.66,1.81,2.49,2.72,1.49,1.63,2.99,3.26,4.48,4.9s2.99,3.26,4.48,4.9c1.01,1.1,1.92,2.52,3.55,2.54,1.2.01,2.41-.12,3.61-.19l12.57-.65c1.07-.06,2.14-.07,3.2-.17.64-.05,1.15-.15,1.68-.56.24-.19.44-.52.7-.68s.63-.2.94-.28c2.08-.52,4.13-1.27,6.18-1.91,3.84-1.18,7.69-2.37,11.53-3.56,1.11-.34,1.92-.77,2.41-1.95.09-.23.19-.45.28-.68l1.74-4.23,4.76-11.57.67-1.63c.06-.14.11-.28.17-.42.02-.03.02-.07.04-.1-.19.36-.08.02.07,0,.12-.02.37-.16.6-.13.08.01.26.07.35.08.19.02.33.36.07.03.2.26.38.54.57.81,2.24,3.18,4.47,6.35,6.71,9.53l3.21,4.56c.87,1.24,1.58,2.63,3.26,2.8,2.91.3,5.84.45,8.76.67,3.47.27,6.97.68,10.45.8.81.03,1.59-.25,2.37-.37.25-.04.51-.09.76-.13l4.66-.8c4.02-.69,8.05-1.38,12.07-2.07,1.28-.22,2.42-.24,3.22-1.47.55-.84,1.01-1.75,1.5-2.62l6.25-10.91c.69-1.2,1.41-2.39,2.07-3.61.15-.27.25-.53.55-.63,1.07-.38,1.55,1.5,1.89,2.15,2.08,3.96,4.16,7.91,6.23,11.87.73,1.4,1.38,2.9,2.22,4.24.63,1.01,1.61,1.19,2.7,1.41s2.23.46,3.35.7c2.15.45,4.31.9,6.46,1.35s4.47.93,6.7,1.4c.82.17,1.65.3,2.45.51.5.13.85.29,1.4.21.49-.07.85-.43,1.28-.52.88-.18,1.96-.11,2.87-.19l5.97-.51c3.57-.31,7.14-.58,10.7-.92,1.04-.1,1.86-.37,2.52-1.27,1.34-1.82,2.57-3.73,3.85-5.58,1.73-2.51,3.46-5.01,5.2-7.52l1.81-2.61c.3-.43.45-.89.97-.96.4-.06.59.1.8.37.59.73.87,2.02,1.24,2.89.86,2.04,1.72,4.08,2.58,6.12s1.76,4.17,2.64,6.26c.44,1.05.85,2.14,1.34,3.17.65,1.35,1.71,1.61,3.07,2.01,3.2.95,6.4,1.91,9.6,2.87,1.8.54,3.6,1.08,5.4,1.61.46.14,3.29.72,3.33,1.18.19,2.22,2.57,3.22,4.27,1.77.42-.36.78-.15,1.41-.11.44.03.87.03,1.31.05l4.91.19,11.08.42c1.01.04,2.3.27,3.22-.27.74-.43,1.3-1.29,1.86-1.91l7.31-8.21,3.4-3.82c.43-.48.91-1.28,1.44-1.65.96-.66,1.27.35,1.46,1.04l1.14,4.03,3.15,11.11c.31,1.1.59,2.21.93,3.3s.96,1.62,1.91,2.04l10.51,4.61,5.2,2.28c.44.19.88.39,1.32.58.06.03.12.05.18.08.04.02.8.33.92.38.19.03.28.11.28.24-.13-.18-.14-.19-.02-.02.77,1.1,2.19,1.62,3.42.9,1.09-.64,1.68-2.31.9-3.42Z"/>
    </g>
  </g>
  <g>
    <g>
      <path class="stPrivateSnorkeling3" d="M123.17,199.69l2.28,11.68c.49,2.46,1.15,3.98,1.99,4.57s1.97.77,3.39.52c.95-.17,1.56-.21,1.82-.12s.44.31.52.68c.1.53-.43.91-1.62,1.16-.53.1-1.78.29-3.75.56-2.65.38-4.49.67-5.54.88-1.15.22-2.71.61-4.69,1.16-1.63.46-2.82.76-3.59.9-.66.13-1.05-.09-1.16-.67-.09-.46.41-.87,1.51-1.26,1.09-.39,1.84-.83,2.22-1.35s.59-1.31.59-2.41-.43-3.94-1.31-8.51c-.89-4.58-1.67-8.61-2.36-12.09l-1.95-9.66c-.26-1.31-.79-2.29-1.58-2.96s-1.98-.83-3.58-.52c-.71.14-1.13-.08-1.25-.65-.13-.68.43-1.13,1.7-1.39l.8-.12c1.16-.17,2.49-.4,4.01-.7l12.5-2.67c6.35-1.26,10.97-1.18,13.85.22s4.66,3.8,5.34,7.2c.67,3.39-.13,6.38-2.42,8.98s-6.48,4.48-12.59,5.69c-1.41.28-3.14.58-5.15.89h0ZM122.74,197.51c1.19-.13,2.1-.26,2.74-.38,3.26-.65,5.51-2.11,6.73-4.39s1.58-4.78,1.03-7.51c-.51-2.58-1.63-4.36-3.37-5.35-1.75-.99-3.69-1.28-5.86-.85-1.12.22-2.67.71-4.63,1.46l3.37,17.02h-.01Z"/>
      <path class="stPrivateSnorkeling3" d="M163.36,182.27c1.1-3.15,2.52-5.56,4.25-7.26s3.77-2.69,6.12-2.98c2.24-.28,4.09.16,5.58,1.28,1.49,1.12,2.36,2.66,2.59,4.59.19,1.52-.13,2.88-.96,4.07s-1.92,1.87-3.3,2.04c-1.02.12-1.91-.03-2.65-.48-.75-.44-1.57-1.3-2.5-2.56-1.29-1.81-2.34-2.66-3.13-2.57-1.09.13-2.18,1.38-3.29,3.75-1.11,2.37-1.28,6.72-.5,13.05.98,8,1.8,12.41,2.45,13.23.66.82,1.9,1.12,3.75.9,1.61-.2,2.47.14,2.58,1.02.1.82-.65,1.33-2.22,1.52-.88.11-2.17.19-3.86.23-1.55.06-2.99.17-4.34.32-2.9.36-5.77.81-8.59,1.37-1.19.23-1.89.37-2.09.39-1.23.16-1.9-.23-2.02-1.16-.1-.8.57-1.32,2-1.56,1.4-.23,2.35-.68,2.82-1.35.49-.67.6-2.01.36-4.04l-1.17-11.01c-.28-2.22-.7-4.98-1.28-8.27-.58-3.29-.99-5.24-1.21-5.85-.22-.61-.67-1.13-1.33-1.56-.67-.42-1.51-.62-2.55-.58-1.07.01-1.76-.04-2.06-.18-.3-.12-.48-.44-.53-.93-.1-.79.59-1.29,2.05-1.5,2.69-.36,7.24-1.28,13.65-2.75l1.39,8.81h0Z"/>
      <path class="stPrivateSnorkeling3" d="M200.52,169.9c.39,4.13.93,11.48,1.63,22.07l.49,9.52c.12,1.91.52,3.18,1.2,3.78.68.61,1.75.97,3.2,1.08,1.67.1,2.52.51,2.57,1.26.06.8-.57,1.23-1.87,1.32-.62.04-1.7.07-3.24.08-3.26,0-6.48.11-9.66.32-1.57.1-3.15.29-4.76.56-.97.2-1.62.3-1.98.32-1.3.09-1.97-.27-2.02-1.07-.04-.77.78-1.28,2.48-1.53,2.26-.36,3.47-1.2,3.66-2.52.18-1.33.13-4-.13-8.01-.34-5.19-.73-9.95-1.19-14.3-.46-4.35-.91-6.81-1.4-7.4-.48-.59-1.66-.92-3.54-1.01-1.46-.06-2.2-.43-2.26-1.15-.04-.71.67-1.17,2.14-1.38l.92-.14,13.75-1.79h.01ZM199.8,159.03c.11,1.73-.41,3.28-1.58,4.62s-2.62,2.06-4.37,2.18c-1.77.11-3.31-.41-4.64-1.58s-2.04-2.62-2.16-4.37c-.11-1.77.4-3.31,1.56-4.64s2.62-2.04,4.39-2.16c1.73-.11,3.28.41,4.62,1.57,1.33,1.16,2.06,2.61,2.18,4.39h0Z"/>
      <path class="stPrivateSnorkeling3" d="M233.96,196.17c1.89-4.13,3.65-8.45,5.27-13s2.42-7.37,2.42-8.49c0-1.19-.69-1.97-2.06-2.31-1.3-.34-1.96-.83-1.96-1.45,0-.73.52-1.11,1.59-1.12.53,0,1.62.07,3.28.22,1.51.12,2.56.18,3.15.18,1.3,0,2.51-.11,3.64-.32.62-.1,1.11-.16,1.47-.16.91,0,1.38.42,1.38,1.28,0,.65-.61,1.08-1.86,1.3-2.8.46-5.13,3.06-6.95,7.81-2.09,5.43-4.08,10.44-5.98,15.07s-3.36,7.96-4.38,10.03c-1.02,2.06-1.63,3.17-1.86,3.34s-.49.24-.81.24c-.39,0-.77-.28-1.13-.83s-1.91-3.53-4.64-8.89l-10.38-20.33c-1.5-2.89-2.64-4.63-3.4-5.19s-1.45-.92-2-1.07c-1.16-.26-1.73-.67-1.73-1.23,0-.82.56-1.25,1.68-1.26.47,0,1.21.03,2.21.11,2.39.2,4.73.29,7.01.28.91,0,1.95-.06,3.1-.14,2.1-.2,3.36-.3,3.77-.3,1.96-.01,2.93.32,2.94,1,0,.82-.53,1.3-1.63,1.42-1.53.16-2.3.87-2.29,2.15,0,.77,1.27,3.8,3.79,9.11s4.65,9.49,6.39,12.56h-.02Z"/>
      <path class="stPrivateSnorkeling3" d="M271.33,205.14c-1.95,1.61-3.88,2.8-5.79,3.55-1.91.75-3.81,1.06-5.71.92-3-.2-5.27-1.27-6.78-3.19s-2.18-4.19-2.01-6.8c.13-2.01.75-3.77,1.85-5.28,1.09-1.51,2.4-2.66,3.91-3.43,1.51-.78,3.99-1.66,7.43-2.64,2.89-.81,4.84-1.48,5.83-1.99s1.86-1.3,2.58-2.36c.72-1.07,1.15-2.47,1.26-4.24.13-1.94-.24-3.51-1.15-4.74-.89-1.22-2.19-1.89-3.89-2.01-1.47-.1-2.54.2-3.2.89-.67.72-1.22,1.91-1.66,3.56-.9,3.3-2.84,4.85-5.78,4.65-1.21-.08-2.21-.5-3.03-1.27s-1.17-1.81-1.08-3.14c.19-2.84,1.88-4.85,5.05-6.04,3.18-1.19,6.91-1.65,11.18-1.36,3.68.24,6.65,1.01,8.89,2.29,2.24,1.28,3.64,2.68,4.18,4.19.54,1.52.72,3.84.51,6.96l-.79,10.48c-.38,5.52-.42,9.06-.17,10.65.27,1.59,1,2.42,2.21,2.5.18.01.41.01.71,0,.59-.02.99-.02,1.2,0,1.21.08,1.79.47,1.75,1.13-.03.44-.31.8-.82,1.08s-2.06.57-4.62.87-4.85.39-6.88.24c-2.04-.13-3.4-.62-4.1-1.45s-1.06-2.18-1.08-4.06h.01ZM273.1,187.43c-.77.81-2.54,1.84-5.32,3.07-2.54,1.13-4.25,2.18-5.15,3.13-.9.98-1.41,2.45-1.55,4.39-.14,2.07.19,3.67.99,4.82.8,1.13,1.82,1.75,3.1,1.84,1.71.11,3.36-.57,4.94-2.05s2.5-4.22,2.78-8.21c.09-1.25.16-3.57.2-6.98h0Z"/>
      <path class="stPrivateSnorkeling3" d="M311.57,175.25c1.8.16,4.54.49,8.23.99,1.67.23,3.03.57,4.07,1-.75,2.14-1.29,3.26-1.65,3.36-.36.1-4.13-.13-11.29-.7l-3.14,19.31c-.38,2.76-.51,4.79-.41,6.12s.59,2.5,1.47,3.51,2.1,1.63,3.68,1.85c1.35.19,3.36-.27,6.05-1.37.41-.16.75-.21,1.01-.18.56.08.79.41.71.99-.11.85-1.46,1.85-4.04,2.98-2.57,1.13-5.46,1.49-8.65,1.06-3.78-.52-6.62-1.85-8.52-3.99-1.9-2.14-2.44-6.18-1.62-12.13.9-6.56,1.91-13.09,3.05-19.59-2.9-.4-4.94-.76-6.12-1.07-1.18-.31-1.72-.82-1.62-1.52.08-.59.83-.96,2.26-1.12,2.8-.24,5.39-1.02,7.77-2.34,2.37-1.31,4.56-3.63,6.57-6.93.81-1.35,1.35-2.17,1.61-2.45.27-.28.6-.39,1.01-.33.85.11,1.18.88.98,2.28l-1.4,10.23-.02.04Z"/>
      <path class="stPrivateSnorkeling3" d="M338.2,198.02c-.21.83-.36,1.43-.43,1.81-.87,4.1-.61,7.8.8,11.08,1.4,3.27,3.81,5.27,7.23,6.01,3.49.75,7.26-.04,11.29-2.36.82-.46,1.38-.66,1.67-.6.76.16,1.05.65.87,1.46-.13.63-1.25,1.59-3.33,2.87-2.09,1.28-4.47,2.07-7.17,2.37-2.69.3-5.38.17-8.07-.4-5.89-1.26-10.13-4.04-12.71-8.34-2.57-4.32-3.35-8.91-2.3-13.79,1.25-5.87,4.2-10.39,8.89-13.55,4.67-3.16,9.88-4.14,15.6-2.91,5.38,1.15,9.1,3.83,11.14,8.04,2.06,4.22,2.72,7.95,2.04,11.22-.22,1.05-.62,1.6-1.22,1.69-.59.09-2.39-.19-5.39-.83l-18.87-3.74v-.02ZM339.14,194.91c4.27.97,6.73,1.52,7.4,1.67,3.27.69,5.32.89,6.15.58.83-.3,1.4-1.17,1.7-2.58.5-2.37.27-4.62-.7-6.72-.97-2.11-2.4-3.37-4.27-3.77-4.45-.95-7.89,2.66-10.28,10.82Z"/>
    </g>
    <g>
      <path class="stPrivateSnorkeling0" d="M83.25,177.13c-.29-.56-.39-1.16-1.1-1.4-3.73-8.33-9.4-16.04-12.13-24.8-5.89-18.86,11.42-23.72,26.39-22.33,2.28.21,4.67,1.05,6.87.9,1.02-.62,5.78-11.31,6.42-13.15.21-.36.4-.79.53-1.19l1.63-3.64h0l-1.63,3.63c-.13.41-.32.83-.53,1.19-.63,1.84-5.39,12.52-6.42,13.15-2.2.14-4.59-.69-6.87-.9-14.96-1.39-32.28,3.47-26.39,22.33,2.74,8.76,8.41,16.46,12.13,24.8.7.26.8.85,1.1,1.4,1.98,3.79,3.7,8.69,4.05,12.96,2.42,29.38-30.47,44.28-55.03,45.61-2.52.13-5.1.11-7.63,0h0c2.52.12,5.12.14,7.63,0,24.55-1.35,57.45-16.23,55.03-45.61-.36-4.27-2.08-9.16-4.05-12.96h0Z"/>
      <path d="M76.13,160.45c-3.41-6.83-8.8-17.29-2.91-24.19,3.23-3.77,15.37-3.59,20.09-2.93,1.43.2,4.27,1.28,5.26,1.21,1.43-.09,2.77-2.56,3.93-2.96.7-.24,1.78.13,1.92.04.4-.23,3.78-7.13,4.29-8.21,1.96-4.15,3.55-8.49,5.48-12.65-7-1.94-15.14-1.31-22.29-.26-21,3.09-51.65,18.07-53.76,41.9-1.8,20.3,19.45,35.23,17.22,51.67-.36,2.61-2,8.14-4.3,9.59-1.36.86-8.88,2.2-10.89,2.5-1.69.26-10.15.7-10.7,1-1,.54-.75,1.94-1.73,2.61-1,.69-4.76.49-5.31,1.22l-7.64,20.7c7.66.36,15.37.5,22.94-.86,22.97-4.12,55.13-25.8,51.08-52.48-1.52-10.04-8.22-19.02-12.68-27.93h0ZM32.27,235.71c-2.52.13-5.1.11-7.63,0h0c.51-1.41,1.06-2.82,1.57-4.25-.46-.59.14-1.47.36-2.07.9-2.55,1.85-5.09,2.81-7.61.23-.61.98-3,1.2-3.13.21-.11,4.05-.14,4.72-.16,1.9-.21,12.01-1.71,14.22-2.37,10.79-3.18,18.32-12.31,17.31-23.93-.37-.14-1.86-6.31-2.42-7.54-2.48-5.45-6.71-11.08-9.58-16.58-1.4-2.69-2.74-5.38-3.79-8.23-.87-2.34-1.28-3.81-1.71-6.26-1.57-9.03.61-17.71,7.34-24.22.07-.1.06-.26.13-.36,4.4-5.91,10.2-9.18,16.85-11.87,12-4.87,25.29-6.93,38.24-5.58h0l-1.63,3.64c-.13.41-.32.83-.53,1.19-.63,1.84-5.39,12.52-6.42,13.15-2.2.14-4.59-.69-6.87-.9-14.96-1.39-32.28,3.47-26.39,22.33,2.74,8.76,8.41,16.46,12.13,24.8.7.26.8.85,1.1,1.4,1.98,3.79,3.7,8.69,4.05,12.96,2.42,29.38-30.47,44.28-55.03,45.61v-.02Z"/>
      <path class="stPrivateSnorkeling6" d="M87.3,190.09c-.36-4.27-2.08-9.16-4.05-12.96-.29-.56-.39-1.16-1.1-1.4-3.73-8.33-9.4-16.04-12.13-24.8-5.89-18.86,11.42-23.72,26.39-22.33,2.28.21,4.67,1.05,6.87.9,1.02-.62,5.78-11.31,6.42-13.15.21-.36.4-.79.53-1.19l1.63-3.63c-12.93-1.35-26.24.71-38.24,5.58-6.64,2.69-12.43,5.96-16.85,11.87-.07.1-.06.26-.13.36-6.73,6.53-8.91,15.19-7.34,24.22.42,2.45.85,3.93,1.71,6.26,1.06,2.86,2.39,5.54,3.79,8.23,2.86,5.51,7.1,11.13,9.58,16.58.57,1.23,2.06,7.4,2.42,7.54,1.01,11.62-6.52,20.75-17.31,23.93-2.21.66-12.82,2.26-14.32,2.38-1.59.01-4.42.03-4.63.14-.22.12-.97,2.51-1.2,3.13-.98,2.51-1.91,5.07-2.81,7.61-.21.6-.81,1.49-.36,2.07-.51,1.41-1.06,2.82-1.57,4.25,2.52.12,5.12.14,7.63,0,24.55-1.35,57.45-16.23,55.03-45.61h.02Z"/>
      <polygon class="stPrivateSnorkeling16" points="132.53 155.37 151.74 112.16 140.56 113.24 131.08 136.25 129.49 114.06 117.38 116.5 119.73 121.19 99.15 162.6 110.34 160.61 121.25 135.97 123.18 157.08 132.53 155.37"/>
      <path class="stPrivateSnorkeling16" d="M151.61,150.28c7.11,4.25,18.48-.82,25.41-11.32,3.55-5.38,5.23-11.13,5.08-16.05l4.94-2.85s-3.56-7.22-12.51-8.78h0c-7.1-2.25-16.98,2.8-23.24,12.29-6.92,10.5-6.77,22.45.33,26.7h-.01ZM157,125.91c4.35-6.94,11.28-10.44,15.48-7.81,1.53.97,2.49,2.62,2.87,4.67l-2.52.33.85,7.14c.16,1.32-.07,2.68-.7,3.86-.24.44-.5.89-.77,1.32-4.35,6.94-11.28,10.44-15.48,7.81-4.19-2.62-4.07-10.39.28-17.34h0Z"/>
      <path class="stPrivateSnorkeling17" d="M363.01,140.53l3.39.78c1.1.26,1.65,1.31,1.22,2.36h0c-.48,1.2-1.01,1.86-2.14,2.29-1.94.75-9.85.26-8.65-5.15s7.52-13.1,18.62-6.48l5.63-4.18s-.69-2.38-9.23-4.23h0c-6.85-2.2-15.75.68-20.88,7.07-5.67,7.07-4.57,15.77,2.46,19.43,7.03,3.66,18.62,4.25,23.79-6.11.29-.58.42-1.11.57-1.62.2-.71.93-1.12,1.65-.93l1.29.34,1.52-4.58-18.2-3.45-1.03,4.47h-.01Z"/>
      <path class="stPrivateSnorkeling16" d="M192.33,115.5l-.81,2.2-13.02,31.62,11.07-.7,5.19-15.6,3.1,14.94,11.33-.75-4-14.86s4.15-.56,8.76-4.26c2.9-2.34,4.9-5.67,5.22-9.39.08-.91.06-1.84-.13-2.65-.68-2.85-.5-8.89-17.18-6.63l-12,2.17-.82,3.77,3.29.12h.01ZM201.36,118.09c7.62-.31,5.73,4.46,3.84,6.08s-6.72,2.57-6.72,2.57l2.88-8.66h0Z"/>
      <polygon class="stPrivateSnorkeling16" points="225.51 115.36 213.52 146.97 222.66 146.56 227.74 131.28 231.46 146.27 241.92 146.07 236.64 126.83 258.52 110.21 244.08 109.47 231.72 123.54 237.73 109.23 224.13 108.9 222.95 115.32 225.51 115.36"/>
      <polygon class="stPrivateSnorkeling16" points="268.16 146.21 270.69 138.66 258.52 138.33 260.82 131.77 270.83 132.85 272.65 126.01 265.18 125.09 267.2 119.01 277.76 120.5 281.46 111.99 260.2 110.32 258.08 116.66 260.64 116.83 248.31 146.01 268.16 146.21"/>
      <polygon class="stPrivateSnorkeling16" points="298.64 113.79 286.98 112.53 272.95 146.34 293.54 147.24 295.86 140.29 285.52 140 298.64 113.79"/>
      <polygon class="stPrivateSnorkeling16" points="321.48 116.81 311.63 115.42 297.52 147.47 306.42 148.09 321.48 116.81"/>
      <polygon class="stPrivateSnorkeling16" points="337.88 151.12 353.37 122.24 341.96 120.13 335.52 136.26 336.05 119.11 324.81 117.31 324.29 123.61 312.58 148.57 321.23 149.35 327.48 133.98 329.32 150.16 337.88 151.12"/>
      <polygon class="stPrivateSnorkeling14" points="136.73 152.22 155.94 109.01 144.75 110.09 135.29 133.1 133.69 110.91 121.59 113.35 123.93 118.04 103.36 159.45 114.55 157.46 125.46 132.83 127.38 153.94 136.73 152.22"/>
      <path class="stPrivateSnorkeling13" d="M155.82,147.14c7.11,4.25,18.48-.82,25.41-11.32,3.55-5.38,5.23-11.13,5.08-16.05l4.94-2.85s-3.56-7.22-12.51-8.78h0c-7.1-2.25-16.98,2.8-23.24,12.29-6.92,10.5-6.77,22.45.33,26.7h-.01ZM177.02,130.76c-.27,1.13-.75,2.2-1.43,3.14-4.39,5.88-10.8,8.63-14.66,6.21-4.19-2.62-4.07-10.39.28-17.34,4.35-6.94,11.28-10.44,15.48-7.81,1.53.97,2.49,2.62,2.87,4.67l-2.52.33.4,3.41c.29,2.47.16,4.96-.4,7.38h-.01Z"/>
      <path class="stPrivateSnorkeling11" d="M367.21,137.38l3.39.78c1.1.26,1.65,1.31,1.22,2.36h0c-.48,1.2-1.01,1.86-2.14,2.29-1.94.75-9.85.26-8.65-5.15,1.2-5.41,7.52-13.1,18.62-6.48l5.63-4.18s-.69-2.38-9.23-4.23h0c-6.85-2.2-15.75.68-20.88,7.07-5.67,7.07-4.57,15.77,2.46,19.43,7.03,3.66,18.62,4.25,23.79-6.11.29-.58.42-1.11.57-1.62.2-.71.93-1.12,1.65-.93l1.29.34,1.52-4.58-18.2-3.45-1.03,4.47h-.01Z"/>
      <path class="stPrivateSnorkeling9" d="M196.54,112.35l-.81,2.2-13.02,31.62,11.07-.7,5.19-15.6,3.1,14.94,11.33-.75-4-14.86s4.15-.56,8.76-4.26c2.9-2.34,4.9-5.67,5.22-9.39.08-.91.06-1.84-.13-2.65-.68-2.85-.5-8.89-17.18-6.63l-12,2.17-.82,3.77,3.29.12h.01ZM205.57,114.94c7.62-.31,5.73,4.46,3.84,6.08-1.89,1.62-6.72,2.57-6.72,2.57l2.88-8.66h0Z"/>
      <polygon class="stPrivateSnorkeling8" points="229.71 112.22 217.72 143.82 226.85 143.41 231.95 128.13 235.66 143.12 246.12 142.92 240.84 123.68 262.72 107.08 248.28 106.32 235.93 120.39 241.93 106.09 228.33 105.75 227.15 112.17 229.71 112.22"/>
      <polygon class="stPrivateSnorkeling7" points="272.36 143.07 274.9 135.52 262.72 135.18 265.02 128.62 275.03 129.7 276.86 122.87 269.38 121.96 271.41 115.86 281.96 117.35 285.66 108.85 264.4 107.18 262.29 113.52 264.83 113.68 252.51 142.87 272.36 143.07"/>
      <polygon class="stPrivateSnorkeling10" points="302.85 110.65 291.17 109.38 277.16 143.19 297.74 144.09 300.07 137.14 289.71 136.85 302.85 110.65"/>
      <polygon class="stPrivateSnorkeling12" points="325.68 113.66 315.84 112.28 301.71 144.33 310.62 144.95 325.68 113.66"/>
      <polygon class="stPrivateSnorkeling18" points="342.09 147.97 357.58 119.09 346.17 116.99 339.73 133.11 340.25 115.96 329.02 114.16 328.49 120.47 316.77 145.42 325.44 146.2 331.69 130.83 333.52 147.02 342.09 147.97"/>
      <path class="stPrivateSnorkeling1" d="M87.3,190.09c-.36-4.27-2.08-9.16-4.05-12.96-.29-.56-.39-1.16-1.1-1.4-3.73-8.33-9.4-16.04-12.13-24.8-5.89-18.86,11.42-23.72,26.39-22.33,2.28.21,4.67,1.05,6.87.9,1.02-.62,5.78-11.31,6.42-13.15.21-.36.4-.79.53-1.19l1.63-3.63c-12.93-1.35-26.24.71-38.24,5.58-6.64,2.69-12.43,5.96-16.85,11.87-.07.1-.06.26-.13.36-6.73,6.53-8.91,15.19-7.34,24.22.42,2.45.85,3.93,1.71,6.26,1.06,2.86,2.39,5.54,3.79,8.23,2.86,5.51,7.1,11.13,9.58,16.58.57,1.23,2.06,7.4,2.42,7.54,1.01,11.62-6.52,20.75-17.31,23.93-2.21.66-12.82,2.26-14.32,2.38-1.59.01-4.42.03-4.63.14-.22.12-.97,2.51-1.2,3.13-.98,2.51-1.91,5.07-2.81,7.61-.21.6-.81,1.49-.36,2.07-.51,1.41-1.06,2.82-1.57,4.25,2.52.12,5.12.14,7.63,0,24.55-1.35,57.45-16.23,55.03-45.61h.02Z"/>
      <polygon class="stPrivateSnorkeling1" points="136.73 152.22 155.94 109.01 144.75 110.09 135.29 133.1 133.69 110.91 121.59 113.35 123.93 118.04 103.36 159.45 114.55 157.46 125.46 132.83 127.38 153.94 136.73 152.22"/>
      <path class="stPrivateSnorkeling1" d="M155.82,147.14c7.11,4.25,18.48-.82,25.41-11.32,3.55-5.38,5.23-11.13,5.08-16.05l4.94-2.85s-3.56-7.22-12.51-8.78h0c-7.1-2.25-16.98,2.8-23.24,12.29-6.92,10.5-6.77,22.45.33,26.7h-.01ZM177.02,130.76c-.27,1.13-.75,2.2-1.43,3.14-4.39,5.88-10.8,8.63-14.66,6.21-4.19-2.62-4.07-10.39.28-17.34,4.35-6.94,11.28-10.44,15.48-7.81,1.53.97,2.49,2.62,2.87,4.67l-2.52.33.4,3.41c.29,2.47.16,4.96-.4,7.38h-.01Z"/>
      <path class="stPrivateSnorkeling1" d="M367.21,137.38l3.39.78c1.1.26,1.65,1.31,1.22,2.36h0c-.48,1.2-1.01,1.86-2.14,2.29-1.94.75-9.85.26-8.65-5.15,1.2-5.41,7.52-13.1,18.62-6.48l5.63-4.18s-.69-2.38-9.23-4.23h0c-6.85-2.2-15.75.68-20.88,7.07-5.67,7.07-4.57,15.77,2.46,19.43,7.03,3.66,18.62,4.25,23.79-6.11.29-.58.42-1.11.57-1.62.2-.71.93-1.12,1.65-.93l1.29.34,1.52-4.58-18.2-3.45-1.03,4.47h-.01Z"/>
      <path class="stPrivateSnorkeling1" d="M196.54,112.35l-.81,2.2-13.02,31.62,11.07-.7,5.19-15.6,3.1,14.94,11.33-.75-4-14.86s4.15-.56,8.76-4.26c2.9-2.34,4.9-5.67,5.22-9.39.08-.91.06-1.84-.13-2.65-.68-2.85-.5-8.89-17.18-6.63l-12,2.17-.82,3.77,3.29.12h.01ZM205.57,114.94c7.62-.31,5.73,4.46,3.84,6.08-1.89,1.62-6.72,2.57-6.72,2.57l2.88-8.66h0Z"/>
      <polygon class="stPrivateSnorkeling1" points="229.71 112.22 217.72 143.82 226.85 143.41 231.95 128.13 235.66 143.12 246.12 142.92 240.84 123.68 262.72 107.08 248.28 106.32 235.93 120.39 241.93 106.09 228.33 105.75 227.15 112.17 229.71 112.22"/>
      <polygon class="stPrivateSnorkeling1" points="272.36 143.07 274.9 135.52 262.72 135.18 265.02 128.62 275.03 129.7 276.86 122.87 269.38 121.96 271.41 115.86 281.96 117.35 285.66 108.85 264.4 107.18 262.29 113.52 264.83 113.68 252.51 142.87 272.36 143.07"/>
      <polygon class="stPrivateSnorkeling1" points="302.85 110.65 291.17 109.38 277.16 143.19 297.74 144.09 300.07 137.14 289.71 136.85 302.85 110.65"/>
      <polygon class="stPrivateSnorkeling1" points="325.68 113.66 315.84 112.28 301.71 144.33 310.62 144.95 325.68 113.66"/>
      <polygon class="stPrivateSnorkeling1" points="342.09 147.97 357.58 119.09 346.17 116.99 339.73 133.11 340.25 115.96 329.02 114.16 328.49 120.47 316.77 145.42 325.44 146.2 331.69 130.83 333.52 147.02 342.09 147.97"/>
    </g>
    <g>
      <g>
        <path class="stPrivateSnorkeling15" d="M378.29,259.9c.39-1.06.21-2.26-.85-2.95-.29-.24-.63-.42-1.05-.5-6.06-2.66-12.12-5.32-18.18-7.97-1.86-6.54-3.7-13.09-5.56-19.63-.29-1.05-1.09-1.63-1.98-1.82-.9-.27-1.91-.1-2.66.73-4.53,5.08-9.05,10.17-13.58,15.25-6.58-.26-13.18-.5-19.76-.76-.61-.18-1.22-.09-1.75.19-1.05.39-1.59,1.42-1.6,2.48-.03.51.07,1.03.37,1.51h0v-.02s.02.04.04.07c-.01-.01-.03-.03-.04-.04,3.41,5.84,6.82,11.67,10.23,17.51-2.38,6.46-4.75,12.92-7.13,19.37-.79,2.15,1.71,3.65,3.49,3.26,6.55-1.42,13.09-2.86,19.64-4.28,5.26,4.14,10.52,8.27,15.78,12.41,1.42,1.12,4.35.92,4.58-1.38.69-6.85,1.37-13.71,2.06-20.56,5.61-3.76,11.22-7.52,16.83-11.28.59-.4.95-.98,1.11-1.6v.02Z"/>
        <g>
          <path id="Path_73" class="stPrivateSnorkeling2" d="M342.69,261.91h0l31.34-2.78-18.72-8.22-12.62,10.99h0Z"/>
          <path id="Path_75" class="stPrivateSnorkeling19" d="M357.03,270.52l16.98-11.38-31.34,2.78,14.36,8.61h0Z"/>
          <path id="Path_77" class="stPrivateSnorkeling2" d="M325.97,263.24l-7.11,19.32,23.89-20.81-16.78,1.49Z"/>
          <path id="Path_78" class="stPrivateSnorkeling4" d="M342.75,261.76l-23.89,20.81,20.12-4.38,3.77-16.43h0Z"/>
          <path id="Path_79" class="stPrivateSnorkeling4" d="M355.3,250.93l-5.57-19.67-7.05,30.67,12.62-10.99h0Z"/>
          <path id="Path_80" class="stPrivateSnorkeling4" d="M342.75,261.76h0l12.41,29.15,2.05-20.49-14.46-8.66Z"/>
          <path id="Path_81" class="stPrivateSnorkeling19" d="M342.75,261.76l-3.77,16.43,16.18,12.72-12.41-29.15h0Z"/>
          <path id="Path_82" class="stPrivateSnorkeling2" d="M342.69,261.91h0l7.05-30.67-13.6,15.27,6.56,15.4h-.01Z"/>
          <path id="Path_83" class="stPrivateSnorkeling19" d="M336.16,246.24l-20.58-.79,27.17,16.29-6.61-15.5h.01Z"/>
          <path id="Path_84" class="stPrivateSnorkeling4" d="M342.76,261.75h0l-13.59-8.14-13.59-8.14,5.19,8.89,5.19,8.89,8.39-.75,8.39-.75h.02Z"/>
        </g>
      </g>
      <g>
        <path class="stPrivateSnorkeling15" d="M311.18,243.38c.26-1.09-.07-2.27-1.2-2.81-.31-.21-.68-.33-1.1-.37-6.34-1.89-12.68-3.79-19.03-5.68-2.65-6.26-5.29-12.53-7.93-18.8-.42-1-1.28-1.49-2.18-1.57-.92-.16-1.91.13-2.55,1.06-3.87,5.61-7.74,11.2-11.6,16.8-6.57.57-13.13,1.12-19.71,1.69-.63-.11-1.22.06-1.71.4-.99.52-1.4,1.61-1.28,2.66.03.51.19,1.02.54,1.46h0v-.02s.03.04.04.07c-.02-.01-.03-.02-.06-.04,4.1,5.37,8.21,10.74,12.31,16.12-1.56,6.71-3.13,13.4-4.68,20.11-.52,2.24,2.15,3.41,3.87,2.8,6.32-2.22,12.65-4.45,18.96-6.66,5.73,3.46,11.46,6.92,17.18,10.38,1.55.93,4.43.38,4.37-1.92-.17-6.88-.32-13.78-.49-20.66,5.1-4.42,10.21-8.84,15.31-13.26.53-.47.82-1.08.9-1.72h.01Z"/>
        <g>
          <path id="Path_731" class="stPrivateSnorkeling2" d="M276.1,249.77h0l30.76-6.62-19.6-5.85-11.17,12.47h0Z"/>
          <path id="Path_751" class="stPrivateSnorkeling19" d="M291.4,256.54l15.46-13.38-30.76,6.62,15.3,6.77h0Z"/>
          <path id="Path_771" class="stPrivateSnorkeling2" d="M259.68,253.14l-4.67,20.05,21.14-23.59-16.47,3.54h0Z"/>
          <path id="Path_781" class="stPrivateSnorkeling4" d="M276.16,249.6l-21.14,23.59,19.43-6.83,1.72-16.76h-.01Z"/>
          <path id="Path_791" class="stPrivateSnorkeling4" d="M287.27,237.3l-7.95-18.84-3.21,31.31,11.17-12.47h0Z"/>
          <path id="Path_801" class="stPrivateSnorkeling4" d="M276.16,249.6h0l15.9,27.4-.49-20.59-15.41-6.82h0Z"/>
          <path id="Path_811" class="stPrivateSnorkeling19" d="M276.16,249.6l-1.72,16.76,17.63,10.64-15.9-27.4h0Z"/>
          <path id="Path_821" class="stPrivateSnorkeling2" d="M276.1,249.77h0l3.21-31.31-11.62,16.83,8.41,14.48h0Z"/>
          <path id="Path_831" class="stPrivateSnorkeling19" d="M267.69,235.02l-20.51,1.76,28.97,12.82-8.46-14.58Z"/>
          <path id="Path_841" class="stPrivateSnorkeling4" d="M276.16,249.6h0l-14.49-6.41-14.49-6.41,6.25,8.19,6.25,8.19,8.23-1.77,8.23-1.77h0l.02-.02Z"/>
        </g>
      </g>
      <g>
        <path class="stPrivateSnorkeling15" d="M244.87,236.86c.17-1.11-.26-2.25-1.43-2.7-.33-.18-.71-.28-1.12-.28-6.47-1.36-12.96-2.71-19.43-4.06-3.16-6.02-6.32-12.04-9.49-18.06-.5-.96-1.4-1.38-2.3-1.38-.93-.08-1.89.29-2.45,1.27-3.38,5.91-6.77,11.81-10.15,17.72-6.5,1.11-13,2.22-19.5,3.34-.65-.06-1.21.17-1.67.54-.95.6-1.26,1.72-1.06,2.76.07.51.28,1,.67,1.41h0v-.02s.03.04.06.07c-.02-.01-.03-.02-.06-.03,4.54,5,9.08,10.02,13.61,15.03-.99,6.81-1.99,13.62-2.98,20.43-.33,2.27,2.42,3.21,4.09,2.47,6.12-2.75,12.22-5.49,18.34-8.23,5.99,2.97,12,5.93,17.99,8.9,1.62.8,4.45,0,4.2-2.29-.75-6.85-1.48-13.7-2.22-20.55,4.72-4.83,9.43-9.66,14.15-14.49.5-.51.73-1.15.76-1.79v-.03Z"/>
        <g>
          <path id="Path_732" class="stPrivateSnorkeling2" d="M210.45,246.15h0l30.1-9.18-20.02-4.18-10.09,13.36h.01Z"/>
          <path id="Path_752" class="stPrivateSnorkeling19" d="M226.27,251.63l14.28-14.64-30.1,9.18,15.83,5.46h-.01Z"/>
          <path id="Path_772" class="stPrivateSnorkeling2" d="M194.38,250.89l-2.97,20.38,19.08-25.28-16.12,4.9h0Z"/>
          <path id="Path_782" class="stPrivateSnorkeling4" d="M210.49,245.99l-19.08,25.28,18.78-8.43.31-16.85h-.01Z"/>
          <path id="Path_792" class="stPrivateSnorkeling4" d="M220.54,232.8l-9.51-18.11-.58,31.46,10.09-13.36h0Z"/>
          <path id="Path_802" class="stPrivateSnorkeling4" d="M210.49,245.99h0l18.15,25.97-2.21-20.46-15.93-5.49h-.01Z"/>
          <path id="Path_812" class="stPrivateSnorkeling19" d="M210.49,245.99l-.31,16.85,18.45,9.12-18.14-25.97h0Z"/>
          <path id="Path_822" class="stPrivateSnorkeling2" d="M210.45,246.15h0l.58-31.46-10.17,17.74,9.59,13.72h0Z"/>
          <path id="Path_832" class="stPrivateSnorkeling19" d="M200.84,232.17l-20.3,3.47,29.95,10.34-9.65-13.81h0Z"/>
          <path id="Path_842" class="stPrivateSnorkeling4" d="M210.49,245.99h0l-14.97-5.17-14.97-5.17,6.92,7.63,6.92,7.63,8.06-2.46,8.06-2.46h-.02Z"/>
        </g>
      </g>
      <g>
        <path class="stPrivateSnorkeling15" d="M180.49,235.63c.02-1.12-.54-2.2-1.77-2.5-.36-.13-.73-.19-1.15-.13-6.6-.5-13.2-1.01-19.8-1.51-3.91-5.56-7.83-11.12-11.74-16.68-.62-.89-1.57-1.18-2.47-1.07-.93.04-1.84.53-2.27,1.58-2.59,6.29-5.18,12.59-7.77,18.88-6.29,1.95-12.6,3.88-18.9,5.83-.65.03-1.18.32-1.59.76-.86.72-1.02,1.87-.69,2.87.13.5.4.96.85,1.31h0v-.02s.04.03.07.06c-.02,0-.04-.02-.07-.02,5.15,4.38,10.3,8.75,15.45,13.13-.1,6.88-.21,13.76-.31,20.64-.03,2.29,2.82,2.88,4.38,1.92,5.71-3.51,11.41-7.03,17.12-10.54,6.33,2.17,12.67,4.33,19,6.5,1.71.59,4.4-.57,3.87-2.81-1.62-6.7-3.25-13.39-4.86-20.09,4.05-5.41,8.1-10.8,12.14-16.2.42-.57.58-1.23.52-1.88h-.01Z"/>
        <g>
          <path id="Path_733" class="stPrivateSnorkeling2" d="M147.56,249.31h0l28.66-12.99-20.39-1.56-8.27,14.55h0Z"/>
          <path id="Path_753" class="stPrivateSnorkeling19" d="M163.95,252.68l12.27-16.36-28.66,12.99,16.39,3.37h0Z"/>
          <path id="Path_773" class="stPrivateSnorkeling2" d="M132.23,256.1l-.31,20.59,15.66-27.54-15.35,6.95h0Z"/>
          <path id="Path_783" class="stPrivateSnorkeling4" d="M147.57,249.15l-15.66,27.54,17.54-10.8-1.87-16.75h-.01Z"/>
          <path id="Path_793" class="stPrivateSnorkeling4" d="M155.82,234.77l-11.77-16.73,3.5,31.27,8.27-14.55h-.01Z"/>
          <path id="Path_803" class="stPrivateSnorkeling4" d="M147.58,249.13h0l21.35,23.4-4.85-20.01-16.5-3.39h0Z"/>
          <path id="Path_813" class="stPrivateSnorkeling19" d="M147.58,249.13l1.87,16.75,19.49,6.65-21.35-23.4h0Z"/>
          <path id="Path_823" class="stPrivateSnorkeling2" d="M147.56,249.31h0l-3.5-31.27-7.79,18.91,11.29,12.37h0Z"/>
          <path id="Path_833" class="stPrivateSnorkeling19" d="M136.21,236.69l-19.67,6.07,31.04,6.38-11.37-12.45h0Z"/>
          <path id="Path_843" class="stPrivateSnorkeling4" d="M147.58,249.13h0l-15.51-3.19-15.51-3.19,7.84,6.67,7.84,6.67,7.67-3.48,7.67-3.48h0Z"/>
        </g>
      </g>
      <g>
        <path class="stPrivateSnorkeling15" d="M115.45,243.62c-.12-1.11-.82-2.11-2.07-2.26-.37-.09-.76-.09-1.16.02-6.61.34-13.22.68-19.83,1.02-4.59-5.02-9.19-10.03-13.77-15.05-.73-.8-1.7-.98-2.58-.75-.92.17-1.76.77-2.05,1.86-1.77,6.57-3.54,13.15-5.31,19.72-6.01,2.74-12,5.46-18.01,8.2-.63.11-1.13.47-1.48.96-.77.82-.78,1.99-.32,2.94.2.48.52.9,1,1.19h0v-.02s.04.03.07.04c-.02,0-.04-.01-.07-.02,5.66,3.68,11.33,7.37,16.99,11.05.78,6.84,1.55,13.68,2.32,20.52.26,2.28,3.17,2.49,4.59,1.35,5.22-4.22,10.42-8.42,15.64-12.63,6.56,1.33,13.11,2.68,19.67,4.01,1.78.37,4.3-1.13,3.48-3.28-2.46-6.44-4.93-12.87-7.38-19.31,3.33-5.87,6.65-11.74,9.98-17.63.36-.62.41-1.3.28-1.92h-.01Z"/>
        <g>
          <path id="Path_734" class="stPrivateSnorkeling2" d="M84.53,261.39h0l26.77-16.54-20.42,1.06-6.35,15.48h0Z"/>
          <path id="Path_754" class="stPrivateSnorkeling19" d="M101.22,262.64l10.08-17.79-26.77,16.54,16.69,1.25h0Z"/>
          <path id="Path_774" class="stPrivateSnorkeling2" d="M70.18,270.07l2.31,20.45,12.01-29.31-14.34,8.85h.01Z"/>
          <path id="Path_784" class="stPrivateSnorkeling4" d="M84.52,261.21l-12.01,29.32,16.02-12.95-3.99-16.37h-.01Z"/>
          <path id="Path_794" class="stPrivateSnorkeling4" d="M90.87,245.9l-13.8-15.09,7.46,30.57,6.35-15.48h-.01Z"/>
          <path id="Path_804" class="stPrivateSnorkeling4" d="M84.53,261.21h0l24.17,20.49-7.36-19.23-16.8-1.26Z"/>
          <path id="Path_814" class="stPrivateSnorkeling19" d="M84.53,261.21l3.99,16.37,20.17,4.12-24.17-20.49h0Z"/>
          <path id="Path_824" class="stPrivateSnorkeling2" d="M84.53,261.39h0l-7.46-30.57-5.31,19.75,12.77,10.82h0Z"/>
          <path id="Path_834" class="stPrivateSnorkeling19" d="M71.67,250.31l-18.74,8.53,31.6,2.37s-12.86-10.9-12.86-10.9Z"/>
          <path id="Path_844" class="stPrivateSnorkeling4" d="M84.52,261.21h0l-15.79-1.19-15.79-1.19,8.63,5.62,8.63,5.62,7.16-4.43,7.16-4.43h0Z"/>
        </g>
      </g>
    </g>
  </g>
</svg>