<?xml version="1.0" encoding="UTF-8"?>
<svg id="Capa_1" xmlns="http://www.w3.org/2000/svg" version="1.1" xmlns:xlink="http://www.w3.org/1999/xlink" viewBox="0 0 520.8 517.7">
  <!-- Generator: Adobe Illustrator 29.8.1, SVG Export Plug-In . SVG Version: 2.1.1 Build 2)  -->
  <defs>
    <style>
      .stSnorkelingAdventure0 {
        fill: url(#Degradado_sin_nombre_611);
      }

      .stSnorkelingAdventure0, .stSnorkelingAdventure1, .stSnorkelingAdventure2, .stSnorkelingAdventure3, .stSnorkelingAdventure4, .stSnorkelingAdventure5, .stSnorkelingAdventure6, .stSnorkelingAdventure7, .stSnorkelingAdventure8, .stSnorkelingAdventure9, .stSnorkelingAdventure10, .stSnorkelingAdventure11, .stSnorkelingAdventure12, .stSnorkelingAdventure13, .stSnorkelingAdventure14, .stSnorkelingAdventure15, .stSnorkelingAdventure16, .stSnorkelingAdventure17, .stSnorkelingAdventure18, .stSnorkelingAdventure19, .stSnorkelingAdventure20, .stSnorkelingAdventure21, .stSnorkelingAdventure22 {
        stroke-miterlimit: 10;
      }

      .stSnorkelingAdventure0, .stSnorkelingAdventure1, .stSnorkelingAdventure2, .stSnorkelingAdventure3, .stSnorkelingAdventure4, .stSnorkelingAdventure6, .stSnorkelingAdventure7, .stSnorkelingAdventure8, .stSnorkelingAdventure9, .stSnorkelingAdventure10, .stSnorkelingAdventure11, .stSnorkelingAdventure12, .stSnorkelingAdventure13, .stSnorkelingAdventure14, .stSnorkelingAdventure15, .stSnorkelingAdventure16, .stSnorkelingAdventure17, .stSnorkelingAdventure18, .stSnorkelingAdventure19, .stSnorkelingAdventure20, .stSnorkelingAdventure21, .stSnorkelingAdventure22 {
        stroke: #000;
      }

      .stSnorkelingAdventure1 {
        fill: url(#Degradado_sin_nombre_615);
      }

      .stSnorkelingAdventure2 {
        fill: url(#Degradado_sin_nombre_610);
      }

      .stSnorkelingAdventure3 {
        stroke-width: 5px;
      }

      .stSnorkelingAdventure4 {
        fill: url(#Degradado_sin_nombre_613);
      }

      .stSnorkelingAdventure23 {
        fill: #fdfaf7;
      }

      .stSnorkelingAdventure5 {
        stroke: #fbc00d;
      }

      .stSnorkelingAdventure5, .stSnorkelingAdventure10 {
        stroke-width: 4px;
      }

      .stSnorkelingAdventure5, .stSnorkelingAdventure24 {
        fill: #fbc00d;
      }

      .stSnorkelingAdventure6 {
        fill: url(#Degradado_sin_nombre_68);
      }

      .stSnorkelingAdventure25 {
        fill: #8b4d1d;
      }

      .stSnorkelingAdventure26 {
        fill: #1e2a4c;
      }

      .stSnorkelingAdventure27 {
        fill: #1c2a4a;
      }

      .stSnorkelingAdventure7 {
        fill: url(#Degradado_sin_nombre_616);
      }

      .stSnorkelingAdventure8 {
        stroke-width: 3px;
      }

      .stSnorkelingAdventure9 {
        fill: url(#Degradado_sin_nombre_614);
      }

      .stSnorkelingAdventure28 {
        fill: #fff;
      }

      .stSnorkelingAdventure29 {
        fill: #1d2a4c;
      }

      .stSnorkelingAdventure11 {
        fill: url(#Degradado_sin_nombre_65);
      }

      .stSnorkelingAdventure30 {
        fill: #71c5f0;
      }

      .stSnorkelingAdventure12 {
        fill: url(#Degradado_sin_nombre_6);
      }

      .stSnorkelingAdventure31 {
        fill: #1e2b4d;
      }

      .stSnorkelingAdventure32 {
        fill: #f08516;
      }

      .stSnorkelingAdventure33 {
        fill: #f08515;
      }

      .stSnorkelingAdventure34 {
        fill: none;
      }

      .stSnorkelingAdventure35 {
        fill: #be5d1b;
      }

      .stSnorkelingAdventure36 {
        fill: #21a1db;
      }

      .stSnorkelingAdventure13 {
        fill: url(#Degradado_sin_nombre_617);
      }

      .stSnorkelingAdventure37 {
        fill: #c25f18;
      }

      .stSnorkelingAdventure14 {
        fill: url(#Degradado_sin_nombre_64);
      }

      .stSnorkelingAdventure38 {
        fill: #cf6b1d;
      }

      .stSnorkelingAdventure15 {
        fill: url(#Degradado_sin_nombre_61);
      }

      .stSnorkelingAdventure39 {
        fill: #1c2a4b;
      }

      .stSnorkelingAdventure40 {
        fill: #090909;
      }

      .stSnorkelingAdventure41 {
        fill: #1c2748;
      }

      .stSnorkelingAdventure16 {
        fill: url(#Degradado_sin_nombre_66);
      }

      .stSnorkelingAdventure17 {
        fill: url(#Degradado_sin_nombre_612);
      }

      .stSnorkelingAdventure42 {
        fill: #0f75bb;
      }

      .stSnorkelingAdventure18 {
        fill: url(#Degradado_sin_nombre_62);
      }

      .stSnorkelingAdventure43 {
        fill: #006daf;
      }

      .stSnorkelingAdventure19 {
        fill: url(#Degradado_sin_nombre_618);
      }

      .stSnorkelingAdventure20 {
        fill: url(#Degradado_sin_nombre_63);
      }

      .stSnorkelingAdventure44 {
        fill: #1b2746;
      }

      .stSnorkelingAdventure45 {
        fill: #71c2ed;
      }

      .stSnorkelingAdventure21 {
        fill: url(#Degradado_sin_nombre_67);
      }

      .stSnorkelingAdventure46 {
        fill: #e8921d;
      }

      .stSnorkelingAdventure22 {
        fill: url(#Degradado_sin_nombre_69);
      }

      .stSnorkelingAdventure47 {
        fill: #1f284c;
      }
    </style>
    <linearGradient id="Degradado_sin_nombre_6" data-name="Degradado sin nombre 6" x1="24.6" y1="252" x2="102.3" y2="252" gradientUnits="userSpaceOnUse">
      <stop offset="0" stop-color="#fbc303"/>
      <stop offset="1" stop-color="#f2901a"/>
    </linearGradient>
    <linearGradient id="Degradado_sin_nombre_61" data-name="Degradado sin nombre 6" x1="104" y1="170.7" x2="148.6" y2="170.7" xlink:href="#Degradado_sin_nombre_6"/>
    <linearGradient id="Degradado_sin_nombre_62" data-name="Degradado sin nombre 6" x1="152.2" y1="143.7" x2="198.7" y2="143.7" xlink:href="#Degradado_sin_nombre_6"/>
    <linearGradient id="Degradado_sin_nombre_63" data-name="Degradado sin nombre 6" x1="418.6" y1="58" x2="464.3" y2="58" xlink:href="#Degradado_sin_nombre_6"/>
    <linearGradient id="Degradado_sin_nombre_64" data-name="Degradado sin nombre 6" x1="198.3" y1="126" x2="240.9" y2="126" xlink:href="#Degradado_sin_nombre_6"/>
    <linearGradient id="Degradado_sin_nombre_65" data-name="Degradado sin nombre 6" x1="241.9" y1="105.6" x2="287.6" y2="105.6" xlink:href="#Degradado_sin_nombre_6"/>
    <linearGradient id="Degradado_sin_nombre_66" data-name="Degradado sin nombre 6" x1="289.9" y1="92.2" x2="318.6" y2="92.2" xlink:href="#Degradado_sin_nombre_6"/>
    <linearGradient id="Degradado_sin_nombre_67" data-name="Degradado sin nombre 6" x1="324.1" y1="83.5" x2="351.5" y2="83.5" xlink:href="#Degradado_sin_nombre_6"/>
    <linearGradient id="Degradado_sin_nombre_68" data-name="Degradado sin nombre 6" x1="356.8" y1="74.7" x2="373.4" y2="74.7" xlink:href="#Degradado_sin_nombre_6"/>
    <linearGradient id="Degradado_sin_nombre_69" data-name="Degradado sin nombre 6" x1="377.1" y1="67.6" x2="417.8" y2="67.6" xlink:href="#Degradado_sin_nombre_6"/>
    <linearGradient id="Degradado_sin_nombre_610" data-name="Degradado sin nombre 6" x1="119.5" y1="246.6" x2="175.3" y2="246.6" xlink:href="#Degradado_sin_nombre_6"/>
    <linearGradient id="Degradado_sin_nombre_611" data-name="Degradado sin nombre 6" x1="180" y1="217.3" x2="227.4" y2="217.3" xlink:href="#Degradado_sin_nombre_6"/>
    <linearGradient id="Degradado_sin_nombre_612" data-name="Degradado sin nombre 6" x1="226" y1="187.1" x2="273.7" y2="187.1" xlink:href="#Degradado_sin_nombre_6"/>
    <linearGradient id="Degradado_sin_nombre_613" data-name="Degradado sin nombre 6" x1="271.3" y1="172.6" x2="307.8" y2="172.6" xlink:href="#Degradado_sin_nombre_6"/>
    <linearGradient id="Degradado_sin_nombre_614" data-name="Degradado sin nombre 6" x1="469.2" y1="106.7" x2="504.2" y2="106.7" xlink:href="#Degradado_sin_nombre_6"/>
    <linearGradient id="Degradado_sin_nombre_615" data-name="Degradado sin nombre 6" x1="428.3" y1="118.9" x2="466.7" y2="118.9" xlink:href="#Degradado_sin_nombre_6"/>
    <linearGradient id="Degradado_sin_nombre_616" data-name="Degradado sin nombre 6" x1="309.3" y1="156.6" x2="350" y2="156.6" xlink:href="#Degradado_sin_nombre_6"/>
    <linearGradient id="Degradado_sin_nombre_617" data-name="Degradado sin nombre 6" x1="357.7" y1="139.2" x2="389.4" y2="139.2" xlink:href="#Degradado_sin_nombre_6"/>
    <linearGradient id="Degradado_sin_nombre_618" data-name="Degradado sin nombre 6" x1="391.7" y1="125.8" x2="429.2" y2="125.8" xlink:href="#Degradado_sin_nombre_6"/>
  </defs>
  <path class="stSnorkelingAdventure28" d="M513.3,101.7c.9-1.2,1.6-2.6,2.1-4,5.7-5.7,6-14.6,4.8-22.6-1.3-8.4-8.5-12.6-16.2-12.4-.8,0-1.6,0-2.5.2-.3,0-.5.1-.8.2-7.7,1.9-15.4,3.8-23.1,5.7-.8.2-1.5.4-2.3.5.3-.9.6-1.9.8-2.8,4.5-4.9,4.8-11.2,4-18.2-.5-4.7-2.7-8.2-6-10.5,0-3.8-1.6-7.7-4.3-10.6-4.1-4.4-10-5.9-15.8-6.1-9.9-.4-19.4,1.6-28.1,6.7-3.4-1.7-7.3-2-11.7-1.3-5.8.9-12.6,1.2-18,3.9-3.7-.3-7.4.6-11.2,1.4-3.7.7-7.7,1.2-11.3,2.5-5.6.1-12.2,1.9-17.3,3.5-2.9.9-5.2,2.7-7,4.9-.7-.3-1.4-.6-2.1-.8-1.6-.5-3.3-.6-4.9-.6-.6-3.4-2.3-6.5-5-8.9-2-12.5-1.9-33.4-18.6-32.6-5.4.3-12.9,2.9-17.4,5.9-3.4,2.3-5.4,5.4-6.4,8.9-4.6.8-8.7,2.7-12.3,5.6-5.4-1.5-10.9-.9-16.2,1.8-.8.1-1.7.3-2.5.5-3.5-4.5-8.7-7.4-14.9-7.4-9.4,0-15.8,6.5-18,14.8-.9.8-1.7,1.6-2.5,2.5-.2,0-.5.2-.7.2-5.5-5.1-13.7-7-20.9-3.5-6.1,2.9-9.7,9.2-10.2,15.7-.6.2-1.1.5-1.7.7.1,0-1.1.3-2,.6-.5.2-1,.3-1.5.5-9.1-4.5-20.2-4-29.2,1-7.6,4.3-12.5,11.8-14.2,20.1-7.5-.5-15,2.8-20.2,8.7-1.4,0-2.7,0-4.1.2-5.9-5.2-14.2-4.9-21.5-.4-4.2,2.6-8.1,5.6-12.3,8.2-5,3.1-10,6-14.9,9.1-4.4,2.9-7.6,6.7-8,12.1-.4,5.1,2.1,9.5,4.2,14,2.7,6,7.9,9.2,13.5,9.3.1,1.7.6,3.5,1.2,5.1-1.4.3-2.8.7-4.2,1.1-8,2.2-15.8,5.5-23,9.6-14.6,8.1-27.8,19.4-38.2,32.5C10.1,190.7,2,206.3.3,223.5c-1.7,17.2,5.1,33.3,16.7,45.8,6.5,6.9,14.1,12.5,21.3,18.7,5.8,5,10.4,9.8,11.1,17.1-9.1,6.1-21.4,7.9-26.7,17.8-3.7,2.3-6.7,5.7-8.1,9.9-2,6.4-.7,14.6-.7,21.3s-1.3,14.3,1.5,20c2.6,5.4,8.2,9.1,14.2,8.7,6-.3,12.5-3.5,18.1-5.7,6-2.3,11.9-4.9,17.5-8.1,11.5-6.5,21.8-15.7,30.2-25.8,5-5.9,9.6-12.4,13.4-19.3,3.3,2.1,7.3,3.1,11.2,2.1,6-1.6,11.5-7.2,16.4-10.8,4.7-3.4,9-6.3,11.4-11.4,2-1.8,3.5-3.8,4.5-6.3,2.2.7,4.6.9,7,.6,5.3-.9,10-4.9,14.4-7.7,3.5-2.2,7.1-4.1,9.8-7.1.3,0,.6-.2.9-.3-1.1,6.2-1.2,12.6-1.4,18.8-.4,8.8-1.1,17.6-1.7,26.4-3.1,1.1-6.1,2.4-9.2,3.4-5,1.8-10.2,3.2-15.1,5.3-8.1,3.5-16.1,9.2-20.3,17.2-4.6,8.8-3.3,18.6,3.1,26.1,4.9,5.8,11.7,9.5,18.8,12.3-.8,2.2-1.6,4.4-2.4,6.6-7.2,3.7-13.9,7.9-18.4,14.9-5.3,8.3-6.8,19.5-3.5,28.7,3.2,9.2,10.7,15.2,18.7,20.2,6.9,4.3,14.6,6.6,22.5,6.8-3.3,7-4.2,14.9-1.1,22.6,3.7,9.1,11.6,15.3,20.5,19.2,22.7,9.8,49.3,5.8,73,2.3,49.7-7.4,99.2-25.2,140.8-53.6,21.6-14.7,40.6-32.4,56.7-52.9,16.5-7.5,30.6-19.3,38-36.3,4-9.2,6-19.1,6.3-29.2.3-8.1-.5-16.1-5.6-21.8,5.9-32.9,5-68.1-10.8-98.1-3.6-6.9-8.2-13.7-14-19-3-2.8-6.3-5.3-10-7.1-1-.5-2.1-.9-3.1-1.4-1.6-.5-1.8-.6-.7-.4-1.6-1.4-2.9-3.3-4.3-4.8-6.2-6.9-12.6-13.4-19.7-19.3-1-.8-2-1.7-3-2.5,2.9-.9,5.5-1.9,7.9-3.6,3.3,0,6.3-.9,9.8-2,3.8-1.2,8.1-2.1,11.7-4,3.9-.5,7.6-1.9,11.3-3,4.6-1.3,9.2-2.7,13.8-4,7.6-2.2,15.4-4.1,18.2-11.8,5.1-4.7,5.2-11.2,5.6-18.3.3-6.2-.2-11.7-4.1-15.7.1-1,.3-2.1.4-3.1ZM416.6,269.2c-9,.2-18,4.4-25.5,8.9-6.2,3.7-11.8,8.4-16.1,14.2-10.3-8-26.7-9.7-39.5-10-1.3-2.5-2.6-5-3.7-7.5-.7-1.5-1.2-3.1-2-4.6-.5-.8-1.1-1.6-1.8-2.3-.3-.4-.7-.7-1.1-.9-1.4-1-1-.9,1.2.3,1.5-.7-12.3-20.2-13.7-21.8-7.5-8.7-17.4-15-28.1-16.7,4.6-2.2,9.2-4.3,13.7-6.5,3.4-1.6,6.3-2.8,8.9-4.9,4.1-.8,7.7-2.7,11.6-4.4,3.4-1.5,6.6-2.8,9.2-5,5.5-.5,10.8-3.6,15.9-5.8,4.6-1.9,8.8-4.1,11.3-7.9,4.9,1.1,10.2-.8,15.7-2.9,7-2.7,15.2-5,17.8-12.5.4-.3.7-.7,1.1-1.1,1.7.5,3.4.9,5.1,1.1.6,10.7,7.5,21.2,15,29.4-1.3,1.3-2.4,2.7-3.2,4.4-6.7,2.6-13.5,6.1-17.2,12.4-3.6,6.3-2.9,14.3,1.5,20,7.4,9.5,21.7,8.6,34.1,5.5-2.7,6.7-6.1,13-10.3,18.8ZM68.2,207c0-.4,0-.7,0,0h0ZM68.2,207.5c0,.8-.7.3,0,0h0ZM68.6,207.4c1.1-.2,2.5-1.3,3.5-1.7,5.2-2.1,11.1-2.9,16.5-4.4l-1.5,14c-.4,3.8-.8,7.5-.3,10.8-2.6-2.2-5.3-4.5-7.8-6.8-3.1-2.8-6.4-5.6-8.8-9-.6-.8-1-2.1-1.7-2.8,0,0,0,0,0,0,0,0,.1,0,.2,0ZM113.5,233.3c2.8-1.6,5.7-3.1,8.3-4.9-2.2,9.6-5,19.2-7.4,28.7-2.8-5.7-6.4-10.9-10.8-15.6-1.2-1.3-2.4-2.5-3.6-3.7,4.6.2,9-1.9,13.5-4.5Z"/>
  <path class="stSnorkelingAdventure38" d="M306.9,317.1s22.5,4,43.5-.4c0,0,6.9-2.1,10.4-6.6s.7-3.4-.8-4.2c-1.2-.7-2.8-1.6-4.4-2.3-2.5-1.1-5.3-1.3-7.9-.5-8.6,2.4-36.5,10.4-40.8,14Z"/>
  <path class="stSnorkelingAdventure28" d="M499.9,335.5c-.2-4.3-.5-8.8-3.8-12.1-.8-.8-1.6-1.4-2.5-1.8,6.6-32.3,6.2-68.5-9.5-97.9-5.4-10-13.7-21-24.9-24.2-7.3-8.3-14.7-16.6-23.2-23.8-7.4-6.3-20.1-18-30.2-9.7-8.6,7.1-2.8,19.2,2,26.6,3.9,5.9,8,10.9,12.9,15.4-.5.2-.9.5-1.4.7-3.2,1.7-6,3.5-7.4,7.1-.2.5-.3.9-.4,1.4-5.5,1.9-11.2,4.4-14.9,8.3-5.4,5.8-2.5,15.5,5.3,17.2,7.9,1.8,17.8-.3,25.4-2.3,2.9-.8,5.8-1.7,8.6-2.8-3.3,13.6-9.5,26.9-18.4,38-.8-.2-1.7-.3-2.6-.3-6.1,0-12.4,2.9-17.8,5.5-9.7,4.7-18.7,12-22.9,22.1-.4.1-.8.2-1.3.3-5.7-12.2-30.8-14.6-44.7-14.7-1.8-3.7-3.6-7.3-5.5-11-.7-1.5-1.7-4.9-3-5.9,0,0,0,0,0,0-.2-.6-.5-1.2-.7-1.8-4.8-10.9-11.8-21.5-21.5-28.7-5.9-4.4-13-7.1-20.3-6.8-11,.5-19.9,7.8-29.5,12.4-3.6,1.7-7.2,3.2-11,4.5-1.7.6-3.5,1.1-5.2,1.5-.6.1-3,.5-3.1.6-1.2,0-2.4,0-3.6.1-.1,0-.3,0-.3,0-1.8,0-3.6.2-5.4.5-15.2,2.3-27.3,13.2-29.7,28.5-1.2,7.7-1.2,15.8-1.6,23.6-.4,6.8-.9,13.6-1.3,20.5-.1,2-.3,4-.4,6.1-1.8.4-3.7,1.4-5.4,2-3.6,1.3-7.2,2.5-10.7,3.8-4.6,1.6-9.5,2.9-13.9,5-7.6,3.7-16.5,10.7-17.1,19.8-.4,7.2,4.6,12.6,10.2,16.3,5.1,3.4,11.1,5.6,17,7.4-2.4,5.3-4.5,10.8-6.2,16.4-6.8,3.4-14.1,6.7-18.5,14.1-4.6,7.7-5.2,18-.7,25.9,2.3,4.1,5.8,6.5,9.5,9.2,4.1,3,8.3,5.5,13.2,7.1,5.5,1.7,11.4,2.1,17.2,1.2,1.3,1.3,2.6,2.5,3.9,3.7-4.5,5.1-7.5,11.4-6.8,18.5,1.3,13.6,15.2,20.8,27.1,23.7,14.1,3.4,29.5,2.2,43.7.7,48.8-5.1,97.6-20.6,139.9-45.7,26.9-16,50.9-36.5,69.9-61.5,12.5-5.1,23.4-13.1,31-24.4,7.9-11.8,10.9-26,10.5-40.1ZM226,253.5c0,0-.1,0-.2,0,0,0,.1,0,.2,0ZM186,332.9c0,.3-.1.8,0,1-.3-.4-.2-.7,0-1Z"/>
  <g>
    <path class="stSnorkelingAdventure28" d="M54.4,307.3c0,0-.2.1-.2.2,0,0,.1-.1.2-.2,0,0,0,0,0,0Z"/>
    <path class="stSnorkelingAdventure28" d="M500.9,69c-11,2.7-22.1,5.4-33.1,8.1-2.4.6-4.2,2.5-5.1,4.8-.4-.2-.9-.4-1.4-.6-1.2-.4-2.4-.7-3.6-.9.6-.9,1.2-1.8,1.7-2.7,1.2-2.1,2.8-3.9,3.9-6,1.4-2.6,2.5-5.5,3-8.5,0-.3.2-1.1.4-1.9,2.2-1.3,3.7-3.4,3.6-6.3,0-2.3-.1-4.5-.2-6.8-.1-4.5-3.5-7.2-7.5-7.4.1-.2.2-.4.4-.6,1.9-3,.9-6.6-1.2-9.1-4.2-5.1-13.9-4-19.5-3.3,0,0,0,0,0,0-7.3.6-14,3.3-19.6,7.9-1.5-2.7-4.5-4.2-8.3-3.6-5.3.9-10.7,1.8-16,2.8-1.3.2-2.5,1-3.4,2-1.5-.6-3.1-.8-4.9-.4-5.2,1-10.4,2.1-15.6,3.1-.8.1-1.4.4-2.1.8-.9,0-1.7,0-2.6.1-4.5,1-9.1,2-13.6,2.9-3.2.7-5.1,3.7-5.5,6.7-1.3.6-2.3,1.7-2.9,2.9-.8-4-5.7-6.4-9.4-5.5-3.2.8-6.4,1.6-9.6,2.4,2.2-1.5,3.7-3.9,3.6-7.7,0-3.1-1.9-5.7-4.6-6.9,0,0,0-.1,0-.2-.5-3.1-1.1-6.3-1.6-9.4l-2.5-14.6c-.4-2.3-2.9-4.9-5.2-5.2-4.2-.6-8.1,1.8-10.9,2.5-5.2,1.3-8.9,4.5-8.5,10.4,0,.5.1,1,.2,1.5-4.6-.4-9.5.7-13.2,3-1.7,1-3.2,2.5-4.3,4.2-5.3-3.2-11.1-2.6-15.6.3-3.1,0-5.7,1.1-8.5,2.2-.6-2.6-2.2-5-4.6-6.7,0,0,0,0,0,0,0,0-.2-.1-.2-.2-.3-.2-.6-.4-1-.6-.5-.3-1-.5-1.5-.6-3.1-1.1-6.3-1.2-9.3.6-2.6,1.5-4.5,4.2-5.4,7-.3,1.1-.5,2.2-.5,3.4-2.1,1.1-3.7,2.6-4.7,4.8-1.4.2-2.7.5-4.2,1.2-1.2.5-2.3,1.2-3.3,2-2.2-5.3-7.9-8.5-13.6-7-6,1.6-8.8,8.1-7.4,13.8,0,.2.1.4.2.5-1.3.5-2.5,1.1-3.6,2-1.2,0-2.3.4-3.3.9,0,0,0,0,0,0-.1,0-.3,0-.5.2-.7.3-1.4.5-2.2.8-1.4.5-2.9.9-4.2,1.5-.9-.7-1.9-1.3-3-1.8-8.8-4.3-20.7-1.9-27.2,5.4-4.7,5.2-6.5,12.4-5.5,19.2-3.6-2.4-8.1-3.3-13-2-4.8,1.3-8.6,4.6-10.8,8.8-3.3-1.1-7.1-.7-10.2.7-.2-.3-.3-.6-.5-.9-3.4-5.2-8.5-5.2-13.4-2.3-2.3,1.4-4.9,2.9-6.8,5-1.8.7-3.5,1.9-5.2,2.9-5.8,3.5-11.5,7.1-17.3,10.6-3.7,2.3-4.4,6.5-2.7,10.3,1.1,2.4,2.2,4.9,3.4,7.3,1.8,3.9,6.9,4.2,10.3,2.7.7-.3,1.4-.7,2-1.1.7,1.3,1.4,2.5,2.1,3.8-.3.5-.6,1.1-.8,1.7-.9,2.6-.4,5.5,1.3,7.7,2.2,3,6.7,5.3,10.3,2.7,4.6-3.3,10.9-4.8,14.9-8.9.5-.5.9-1.1,1.3-1.8.9-.2,1.8-.4,2.5-.8,3.8-1.7,7.7-3,10.4-5.4,1.6-.4,3.1-1.2,4.6-2,1-.5,1.9-1,2.9-1.5.5-.3,2.8-.8,1-.7,2.9-.2,5.2-1.6,6.4-3.8,2.4-.2,4.8-.9,7.1-2,.4-.2.8-.4,1.1-.6.7-.4,1.2-.8,1.7-1.3,3.4-2.8,6.1-6.6,6.6-11.1.1-.9.1-1.8,0-2.6,4.6,3.1,10.3,4.4,16.4,3.7.5,0,.9,0,1.4-.2.3,0,.6-.1.9-.2,5.4-1.4,9.9-4.5,12.9-8.8,2.4,1.4,5.2,1.8,7.7.2,3.4-2.1,7.5-3.2,11.2-4.8.6-.3,1.2-.7,1.7-1.2,1.9.5,3.8.5,5.6-.7.4-.2.8-.5,1.1-.8-.2,0-.3.1-.4.1.6-.3,1.4-.4,2-.7.3-.1.6-.2.9-.3,1.6,2,4,3.5,6.7,4.1,1,.2,2.1.3,3.2.3,0,.4-.1.7-.2,1.1-12.6-3.7-28.8,7.6-40.1,14.3-2.3,1.4-3.4,3.5-3.5,5.9-.1,0-.3.2-.4.3-.2.1-.4.3-.6.4-3.8-.8-7.8-1-11.9-.5,0,0,0,0,0,0-9.1.8-16.5,5.6-22.1,12.7-.5.7-1,1.3-1.5,2-2.3-2.4-6.4-3.1-9.6-1.6-4.7,2.3-9.4,4.6-14.1,6.8-2.2,1.1-3.5,3.6-3.7,6-.1,0-.2.1-.3.2-.5.3-1,.6-1.4,1-2.4-2-6.2-2.3-8.7-.7-4.9,3-9.8,6-14.7,9.1-.7.4-1.3.9-1.8,1.5-1.4-1.5-3.4-2.5-5.4-2.3-26.5,2.8-52.1,20.9-68.7,41.1-16,19.5-26.9,46.2-13.8,70.2,5.1,9.5,13.3,16.9,21.5,23.7,7.2,6,15.8,12,20.1,20.5,2,3.9,2.2,8,2,12.4,0,.1,0,.3,0,.4,0,0,.2-.1.3-.2-.1,0-.2,0-.3.2-.1,1.2-.5.6-.2.2-.2.2-.5.5-.9.7-2,1.4-4.1,2.6-6.2,3.9-3.4,2-6.8,3.6-10.4,5.3-4.3,2-8.9,3.4-10.4,8.4,0,.2-.2.5-.3.9-1.1.4-2.2,1.2-3,1.9-2.5,1.9-3.9,4.1-4,7.2-.2,3,0,6,0,8.9v21.7c0,4.7,4.8,8.7,9.5,7.2,13.8-4.4,27.5-9.5,39.2-18.2,10.2-7.6,19-16.7,26.3-27.1,14.2-20.1,22.7-47.1,10.8-70.3-7.2-14-20.7-22.8-32-33.2-4.3-4-18.5-15.5-13.6-22.7,1.9-2.7,7.4-4.6,10.4-5.8,3.6-1.4,7.4-2.7,11.2-3,4.9-.4,10.7-1.8,12.2-7.4.7,0,1.4-.6,2.2-1.3-1.3,12.4-2.7,24.8-4,37.2-.6,5.8,6.8,9.1,11.3,6.5,3.6-2.1,7.3-4.2,10.9-6.4,1.4-.8,3.2-1.6,4.3-2.8,1.3-1.4,1.9-3.1,2.1-4.9,1.7-1.2,3.1-2.6,3.7-4.8,1.4.8,3,1.1,4.6,1,.1,1.4.2,2.7.4,4.1,0,1,0,2.2.3,3.2,0-.2.2-.5.4-.8-.1.2-.3.5-.4.9,0,0,0,0,0,0,.2.9-.1,1-.2.5-.2.7-.2,1.6-.4,2.1-1.6,6.7-3.3,13.3-4.9,20-4.4,18-8.9,36.1-13.3,54.1-1.1,4.4-2.2,8.9-3.3,13.3-1.4,5.8,5.4,12.5,11,8.5,4.1-3,8.2-6,12.3-8.9,1.7-1.2,3.4-2.4,5.1-3.7,2.3-1.7,3.2-3.4,3.7-5.6,1-.8,2-1.6,2.8-2.5,1.5-1.9,1.5-3.8,1.9-6.1.5-3.3,1.1-6.6,1.6-10,.5-.3,1.1-.6,1.6-.9v3.3c0,5.5,6.4,9.5,11.3,6.5,5.2-3.3,10.3-6.5,15.5-9.8,1.4-.9,2.5-2.1,3.2-3.6,1.5.2,3-.1,4.4-1,11.4-7.2,22.3-16.1,31.2-26.3,4.6-5.3,9.1-11.2,12.8-17.3.5,2.4,1,4.8,1.5,7.2,1,5,7,6.6,11,4.5l12.3-6.3c1.3-.7,2.7-1.2,4-2,2.3-1.6,3.2-3.6,3.8-6,1.2-.8,2.2-1.7,3-2.9,2.4,1.9,6.2,2.2,8.9.9,10.4-4.9,20.8-9.8,31.2-14.7,1-.5,1.9-1.4,2.5-2.4,1.5,0,3-.1,4.3-.7,4.5-2,9-4,13.5-6,1.3-.6,2.3-1.8,2.9-3.1,1.4.5,2.9.6,4.3,0,5.2-2.2,10.4-4.4,15.6-6.5,3-1.3,5.1-3.4,5.4-6.6,1.4-.8,2.5-1.7,3.2-3,1.8,2.5,5.1,4,8,2.9l15.4-6c2.9-1.1,5.2-3.4,5.5-6.6,2.5-1.3,4.2-3.6,4.2-6.6v-.3c.6.5,1.3,1,2.1,1.5,9.7,6,23.2,1.2,30.4-6.7.1-.1.2-.3.3-.4,1.9,1.3,4.3,1.8,6.4,1.2,4.3-1.3,8.5-2.6,12.8-3.9,1.9-.6,3.3-1.7,4.2-3.2,1.6.6,3.3.7,4.7.3,4.8-1.5,9.6-3,14.3-4.5.9-.3,1.7-.7,2.4-1.3.8,0,1.6,0,2.4-.2,10.4-3,20.8-6.1,31.2-9.1,3.1-.9,5-3.5,5.4-6.5,2.6-1.3,4.1-3.8,4.3-6.7.2-4.2.4-8.3.6-12.5.1-2.9-2-5.8-4.8-7,.4-3.2.8-6.4,1.2-9.7.6-.5,1.2-1.2,1.5-1.9.5-.9.9-1.9,1-3.2,2.5-1.2,4.2-3.9,4.2-6.7v-9.3c0-5-4.8-8.4-9.5-7.2ZM176.8,79.1c-.1,0,0,0,0-.2.9,2.3-.6.2,0,.2ZM178.5,78c.5-.4.3.4,0,0h0ZM176.1,74.9c-.1-.2-.2-.3-.3-.5-.6-1.1-1-2.1-1.4-3.3.4.5.7,1,.9,1.5.3.6.5,1.4.8,2.2ZM169.4,137.5c0,.2.2.5.3.7,2.1,4.1,5.2,7.7,4,12.3-.5,2-.9,3.9-3.1,4.6-.2,0-.3,0-.4,0-.4-.2-.5-.4-.7-.7-2.2-4-2.4-8.4-1.5-12.8.2-.9.7-2.7,1.4-4.1ZM280.4,93.1c-.2,5.3-.5,10.5-.7,15.8-1.6-2.3-3.3-4.6-4.9-6.9,1.9-3,3.8-5.9,5.7-8.9ZM150.5,189.9c.2-1.6.2-3.3.3-4.9,0-.5,0-1,0-1.4,1.7,1.3,3.7,2.4,5.9,3.2l-6.4,3.3c0,0,0-.1,0-.2ZM345.3,84.8c-.2,0-.3.1-.5.2.3-3,.7-6.1,1-9.1-.2,3-.4,5.9-.5,8.9ZM286.6,62c-.4.1-.8.3-1.1.4-.4,0-.7.1-1.1.2-5.1,1.6-10.2,3.2-15.4,4.8-2.4.8-5.4,1.3-7.2,3.2s-.5.6-.8.9c-1.4-.5-2.9-.6-4.4-.1-1.4.5-2.7.9-4.1,1.4.2-.3.4-.7.6-1,.6-1.1,1-2.4,1.3-3.6.4-.1.8-.3,1.2-.4,1.6-.5,3.2-.9,4.8-1.4.8-.3,1.5-.6,2.2-.9.8-.1,1.7-.4,2.5-.7-2.2,1,1,0,1.6-.2,1.4-.3,2.7-.6,4.1-.9,1.8-.4,3.8-.7,5.4-1.6,3.2,0,6.7-1.1,9.5-1.8,2-.5,3.9-1.1,5.5-2.1,3.7.4,7.7-.6,10.9-2.7,2.4.6,5,.5,7.6-.3.7-.2,1.3-.5,2-.8.7,0,1.4,0,2.1-.2.2,0,.5,0,.7-.1-9.3,2.6-18.5,5.2-27.8,7.9ZM467.1,58.6s0,0,0,0c0,0,0,0,0,0ZM319.4,54c-.6-.2-1.3-.3-2-.3.9-.1,1.9-.3,2.8-.4-.3.2-.6.5-.8.8ZM328.6,38.8c0,0,0-.2,0-.4.1.1.1.3,0,.4ZM208.1,81.9s0,0,0,0c.6,0,.8,0,0,0ZM25.7,328.1c0,.2,0,.3,0,.4-.1-.1-.1-.3,0-.4Z"/>
    <path class="stSnorkelingAdventure28" d="M128.8,217.7c0,.3-.1.5-.1.7,0-.2,0-.4.1-.6,0,0,0,0,0,0Z"/>
  </g>
  <g>
    <path class="stSnorkelingAdventure34" d="M86.2,249.4c-.7-.6-1.1-1.3-2.1-1.3-8.9-9.1-20.1-16.5-27.9-26.6-16.9-21.9,3.5-36.6,23.8-42.1,3.1-.8,6.6-.9,9.5-2.1,1-1.3,2.1-17.6,2.1-20.3.1-.6.2-1.2.1-1.8l.4-5.6s0,0,0,0l-.4,5.6c0,.6,0,1.3-.1,1.8,0,2.7-1,19-2.1,20.3-2.8,1.3-6.4,1.3-9.5,2.1-20.3,5.4-40.7,20.2-23.8,42.1,7.8,10.2,19,17.5,27.9,26.6,1,0,1.5.7,2.1,1.3,4.4,4,9.1,9.6,11.6,15,17.4,37.4-18.5,72.8-50.1,86.5-3.2,1.4-6.6,2.6-10,3.7h0c3.4-1.1,6.8-2.3,10-3.7,31.5-13.6,67.5-49.1,50.1-86.5-2.5-5.4-7.2-11-11.6-15Z"/>
    <path d="M68.8,231c-7.8-7.3-19.9-18.4-15.5-30.3,2.4-6.5,18.4-12.2,24.9-13.6,2-.4,6.2-.4,7.5-1,1.8-.8,2.4-4.7,3.7-5.8.8-.7,2.4-.7,2.5-.9.4-.5,1.5-11.2,1.7-12.8.6-6.4.5-12.9,1.1-19.2-10.1.8-20.5,5.6-29.3,10.5-26,14.2-59,48.7-50.2,81,7.5,27.5,42.6,36.8,47.6,59.4.8,3.6,1.3,11.6-1,14.7-1.4,1.8-10.6,7.2-13.1,8.6-2.1,1.1-13,5.8-13.5,6.5-1.1,1.2,0,2.9-1,4.3-1,1.4-6,2.9-6.4,4.2v30.8c10.2-3.2,20.4-6.8,29.7-12.2,28.1-16.5,59.8-60.5,41.6-93.6-6.9-12.4-20-21-30.1-30.5ZM47.7,350.9c-3.2,1.4-6.6,2.6-10,3.7h0s0,0,0,0c0-2.1,0-4.2,0-6.3-.9-.5-.5-2-.5-2.9,0-3.8,0-7.6,0-11.3,0-.9-.2-4.4,0-4.7.2-.2,5.2-2.2,6.1-2.5,2.4-1.2,14.9-8.1,17.5-10,12.6-9.4,18.1-25,11.1-39.8-.6,0-5.5-7.4-6.8-8.7-5.9-5.9-14.2-11.3-20.6-17.1-3.1-2.9-6.2-5.7-9-9-2.3-2.6-3.5-4.4-5.3-7.4-6.4-11.1-7.8-23.5-2.1-35.3,0-.2,0-.4,0-.5,2.9-9.9,8.9-17,16.3-23.7,13.4-12.2,29.8-21.3,47.4-25.8h0s0,0,0,0l-.4,5.6c0,.6,0,1.3-.1,1.8,0,2.7-1,19-2.1,20.3-2.8,1.3-6.4,1.3-9.5,2.1-20.3,5.4-40.7,20.2-23.8,42.1,7.8,10.2,19,17.5,27.9,26.6,1,0,1.5.7,2.1,1.3,4.4,4,9.1,9.6,11.6,15,17.4,37.4-18.5,72.8-50.1,86.5Z"/>
    <path class="stSnorkelingAdventure12" d="M97.8,264.4c-2.5-5.4-7.2-11-11.6-15-.7-.6-1.1-1.3-2.1-1.3-8.9-9.1-20.1-16.5-27.9-26.6-16.9-21.9,3.5-36.6,23.8-42.1,3.1-.8,6.6-.9,9.5-2.1,1-1.3,2.1-17.6,2.1-20.3.1-.6.2-1.2.1-1.8l.4-5.6c-17.6,4.5-34.1,13.6-47.4,25.8-7.4,6.8-13.4,13.8-16.3,23.7,0,.2,0,.4,0,.5-5.7,11.8-4.3,24.2,2.1,35.3,1.7,3,3,4.7,5.3,7.4,2.8,3.2,5.8,6.1,9,9,6.4,5.8,14.7,11.2,20.6,17.1,1.3,1.4,6.3,8.7,6.8,8.7,7,14.8,1.5,30.4-11.1,39.8-2.6,1.9-15.7,9.2-17.6,10-2.1.8-5.8,2.2-6,2.4-.2.3,0,3.8,0,4.7,0,3.8,0,7.6,0,11.3,0,.9-.3,2.3.5,2.9,0,2.1,0,4.2,0,6.3,3.4-1.1,6.8-2.3,10-3.7,31.5-13.6,67.5-49.1,50.1-86.5Z"/>
    <polygon class="stSnorkelingAdventure3" points="140.3 197 144.6 131 130.4 137.9 129.1 172.6 116.3 144.3 101.6 153.4 107 158.4 100 222.6 113.7 214.6 116.1 177 128.9 203.8 140.3 197"/>
    <path class="stSnorkelingAdventure3" d="M162.9,181.1c11.4,2.1,23.8-10,27.8-27.1,2-8.8,1.5-17.1-1.1-23.5l5.1-6.1s-8.2-7.7-20.7-5.4h0c-10.4.5-20.9,11.9-24.5,27.4-4,17.1,2,32.7,13.4,34.8ZM158.1,146.5c2.3-11.2,9.7-19.2,16.5-17.7,2.5.5,4.5,2.2,6,4.7l-3.2,1.7,4.6,9c.9,1.7,1.2,3.6,1,5.4,0,.7-.2,1.4-.4,2.1-2.3,11.2-9.7,19.2-16.5,17.7-6.8-1.4-10.4-11.7-8-22.9Z"/>
    <path class="stSnorkelingAdventure8" d="M435.3,66l4.8-.6c1.6-.2,2.8.9,2.7,2.5h0c0,1.8-.4,2.9-1.7,4-2.2,1.9-12.8,5.1-13.8-2.6-1-7.7,3.5-20.8,21.3-17.5l5.3-8.2s-2.1-2.8-14.2-1.1h0c-10,.4-20.3,8.5-23.9,19.4-4,12,1.6,22.9,12.6,24.3,11,1.4,26.5-3.4,28.2-19.5,0-.9,0-1.7,0-2.4,0-1,.7-1.9,1.7-2l1.9-.2-.2-6.8-25.5,4.3.8,6.4Z"/>
    <path class="stSnorkelingAdventure3" d="M199.4,115.8v3.3s-1.8,47.8-1.8,47.8l14.2-6.3-.7-23,11.3,18.1,14.5-6.5-12.4-17.5s5.2-2.7,9.4-9.8c2.7-4.5,3.7-9.8,2.3-14.8-.3-1.2-.8-2.4-1.5-3.4-2.3-3.4-5-11.4-25.7-.4l-14.7,8.6.7,5.3,4.4-1.4ZM212.5,114.8c9.8-4.1,9.7,3.1,8,6.1-1.7,3-7.6,6.6-7.6,6.6l-.4-12.8Z"/>
    <polygon class="stSnorkelingAdventure3" points="242.9 99.5 242.4 146.8 254.2 141.8 253.5 119.3 265.6 137.2 279.2 131.8 263 109.2 283.7 76.8 264.4 82.8 255 107.2 255.9 85.6 237.9 91.7 239.5 100.7 242.9 99.5"/>
    <polygon class="stSnorkelingAdventure3" points="313.7 119.3 313.4 108.2 297.3 113.7 297.1 103.9 310.7 100.5 309.8 90.7 299.6 93.1 299.3 84.1 313.9 81 314.6 68 285.9 76.1 286.2 85.5 289.6 84.4 287.6 128.7 313.7 119.3"/>
    <polygon class="stSnorkelingAdventure3" points="338 62.1 322.1 66.1 320.1 117.2 347.5 108.4 347.2 98.1 333.5 102.8 338 62.1"/>
    <polygon class="stSnorkelingAdventure3" points="369.4 55 355.8 57.9 352.8 106.8 364.8 103.3 369.4 55"/>
    <polygon class="stSnorkelingAdventure3" points="407.5 92 413.9 46.6 397.9 49.4 397.2 73.7 389.6 50.9 374 54 376.4 62.5 373.1 100.9 384.8 97.8 385.6 74.6 395.8 94.9 407.5 92"/>
    <path class="stSnorkelingAdventure3" d="M137,210.9l.8,8.7-22.4,91,17.6-12.8,3.3-20.2,19.4-11.2v16.2l15.5-9.8-3.2-78.2-30.9,16.2ZM152.5,255.7l-11.6,5.5,11.6-35.9v30.4Z"/>
    <path class="stSnorkelingAdventure3" d="M207.6,178.3c-6.4.4-16.4,3.2-31.7,12.5v9.3l5.7-2.8-2.8,71s24.9-15.7,36.6-34.2c3.5-5.5,5.4-11.8,5.9-18.3.6-7.3,1-19.4-1.3-28.5-1.4-5.6-6.6-9.4-12.4-9.1ZM204.5,221.1c-3.7,7.8-5.4,10.6-8.4,13.8-.4.5-1.2.2-1.2-.5l1.1-37.6s0,0,.1-.1c3.1-3.1,8.4-2.1,10.3,1.9,3.9,8.3-.4,19.2-2,22.5Z"/>
    <polygon class="stSnorkelingAdventure3" points="252.6 156.5 244 208.7 239.6 161.9 221.8 169.5 235.2 236.5 251.4 228.1 269.5 149.8 252.6 156.5"/>
    <polygon class="stSnorkelingAdventure3" points="272.3 158 273.6 157.5 267.1 220.2 298.3 205.5 298.3 184.6 283.5 192.4 283.8 178.2 297.3 173.1 297.1 161.7 285.3 166.5 285.3 153 303.6 146.4 303.6 137.1 272.3 148.7 272.3 158"/>
    <polygon class="stSnorkelingAdventure3" points="500.1 92.3 500.1 83 467 91.1 467 100.4 468.3 99.9 465.1 142.5 496.3 133.3 496.9 120.8 478.3 127.9 478.5 120.7 491.9 115.5 493.4 103.9 480 108.9 480 97.5 500.1 92.3"/>
    <path class="stSnorkelingAdventure10" d="M456.8,95.5c-6.9-3.3-29.1,4.2-29.1,4.2v9.3l1.3-.5-4.9,46.8,12.8-3.9,1.3-19.5,7.6,16.6,14.3-4.5-8.3-15.9s9.1-7.5,9.6-14.1c.4-6.6,1.1-15.8-4.6-18.5ZM439.9,121.8l.7-13s6.9-1.4,6.9,6.5c0,4.3-7.6,6.5-7.6,6.5Z"/>
    <polygon class="stSnorkelingAdventure3" points="332.4 164.1 323.2 130.3 309.8 134.9 305.1 202.4 318.6 196.4 318.6 157 327.6 192.5 343.2 186 345.8 122.8 334 126.6 332.4 164.1"/>
    <polygon class="stSnorkelingAdventure3" points="353.5 135.2 362.6 133.1 359.9 179.2 375.3 173.2 375.3 129.9 385.3 127.4 385.3 111.2 353.5 120.3 353.5 135.2"/>
    <path class="stSnorkelingAdventure3" d="M412.3,103.3l-2.6,41.9s-.4,5.3-4.9,6.4c-1.3.3-5.5,1.9-5.1-4,.4-6,3.9-41.9,3.9-41.9l-13.8,3.8-2.4,42c-.5,7.9,7,13.9,14.6,11.7.6-.2,1.3-.4,2-.6,0,0,13.1-2.7,16.1-19.3l4.8-43.3-12.8,3.3Z"/>
    <polygon class="stSnorkelingAdventure15" points="144.3 190.8 148.6 124.9 134.4 131.7 133.1 166.5 120.3 138.1 105.6 147.2 110.9 152.2 104 216.5 117.7 208.4 120.1 170.9 132.8 197.6 144.3 190.8"/>
    <path class="stSnorkelingAdventure18" d="M166.8,174.9c11.4,2.1,23.8-10,27.8-27.1,2-8.8,1.5-17.1-1.1-23.5l5.1-6.1s-8.2-7.7-20.7-5.4h0c-10.4.5-20.9,11.9-24.5,27.4-4,17.1,2,32.7,13.4,34.8ZM186.7,143.2c.2,1.6,0,3.3-.4,4.8-2.9,9.8-10,16.5-16.2,15.2-6.8-1.4-10.4-11.7-8-22.9,2.3-11.2,9.7-19.2,16.5-17.7,2.5.5,4.5,2.2,6,4.7l-3.2,1.7,2.2,4.3c1.6,3.1,2.6,6.4,3,9.9h0Z"/>
    <path class="stSnorkelingAdventure20" d="M439.3,59.8l4.8-.6c1.6-.2,2.8.9,2.7,2.5h0c0,1.8-.4,2.9-1.7,4-2.2,1.9-12.8,5.1-13.8-2.6-1-7.7,3.5-20.8,21.3-17.5l5.3-8.2s-2.1-2.8-14.2-1.1h0c-10,.4-20.3,8.5-23.9,19.4-4,12,1.6,22.9,12.6,24.3,11,1.4,26.5-3.4,28.2-19.5,0-.9,0-1.7,0-2.4,0-1,.7-1.9,1.7-2l1.9-.2-.2-6.8-25.5,4.3.8,6.4Z"/>
    <path class="stSnorkelingAdventure14" d="M203.4,109.6v3.3s-1.8,47.8-1.8,47.8l14.2-6.3-.7-23,11.3,18.1,14.5-6.5-12.4-17.5s5.2-2.7,9.4-9.8c2.7-4.5,3.7-9.8,2.3-14.8-.3-1.2-.8-2.4-1.5-3.4-2.3-3.4-5-11.4-25.7-.4l-14.7,8.6.7,5.3,4.4-1.4ZM216.5,108.6c9.8-4.1,9.7,3.1,8,6.1-1.7,3-7.6,6.6-7.6,6.6l-.4-12.8Z"/>
    <polygon class="stSnorkelingAdventure11" points="246.8 93.4 246.4 140.6 258.2 135.7 257.5 113.2 269.6 131 283.2 125.7 267 103 287.6 70.6 268.3 76.7 258.9 101.1 259.9 79.4 241.9 85.6 243.5 94.6 246.8 93.4"/>
    <polygon class="stSnorkelingAdventure16" points="317.7 113.2 317.4 102 301.2 107.5 301.1 97.8 314.7 94.4 313.8 84.5 303.6 86.9 303.3 78 317.8 74.8 318.6 61.9 289.9 70 290.2 79.3 293.6 78.3 291.6 122.5 317.7 113.2"/>
    <polygon class="stSnorkelingAdventure21" points="342 55.9 326.1 59.9 324.1 111 351.5 102.2 351.2 92 337.4 96.6 342 55.9"/>
    <polygon class="stSnorkelingAdventure6" points="373.4 48.8 359.8 51.8 356.8 100.6 368.8 97.1 373.4 48.8"/>
    <polygon class="stSnorkelingAdventure22" points="411.5 85.9 417.8 40.5 401.9 43.2 401.2 67.5 393.6 44.8 378 47.9 380.4 56.4 377.1 94.8 388.8 91.6 389.6 68.4 399.8 88.7 411.5 85.9"/>
    <path class="stSnorkelingAdventure2" d="M141.2,204.9l.8,8.7-22.4,91,17.6-12.8,3.3-20.2,19.4-11.2v16.2l15.5-9.8-3.2-78.2-30.9,16.2ZM156.6,249.7l-11.6,5.5,11.6-35.9v30.4Z"/>
    <path class="stSnorkelingAdventure0" d="M211.7,172.2c-6.4.4-16.4,3.2-31.7,12.5v9.3l5.7-2.8-2.8,71s24.9-15.7,36.6-34.2c3.5-5.5,7.3-11.7,7.8-18.2.6-7.3-.9-19.5-3.2-28.6-1.4-5.6-6.6-9.4-12.4-9.1ZM208.7,215.1c-3.7,7.8-5.4,10.6-8.4,13.8-.4.5-1.2.2-1.2-.5l1.1-37.6s0,0,.1-.1c3.1-3.1,8.4-2.1,10.3,1.9,3.9,8.3-.4,19.2-2,22.5Z"/>
    <polygon class="stSnorkelingAdventure17" points="256.8 150.5 248.2 202.7 243.8 155.8 226 163.5 239.4 230.4 255.6 222 273.7 143.8 256.8 150.5"/>
    <polygon class="stSnorkelingAdventure4" points="276.5 152 277.8 151.5 271.3 214.1 302.5 199.4 302.5 178.6 287.7 186.4 288 172.2 301.5 167.1 301.3 155.7 289.5 160.5 289.5 147 307.8 140.3 307.8 131.1 276.5 142.7 276.5 152"/>
    <polygon class="stSnorkelingAdventure9" points="504.2 86.3 504.2 77 471.1 85.1 471.1 94.4 472.5 93.9 469.2 136.4 500.5 127.3 501.1 114.8 482.5 121.9 482.7 114.6 496.1 109.5 497.5 97.8 484.2 102.9 484.2 91.5 504.2 86.3"/>
    <path class="stSnorkelingAdventure1" d="M461,89.5c-6.9-3.3-29.1,4.2-29.1,4.2v9.3l1.3-.5-4.9,46.8,12.8-3.9,1.3-19.5,7.6,16.6,14.3-4.5-8.3-15.9s8.2-9,9.6-13.6,1.1-16.3-4.7-19ZM443.6,118.2l.7-13s6.9-1.4,6.9,6.5c0,4.3-7.6,6.5-7.6,6.5Z"/>
    <polygon class="stSnorkelingAdventure7" points="336.6 158.1 327.4 124.2 311.1 129.8 313.8 132.4 309.3 196.4 322.8 190.4 322.8 150.9 331.7 186.5 347.3 180 350 116.8 338.2 120.6 336.6 158.1"/>
    <polygon class="stSnorkelingAdventure13" points="357.7 129.2 366.8 127.1 364 173.2 379.5 167.2 379.5 123.9 389.4 121.4 389.4 105.2 357.7 114.3 357.7 129.2"/>
    <path class="stSnorkelingAdventure19" d="M416.4,97.3l-2.6,41.9s-.4,5.3-4.9,6.4c-1.3.3-5.5,1.9-5.1-4,.4-6,3.9-41.9,3.9-41.9l-13.8,3.8-2.4,42c-.5,7.9,7,13.9,14.6,11.7.6-.2,1.3-.4,2-.6,0,0,13.1-2.7,16.1-19.3l4.8-43.3-12.8,3.3Z"/>
    <g>
      <path d="M108.1,93.2c1.9,2.5,11.2,19.6,10.7,21.3-.4,1.1-2.8,1.4-.9,3,1.3-.6,10-4.4,10.1-4.9.2-.5,0-1.2,0-1.8-1.3,0-2.3.9-3.4-.2-.3-.4-4-8.1-4.2-8.7-.5-2.5.7-7,3.8-5.3,1.4.7,6.3,10.8,6,11.9,0,.3-2.2,2.8-.4,3,1,.1,8.5-4.8,10.6-4.6-.4-3.3-1.7-1.4-2.9-1.3-2.3.1-5.8-12.7-9.2-14.1-3.3-1.3-7.1.7-8.8,3.5-.3.5-.5,3.5-1.6,2.4-.8-.8-3.3-7.5-4.4-9.2-.3-.4-.5-.9-1-1.1-.4-.1-6,3.5-6.7,4.1-2.9,2.5,1.8,1.8,2.4,2.1Z"/>
      <path d="M261.4,41.6c.8.9,3.3,12.3,3.1,13.7-.4,2.1-2.4,1.3-1.9,3.8,1.4-.9,11.8-2.4,11.8-3.2.2-2-2.6-1.1-3.1-1.8-.3-.5-2.4-9.3-2.4-10.2,0-4.4,4.6-8.1,7-3.6,1,1.9,3,10.8,2.4,12.7-.2.7-2.3.5-1.8,2.4.4.5,11.5-2,12-2.3.5-.3.6-1.5.4-1.6-.2-.3-2.6.3-3.4-.8-1.1-1.5-2.1-9.7-3.3-12.4-3-6.4-12.1-5.3-14.1,1.2-1.4-.2.7-3.6-1.1-3.2-2.5.6-6.3,2.6-8.9,3.3.4,2.3,2.2.9,3.3,2.1Z"/>
      <path d="M85.4,108.6c-.2-2.8,2.1-4,4.5-4.7l11.2,20.2c.4,2.1-4.6,2.1-2.1,4.8,1.5-1.3,13.3-7.1,13.5-7.8.9-3.5-3.4-.6-4-.6-2-.3-10.6-17.1-12.6-19.6,2.5-3.9,6.6-2.9,7.8,1.4l3.3-1.4c-.6-1.3-3.9-7.2-5-7.1l-21.2,13,3.4,7.3c4.4-1.7,1.4-2.9,1.2-5.5Z"/>
      <path d="M312,20.2c0,4.7,5.2,20.8,3.8,24.2-.6,1.5-3.5.4-2.8,3.3,3.6-.7,7.1-1.6,10.7-2.2,2.2-.4,3,.8,2.8-2.2-1.7,0-3.5.2-3.8-1.8l-4.8-27.3c-.6-.5-4,1.7-4.9,2-2.6,1-5.7,0-5,3.6,1.3.2,3.1-1,4,.3Z"/>
      <path d="M192.5,63.6c.5.3,2.3-.6,3.1,0,.7.5,5.2,13.6,4.2,14.9-.2.3-1.3.2-1.5.8-.3.7.2,1.8.6,1.9.1,0,1.3-.9,1.9-1.2,3-1.3,6.2-2.2,9.2-3.6-.1-2.3-2-.8-2.8-1.1-1.2-.4-6.4-14.7-3.3-14.4.3,0,3.5,4.1,5.7.2,3.8-6.8-8.3-6.9-7.6.7l-1.6-3.3c-1.1.7-8.1,2.8-8.4,3.2-.3.4-.1,1.5.4,1.9Z"/>
      <path d="M214.3,57.5c.9,1.2,4.6,11.8,4.4,13.2-.1,1.6-1.7,1.3-2,2-.3.7.2,1.8.6,1.8.1,0,1.2-1,1.9-1.2,1.3-.4,9.6-3,9.8-3.5,0-.2.3-1.3-.2-1.3-1.7-.2-2.5.9-3.8-1.1-2.4-3.7-4.2-11.5-5.3-15.9l-9.2,3.6c0,2.7,2.4.6,3.8,2.4Z"/>
      <path d="M244.6,43.9c0,.2-.3,1.3.2,1.3,1.3,0,2.6-.1,3.4,1,.7.9,4,13.2,3.6,13.7-.7,1-2.7.3-1.6,3.1,1.4-1.1,11.2-3.2,11.4-3.8.2-.5,0-1.2,0-1.8-.2-.3-2.5.8-3.1.3-1.1-.9-4.1-14.8-4.7-17.2-1.4.5-8.8,2.6-9.2,3.3Z"/>
      <path d="M249.6,30.1c-4.3-2.2-7.1,4.1-4.4,7.1,4,4.6,10.6-3.9,4.4-7.1Z"/>
      <path d="M215.2,49.9c4.8-1.1,2.9-8.9-2.3-7.8-3.8.9-2.6,8.9,2.3,7.8Z"/>
      <path d="M179.3,89.2c19.1-3.6,14.6-32-2.4-31-23.3,1.3-18.7,35,2.4,31ZM167.8,65.9c.5-1.6,2.9-4,4.7-4.3,5-.8,7.3,1.9,9.5,5.9,2.6,4.8,7.1,16.8-.9,18.7-8.3,1.9-15.1-14.2-13.2-20.2Z"/>
      <path d="M231.4,60.2c-3.7,3.5-2.9,8,2.6,8.1-.4,1-1.8.7-2.8,1.6-2,2-1.3,5.4,1.5,6.2,4.8,1.3,14.4-3.1,15.6-8.2,2.9-12.7-14.9-3.7-16-5,.1-.6,0-2.4.2-2.6.2-.2,4.5-.5,6.1-1.3,3.3-1.7,5.2-5.3,4.3-9.1-.5-2-2.7-3.5-3-5.6,6.3,1.7,4.1-6.4-.3-3.4-2.1,1.4-1,4.6-1.4,4.9-.2.1-3.1-.2-4.3,0-8.6,1.3-11.9,11.6-2.5,14.4ZM242.4,66.3c1.4,0,2.2,1,2.1,2.4-.3,3.8-8.9,7.1-10.6,2.7-.9-2.5,6.6-5.1,8.4-5.1ZM232.5,48.2c4.7-1.1,7.5,9.2,3.3,10.1-3.5.7-7-9.2-3.3-10.1Z"/>
      <path d="M294.8,35.3c-.2-1-3.2-2.8.8-3.8,3.7-.9,5.4,3.7,3.4,5.5-3.8,3.5-11.3,3.9-9.5,11.3,1.5,6.2,11.1,3,12.8-1.8.9,4.3,7.9,3,9.5.1,1.1-2.1-.3-3.7-1.5-1.1-1,0-1.2-.2-1.7-1-1.7-2.8-1.4-11.1-3.5-13.5-3.9-4.4-18.2-1.4-16.5,5.8.8,3.6,6.9,1.5,6.3-1.5ZM297.1,47.1c-3.7-1.4.6-7.9,3.4-8.7.9,2.7,1.2,10.4-3.4,8.7Z"/>
      <path d="M151.4,101.5c1.3-.8,2.7-2.2,3.4-3.5,1.6-2.9,2.7-5.8-1.7-5.6.4,8.3-7.8,8.4-10.1,1.2l10.9-5.4c-2.1-5.7-8.2-7.6-13.4-4.3-10.8,6.9-1.3,25.1,10.9,17.6ZM143.4,85.5c4.8-1.6,6.8,1.6,6.8,1.6l-8.3,4c-2.2-3.7,1.6-5.6,1.6-5.6Z"/>
    </g>
  </g>
  <g>
    <g>
      <path class="stSnorkelingAdventure36" d="M413.6,282s-.1,0-.3,0c-.7.1-1.5.3-2.2.4-2.2.7-4.6,1.5-6.8,2.3-7.2,2.5-14.3,6.2-19.4,11.7-2.6,2.7-4.7,6-5.8,9.4-.2.8-.5,1.5-.6,2.3.9-.2,1.8-.5,2.7-.7,3.9-16.5,23.6-22.1,29.8-23.5.9-.2,1.6.5,1.3,1.3l-1.8,5.1c1.2-1.4,2.3-2.9,3.4-4.5.1-.8.2-1.6.2-2.4,0-.5,0-1.1-.2-1.4,0-.1-.2-.2-.2-.2Z"/>
      <path class="stSnorkelingAdventure36" d="M381.4,307.7h-.2c-1,.3-1.9.6-2.7.8h-.4c0,.1,0-.3,0-.3.1-.7.3-1.5.6-2.4,1.1-3.3,3.1-6.6,5.8-9.5,4.7-5,11.3-9,19.6-11.8h.2c2.2-.8,4.4-1.6,6.6-2.3.7-.1,1.4-.3,2-.4h.3c.2,0,.4,0,.4,0h0c.1,0,.3,0,.4.3.2.4.3,1.2.3,1.5,0,.7,0,1.5-.2,2.4h0c0,0,0,.1,0,.1-1,1.5-2.2,3-3.4,4.5l-1,1.2,2.3-6.6c0-.3,0-.5-.2-.7-.2-.2-.5-.3-.8-.2-6,1.3-25.7,6.9-29.6,23.3v.2ZM378.9,307.8c.6-.2,1.3-.3,2.1-.5,4-16.6,24-22.2,30-23.6.5-.1,1,0,1.3.4.3.3.4.8.3,1.3l-1.3,3.6c.8-1,1.5-2,2.2-3.1.1-.8.2-1.6.2-2.3,0-.5,0-1-.2-1.2,0,0,0,0,0,0,0,0,0,0-.2,0h-.2c-.6.2-1.3.3-2,.4-2.1.6-4.3,1.4-6.5,2.2h-.2c-8.2,2.9-14.7,6.8-19.3,11.7-2.7,2.9-4.7,6.1-5.7,9.3-.2.7-.4,1.3-.5,1.9Z"/>
    </g>
    <path class="stSnorkelingAdventure24" d="M410,291.7l2.3-6.5c.3-.8-.4-1.5-1.3-1.3-6.4,1.4-27.3,7.4-30.2,25.3l19.2-7.5c1.5-.8,9.4-8.4,9.9-10Z"/>
    <path class="stSnorkelingAdventure29" d="M378.1,309.4c.3-10.1,9.1-18.5,18.2-23.4,4.5-2.5,9.3-4.5,14.3-5.7.7-.1,1.3-.2,2.1-.3,5.5-.7,2.8,6.3,1.7,9.1-.5,1.2-1,2.3-1.6,3.4h-.2c.6-3,1.5-5.9,1.5-8.9,0-.5,0-1.1-.2-1.4,0-.1-.2-.2-.2-.2,0,0-.1,0-.3,0-.7.1-1.5.3-2.2.4-2.2.7-4.6,1.5-6.8,2.3-7.2,2.5-14.3,6.2-19.4,11.7-2.6,2.7-4.7,6-5.8,9.4-.4,1.2-.7,2.3-.7,3.5h-.2Z"/>
    <path class="stSnorkelingAdventure40" d="M385.6,307c.5-2,1.1-3.8,1.8-5.7.7-1.8,1.5-3.7,2.7-5.3-1.4,2.6-1.8,5.5-2.3,8.4-.1,1-.2,1.9-.3,2.9l-2-.3h0Z"/>
    <path class="stSnorkelingAdventure40" d="M393.9,303.2c1.2-5.1,3.7-10.1,7.6-14.1-1.6,2.1-2.9,4.4-3.8,6.9-.8,2.1-1.3,4.2-1.6,6.4,0,.3,0,.6,0,.9h-2.1Z"/>
    <path class="stSnorkelingAdventure40" d="M402.9,298.3c1-4.2,3.2-8.1,6.3-11.3-1.9,2.6-3.1,5.5-3.8,8.5-.2,1-.4,2-.4,2.9h-2.1Z"/>
    <g>
      <path class="stSnorkelingAdventure31" d="M444.5,393.2s48.4-8.8,45.9-61.6c0-.2-.1-2.2-.2-2.4-.3-1.8-.7-9.9-20.3,2.1"/>
      <path class="stSnorkelingAdventure31" d="M444.5,393.2c9.3-2.1,18.1-6.4,25.4-12.3,11.2-8.8,17.9-21.8,19.6-35,.6-4.4.8-8.8.7-13.1-.1-2.1.1-4.5-1.1-6.2-3.6-4.4-15.1,2.5-19.2,4.8,4-2.6,13.5-8.2,18.1-6.1,2.8,1.4,2.4,4.9,2.6,7.5.2,4.4,0,8.8-.7,13.2-1.8,13.2-8.6,26.3-19.9,35.1-7.4,5.8-16.4,10.3-25.6,12.1h0Z"/>
    </g>
    <g>
      <path class="stSnorkelingAdventure31" d="M470.9,338.2l15-7.4s3.2,46.5-33.9,56c-.9,1.7-1.9,3.3-2.9,4.9,16.2-5.5,30.3-17.8,35.8-33.2,3.4-9.4,3.8-19.2,3.5-28.9-.1-1.5-.5-3-2.3-3.2-1.9-.3-4.3.3-6.2,1-2.5.8-4.9,1.8-7.3,2.9-.5,2.6-1,5.2-1.6,7.8Z"/>
      <path class="stSnorkelingAdventure31" d="M456.9,388.7c-2.5,1.2-5,2.3-7.7,3.2l-.6.2.3-.5c.9-1.5,1.8-3,2.9-4.9h0c0,0,.1-.1.1-.1,19-4.8,27.2-19.7,30.7-31.3,3.4-11.4,3.1-22,3.1-24l-15.1,7.4v-.5c.7-2.7,1.2-5.3,1.7-7.8h0c0-.1.1-.2.1-.2,2.3-1,4.8-2.1,7.3-2.9,1.9-.6,4.3-1.3,6.4-1,2.1.2,2.4,1.9,2.5,3.4.3,8.1.2,18.8-3.5,28.9-4.4,12.5-14.9,23.6-28.2,30.2ZM449.6,391.3c16.5-5.7,29.9-18.3,35-32.8,3.6-10.1,3.8-20.7,3.5-28.8,0-1.4-.4-2.8-2.1-3-2-.3-4.3.4-6.1,1-2.5.8-4.9,1.8-7.1,2.9-.4,2.3-.9,4.7-1.4,7.2l14.8-7.3v.3c0,.1.8,11.8-3,24.5-3,9.8-9.2,22-22.5,28.6-2.5,1.3-5.3,2.3-8.4,3.1-.9,1.6-1.7,3-2.5,4.3Z"/>
    </g>
    <path class="stSnorkelingAdventure24" d="M470.5,338.4l15.5-7.6s3.3,47.5-35,56.2l19.5-48.6Z"/>
    <path class="stSnorkelingAdventure40" d="M455.3,372.2c3.6-.5,7.2-1.3,10.7-2.2,3.5-.9,7.1-1.9,10.3-3.8-2.9,2.3-6.4,3.8-9.8,5.3-3.5,1.4-7,2.7-10.6,3.8,0,0-.6-3.1-.6-3.1h0Z"/>
    <path class="stSnorkelingAdventure40" d="M461.3,357.7c4.3-.4,8.6-1.6,12.6-3.3,3.2-1.4,6.3-3.1,9.1-5.2-2.9,2.8-6.2,5.2-9.8,7.2-3.7,2-7.6,3.6-11.7,4.5,0,0-.3-3.2-.3-3.2h0Z"/>
    <path class="stSnorkelingAdventure40" d="M465.2,345.7c6.4-1.9,12.3-5.5,16.8-10.1-1.9,2.7-4.2,5.3-6.9,7.4-2.7,2.2-5.7,4.2-8.9,5.7,0,0-1-3-1-3h0Z"/>
    <path class="stSnorkelingAdventure44" d="M173.7,378.7s-53.1-11.3-15.6-31.8l29.7-10.4c2.2-.8,3.8-2.8,4-5.2l2.9-45.5s-1.3-25.5,27.7-27.9c0,0,11.8,2.6,41.4-15,29.6-17.6,47.9,29.3,47.9,29.3l10.5,21s26.7-1,39,7c12.3,8-8.4,22.1-8.4,22.1l-178.9,56.4Z"/>
    <path class="stSnorkelingAdventure24" d="M410.1,178.8c3.9,7.2,8.7,14.2,14.7,19.9,2.3,2.2,4.8,4,7.7,5.5s1.1.9,1,1.6,0,.3,0,.5c0,0,0,0-.1,0v1.5c0,0-.8.4-.8.4l-12.9,6.9c-1.6.8-1.3,3,.4,3.3s.9.2,1.3.2c1.6.3,3,.6,3.8.7-1.2.3-2.5.6-3.9,1-6.4,1.7-14.4,4.3-19.6,8.2-1.4,1-.8,3,.9,3.2,7.2.6,14.7-.4,21.9-2.2,8.5-2.2,16.7-5.7,24.2-10.1.6-.3.9-.9,1-1.5s0-.5,0-.7c0,0,0,0,0,0-.3-.1-.3-.5-.3-.8,0-.2,0-.4,0-.5.1-.7-.1-1.3-.7-1.7l-2.8-1.8h-.2c0-.1.2-.3.2-.3l2.2-1.8c.7-.6.9-1.6.5-2.3l-.6-1s.4,0,.4-.1l4.2,1.3c1.8.6,3.5-1.6,2.2-2.9l-5.2-5.6s0,0,0-.1c-9-10-19.9-20.6-32.1-28.8,0,0-5.4-2.8-7.9-.6,0,0-2.6,1.9.7,8.8ZM442.4,217.8v-.4c.3.5.3.7,0,.4Z"/>
    <path d="M452.5,208c1.5.5,3.3-1.3,2.2-2.6-.7-.7-4.7-4.8-5.4-5.6-9.8-10.3-20.6-20.3-32.6-28.1-1.3-.5-4.8-2-6.5-.6.1,0,0,0,0,0-.3.5-.4,1-.4,1.6,0,2.6,1.2,5,2.6,7.4,1.9,3.3,4,6.5,6.2,9.5,4,5.1,8.4,10.1,14.2,13.2,1.1.5,2.1,1.5,2.1,2.8,0,.2,0,.3,0,.5,0,0,0,0,0,0,0,.1,0,.3,0,.3,0,.7-.3,1.1-1.1,1.4,0,0-.9,0-.9,0-.3-.2-.5-.2-.7-.6,0,0-.1-.2,0,0,.1.2.3.3.4.4,0,0,2.2-1.2,2.2-1.2v1.5c-.1,0-.2.8-.2.8l-.7.4-11.1,5.9-2.6,1.4c-.3.2-.2.4-.2.5-.2,0,1.3.3,2.2.5,2,.4,7.4,1.4,9.5,1.8l-6.3,1.5c-6.5,1.6-13,3.3-18.8,6.2-1.5.7-2.9,1.5-4.2,2.5-.6.4-.5.8-.1,1.1,10.2,1,20.5-.9,30.2-4.1,4.8-1.6,9.4-3.6,13.9-5.9,1-.6,2.5-.9,3-2.1.2-.4.1-.9.2-1.2-.3-.1-.3-.5-.3-.8,0,.3,0,.6.3.7.2.8,0,1.9-.9,2.4-2.1,1.4-4.3,2.6-6.6,3.8-12.2,6.4-26,10.3-39.8,9.5-1.8,0-3.2-2.1-2.5-3.8.2-.7.8-1.2,1.2-1.5,1.4-1.1,2.9-2,4.4-2.8,6.2-3.2,12.8-5,19.3-6.7v2.8c0,0-3-.6-3-.6-.5,0-1.7-.3-2.2-.4-1.6-.3-2.7-2-2.4-3.5.2-1.3,1.2-2.2,2.3-2.7.4-.2,1.6-.9,2.1-1.1,0,0,11-5.9,11-5.9l-.8,1.2c0-.9.2-3,.3-3.9,0,0,2.1,1.2,2.1,1.2.2.1.5.4.7.7,0,0,0,0,0,0,0,0-.2-.3-.3-.3,0,0-.5-.3-.5-.3h-.9c-.9.3-1.1.7-1.1,1.4,0,.1,0,.2,0,.3,0-.2,0-.5,0-.7,0,0,0-.2,0-.3,0,0,0,0,0,0,0,0,0-.1-.2-.1-6.3-3.2-11.2-8.7-15.5-14.2-3.4-4.9-6.9-9.7-8.7-15.4-2.1-8.2,4.2-9.5,10.4-6.2,12,8.3,22.4,18.6,31.8,29.6.6.7,4.6,5.1,5.1,5.9,1.1,1.5-.9,3.5-2.5,2.8h0Z"/>
    <path d="M441.4,215.5c1.1,2,1.4,2.7,1,2.3l-14.5,7.2,12.7-9.1c-.3-.4-.7-.9-1-1.3-2.3,1-4.6,1.9-7,2.4,2.2-.9,4.3-2.2,6.2-3.6-.5-.8-.8-1.6-1.2-2.4l-6.6,2.5,6.4-3.3c-.4-1.3-.7-2.7-.6-4.1,0-1,.2-2.1.6-3.1l-9.7-6.3,10.1,5.5c.4-.8.9-1.5,1.4-2.1l-16-14.3,16,12.1c-6.3-8-12.9-15.9-20.7-22.7-1.2-1-2.4-2-3.6-3,10.5,7.2,19.3,16.2,27.6,25.4.3-.1.5-.2.8-.3-6.2,4.7-5.3,11.1-2.6,16.8,0,0,0,0,0,0,.2.5.5.9.7,1.4Z"/>
    <path class="stSnorkelingAdventure29" d="M444.6,214s1.4,109.9-128.4,96.8c0,0-126.5-.5-151.7,94.7,0,0-32.3,16.1-15.8,33.9,16.4,17.8,35.5,9.3,35.5,9.3,0,0,20.3-2.6,15.6,4-1.4,2,.9,4.8-2.8,6.8-14,7.5-24.7,28.1,7.4,36.8,41.2,11.2,268.3-22.8,283.7-203.7,0,0,4.7-61.8-27.5-86.6-2.4-1.9-5.4-3-8.5-2.8s-8.2,2.4-7.5,10.7Z"/>
    <path class="stSnorkelingAdventure36" d="M447.2,212.2s8,109.3-124.4,105.4c-120.1-3.5-151.3,82.5-151.3,82.5,0,0-1.8,5.6-6.4,7.7-6.4,3-31.3,25.2-4.8,34.8,5.2,1.9,14.6,3.2,22.7.9,8.1-2.3,25.8-5,19.2,18.1,0,0-20.9,6.1-11.3,22.7,10.5,18.2,163.1,15.4,238.2-78.4,0,0,97.7-94.5,34.6-194.9,0,0-15.1-16.1-16.5,1.3Z"/>
    <path class="stSnorkelingAdventure39" d="M177,444.9l-7.6-4c-1.8-.9-3.3-2.3-4.2-4-1.3-2.3-1.5-4.7.8-5.9h0c4.2-1.2,8.7-1.5,13-.8,16.6,2.6,64.2,5.5,102.6-35.5,0,0,.3-3.1-4.2-.9-.5.2-.9-.3-.6-.7,2-2.9,6.7-8.6,12.4-8.4,5.4.2,9.5,4.4,11.4,6.9.4.5-.1,1.3-.8,1l-3-1.1c-.8-.3-1.6.3-1.6,1.1-.1,10-3.3,62.2-57,77.3,0,0-32.9,10-59.5-23.6-.5-.6-1.1-1.1-1.8-1.5Z"/>
    <path class="stSnorkelingAdventure23" d="M184.2,440.5c2.2,3.4,9.6,12.8,24.5,11.6.4,0,.8,0,1.2,0,4.6-.3,41.8-3.8,68.7-43.4.3-.5-.3-1.1-.7-.7,0,0-7.3,6.6-10.1,8.3-22.7,13.7-30.6,21-73,24.1-2.2.2-4.3,0-6.4-.3l-3.4-.6c-.6,0-1,.5-.7,1Z"/>
    <path class="stSnorkelingAdventure32" d="M248.7,447.4l-1.7,5.5s3.8-10.4,18.8-21.2l13.8-8.5c1-.6,2.2.4,1.7,1.5-2.8,7.2-11.1,24.7-27.5,34.2s-23.8,8.9-27.2,8.3c-1.1-.2-1.9-1.2-1.9-2.4.1-3.8,2.6-12.9,21.8-19.4,1.3-.4,2.5.8,2.1,2.1Z"/>
    <path class="stSnorkelingAdventure29" d="M188.2,469.9c6.5,7.7,14.6,10.9,24.6,10.3,3.2,0,6.4-.6,9.6-1.2-3.1,1.1-6.2,2.1-9.5,2.7-10.8,2.3-20.4-.1-28.8-7.4,0,0,4-4.4,4-4.4h0Z"/>
    <path class="stSnorkelingAdventure42" d="M213,490.7s199.4-15.2,140-137.8c0,0,137.7-37.1,106.3-140.9,0,0,31,25.9,23.7,91.4-6.6,59.3-77.1,151.9-170.5,176.9,0,0-75.2,21.6-99.5,10.4Z"/>
    <path class="stSnorkelingAdventure30" d="M179.8,403.6c1.5-4.3,9.1-24.3,20.4-32.9,0,0,0,0,0,0,.7-.7,11.2-10.3-4.9-4.9-15.2,5.1-25.1,34.9-26.6,40.2-.1.3.9.8,1.3.7,1.7-.5,5.8-1.7,8.7-2.1s1-.4,1.1-.9Z"/>
    <path class="stSnorkelingAdventure41" d="M286.7,356c-7.8-15.9-25.8-20.2-36-13.1-8.4,5.9-16.9,20.3-10.6,33.2,3.5,7.1,9.8,12,16,13.4-5.1-2.4-9.1-7.9-11.9-13.6-5.3-10.7-1-23.6,9.6-28.7,10.5-5.2,23.3-.7,28.6,10,2.2,4.5,3.2,8.4,2.7,12.2,4.1-3.9,5-6.4,1.6-13.4Z"/>
    <path class="stSnorkelingAdventure28" d="M253.9,347.2c-10.5,5.2-14.8,18-9.6,28.7,2.8,5.6,6.7,11.2,11.9,13.6,5.1,1.2,10,0,13.3-4,6.9-8.6,12.3-12.8,15.7-16.1.5-3.8-.5-7.7-2.7-12.2-5.3-10.7-18-15.2-28.6-10ZM272.6,381c-5,6.4-14,.8-17.8-7.1-3.9-7.9-1.8-16.8,4.5-20,6.4-3.1,14.7.7,18.6,8.6,3.9,7.9,1.5,9.9-5.3,18.5Z"/>
    <path class="stSnorkelingAdventure5" d="M257.4,354.4c-6.4,3.1-8.4,12.1-4.5,20,3.9,7.9,12.8,13.5,17.8,7.1,6.8-8.6,9.2-10.6,5.3-18.5-3.9-7.9-12.2-11.8-18.6-8.6ZM262.2,366.7c-1.9.9-4.3,0-5.3-1.9-1-2-.2-4.4,1.7-5.3s4.3,0,5.3,1.9.2,4.4-1.7,5.3Z"/>
    <path class="stSnorkelingAdventure28" d="M260.5,359c-1.9.9-2.7,3.3-1.7,5.3,1,2,3.3,2.9,5.3,1.9s2.7-3.3,1.7-5.3c-1-2-3.3-2.9-5.3-1.9Z"/>
    <path class="stSnorkelingAdventure41" d="M259.3,353.9c-6.4,3.1-8.4,12.1-4.5,20,3.9,7.9,12.8,13.5,17.8,7.1,6.8-8.6,9.2-10.6,5.3-18.5-3.9-7.9-12.2-11.8-18.6-8.6ZM264,366.2c-1.9.9-4.3,0-5.3-1.9-1-2-.2-4.4,1.7-5.3s4.3,0,5.3,1.9c1,2,.2,4.4-1.7,5.3Z"/>
    <path class="stSnorkelingAdventure27" d="M266.7,388.4c5.2-10.2,23.2-30.8,36-27.2,1,.3,1.9,1,2.7,1.8-6.8-3.1-15.3,5.2-20.3,9.2-6.2,5.3-12,10.9-18.3,16.2h0Z"/>
    <path class="stSnorkelingAdventure33" d="M296.2,257.1s-8.7-17.1-27.9-9.1c-.5.2-.9.4-1.4.7-3.7,2.3-23.5,13.9-46.2,15.9,0,0-20.9.1-20,25.3l-2.3,29.2s32.5-22,82.1-24.3l35.4-.9-19.8-37Z"/>
    <path class="stSnorkelingAdventure35" d="M278.9,295.7l-6.7-19.1s-4.4-9.9-20.2-6.2c-5.6,1.3-23,2.2-23,2.2,0,0-5.9-1.9,7-3.4,12.9-1.6,31.5-16.1,31.5-16.1,0,0,21.8-17.6,34.7,13.8l13.2,26.7-36.6,2.2Z"/>
    <path class="stSnorkelingAdventure37" d="M198.7,324.9l-.3,8.7s47.2-12.4,79.3-28.2l18.3-7.2s-32.9-7.6-93.5,21.2c-2.2,1-3.7,3-3.8,5.5Z"/>
    <path class="stSnorkelingAdventure44" d="M198.2,316.4s48.5-27.4,118.5-24.7v4.6s-21.1,1.7-21.1,1.7c0,0-46-3-96.9,23.7l-.4-5.2Z"/>
    <path class="stSnorkelingAdventure46" d="M155.4,358.1c0,0,1.4-.4,1.4-.4,1.3-.6,22.2-.9,59.9-12,0,0,11.2-1.2,66.4-29.2,0,0,0,0,0,0,1.6-.7,42.9-18.6,59.6-11.9.2,0,1.4.1,1.6.1,1.3,0,7.1.1,7.1-2.3,0-.6-.5-1.2-1.1-1.4-5.1-1.6-36.7-10.1-83.2,11.3,0,0-47.9,20.6-78.6,27.2,0,0,0,0,0,0-1.4.4-32.9,9.6-37.2,17.1s-.1.3,0,.5c0,.7-.4,2.4,4.1.9Z"/>
    <path class="stSnorkelingAdventure25" d="M175.6,370.8l10.5-13.5-33.9.4c-.5,0-.8.4-.8.8,0,2.4,1.7,9.7,24.3,12.3Z"/>
    <path class="stSnorkelingAdventure38" d="M305.3,314.3s22.5,4,43.5-.4c0,0,6.9-2.1,10.4-6.6s.7-3.4-.8-4.2c-1.2-.7-2.8-1.6-4.4-2.3-2.5-1.1-5.3-1.3-7.9-.5-8.6,2.4-36.5,10.4-40.8,14Z"/>
    <path class="stSnorkelingAdventure47" d="M153.7,357.6c8.3,0,16.4-1.6,24.4-3.4,15.9-3.7,31.4-9.1,46.7-14.9,31-11.3,60.3-29.5,93.6-34.4,8.4-1,17-.9,25.3.9-8.2.6-16.3,2.1-24.2,4.5-23.7,7.3-44.6,20-67.7,29.7-15.5,6.7-31.4,12.1-47.9,15.7-9.3,2-18.7,3.5-28.2,3.9-7.3.2-14.9.1-22-2.1h0Z"/>
    <g>
      <g>
        <path class="stSnorkelingAdventure31" d="M367.5,391.1s16.4-12.8,26.6-16.6,23.2-4.8,25.7,0c2.5,4.8-4,22.8-16.9,30.2,0,0-17.2,14.6-38.8.3,0,0-1.9-.6-1.2-2.8.7-2.2,4.7-11,4.7-11Z"/>
        <path class="stSnorkelingAdventure31" d="M396.3,408.6c-1.4.6-3,1.2-4.7,1.6-6.4,1.7-16.4,2.2-27.6-5.2-.1,0-.9-.3-1.2-1.1-.3-.5-.3-1.2,0-1.9.7-2.1,4.6-11,4.7-11.1h0s0,0,0,0c.2-.1,16.5-12.8,26.7-16.7,10.4-3.9,23.3-4.8,25.9,0,1.3,2.5.2,8.3-2.7,14.2-3.4,7-8.6,12.9-14.3,16.1,0,0-2.5,2.1-6.7,3.9ZM367.6,391.2c-.3.6-3.9,8.9-4.6,11-.2.6-.2,1.2,0,1.7.3.7,1.1.9,1.1.9h0c11.1,7.4,21,6.9,27.4,5.2,6.9-1.8,11.2-5.4,11.3-5.5,12.5-7.1,19.5-25.1,16.9-30-2.4-4.7-15.4-3.7-25.5,0-9.9,3.7-25.8,16-26.6,16.6Z"/>
      </g>
      <path class="stSnorkelingAdventure24" d="M366.4,396.9c.2-.5.5-.9.9-1.3,2.2-2.5,12.5-13.7,22.3-16.5,10.8-3.2,20.2-7.3,28.1-3.9.4.2.8.6.9,1,.7,2.4,1.3,10.8-16,26.5,0,0-12.3,11.3-32.1,5.1-3.9-1.2-6.1-5.3-4.8-9.2.2-.6.4-1.2.8-1.8Z"/>
      <path class="stSnorkelingAdventure40" d="M373,394.1c5.8-3.7,12-6.9,18.4-9.4,4.8-2,9.8-3.5,15-4.1,1.7-.2,3.5-.2,5.2-.2h0c-1.7.4-3.4.6-5.1.9-5,1.1-9.9,2.4-14.8,4.1-6.4,2.4-12.7,5.3-18.6,8.7,0,0,0,0,0,0h0Z"/>
      <path class="stSnorkelingAdventure40" d="M369.3,401.8c4.4,1.2,9,1.8,13.5,1.9,2,0,4-.2,6-.3,2.6-.2,5.1-.5,7.7-.8,0,0,0,.1,0,.1-.8.3-1.7.6-2.5.9-1.7.5-3.4.8-5.1,1-2,.2-4.1.1-6.1,0-3.5-.2-6.9-.7-10.2-1.6-1.1-.3-2.2-.6-3.3-1h0Z"/>
      <path class="stSnorkelingAdventure40" d="M373.9,398.2c4.9-1.7,10-3,15.1-4.1,5.1-1.1,10.5-2,15.6-.4,0,0,0,.1,0,.1-2.6-.2-5.1,0-7.7.3-2.6.3-5.1.5-7.7,1-5.1.8-10.2,2-15.2,3.3,0,0,0-.1,0-.1h0Z"/>
      <path class="stSnorkelingAdventure40" d="M366.6,392.1c11.8-10,35.3-26.7,51.2-20.3,1.6.6,2.8,2,3.3,3.6.4,1.5.3,3.1,0,4.7-.2,1.5-.5,3-1,4.4-2.7,8.6-8.8,15.8-16,21-1.9,1.3-3.7,2.5-5.7,3.5-1.1.5-2.2.9-3.3,1.4-8.9,3.9-19.5,2.7-27.6-2.5-1.6-1-3-2.1-4.4-3.3,0,0,.1-.2.1-.2,1.5,1,3.1,2,4.7,2.8,8,4.3,18,5.1,26.4,1.1,1.4-.6,2.8-1.1,4.1-1.9,4-2.3,7.7-5.1,11-8.3,4-4,7.3-8.8,9.1-14.1.4-1.3.8-2.7,1-4.1.2-1.3.4-2.7,0-4-.3-1.2-1.2-2.2-2.4-2.6-3.9-1.7-8.3-1.8-12.4-1.1-11.4,2.1-21.6,8.3-31.1,14.8-2.4,1.7-4.7,3.4-7,5.3v-.2h-.1Z"/>
    </g>
    <path class="stSnorkelingAdventure45" d="M157.6,443.8s-10.3-12.2-4-20.4c0,0,10.6-14.5,43.1-18.7,0,0-10.9-4.7-33.9,4.7,0,0-30.4,11.1-10.9,30.5,0,0,3,3.5,5.7,3.8Z"/>
    <path class="stSnorkelingAdventure26" d="M174.5,445.8c-8.5,1.2-17.7.7-25.1-4.8-6-4.5-7.3-13.3-4.5-20,2.6-6.7,8.9-10.7,15.1-13.5,11.7-5.4,25.5-6.3,37.7-2.9-15.3.4-30.3,3.6-42.6,12.6-6.1,4.6-8.5,14.8-2.6,20.3,5.6,5.3,14.3,7.1,21.9,8.3h0Z"/>
    <path class="stSnorkelingAdventure43" d="M354.6,352.9s13.1,23,11.2,29.5c0,0,112.2-30.3,110.3-113,0,0,6.1-39.2-17.8-59.6,0,0,12,63.7-39.1,113.4,0,0-24.7,22.4-64.6,29.8Z"/>
    <path class="stSnorkelingAdventure47" d="M332.5,331.6c13.7,6.4,25.2,17.6,32.7,30.8,13.3,23.3,10,50.7-7.2,71,0,0-1.5,1.8-1.5,1.8l-1.6,1.7c-3,3.2-6.7,6.4-10,9.1-2.4,1.7-4.9,3.4-7.5,5,1.5-2.6,3.2-5,4.8-7.4,2.1-3.6,4.7-7.4,6.6-11.1,22.2-38.4,9.8-68.2-16.4-100.7h0Z"/>
  </g>
</svg>